<svg xmlns="http://www.w3.org/2000/svg" xmlns:xlink="http://www.w3.org/1999/xlink" version="1.1" x="0px" y="0px" viewBox="0 0 100 125" style="enable-background:new 0 0 100 100;" xml:space="preserve"><title>Go to Current Selection</title><g><path d="M60.7,26.6c-3.2-1.5-6.6-2.3-10.2-2.3l-0.1,4c3,0.1,5.9,0.7,8.6,2L60.7,26.6z"/><path d="M55.6,71c-2.8,0.8-5.9,0.9-8.8,0.5l-0.6,4c1.2,0.2,2.5,0.3,3.7,0.3c2.3,0,4.5-0.3,6.7-0.9L55.6,71z"/><path d="M28.4,52.6c-0.1-0.9-0.2-1.7-0.2-2.6c0-2.1,0.3-4.2,0.9-6.2l-3.8-1.1c-0.7,2.4-1.1,4.8-1.1,7.3c0,1,0.1,2.1,0.2,3.1   L28.4,52.6z"/><path d="M70,41.4c1.2,2.7,1.8,5.6,1.8,8.6v0.1l4-0.1c0-3.5-0.7-7-2.1-10.2L70,41.4z"/><path d="M75.4,54.3l-3.9-0.7c-0.5,2.9-1.6,5.7-3.2,8.2l3.4,2.2C73.6,61,74.8,57.8,75.4,54.3z"/><path d="M46.9,28.4l-0.6-4c-3.5,0.5-6.8,1.7-9.8,3.5l2.1,3.4C41.2,29.9,44,28.9,46.9,28.4z"/><path d="M69.1,67.3l-3-2.7c-2,2.2-4.4,4-7.1,5.2l1.7,3.6C63.8,72,66.7,70,69.1,67.3z"/><path d="M25.3,57.2c1,3.4,2.6,6.5,4.9,9.2l3.1-2.5c-1.9-2.3-3.3-4.9-4.1-7.8L25.3,57.2z"/><path d="M43.4,70.7c-2.8-0.9-5.4-2.4-7.7-4.3l-2.6,3c2.7,2.3,5.7,4.1,9.1,5.1L43.4,70.7z"/><path d="M68.3,38.2l3.4-2.2c-1.9-3-4.4-5.5-7.3-7.5l-2.2,3.3C64.6,33.6,66.7,35.7,68.3,38.2z"/><path d="M35.8,33.5l-2.6-3c-2.7,2.3-4.8,5.1-6.4,8.3l3.6,1.7C31.7,37.8,33.5,35.5,35.8,33.5z"/><circle cx="50" cy="50" r="10.5"/></g>
<!-- <text x="0" y="115" fill="#000000" font-size="5px" font-weight="bold" font-family="'Helvetica Neue', Helvetica, Arial-Unicode, Arial, Sans-serif">Created by mikicon</text><text x="0" y="120" fill="#000000" font-size="5px" font-weight="bold" font-family="'Helvetica Neue', Helvetica, Arial-Unicode, Arial, Sans-serif">from the Noun Project</text> -->
</svg>