<svg xmlns="http://www.w3.org/2000/svg" data-name="Layer 1" viewBox="0 10 100 125" x="0px" y="0px"><title>Reload</title><path d="M86.13,59.37a3,3,0,0,0-3.73,2c-3.61,12.09-14.8,24.28-31.67,24.28-15.93,0-33-13.26-33-33,0-15.93,13.26-33,33-33,10.6,0,19.26,5.37,24.67,11.15l-16.13-.25h0a3,3,0,0,0,0,6l22.6.35a3,3,0,0,0,2.17-.88,3,3,0,0,0,.88-2.17l-.35-22.6a3,3,0,0,0-3-3h0a3,3,0,0,0-3,3l.22,14.21a39.61,39.61,0,0,0-28-11.9c-23.32,0-39,20.16-39,39s15.67,39,39,39c20,0,33.17-14.35,37.42-28.56A3,3,0,0,0,86.13,59.37Z"/>
<!-- <text x="0" y="115" fill="#000000" font-size="5px" font-weight="bold" font-family="'Helvetica Neue', Helvetica, Arial-Unicode, Arial, Sans-serif">Created by Kirsh</text><text x="0" y="120" fill="#000000" font-size="5px" font-weight="bold" font-family="'Helvetica Neue', Helvetica, Arial-Unicode, Arial, Sans-serif">from the Noun Project</text> -->
</svg>