<svg xmlns="http://www.w3.org/2000/svg" xmlns:xlink="http://www.w3.org/1999/xlink" viewBox="22 30 54 40" version="1.1" x="0px" y="0px">
<!-- <title>16.3</title><desc>Created with Sketch.</desc> -->
<g stroke="none" stroke-width="1" fill-rule="evenodd"><g fill-rule="nonzero" stroke-width="2px"><path d="M32,29 L62.7573593,29 L62.7573593,29 C63.5530088,29 64.3160705,29.3160705 64.8786797,29.8786797 L70.1213203,35.1213203 L70.1213203,35.1213203 C70.6839295,35.6839295 71,36.4469912 71,37.2426407 L71,68 C71,69.6568542 69.6568542,71 68,71 L32,71 C30.3431458,71 29,69.6568542 29,68 L29,32 L29,32 C29,30.3431458 30.3431458,29 32,29 L32,29 Z M38,32 L33,32 L33,32 C32.4477153,32 32,32.4477153 32,33 L32,67 C32,67.5522847 32.4477153,68 33,68 L67,68 C67.5522847,68 68,67.5522847 68,67 L68,37.6568542 L68,37.6568542 C68,37.3916378 67.8946432,37.1372838 67.7071068,36.9497475 L63.0502525,32.2928932 L63.0502525,32.2928932 C62.8627162,32.1053568 62.6083622,32 62.3431458,32 L61.8786797,32 C61.3933983,32 61,32.3933983 61,32.8786797 L61,40 C61,41.6568542 59.6568542,43 58,43 L42,43 C40.3431458,43 39,41.6568542 39,40 L39,33 C39,32.4477153 38.5522847,32 38,32 L38,32 Z M53,32 C52.4477153,32 52,32.4477153 52,33 L52,39 C52,39.5522847 52.4477153,40 53,40 L56,40 C56.5522847,40 57,39.5522847 57,39 L57,33 C57,32.4477153 56.5522847,32 56,32 L53,32 Z"/></g></g></svg>