<svg xmlns="http://www.w3.org/2000/svg" xmlns:xlink="http://www.w3.org/1999/xlink" version="1.1" x="0px" y="0px" viewBox="0 0 100 125" enable-background="new 0 0 100 100" xml:space="preserve"><title>Show Timestamp View</title><path fill-rule="evenodd" clip-rule="evenodd" d="M54.023,21.181c-14.246-0.382-26.924,9.86-29.215,24.319  c-2.493,15.725,8.24,30.496,23.969,32.965c14.033,2.227,27.291-6.066,31.75-19.057l8.344,2.885c-1.164,3.371-2.756,6.479-4.75,9.311  l4.371,6.457l-7.15,7.15l-6.51-4.367c-2.826,1.994-5.939,3.609-9.262,4.748l-0.287,7.842l-10,1.566l-2.686-7.365  c-1.732-0.025-3.465-0.166-5.2-0.447c-1.759-0.287-3.445-0.666-5.108-1.168l-4.821,6.154l-9.026-4.582l2.138-7.531  c-2.778-2.117-5.249-4.584-7.363-7.369l-7.531,2.143l-4.609-9l6.176-4.85c-1.021-3.275-1.566-6.742-1.637-10.285l-7.341-2.707  l1.569-9.976l7.839-0.284c1.138-3.374,2.753-6.486,4.723-9.312l-4.371-6.509l7.151-7.148l6.51,4.392  c2.85-1.992,5.986-3.609,9.29-4.75l0.305-7.838L51.27,5L54.023,21.181z"/><g><path d="M68.752,21.434c-0.404,0.706-1.312,0.953-2.018,0.548l-0.346-0.199c-0.707-0.404-0.953-1.313-0.549-2.019l4.271-7.458   c0.404-0.706,1.312-0.952,2.018-0.548l0.342,0.196c0.707,0.404,0.953,1.313,0.549,2.019L68.752,21.434z"/></g><g><path d="M79.422,33.916c-0.703,0.411-1.611,0.171-2.02-0.532l-0.195-0.334c-0.408-0.704-0.168-1.614,0.535-2.024l7.414-4.328   c0.703-0.41,1.613-0.171,2.025,0.53l0.191,0.325c0.41,0.702,0.172,1.612-0.529,2.022L79.422,33.916z"/></g><g><path d="M82.475,50.055c-0.814,0.006-1.482-0.654-1.486-1.467l-0.004-0.387c-0.004-0.812,0.658-1.482,1.471-1.488l8.584-0.062   c0.814-0.006,1.484,0.655,1.492,1.468l0.004,0.381c0.008,0.812-0.65,1.482-1.465,1.49L82.475,50.055z"/></g><g><g><path d="M58.459,49.5c0,2.613-2.115,4.73-4.723,4.73c-0.809,0-1.57-0.205-2.234-0.559l-2.392,2.387l-1.608-1.605l2.312-2.312    c-0.508-0.756-0.809-1.66-0.809-2.641c0-2.605,2.122-4.723,4.731-4.723c1.043,0,2.006,0.337,2.783,0.912l12.449-11.451    l0.615,0.612L58.045,47.564C58.309,48.158,58.459,48.809,58.459,49.5z"/></g></g>
<!-- <text x="0" y="115" fill="#000000" font-size="5px" font-weight="bold" font-family="'Helvetica Neue', Helvetica, Arial-Unicode, Arial, Sans-serif">Created by Aaron K. Kim</text><text x="0" y="120" fill="#000000" font-size="5px" font-weight="bold" font-family="'Helvetica Neue', Helvetica, Arial-Unicode, Arial, Sans-serif">from the Noun Project</text> -->
</svg>