<?xml version="1.0" encoding="utf-8"?>
<!-- Generator: Adobe Illustrator 19.0.0, SVG Export Plug-In . SVG Version: 6.00 Build 0)  -->
<svg version="1.1" id="Capa_1" xmlns="http://www.w3.org/2000/svg" xmlns:xlink="http://www.w3.org/1999/xlink" x="0px" y="0px"
	 viewBox="0 0 13.1 15" style="enable-background:new 0 0 13.1 15;" xml:space="preserve">
<style type="text/css">
	.st0{fill:#C62B31;}
</style>
<g id="XMLID_37_">
	<polygon id="XMLID_29_" class="st0" points="0.1,1.5 0.3,1.9 12.6,1.9 12.9,1.5 6.5,0 	"/>
	<rect id="XMLID_23_" x="0.4" y="2.5" class="st0" width="12.2" height="1.1"/>
</g>
<path id="XMLID_30_" class="st0" d="M1,4.2H2l0.2,0.1c0,0,0.2,2.8,0.2,3.7c0,0.9-0.1,4.5-0.1,4.5L2,12.5h-1l-0.3-0.1
	c0,0-0.2-2.9-0.2-4.4s0.2-3.7,0.2-3.7L1,4.2z"/>
<path id="XMLID_32_" class="st0" d="M11,4.2h1.1l0.2,0.1c0,0,0.2,2.8,0.2,3.7c0,0.9-0.1,4.5-0.1,4.5l-0.3,0.1h-1l-0.3-0.1
	c0,0-0.2-2.9-0.2-4.4s0.2-3.7,0.2-3.7L11,4.2z"/>
<path id="XMLID_34_" class="st0" d="M4.3,4.2h1l0.2,0.1c0,0,0.2,2.8,0.2,3.7c0,0.9-0.1,4.5-0.1,4.5l-0.3,0.1H4.4l-0.3-0.1
	c0,0-0.2-2.9-0.2-4.4s0.2-3.7,0.2-3.7L4.3,4.2z"/>
<path id="XMLID_33_" class="st0" d="M7.7,4.2h1L9,4.2c0,0,0.2,2.8,0.2,3.7c0,0.9-0.1,4.5-0.1,4.5l-0.3,0.1H7.8l-0.3-0.1
	c0,0-0.2-2.9-0.2-4.4s0.2-3.7,0.2-3.7L7.7,4.2z"/>
<g id="XMLID_38_">
	<rect id="XMLID_31_" x="0.4" y="13.1" class="st0" width="12.3" height="0.6"/>
	<rect id="XMLID_35_" y="14.3" class="st0" width="13.1" height="0.7"/>
</g>
</svg>
