<svg xmlns:dc="http://purl.org/dc/elements/1.1/" xmlns:cc="http://creativecommons.org/ns#" xmlns:rdf="http://www.w3.org/1999/02/22-rdf-syntax-ns#" xmlns:svg="http://www.w3.org/2000/svg" xmlns="http://www.w3.org/2000/svg" xmlns:sodipodi="http://sodipodi.sourceforge.net/DTD/sodipodi-0.dtd" xmlns:inkscape="http://www.inkscape.org/namespaces/inkscape" version="1.1" x="0px" y="0px" viewBox="0 -13 100 125"><title>Clear History</title><g transform="translate(0,-952.36218)"><path style="text-indent:0;text-transform:none;direction:ltr;block-progression:tb;baseline-shift:baseline;color:#000000;enable-background:accumulate;" d="M 50 9 C 39.512994 9 28.994127 13.00587 21 21 C 5.0131593 36.98684 5.0131596 63.0131 21 79 C 36.986841 94.9868 63.013159 94.9868 79 79 C 94.986841 63.0131 94.986841 36.98684 79 21 C 71.005874 13.00587 60.487006 9 50 9 z M 50 15 C 58.96309 15 67.904204 18.4042 74.75 25.25 C 87.720564 38.220559 88.383163 58.732147 76.78125 72.5 L 27.46875 23.21875 C 33.970325 17.734366 41.975207 15 50 15 z M 23.21875 27.46875 L 72.53125 76.78125 C 58.76329 88.399111 38.226282 87.726277 25.25 74.75 C 12.273718 61.773723 11.600885 41.236708 23.21875 27.46875 z " transform="translate(0,952.36218)" fill="#000000" fill-opacity="1" stroke="none" marker="none" visibility="visible" display="inline" overflow="visible"/></g>
<!-- <text x="0" y="115" fill="#000000" font-size="5px" font-weight="bold" font-family="'Helvetica Neue', Helvetica, Arial-Unicode, Arial, Sans-serif">Created by Rockicon</text><text x="0" y="120" fill="#000000" font-size="5px" font-weight="bold" font-family="'Helvetica Neue', Helvetica, Arial-Unicode, Arial, Sans-serif">from the Noun Project</text> -->
</svg>