<svg xmlns="http://www.w3.org/2000/svg" data-name="Layer 1" viewBox="0 0 100 125" x="0px" y="0px"><title>14</title><g data-name="Group"><path data-name="Compound Path" d="M82.92,36.75a2,2,0,0,0-.62-1.45L55.83,10.05a2,2,0,0,0-1.38-.55H22.08a5,5,0,0,0-5,5v71a5,5,0,0,0,5,5H77.92a5,5,0,0,0,5-5ZM56.45,16.17,75.93,34.75H56.45ZM77.92,86.5H22.08a1,1,0,0,1-1-1v-71a1,1,0,0,1,1-1H52.45V36.75a2,2,0,0,0,2,2H78.92V85.5A1,1,0,0,1,77.92,86.5Z"/></g>
<!-- <text x="0" y="115" fill="#000000" font-size="5px" font-weight="bold" font-family="'Helvetica Neue', Helvetica, Arial-Unicode, Arial, Sans-serif">Created by Bhuvan</text><text x="0" y="120" fill="#000000" font-size="5px" font-weight="bold" font-family="'Helvetica Neue', Helvetica, Arial-Unicode, Arial, Sans-serif">from the Noun Project</text> -->
</svg>