<svg xmlns:dc="http://purl.org/dc/elements/1.1/" xmlns:cc="http://creativecommons.org/ns#" xmlns:rdf="http://www.w3.org/1999/02/22-rdf-syntax-ns#" xmlns:svg="http://www.w3.org/2000/svg" xmlns="http://www.w3.org/2000/svg" xmlns:sodipodi="http://sodipodi.sourceforge.net/DTD/sodipodi-0.dtd" xmlns:inkscape="http://www.inkscape.org/namespaces/inkscape" version="1.1" viewBox="0 0 100 125" stroke-miterlimit="10" style="" x="0px" y="0px" fill="none" stroke="none"><clipPath><path d="M 0,0 H 415.74802 V 415.74802 H 0 Z" style="" clip-rule="nonzero"/></clipPath><path style="color:#000000;font-style:normal;font-variant:normal;font-weight:normal;font-stretch:normal;font-size:medium;line-height:normal;font-family:sans-serif;font-variant-ligatures:normal;font-variant-position:normal;font-variant-caps:normal;font-variant-numeric:normal;font-variant-alternates:normal;font-feature-settings:normal;text-indent:0;text-align:start;text-decoration:none;text-decoration-line:none;text-decoration-style:solid;text-decoration-color:#000000;letter-spacing:normal;word-spacing:normal;text-transform:none;writing-mode:lr-tb;direction:ltr;text-orientation:mixed;dominant-baseline:auto;baseline-shift:baseline;text-anchor:start;shape-padding:0;clip-rule:nonzero;display:inline;overflow:visible;visibility:visible;opacity:1;isolation:auto;mix-blend-mode:normal;color-interpolation:sRGB;color-interpolation-filters:linearRGB;solid-color:#000000;solid-opacity:1;vector-effect:none;fill:#777777;fill-opacity:1;fill-rule:evenodd;stroke:none;stroke-width:6.32784081;stroke-linecap:butt;stroke-linejoin:round;stroke-miterlimit:10;stroke-dasharray:none;stroke-dashoffset:0;stroke-opacity:1;color-rendering:auto;image-rendering:auto;shape-rendering:auto;text-rendering:auto;enable-background:accumulate" d="M 5.6531292,3.507373 A 3.1642368,3.1642368 0 0 0 2.4892088,6.6712934 V 95.435627 a 3.1642368,3.1642368 0 0 0 3.1639204,3.163924 H 79.623676 c 4.761629,0 9.330441,-1.893371 12.69741,-5.260324 3.366935,-3.366966 5.260325,-7.93577 5.260325,-12.697387 V 6.6712934 A 3.1642368,3.1642368 0 0 0 94.417487,3.507373 Z M 8.8170499,9.8352139 H 34.46674 V 19.05816 H 16.819546 a 3.1642368,3.1642368 0 0 0 -3.16392,3.163921 v 9.864084 a 3.1642368,3.1642368 0 0 0 3.16392,3.16392 H 34.46674 v 7.03849 h -5.47352 a 3.1642368,3.1642368 0 0 0 -3.16392,3.16392 v 9.865619 a 3.1642368,3.1642368 0 0 0 3.16392,3.16392 h 5.47352 V 92.271711 H 8.8170499 Z m 28.8136101,0 H 62.725746 V 42.288575 H 37.63066 v -7.03849 h 17.693545 c 1.798538,0 3.526719,-0.715077 4.798409,-1.98672 1.271746,-1.271746 1.988263,-2.999927 1.988263,-4.79841 V 22.222081 A 3.1642368,3.1642368 0 0 0 58.946957,19.05816 H 37.63066 Z m 28.259006,0 H 91.253563 V 80.64184 c 0,3.085799 -1.224472,6.041399 -3.40647,8.223405 -2.181974,2.181973 -5.137606,3.406466 -8.223417,3.406466 H 65.889666 V 58.482034 h 10.65196 c 1.798483,0 3.526699,-0.716493 4.798422,-1.988263 1.271769,-1.27173 1.988263,-2.999926 1.988263,-4.79841 v -6.242866 a 3.1642368,3.1642368 0 0 0 -3.16392,-3.16392 H 65.889666 Z M 37.63066,58.482034 H 62.725746 V 92.271711 H 37.63066 Z m -20.784854,7.038489 a 3.1642368,3.1642368 0 0 0 -3.16392,3.16392 v 9.81464 a 3.1642368,3.1642368 0 0 0 3.16392,3.163916 h 6.211971 c 1.793627,0 3.517765,-0.713792 4.786055,-1.982081 1.268312,-1.268313 1.982077,-2.990885 1.982077,-4.784497 v -6.211978 a 3.1642368,3.1642368 0 0 0 -3.163921,-3.16392 z"/></svg>