<svg xmlns:dc="http://purl.org/dc/elements/1.1/" xmlns:cc="http://creativecommons.org/ns#" xmlns:rdf="http://www.w3.org/1999/02/22-rdf-syntax-ns#" xmlns:svg="http://www.w3.org/2000/svg" xmlns="http://www.w3.org/2000/svg" xmlns:sodipodi="http://sodipodi.sourceforge.net/DTD/sodipodi-0.dtd" xmlns:inkscape="http://www.inkscape.org/namespaces/inkscape" version="1.1" x="0px" y="0px" viewBox="0 0 100 125"><g transform="translate(0,-952.36218)"><path d="m 17,965.36229 c -3.28938,0 -6,2.71062 -6,6 l 0,61.99981 c 0,3.2894 2.71062,6 6,6 l 66,0 c 3.28938,0 6,-2.7106 6,-6 l 0,-61.99981 c 0,-3.28938 -2.71062,-6 -6,-6 z m 0,4 66,0 c 1.14257,0 2,0.85743 2,2 l 0,43.15621 -12.59375,-12.5937 c -0.76011,-0.7526 -2.14831,-0.7224 -2.875,0.062 L 56.9375,1015.456 37.40625,995.92479 c -0.42223,-0.41568 -1.03615,-0.62819 -1.625,-0.5625 -0.41482,0.0439 -0.81445,0.2215 -1.125,0.5 L 15,1013.7998 15,971.36229 c 0,-1.14257 0.85743,-2 2,-2 z m 39,6 c -5.49916,0 -10,4.50084 -10,10 0,5.49915 4.50084,10 10,10 5.49916,0 10,-4.50085 10,-10 0,-5.49916 -4.50084,-10 -10,-10 z m 0,4 c 3.3374,0 6,2.6626 6,6 0,3.33739 -2.6626,6 -6,6 -3.3374,0 -6,-2.66261 -6,-6 0,-3.3374 2.6626,-6 6,-6 z m -20.0625,20.75001 19.65625,19.6562 c 0.76011,0.7526 2.14831,0.7224 2.875,-0.062 L 71.0625,1006.2373 85,1020.1748 l 0,13.1873 c 0,1.1426 -0.85743,2 -2,2 l -66,0 c -1.14257,0 -2,-0.8574 -2,-2 l 0,-14.1248 z" style="text-indent:0;text-transform:none;direction:ltr;block-progression:tb;baseline-shift:baseline;color:#000000;enable-background:accumulate;" fill="#000000" fill-opacity="1" stroke="none" marker="none" visibility="visible" display="inline" overflow="visible"/></g>
<!-- <text x="0" y="115" fill="#000000" font-size="5px" font-weight="bold" font-family="'Helvetica Neue', Helvetica, Arial-Unicode, Arial, Sans-serif">Created by Alfa Design</text><text x="0" y="120" fill="#000000" font-size="5px" font-weight="bold" font-family="'Helvetica Neue', Helvetica, Arial-Unicode, Arial, Sans-serif">from the Noun Project</text> -->
</svg>