<svg xmlns="http://www.w3.org/2000/svg" xmlns:xlink="http://www.w3.org/1999/xlink" version="1.1" x="0px" y="0px" viewBox="0 0 96 120" style="enable-background:new 0 0 96 96;" xml:space="preserve"><path d="M48,6.5C25.1,6.5,6.5,25.1,6.5,48S25.1,89.5,48,89.5S89.5,70.9,89.5,48S70.9,6.5,48,6.5z M58.4,77.4  c-1.3-2.3-2.7-5.2-4.3-8.6c0.7-0.9,1.4-1.8,2-2.7c0-1,0-2.1,0-3.2c-1.6,0-3.2,0-4.8,0c-0.7-1.3-1.5-2.7-2.2-4  c-0.9,0.1-1.9,0.2-2.8,0.3c-3.3-1.8-6.6-3.7-9.8-5.6c-1-1.3-2-2.6-3-3.9c-1.2,0-2.4,0-3.6,0c-3.2-4.7-5.9-9.2-8-13.2  c0.4-2.1,0.9-4.2,1.4-6.1c-0.6-1.4-1.2-2.7-1.6-3.9c-0.6,0.2-1.2,0.5-1.8,0.7c-0.1-0.8-0.3-1.6-0.4-2.4c0.4,0,0.9,0,1.3,0  c-0.6-0.9-1.1-1.8-1.6-2.5c3-3.3,6.5-6.1,10.5-8.3c1.3-0.1,2.7-0.1,4.1-0.1c-0.8-0.3-1.5-0.6-2.2-0.8c1.3-0.6,2.6-1.1,3.9-1.6  c7-0.7,13.3-0.6,18.4-0.4c0.7,0,1.4,0,2.1,0c0.9-0.1,1.7-0.2,2.5-0.2c0.2,0,0.4,0.1,0.5,0.1c-1,0-2,0-3,0c-0.4,0.1-0.7,0.1-1.1,0.2  c3.2,0.5,7.2,1.5,11.6,3.3c-0.9,0.6-1.9,1.3-3,2c-2.5-0.4-4.9-0.7-7.3-1c0.2-0.8,0.5-1.6,0.7-2.2c-0.8,0-1.6,0-2.3,0  c-0.3,0.4-0.7,0.9-1,1.4c0.3,0.5,0.5,1,0.8,1.5c-1.8-0.1-3.7-0.2-5.5-0.3c-1,0.8-2.1,1.6-3.3,2.6c0.6,0.4,1.3,0.8,2,1.2  c1.4,0.3,2.7,0.6,4.2,0.9c1.3,1.1,2.6,2.4,4,3.7c0.5-1.3,0.9-2.5,1.4-3.7c-0.3-0.2-0.6-0.5-0.9-0.7c0-1.1-0.1-2.1-0.1-3  c2.9,0.4,5.9,0.8,8.9,1.3c2.8,2.1,5.8,4.6,8.7,7.4c-3.1,1.5-6.6,3.3-10.3,5.2c0.1,1.1,0.1,2.2,0.2,3.4c-0.7-0.1-1.4-0.2-2.1-0.3  c-0.6,0.6-1.3,1.3-2,1.9c0.2,0.9,0.3,1.8,0.5,2.7c-1.6,1.4-3.3,2.8-5,4.2c0.5,1.6,1,3.1,1.5,4.7c-0.8,0-1.7,0-2.5,0  c-0.7-1.1-1.4-2.2-2.1-3.2c-2.6,0-5.2,0-7.8,0c-1,1.8-2,3.6-3,5.3c1,0.9,1.9,1.9,2.9,2.8c0.4,0,0.9,0,1.3,0c0.9-0.6,1.9-1.1,2.8-1.7  c0.6,0.3,1.3,0.7,1.9,1c-0.2,1.3-0.5,2.7-0.7,4c0.9,0.1,1.9,0.2,2.8,0.3c0.2,1.4,0.5,2.8,0.7,4.1c1.7,0,3.4,0,5,0  c1.6-0.7,3.3-1.4,4.9-2.1c1.1,0.4,2.3,0.8,3.4,1.2c2.1,0,4.2,0,6.3,0c0.1,1.3,0.1,2.7,0.2,3.9c1.6-0.1,3.2-0.2,4.8-0.3  c0,1.5,0.1,2.9,0.1,4.2c1-0.1,2.1-0.2,3.1-0.2c0.2,0.1,0.3,0.2,0.5,0.3c-5,8.6-13.3,15.1-23.1,17.8c0,0,0,0,0.1-0.1  c1.2-0.8,2.6-2.9,4.1-6.6C61.1,78.1,59.8,77.8,58.4,77.4z M58.8,48c0-0.8,0-1.7,0-2.5c0.9,1.3,1.9,2.6,2.8,3.9  C60.7,48.9,59.7,48.4,58.8,48z M59.5,50.9c-0.2,0.7-0.5,1.5-0.7,2.2c-1.8-0.4-3.7-0.8-5.5-1.2c0.2-0.9,0.4-1.8,0.5-2.7  C55.7,49.8,57.6,50.3,59.5,50.9z M61.9,51.9c3.3,1.4,6.6,2.8,9.7,4.1c-0.6,0.2-1.1,0.5-1.7,0.7c-2.8-1-5.7-2-8.6-3  C61.5,53.1,61.7,52.5,61.9,51.9z"/>
<!-- <text x="0" y="111" fill="#000000" font-size="5px" font-weight="bold" font-family="'Helvetica Neue', Helvetica, Arial-Unicode, Arial, Sans-serif">Created by Sewon Park</text><text x="0" y="116" fill="#000000" font-size="5px" font-weight="bold" font-family="'Helvetica Neue', Helvetica, Arial-Unicode, Arial, Sans-serif">from the Noun Project</text> -->
</svg>