<svg xmlns="http://www.w3.org/2000/svg" xmlns:xlink="http://www.w3.org/1999/xlink" viewBox="0 0 22 27.5" version="1.1" x="0px" y="0px"><title>Help</title><desc>Created with Sketch.</desc><g stroke="none" strokef-width="1" fill="none" fill-rule="evenodd"><g transform="translate(-940.000000, -1415.000000)"><g transform="translate(135.000000, 1322.000000)"><g transform="translate(400.000000, 88.000000)"><g transform="translate(400.000000, 0.000000)"><circle stroke-width="1" cx="16" cy="16" r="10"/><path d="M18.2734375,20.9765625 L18.1015625,21.6796875 C17.5859349,21.8828135 17.1744807,22.0377599 16.8671875,22.1445312 C16.5598943,22.2513026 16.203127,22.3046875 15.796875,22.3046875 C15.1718719,22.3046875 14.6861996,22.1523453 14.3398438,21.8476562 C13.9934879,21.5429672 13.8203125,21.1562523 13.8203125,20.6875 C13.8203125,20.5052074 13.8333332,20.3190114 13.859375,20.1289062 C13.8854168,19.9388011 13.927083,19.7239595 13.984375,19.484375 L14.625,17.203125 C14.682292,16.9843739 14.7304686,16.7773447 14.7695312,16.5820312 C14.8085939,16.3867178 14.828125,16.2083341 14.828125,16.046875 C14.828125,15.7552069 14.7682298,15.5520839 14.6484375,15.4375 C14.5286452,15.3229161 14.2994809,15.265625 13.9609375,15.265625 C13.79427,15.265625 13.6236988,15.2916664 13.4492188,15.34375 C13.2747387,15.3958336 13.1250006,15.4453123 13,15.4921875 L13.171875,14.7890625 C13.5937521,14.6171866 13.9973939,14.4700527 14.3828125,14.3476562 C14.7682311,14.2252598 15.1328108,14.1640625 15.4765625,14.1640625 C16.0963573,14.1640625 16.5742171,14.3138006 16.9101562,14.6132812 C17.2460954,14.9127619 17.4140625,15.3020809 17.4140625,15.78125 C17.4140625,15.8802088 17.4023439,16.0546862 17.3789062,16.3046875 C17.3554686,16.5546888 17.3125003,16.7838531 17.25,16.9921875 L16.609375,19.265625 C16.5572914,19.4479176 16.5104169,19.6562488 16.46875,19.890625 C16.4270831,20.1250012 16.40625,20.3020827 16.40625,20.421875 C16.40625,20.7239598 16.4739577,20.929687 16.609375,21.0390625 C16.7447923,21.148438 16.979165,21.203125 17.3125,21.203125 C17.4687508,21.203125 17.6458323,21.1757815 17.84375,21.1210938 C18.0416677,21.066406 18.1848954,21.0182294 18.2734375,20.9765625 Z M18.4375,11.4375 C18.4375,11.8333353 18.2877619,12.1705715 17.9882812,12.4492188 C17.6888006,12.727866 17.3281271,12.8671875 16.90625,12.8671875 C16.4843729,12.8671875 16.1223973,12.727866 15.8203125,12.4492188 C15.5182277,12.1705715 15.3671875,11.8333353 15.3671875,11.4375 C15.3671875,11.0416647 15.5182277,10.7031264 15.8203125,10.421875 C16.1223973,10.1406236 16.4843729,10 16.90625,10 C17.3281271,10 17.6888006,10.1406236 17.9882812,10.421875 C18.2877619,10.7031264 18.4375,11.0416647 18.4375,11.4375 Z"/></g></g></g></g></g>
<!-- <text x="0" y="37" fill="#000000" font-size="5px" font-weight="bold" font-family="'Helvetica Neue', Helvetica, Arial-Unicode, Arial, Sans-serif">Created by Emmanuel Roy</text><text x="0" y="42" fill="#000000" font-size="5px" font-weight="bold" font-family="'Helvetica Neue', Helvetica, Arial-Unicode, Arial, Sans-serif">from the Noun Project</text> -->
</svg>