<svg xmlns="http://www.w3.org/2000/svg" xmlns:xlink="http://www.w3.org/1999/xlink" version="1.1" x="0px" y="0px" viewBox="0 0 1024 1280" style="enable-background:new 0 0 1024 1024;" xml:space="preserve"><g><g><path d="M807.3,210.5c0,22.2,0,44.4,0,66.6c0,52.8,0,105.6,0,158.4c0,63.5,0,126.9,0,190.4c0,54.2,0,108.5,0,162.7    c0,25.1,0.1,50.2,0,75.3c0,4.3-0.3,8.6-0.8,12.9c0.4-2.7,0.7-5.3,1.1-8c-1.1,8-3.2,15.8-6.3,23.3c1-2.4,2-4.8,3-7.2    c-2.2,5.3-4.9,10.3-8,15.1c-0.3,0.5-2.5,4.3-3,4.3c0.6,0,5.5-6.8,1.5-2c-1.8,2.2-3.7,4.3-5.7,6.3c-2,2-4.1,3.9-6.3,5.7    c-1.9,1.6-5.7,3.5,2-1.5c-1.3,0.8-2.5,1.8-3.7,2.6c-4.9,3.3-10.2,6.1-15.6,8.4c2.4-1,4.8-2,7.2-3c-7.5,3.1-15.3,5.2-23.3,6.3    c2.7-0.4,5.3-0.7,8-1.1c-18.2,2.3-37.2,0.8-55.5,0.8c-37.5,0-75,0-112.5,0c-45.9,0-91.7,0-137.6,0c-39.5,0-78.9,0-118.4,0    c-17.9,0-35.8,0.1-53.7,0c-4.2,0-8.4-0.3-12.6-0.8c2.7,0.4,5.3,0.7,8,1.1c-8-1.1-15.8-3.2-23.3-6.3c2.4,1,4.8,2,7.2,3    c-5.3-2.2-10.3-4.9-15.1-8c-0.5-0.3-4.3-2.5-4.3-3c0,0.6,6.8,5.5,2,1.5c-2.2-1.8-4.3-3.7-6.3-5.7c-2-2-3.9-4.1-5.7-6.3    c-1.6-1.9-3.5-5.7,1.5,2c-0.8-1.3-1.8-2.5-2.6-3.7c-3.3-4.9-6.1-10.2-8.4-15.6c1,2.4,2,4.8,3,7.2c-3.1-7.5-5.2-15.3-6.3-23.3    c0.4,2.7,0.7,5.3,1.1,8c-1.1-9-0.8-18.2-0.8-27.3c0-15.4,0-30.8,0-46.1c0-51.8,0-103.6,0-155.4c0-63.4,0-126.8,0-190.2    c0-55.1,0-110.2,0-165.3c0-26.9,0.4-53.8,0-80.7c0-0.4,0-0.8,0-1.2c0-15.7-13.8-30.7-30-30c-16.3,0.7-30,13.2-30,30    c0,12.2,0,24.4,0,36.6c0,31.6,0,63.2,0,94.8c0,43,0,85.9,0,128.9c0,46.7,0,93.3,0,140c0,42.6,0,85.2,0,127.8c0,30.8,0,61.6,0,92.5    c0,14.2-1,28.8,0.5,43c2.1,19.9,7.6,39.3,18.8,56.2c10.7,16.3,24.9,30.3,41.8,40.1c19.7,11.4,41.9,16.5,64.5,16.5    c23.1,0,46.2,0,69.3,0c42.1,0,84.3,0,126.4,0c45.8,0,91.7,0,137.5,0c34.2,0,68.4,0,102.6,0c8,0,15.9,0,23.9,0    c23.2,0,46.4-5.6,66.2-17.9c34.8-21.5,56.2-58.5,58.7-99.1c0.3-4.7,0.2-9.4,0.2-14.1c0-22.3,0-44.6,0-66.9c0-37.8,0-75.7,0-113.5    c0-45.7,0-91.3,0-137c0-45.7,0-91.4,0-137.2c0-38.1,0-76.2,0-114.4c0-22.5,0-44.9,0-67.4c0-3,0-6,0-9c0-15.7-13.8-30.7-30-30    C821,181.2,807.3,193.6,807.3,210.5L807.3,210.5z"/><path d="M920.3,175.5c-7.3,0-14.5,0-21.8,0c-19.8,0-39.5,0-59.3,0c-29.4,0-58.8,0-88.2,0c-35.7,0-71.4,0-107.1,0    c-39.1,0-78.2,0-117.3,0c-39.5,0-79,0-118.4,0c-36.8,0-73.6,0-110.5,0c-31.1,0-62.2,0-93.4,0c-22.4,0-44.8,0-67.2,0    c-10.6,0-21.3-0.1-32,0c-0.5,0-0.9,0-1.4,0c-15.7,0-30.7,13.8-30,30c0.7,16.3,13.2,30,30,30c7.3,0,14.5,0,21.8,0    c19.8,0,39.5,0,59.3,0c29.4,0,58.8,0,88.2,0c35.7,0,71.4,0,107.1,0c39.1,0,78.2,0,117.3,0c39.5,0,79,0,118.4,0    c36.8,0,73.6,0,110.5,0c31.1,0,62.2,0,93.4,0c22.4,0,44.8,0,67.2,0c10.6,0,21.3,0.1,32,0c0.5,0,0.9,0,1.4,0    c15.7,0,30.7-13.8,30-30C949.5,189.2,937.1,175.5,920.3,175.5L920.3,175.5z"/><path d="M758.2,205.5c0-20.8,0-41.6,0-62.4c0-11.5,0-22.4-2.1-33.9c-4.4-24-20.5-45.2-40.8-58.2    c-18.5-11.9-39.3-13.8-60.5-13.8c-18,0-36,0-54,0c-53.2,0-106.3,0-159.5,0c-20.9,0-41.7,0-62.6,0c-13.2,0-25.9-0.3-39,1.7    c-24.6,3.9-45.8,19.7-59.5,40c-10.3,15.2-14.5,33.7-14.5,51.9c0,22.8,0,45.6,0,68.4c0,2.1,0,4.2,0,6.3c0,15.7,13.8,30.7,30,30    c16.3-0.7,30-13.2,30-30c0-13.9,0-27.8,0-41.7c0-14.5-1.2-29.6,0.6-44c-0.4,2.7-0.7,5.3-1.1,8c0.8-5.3,2.2-10.5,4.2-15.5    c-1,2.4-2,4.8-3,7.2c1.5-3.4,3.2-6.7,5.3-9.8c0.5-0.7,1-1.4,1.5-2.1c1.7-2.7-4.5,5.3-2.3,3c1.4-1.4,2.5-2.9,3.9-4.3    c1.2-1.2,2.6-2.3,3.8-3.5c3-2.8-3,2.4-3,2.3c0-0.2,1.9-1.4,2.1-1.5c3.3-2.2,6.7-4,10.4-5.6c-2.4,1-4.8,2-7.2,3    c5-2,10.1-3.4,15.5-4.2c-2.7,0.4-5.3,0.7-8,1.1c12.2-1.5,25-0.6,37.3-0.6c25,0,50.1,0,75.1,0c56.8,0,113.6,0,170.3,0    c14.6,0,29.9-1.2,44.4,0.6c-2.7-0.4-5.3-0.7-8-1.1c5.3,0.8,10.5,2.2,15.5,4.2c-2.4-1-4.8-2-7.2-3c3.4,1.5,6.7,3.2,9.8,5.3    c0.7,0.5,1.4,1,2.1,1.5c2.7,1.7-5.3-4.5-3-2.3c1.4,1.4,2.9,2.5,4.3,3.9c1.2,1.2,2.3,2.6,3.5,3.8c2.8,3-2.4-3-2.3-3    c0.2,0,1.4,1.9,1.5,2.1c2.2,3.3,4,6.7,5.6,10.4c-1-2.4-2-4.8-3-7.2c2,5,3.4,10.1,4.2,15.5c-0.4-2.7-0.7-5.3-1.1-8    c1.8,14.4,0.6,29.5,0.6,44c0,13.9,0,27.8,0,41.7c0,15.7,13.8,30.7,30,30C744.5,234.8,758.2,222.3,758.2,205.5L758.2,205.5z"/><path d="M302.7,336.5c0,16.4,0,32.8,0,49.3c0,39.4,0,78.8,0,118.3c0,47.5,0,95,0,142.5c0,41.1,0,82.2,0,123.3    c0,20.1-0.4,40.2,0,60.2c0,0.3,0,0.6,0,0.9c0,15.7,13.8,30.7,30,30c16.3-0.7,30-13.2,30-30c0-16.4,0-32.8,0-49.3    c0-39.4,0-78.8,0-118.3c0-47.5,0-95,0-142.5c0-41.1,0-82.2,0-123.3c0-20.1,0.4-40.2,0-60.2c0-0.3,0-0.6,0-0.9    c0-15.7-13.8-30.7-30-30C316.4,307.2,302.7,319.6,302.7,336.5L302.7,336.5z"/><path d="M542,830.8c0-16.4,0-32.8,0-49.3c0-39.4,0-78.8,0-118.3c0-47.5,0-95,0-142.5c0-41.1,0-82.2,0-123.3    c0-20.1,0.4-40.2,0-60.2c0-0.3,0-0.6,0-0.9c0-15.7-13.8-30.7-30-30c-16.3,0.7-30,13.2-30,30c0,16.4,0,32.8,0,49.3    c0,39.4,0,78.8,0,118.3c0,47.5,0,95,0,142.5c0,41.1,0,82.2,0,123.3c0,20.1-0.4,40.2,0,60.2c0,0.3,0,0.6,0,0.9    c0,15.7,13.8,30.7,30,30C528.3,860.1,542,847.6,542,830.8L542,830.8z"/><path d="M721.3,830.8c0-16.4,0-32.8,0-49.3c0-39.4,0-78.8,0-118.3c0-47.5,0-95,0-142.5c0-41.1,0-82.2,0-123.3    c0-20.1,0.4-40.2,0-60.2c0-0.3,0-0.6,0-0.9c0-15.7-13.8-30.7-30-30c-16.3,0.7-30,13.2-30,30c0,16.4,0,32.8,0,49.3    c0,39.4,0,78.8,0,118.3c0,47.5,0,95,0,142.5c0,41.1,0,82.2,0,123.3c0,20.1-0.4,40.2,0,60.2c0,0.3,0,0.6,0,0.9    c0,15.7,13.8,30.7,30,30C707.6,860.1,721.3,847.6,721.3,830.8L721.3,830.8z"/></g></g>
<!-- <text x="0" y="1039" fill="#000000" font-size="5px" font-weight="bold" font-family="'Helvetica Neue', Helvetica, Arial-Unicode, Arial, Sans-serif">Created by shashank singh</text><text x="0" y="1044" fill="#000000" font-size="5px" font-weight="bold" font-family="'Helvetica Neue', Helvetica, Arial-Unicode, Arial, Sans-serif">from the Noun Project</text> -->
</svg>