<svg xmlns="http://www.w3.org/2000/svg" xmlns:xlink="http://www.w3.org/1999/xlink" version="1.1" x="0px" y="0px" viewBox="0 0 512 640" style="enable-background:new 0 0 512 512;" xml:space="preserve"><g><path d="M434.8,126.6l-60.1-60.1c-5.4-5.5-14.3-5.5-19.7,0L186.4,235c-2.1,2.1-3.5,4.9-4,7.9l-9.8,68.8c-0.6,4.3,0.8,8.7,3.9,11.8   c2.6,2.7,6.3,4.2,10,4.2c0.6,0,1.1,0,1.7-0.1l69.9-8.7c3.1-0.4,6-1.8,8.2-4l168.5-168.5C440.3,140.9,440.3,132.1,434.8,126.6z    M250,291.7l-47,5.8l6.6-46L364.9,96.2l40.3,40.3L250,291.7z"/><path d="M401,395.3c0,14.3-11.3,26.3-25.7,26.3H126.6c-14.3,0-25.6-12-25.6-26.3v-274c0-14.3,11.2-25.6,25.6-25.6H261V67.6H126.6   C96.8,67.6,73,91.4,73,121.2v274c0,29.8,23.8,54.3,53.6,54.3h248.7v0.1c29.8,0,53.7-24.6,53.7-54.3V229.6h-28V395.3z"/></g>
<!-- <text x="0" y="527" fill="#000000" font-size="5px" font-weight="bold" font-family="'Helvetica Neue', Helvetica, Arial-Unicode, Arial, Sans-serif">Created by Manohara</text><text x="0" y="532" fill="#000000" font-size="5px" font-weight="bold" font-family="'Helvetica Neue', Helvetica, Arial-Unicode, Arial, Sans-serif">from the Noun Project</text> -->
</svg>