<svg xmlns:dc="http://purl.org/dc/elements/1.1/" xmlns:cc="http://creativecommons.org/ns#" xmlns:rdf="http://www.w3.org/1999/02/22-rdf-syntax-ns#" xmlns:svg="http://www.w3.org/2000/svg" xmlns="http://www.w3.org/2000/svg" xmlns:sodipodi="http://sodipodi.sourceforge.net/DTD/sodipodi-0.dtd" xmlns:inkscape="http://www.inkscape.org/namespaces/inkscape" viewBox="0 0 16 20" version="1.1" x="0px" y="0px"><g transform="translate(0,-1036.3622)"><path style="color:#000000;font-style:normal;font-variant:normal;font-weight:normal;font-stretch:normal;font-size:medium;line-height:normal;font-family:sans-serif;text-indent:0;text-align:start;text-decoration:none;text-decoration-line:none;text-decoration-style:solid;text-decoration-color:#000000;letter-spacing:normal;word-spacing:normal;text-transform:none;direction:ltr;block-progression:tb;writing-mode:lr-tb;baseline-shift:baseline;text-anchor:start;clip-rule:nonzero;display:inline;overflow:visible;visibility:visible;opacity:1;isolation:auto;mix-blend-mode:normal;color-interpolation:sRGB;color-interpolation-filters:linearRGB;solid-color:#000000;solid-opacity:1;fill:#000000;fill-opacity:1;fill-rule:nonzero;stroke:none;stroke-width:1;stroke-linecap:round;stroke-linejoin:round;stroke-miterlimit:4;stroke-dasharray:none;stroke-dashoffset:0;stroke-opacity:1;color-rendering:auto;image-rendering:auto;shape-rendering:auto;text-rendering:auto;enable-background:accumulate" d="M 8.5 1 C 4.3637867 1 1 4.3638 1 8.5 C 1 12.6362 4.3637867 16 8.5 16 C 12.636213 16 16 12.6362 16 8.5 C 16 4.3638 12.636213 1 8.5 1 z M 8.5 2 C 12.095773 2 15 4.9043 15 8.5 C 15 12.0958 12.095773 15 8.5 15 C 4.9042268 15 2 12.0958 2 8.5 C 2 8.2752687 2.0110541 8.0527738 2.0332031 7.8339844 C 2.3654391 4.5521429 5.1289626 2 8.5 2 z M 8.4921875 4.4941406 A 0.50005 0.50005 0 0 0 8 5 L 8 8 L 5 8 A 0.50005 0.50005 0 1 0 5 9 L 8 9 L 8 12 A 0.50005 0.50005 0 1 0 9 12 L 9 9 L 12 9 A 0.50005 0.50005 0 1 0 12 8 L 9 8 L 9 5 A 0.50005 0.50005 0 0 0 8.4921875 4.4941406 z " transform="translate(0,1036.3622)"/></g>
<!-- <text x="0" y="31" fill="#000000" font-size="5px" font-weight="bold" font-family="'Helvetica Neue', Helvetica, Arial-Unicode, Arial, Sans-serif">Created by Chameleon Design</text><text x="0" y="36" fill="#000000" font-size="5px" font-weight="bold" font-family="'Helvetica Neue', Helvetica, Arial-Unicode, Arial, Sans-serif">from the Noun Project</text> -->
</svg>