<svg xmlns="http://www.w3.org/2000/svg" xmlns:xlink="http://www.w3.org/1999/xlink" viewBox="0 0 120.23 147.78"><defs><style>.cls-1,.cls-2{fill:none;}.cls-2,.cls-6{clip-path:url(#clip-path);}.cls-3{clip-path:url(#clip-path-4);}.cls-4{fill:#eee;}.cls-14,.cls-5{fill:#fff;}.cls-7{fill:#db4437;}.cls-8{fill:#0f9d58;}.cls-9{fill:#ffcd40;}.cls-10{fill:#f1f1f1;}.cls-11{fill:#4285f4;}.cls-12,.cls-13{fill:#212121;}.cls-12,.cls-14{fill-opacity:0.05;}.cls-13{fill-opacity:0.02;}.cls-15{fill:#231f20;fill-opacity:0.1;}.cls-16{fill:url(#radial-gradient);}</style><clipPath id="clip-path"><circle class="cls-1" cx="60.11" cy="100.19" r="47.59"/></clipPath><clipPath id="clip-path-4"><path class="cls-1" d="M5,12.52v87.67a7.54,7.54,0,0,0,7.51,7.52h95.19a7.54,7.54,0,0,0,7.51-7.52V12.52Zm67.63,20h-25a5,5,0,0,1,0-10h25a5,5,0,1,1,0,10Z"/></clipPath><radialGradient id="radial-gradient" cx="72.45" cy="33.81" r="570.08" gradientTransform="matrix(0.25, 0, 0, -0.25, -13.41, 20.56)" gradientUnits="userSpaceOnUse"><stop offset="0" stop-color="#fff" stop-opacity="0.1"/><stop offset="1" stop-color="#fff" stop-opacity="0"/></radialGradient></defs><title>Asset 1</title><g id="Layer_2" data-name="Layer 2"><g id="Layer_1-2" data-name="Layer 1"><g class="cls-3"><path class="cls-4" d="M5,12.52H115.22v95.19H5Z"/></g><g class="cls-3"><path class="cls-5" d="M72.64,22.54h-25a5,5,0,0,0,0,10h25a5,5,0,1,0,0-10Z"/></g><g class="cls-3"><g class="cls-6"><path class="cls-7" d="M20.08,52.6V111h21.3L60.11,78.56h47.6v-26Zm0,0V111h21.3L60.11,78.56h47.6v-26Z"/><path class="cls-8" d="M12.52,147.78h45.3l21-21V111H41.38L12.52,61.52Zm0,0h45.3l21-21V111H41.38L12.52,61.52Z"/><path class="cls-9" d="M60.11,78.56,78.85,111l-21,36.77h49.88V78.56Zm0,0L78.85,111l-21,36.77h49.88V78.56Z"/><circle class="cls-10" cx="60.11" cy="100.19" r="21.64"/><circle class="cls-11" cx="60.11" cy="100.19" r="17.31"/></g><g class="cls-3"><path class="cls-12" d="M5,12.52H115.22V60.11H5Z"/></g><path class="cls-13" d="M5,59.49H115.22v.62H5Z"/><path class="cls-14" d="M5,60.11H115.22v.63H5Z"/><path class="cls-13" d="M72.64,32.56h-25a5,5,0,0,1-5-4.69,3,3,0,0,0,0,.31,5,5,0,0,0,5,5h25a5,5,0,0,0,5-5,3,3,0,0,0,0-.31A5,5,0,0,1,72.64,32.56ZM5,12.52v.63H115.22v-.63Z"/><path class="cls-15" d="M47.59,22.54h25a5,5,0,0,1,5,4.7c0-.11,0-.21,0-.31a5,5,0,0,0-5-5h-25a5,5,0,0,0-5,5c0,.1,0,.2,0,.31A5,5,0,0,1,47.59,22.54Zm60.12,84.54H12.52A7.53,7.53,0,0,1,5,99.57v.62a7.54,7.54,0,0,0,7.51,7.52h95.19a7.54,7.54,0,0,0,7.51-7.52v-.62A7.53,7.53,0,0,1,107.71,107.08Z"/><path class="cls-16" d="M5,12.52v87.67a7.54,7.54,0,0,0,7.51,7.52h95.19a7.54,7.54,0,0,0,7.51-7.52V12.52Zm67.63,20h-25a5,5,0,0,1,0-10h25a5,5,0,1,1,0,10Z"/><path class="cls-1" d="M0,0H120.23V120.23H0Z"/></g></g></g></svg>