<svg width="547" height="128" viewBox="0 0 547 128" fill="none" xmlns="http://www.w3.org/2000/svg">
<rect x="0.5" y="0.5" width="127" height="127" rx="29.5" fill="#4E4E4E" stroke="#333333"/>
<path d="M29 69.1791L39.2533 108.335L43.7334 98.0683L39.3578 79.5369L70.0327 88.6996L79.1954 84.7158L29 69.1791Z" fill="#CCCCCC"/>
<path fill-rule="evenodd" clip-rule="evenodd" d="M77.9462 15L39.812 108.291L47.6344 112.531L50.0789 113.002L91.1465 92.271L88.702 19.7116L86.2575 18.7693L77.9462 15ZM77.2171 61.5486L66.3226 89.2801L77.2171 84.328V61.5486Z" fill="#E4C456"/>
<path d="M39.812 108.291L39.3492 108.101L39.1795 108.516L39.5737 108.73L39.812 108.291ZM77.9462 15L78.1527 14.5446L77.6798 14.3302L77.4833 14.8108L77.9462 15ZM47.6344 112.531L47.3961 112.971L47.464 113.007L47.5397 113.022L47.6344 112.531ZM50.0789 113.002L49.9842 113.493L50.1518 113.525L50.3042 113.449L50.0789 113.002ZM91.1465 92.271L91.3718 92.7173L91.6569 92.5734L91.6462 92.2541L91.1465 92.271ZM88.702 19.7116L89.2017 19.6948L89.1905 19.3641L88.8818 19.2451L88.702 19.7116ZM86.2575 18.7693L86.051 19.2247L86.0641 19.2306L86.0776 19.2359L86.2575 18.7693ZM66.3226 89.2801L65.8572 89.0973L65.406 90.246L66.5295 89.7353L66.3226 89.2801ZM77.2171 61.5486H77.7171L76.7518 61.3658L77.2171 61.5486ZM77.2171 84.328L77.424 84.7832L77.7171 84.65V84.328H77.2171ZM83.3241 46.0969L83.8237 46.079L82.8601 45.9104L83.3241 46.0969ZM84.7908 87.0882L85.0154 87.5349L85.3019 87.3908L85.2904 87.0703L84.7908 87.0882ZM62.3014 98.3961L61.8375 98.2096L61.344 99.4371L62.526 98.8428L62.3014 98.3961ZM77.4529 60.703L76.9889 60.5165L77.4529 60.703ZM40.2748 108.48L78.409 15.1892L77.4833 14.8108L39.3492 108.101L40.2748 108.48ZM47.8727 112.091L40.0503 107.851L39.5737 108.73L47.3961 112.971L47.8727 112.091ZM50.1735 112.511L47.729 112.04L47.5397 113.022L49.9842 113.493L50.1735 112.511ZM90.9211 91.8246L49.8536 112.556L50.3042 113.449L91.3718 92.7173L90.9211 91.8246ZM88.2022 19.7285L90.6467 92.2878L91.6462 92.2541L89.2017 19.6948L88.2022 19.7285ZM86.0776 19.2359L88.5221 20.1782L88.8818 19.2451L86.4373 18.3028L86.0776 19.2359ZM77.7397 15.4554L86.051 19.2247L86.464 18.314L78.1527 14.5446L77.7397 15.4554ZM66.788 89.4629L77.6825 61.7314L76.7518 61.3658L65.8572 89.0973L66.788 89.4629ZM77.0102 83.8729L66.1157 88.8249L66.5295 89.7353L77.424 84.7832L77.0102 83.8729ZM76.7171 61.5486V84.328H77.7171V61.5486H76.7171ZM85.7952 18.5789L47.1721 112.341L48.0967 112.721L86.7198 18.9598L85.7952 18.5789ZM82.8244 46.1147L84.2911 87.106L85.2904 87.0703L83.8237 46.079L82.8244 46.1147ZM84.5662 86.6415L62.0768 97.9494L62.526 98.8428L85.0154 87.5349L84.5662 86.6415ZM62.7653 98.5826L66.1744 90.1016L65.2465 89.7287L61.8375 98.2096L62.7653 98.5826ZM65.9349 90.362L77.1928 84.708L76.744 83.8144L65.4861 89.4683L65.9349 90.362ZM66.1744 90.1016L77.9168 60.8894L76.9889 60.5165L65.2465 89.7287L66.1744 90.1016ZM77.9168 60.8894L83.788 46.2833L82.8601 45.9104L76.9889 60.5165L77.9168 60.8894ZM77.4683 84.2715L77.9528 60.7132L76.953 60.6927L76.4685 84.2509L77.4683 84.2715ZM84.9607 86.6179L77.1383 83.7909L76.7984 84.7314L84.6208 87.5584L84.9607 86.6179Z" fill="#AC8D24"/>
<path d="M469.485 97.5231H511.687" stroke="#AC8D24"/>
<path d="M214.465 71.0146L221.714 98.7001L224.882 91.4408L221.788 78.3381L243.477 84.8166L249.956 81.9999L214.465 71.0146Z" fill="#CCCCCC"/>
<path fill-rule="evenodd" clip-rule="evenodd" d="M249.072 32.7071L222.109 98.6686L227.64 101.667L229.368 102L258.406 87.3419L256.677 36.0385L254.949 35.3722L249.072 32.7071ZM248.557 65.6194L240.854 85.2271L248.557 81.7258V65.6194Z" fill="#E4C456"/>
<path d="M222.109 98.6686L221.646 98.4794L221.477 98.8945L221.871 99.1082L222.109 98.6686ZM249.072 32.7071L249.279 32.2517L248.806 32.0373L248.609 32.5179L249.072 32.7071ZM227.64 101.667L227.402 102.106L227.47 102.143L227.545 102.158L227.64 101.667ZM229.368 102L229.274 102.491L229.441 102.523L229.594 102.446L229.368 102ZM258.406 87.3419L258.631 87.7882L258.916 87.6443L258.905 87.3251L258.406 87.3419ZM256.677 36.0385L257.177 36.0216L257.166 35.691L256.857 35.5719L256.677 36.0385ZM254.949 35.3722L254.742 35.8276L254.755 35.8335L254.769 35.8387L254.949 35.3722ZM240.854 85.2271L240.388 85.0443L239.937 86.193L241.06 85.6823L240.854 85.2271ZM248.557 65.6194H249.057L248.091 65.4366L248.557 65.6194ZM248.557 81.7258L248.763 82.1809L249.057 82.0477V81.7258H248.557ZM252.875 54.6943L253.374 54.6764L252.411 54.5078L252.875 54.6943ZM253.912 83.6774L254.136 84.1241L254.423 83.98L254.411 83.6595L253.912 83.6774ZM238.01 91.6727L237.547 91.4862L237.053 92.7137L238.235 92.1194L238.01 91.6727ZM248.723 65.0216L248.259 64.8351L248.723 65.0216ZM222.572 98.8578L249.535 32.8963L248.609 32.5179L221.646 98.4794L222.572 98.8578ZM227.878 101.227L222.348 98.2291L221.871 99.1082L227.402 102.106L227.878 101.227ZM229.463 101.509L227.735 101.176L227.545 102.158L229.274 102.491L229.463 101.509ZM258.18 86.8955L229.143 101.554L229.594 102.446L258.631 87.7882L258.18 86.8955ZM256.177 36.0553L257.906 87.3587L258.905 87.3251L257.177 36.0216L256.177 36.0553ZM254.769 35.8387L256.497 36.505L256.857 35.5719L255.129 34.9057L254.769 35.8387ZM248.866 33.1625L254.742 35.8276L255.155 34.9168L249.279 32.2517L248.866 33.1625ZM241.319 85.41L249.022 65.8023L248.091 65.4366L240.388 85.0443L241.319 85.41ZM248.35 81.2706L240.647 84.7719L241.06 85.6823L248.763 82.1809L248.35 81.2706ZM248.057 65.6194V81.7258H249.057V65.6194H248.057ZM254.486 35.1818L227.178 101.476L228.102 101.857L255.411 35.5626L254.486 35.1818ZM252.375 54.7122L253.412 83.6953L254.411 83.6595L253.374 54.6764L252.375 54.7122ZM253.687 83.2307L237.786 91.226L238.235 92.1194L254.136 84.1241L253.687 83.2307ZM238.474 91.8592L240.885 85.8627L239.957 85.4897L237.547 91.4862L238.474 91.8592ZM240.645 86.123L248.605 82.1254L248.156 81.2317L240.196 85.2294L240.645 86.123ZM240.885 85.8627L249.187 65.2081L248.259 64.8351L239.957 85.4897L240.885 85.8627ZM249.187 65.2081L253.339 54.8808L252.411 54.5078L248.259 64.8351L249.187 65.2081ZM248.881 81.6888L249.223 65.0319L248.224 65.0113L247.881 81.6683L248.881 81.6888ZM254.082 83.2071L248.551 81.2083L248.211 82.1488L253.742 84.1476L254.082 83.2071Z" fill="#AC8D24"/>
<path d="M428.4 33.1106L455.053 100.855" stroke="black"/>
<path d="M192.839 101.355H193.18L193.305 101.037L219.768 33.2925L220.034 32.6106H219.302H208.769H208.42L208.3 32.938L191.636 78.2347L191.636 78.2347L191.634 78.2409C190.267 82.1113 188.955 86.2312 187.7 90.6003C186.074 85 184.764 80.8746 183.77 78.2327C183.77 78.2322 183.77 78.2318 183.77 78.2313L167.002 32.937L166.881 32.6106H166.533H156H155.268L155.534 33.2925L181.997 101.037L182.122 101.355H182.463H192.839Z" fill="#E4C456" stroke="#AC8D24"/>
<path d="M446.631 101.031L446.753 101.355H447.098H457.274H458.005L457.74 100.674L431.461 32.9298L431.337 32.6106H430.995H419.613H419.273L419.148 32.927L392.397 100.671L392.127 101.355H392.862H403.142H403.489L403.611 101.03L410.675 82.1716H439.514L446.631 101.031ZM425.019 42.4535L425.192 41.9171L427.743 49.2444L427.743 49.2444L427.745 49.2499L436.577 73.689H413.724L421.393 53.1215L421.395 53.1146L421.398 53.1077L425.017 42.4615L425.017 42.4615L425.019 42.4535Z" fill="#E4C456" stroke="#AC8D24"/>
<path d="M468.654 100.855V101.355H469.154H514.687H515.187V100.855V93.0209V92.5209H514.687H479.731V33.1106V32.6106H479.231H469.154H468.654V33.1106V100.855Z" fill="#E4C456" stroke="#AC8D24"/>
<path d="M214.86 33.1106L187.096 100.855" stroke="#AC8D24"/>
<path d="M160.442 33.1106L187.096 100.855" stroke="#AC8D24"/>
<path d="M397.304 100.855L423.957 33.1106" stroke="#AC8D24"/>
<path d="M472.485 33.1106V101.965" stroke="#AC8D24"/>
<path d="M309.476 101.069L309.612 101.355H309.928H321.796H322.296V100.855V33.1106V32.6106H321.796H312.921H312.421V33.1106V76.4991C312.421 79.9627 312.616 83.5718 313.005 87.3261L287.058 32.8954L286.922 32.6106H286.606H275.152H274.652V33.1106V100.855V101.355H275.152H283.923H284.423V100.855V56.8638C284.423 54.5654 284.233 51.2337 283.853 46.8757L309.476 101.069Z" fill="#E4C456" stroke="#AC8D24"/>
<path d="M317.353 33.1106V101.965" stroke="#AC8D24"/>
<path d="M315.132 101.965L281.815 33.1106M277.373 33.1106V101.415" stroke="#AC8D24"/>
<path d="M412.852 78.6436H438.395" stroke="#AC8D24"/>
<path d="M428.4 33.1106L452.832 100.855" stroke="#AC8D24"/>
<path d="M337.281 100.855V101.355H337.781H356.982C366.982 101.355 374.727 98.3392 380.138 92.2483C385.574 86.1342 388.256 77.4619 388.256 66.3048C388.256 55.113 385.434 46.6586 379.7 41.0406C374.001 35.3895 365.374 32.6106 353.92 32.6106H337.781H337.281V33.1106V100.855ZM371.719 47.3634L371.721 47.3649C375.398 51.2474 377.292 57.5213 377.292 66.3048C377.292 75.1567 375.519 81.7031 372.056 86.0294C368.614 90.331 363.33 92.5209 356.1 92.5209H348.193V41.4446H353.972C362.17 41.4446 368.046 43.4534 371.719 47.3634Z" fill="#E4C456" stroke="#AC8D24"/>
<path d="M341.112 33.1106V100.855" stroke="#AC8D24"/>
<path d="M375.54 41.9951C386.156 52.9759 385.651 74.9376 375.54 90.8598" stroke="#AC8D24"/>
</svg>
