<svg width="570" height="128" viewBox="0 0 570 128" fill="none" xmlns="http://www.w3.org/2000/svg">
<g clip-path="url(#clip0)">
<rect x="0.5" y="0.5" width="127" height="127" rx="29.5" fill="#4E4E4E" stroke="#333333"/>
<path d="M29 69.1791L39.2533 108.335L43.7334 98.0683L39.3578 79.5369L70.0327 88.6996L79.1954 84.7158L29 69.1791Z" fill="#CCCCCC"/>
<path fill-rule="evenodd" clip-rule="evenodd" d="M77.9461 15L39.812 108.291L47.6343 112.531L50.0788 113.002L91.1464 92.271L88.7019 19.7116L86.2574 18.7693L77.9461 15ZM77.2171 61.5486L66.3226 89.2801L77.2171 84.328V61.5486Z" fill="#E4C456"/>
<path d="M39.812 108.291L39.3491 108.101L39.1795 108.516L39.5737 108.73L39.812 108.291ZM77.9461 15L78.1527 14.5446L77.6798 14.3302L77.4833 14.8108L77.9461 15ZM47.6343 112.531L47.3961 112.971L47.4639 113.007L47.5397 113.022L47.6343 112.531ZM50.0788 113.002L49.9842 113.493L50.1518 113.525L50.3042 113.449L50.0788 113.002ZM91.1464 92.271L91.3718 92.7173L91.6569 92.5734L91.6462 92.2541L91.1464 92.271ZM88.7019 19.7116L89.2017 19.6948L89.1905 19.3641L88.8818 19.2451L88.7019 19.7116ZM86.2574 18.7693L86.0509 19.2247L86.0641 19.2306L86.0776 19.2359L86.2574 18.7693ZM66.3226 89.2801L65.8572 89.0973L65.4059 90.246L66.5295 89.7353L66.3226 89.2801ZM77.2171 61.5486H77.7171L76.7517 61.3658L77.2171 61.5486ZM77.2171 84.328L77.424 84.7832L77.7171 84.65V84.328H77.2171ZM83.324 46.0969L83.8237 46.079L82.8601 45.9104L83.324 46.0969ZM84.7907 87.0882L85.0153 87.5349L85.3019 87.3908L85.2904 87.0703L84.7907 87.0882ZM62.3013 98.3961L61.8374 98.2096L61.344 99.4371L62.526 98.8428L62.3013 98.3961ZM77.4528 60.703L76.9889 60.5165L76.9889 60.5165L77.4528 60.703ZM40.2748 108.48L78.409 15.1892L77.4833 14.8108L39.3491 108.101L40.2748 108.48ZM47.8726 112.091L40.0502 107.851L39.5737 108.73L47.3961 112.971L47.8726 112.091ZM50.1735 112.511L47.729 112.04L47.5397 113.022L49.9842 113.493L50.1735 112.511ZM90.9211 91.8246L49.8535 112.556L50.3042 113.449L91.3718 92.7173L90.9211 91.8246ZM88.2022 19.7285L90.6467 92.2878L91.6462 92.2541L89.2017 19.6948L88.2022 19.7285ZM86.0776 19.2359L88.5221 20.1782L88.8818 19.2451L86.4373 18.3028L86.0776 19.2359ZM77.7396 15.4554L86.0509 19.2247L86.4639 18.314L78.1527 14.5446L77.7396 15.4554ZM66.788 89.4629L77.6825 61.7314L76.7517 61.3658L65.8572 89.0973L66.788 89.4629ZM77.0102 83.8729L66.1157 88.8249L66.5295 89.7353L77.424 84.7832L77.0102 83.8729ZM76.7171 61.5486V84.328H77.7171V61.5486H76.7171ZM85.7951 18.5789L47.172 112.341L48.0967 112.721L86.7197 18.9598L85.7951 18.5789ZM82.8244 46.1147L84.2911 87.106L85.2904 87.0703L83.8237 46.079L82.8244 46.1147ZM84.5661 86.6415L62.0767 97.9494L62.526 98.8428L85.0153 87.5349L84.5661 86.6415ZM62.7653 98.5826L66.1744 90.1016L65.2465 89.7287L61.8374 98.2096L62.7653 98.5826ZM65.9348 90.362L77.1927 84.708L76.7439 83.8144L65.486 89.4683L65.9348 90.362ZM66.1744 90.1016L77.9168 60.8894L76.9889 60.5165L65.2465 89.7287L66.1744 90.1016ZM77.9168 60.8894L83.788 46.2833L82.8601 45.9104L76.9889 60.5165L77.9168 60.8894ZM77.4682 84.2715L77.9527 60.7132L76.9529 60.6927L76.4684 84.2509L77.4682 84.2715ZM84.9607 86.6179L77.1383 83.7909L76.7984 84.7314L84.6208 87.5584L84.9607 86.6179Z" fill="#AC8D24"/>
<path d="M337.476 101.069L337.612 101.355H337.928H349.796H350.296V100.855V33.1106V32.6106H349.796H340.921H340.421V33.1106V76.4991C340.421 79.9627 340.616 83.5718 341.005 87.3261L315.058 32.8954L314.922 32.6106H314.606H303.152H302.652V33.1106V100.855V101.355H303.152H311.923H312.423V100.855V56.8638C312.423 54.5654 312.233 51.2337 311.853 46.8757L337.476 101.069Z" fill="#E4C456" stroke="#AC8D24"/>
<path d="M227.465 71.0146L234.714 98.7001L237.882 91.4408L234.788 78.3381L256.477 84.8166L262.956 81.9999L227.465 71.0146Z" fill="#CCCCCC"/>
<path fill-rule="evenodd" clip-rule="evenodd" d="M262.072 32.7071L235.109 98.6686L240.64 101.667L242.369 102L271.406 87.3419L269.677 36.0385L267.949 35.3722L262.072 32.7071ZM261.557 65.6194L253.854 85.2271L261.557 81.7258V65.6194Z" fill="#E4C456"/>
<path d="M235.109 98.6686L234.646 98.4794L234.477 98.8945L234.871 99.1082L235.109 98.6686ZM262.072 32.7071L262.279 32.2517L261.806 32.0373L261.609 32.5179L262.072 32.7071ZM240.64 101.667L240.402 102.106L240.47 102.143L240.545 102.158L240.64 101.667ZM242.369 102L242.274 102.491L242.441 102.523L242.594 102.446L242.369 102ZM271.406 87.3419L271.631 87.7883L271.916 87.6443L271.905 87.3251L271.406 87.3419ZM269.677 36.0385L270.177 36.0216L270.166 35.691L269.857 35.5719L269.677 36.0385ZM267.949 35.3722L267.742 35.8276L267.755 35.8335L267.769 35.8387L267.949 35.3722ZM253.854 85.2271L253.388 85.0443L252.937 86.193L254.06 85.6823L253.854 85.2271ZM261.557 65.6194H262.057L261.091 65.4366L261.557 65.6194ZM261.557 81.7258L261.763 82.1809L262.057 82.0477V81.7258H261.557ZM265.875 54.6943L266.374 54.6764L265.411 54.5078L265.875 54.6943ZM266.912 83.6774L267.136 84.1241L267.423 83.98L267.411 83.6595L266.912 83.6774ZM251.01 91.6727L250.547 91.4862L250.053 92.7137L251.235 92.1194L251.01 91.6727ZM261.723 65.0216L261.259 64.8351L261.259 64.8351L261.723 65.0216ZM235.572 98.8578L262.535 32.8963L261.609 32.5179L234.646 98.4794L235.572 98.8578ZM240.878 101.227L235.348 98.2291L234.871 99.1082L240.402 102.106L240.878 101.227ZM242.463 101.509L240.735 101.176L240.545 102.158L242.274 102.491L242.463 101.509ZM271.18 86.8955L242.143 101.554L242.594 102.446L271.631 87.7883L271.18 86.8955ZM269.177 36.0553L270.906 87.3587L271.905 87.3251L270.177 36.0216L269.177 36.0553ZM267.769 35.8387L269.497 36.505L269.857 35.5719L268.129 34.9057L267.769 35.8387ZM261.866 33.1625L267.742 35.8276L268.155 34.9168L262.279 32.2517L261.866 33.1625ZM254.319 85.41L262.022 65.8023L261.091 65.4366L253.388 85.0443L254.319 85.41ZM261.35 81.2706L253.647 84.7719L254.06 85.6823L261.763 82.1809L261.35 81.2706ZM261.057 65.6194V81.7258H262.057V65.6194H261.057ZM267.486 35.1818L240.178 101.476L241.102 101.857L268.411 35.5626L267.486 35.1818ZM265.375 54.7122L266.412 83.6953L267.411 83.6595L266.374 54.6764L265.375 54.7122ZM266.687 83.2307L250.786 91.226L251.235 92.1194L267.136 84.1241L266.687 83.2307ZM251.474 91.8592L253.885 85.8627L252.957 85.4897L250.547 91.4862L251.474 91.8592ZM253.645 86.123L261.605 82.1254L261.156 81.2317L253.196 85.2294L253.645 86.123ZM253.885 85.8627L262.187 65.2081L261.259 64.8351L252.957 85.4897L253.885 85.8627ZM262.187 65.2081L266.339 54.8808L265.411 54.5078L261.259 64.8351L262.187 65.2081ZM261.881 81.6888L262.223 65.0319L261.224 65.0113L260.881 81.6683L261.881 81.6888ZM267.082 83.2071L261.551 81.2083L261.211 82.1488L266.742 84.1476L267.082 83.2071Z" fill="#AC8D24"/>
<path d="M379.281 100.855V101.355H379.781H398.982C408.982 101.355 416.727 98.3392 422.138 92.2483C427.574 86.1342 430.256 77.4619 430.256 66.3048C430.256 55.1128 427.434 46.6583 421.7 41.0403C416.001 35.3895 407.374 32.6106 395.92 32.6106H379.781H379.281V33.1106V100.855ZM413.719 47.3634L413.721 47.3649C417.398 51.2474 419.292 57.5213 419.292 66.3048C419.292 75.1567 417.519 81.7031 414.057 86.0294C410.614 90.331 405.33 92.5209 398.1 92.5209H390.193V41.4446H395.972C404.17 41.4446 410.046 43.4534 413.719 47.3634Z" fill="#E4C456" stroke="#AC8D24"/>
<path d="M476.4 33.1106L503.053 100.855" stroke="black"/>
<path d="M197.839 101.355H198.18L198.305 101.037L224.768 33.2925L225.034 32.6106H224.302H213.769H213.42L213.3 32.938L196.636 78.2347L196.636 78.2347L196.634 78.2409C195.267 82.1113 193.955 86.2312 192.7 90.6003C191.074 84.9998 189.764 80.8743 188.77 78.2324C188.77 78.2321 188.77 78.2317 188.77 78.2313L172.002 32.937L171.881 32.6106H171.533H161H160.268L160.534 33.2925L186.997 101.037L187.122 101.355H187.463H197.839Z" fill="#E4C456" stroke="#AC8D24"/>
<path d="M494.631 101.031L494.753 101.355H495.098H505.274H506.005L505.74 100.674L479.461 32.9298L479.337 32.6106H478.995H467.613H467.273L467.148 32.927L440.397 100.671L440.127 101.355H440.862H451.142H451.489L451.611 101.03L458.675 82.1716H487.514L494.631 101.031ZM473.017 42.4615L473.017 42.4615L473.019 42.4535L473.192 41.9171L475.743 49.2444L475.743 49.2444L475.745 49.2499L484.577 73.689H461.724L469.393 53.1215L469.395 53.1146L469.398 53.1077L473.017 42.4615Z" fill="#E4C456" stroke="#AC8D24"/>
<path d="M523.654 100.855V101.355H524.154H569.687H570.187V100.855V93.0209V92.5209H569.687H534.731V33.1106V32.6106H534.231H524.154H523.654V33.1106V100.855Z" fill="#E4C456" stroke="#AC8D24"/>
<path d="M219.86 33.1106L192.096 100.855" stroke="#AC8D24"/>
<path d="M165.442 33.1106L192.096 100.855" stroke="#AC8D24"/>
<path d="M345.353 33.1106V101.965" stroke="#AC8D24"/>
<path d="M383.112 33.1106V100.855" stroke="#AC8D24"/>
<path d="M445.304 100.855L471.957 33.1106" stroke="#AC8D24"/>
<path d="M527.485 33.1106V101.965" stroke="#AC8D24"/>
<path d="M343.132 101.965L309.815 33.1106M305.373 33.1106V101.415" stroke="#AC8D24"/>
<path d="M460.852 78.6436H486.395" stroke="#AC8D24"/>
<path d="M476.4 33.1106L500.832 100.855" stroke="#AC8D24"/>
<path d="M527.485 97.5231H569.687" stroke="#AC8D24"/>
<path d="M417.54 41.9951C428.156 52.9759 427.651 74.9376 417.54 90.8598" stroke="#AC8D24"/>
</g>
<defs>
<clipPath id="clip0">
<rect width="570" height="128" fill="white"/>
</clipPath>
</defs>
</svg>
