<svg width="547" height="128" viewBox="0 0 547 128" fill="none" xmlns="http://www.w3.org/2000/svg">
<rect x="0.5" y="0.5" width="127" height="127" rx="29.5" fill="#4E4E4E" stroke="#333333"/>
<path d="M29 69.1791L39.2533 108.335L43.7334 98.0683L39.3578 79.5369L70.0327 88.6996L79.1954 84.7158L29 69.1791Z" fill="#CCCCCC"/>
<path fill-rule="evenodd" clip-rule="evenodd" d="M77.9462 15L39.812 108.291L47.6344 112.531L50.0789 113.002L91.1465 92.271L88.702 19.7116L86.2575 18.7693L77.9462 15ZM77.2171 61.5486L66.3226 89.2801L77.2171 84.328V61.5486Z" fill="#E4C456"/>
<path d="M39.812 108.291L39.3492 108.101L39.1795 108.516L39.5737 108.73L39.812 108.291ZM77.9462 15L78.1527 14.5446L77.6798 14.3302L77.4833 14.8108L77.9462 15ZM47.6344 112.531L47.3961 112.971L47.464 113.007L47.5397 113.022L47.6344 112.531ZM50.0789 113.002L49.9842 113.493L50.1518 113.525L50.3042 113.449L50.0789 113.002ZM91.1465 92.271L91.3718 92.7173L91.6569 92.5734L91.6462 92.2541L91.1465 92.271ZM88.702 19.7116L89.2017 19.6948L89.1905 19.3641L88.8818 19.2451L88.702 19.7116ZM86.2575 18.7693L86.051 19.2247L86.0641 19.2306L86.0776 19.2359L86.2575 18.7693ZM66.3226 89.2801L65.8572 89.0973L65.406 90.246L66.5295 89.7353L66.3226 89.2801ZM77.2171 61.5486H77.7171L76.7518 61.3658L77.2171 61.5486ZM77.2171 84.328L77.424 84.7832L77.7171 84.65V84.328H77.2171ZM83.3241 46.0969L83.8237 46.079L82.8601 45.9104L83.3241 46.0969ZM84.7908 87.0882L85.0154 87.5349L85.3019 87.3908L85.2904 87.0703L84.7908 87.0882ZM62.3014 98.3961L61.8375 98.2096L61.344 99.4371L62.526 98.8428L62.3014 98.3961ZM77.4529 60.703L76.9889 60.5165L77.4529 60.703ZM40.2748 108.48L78.409 15.1892L77.4833 14.8108L39.3492 108.101L40.2748 108.48ZM47.8727 112.091L40.0503 107.851L39.5737 108.73L47.3961 112.971L47.8727 112.091ZM50.1735 112.511L47.729 112.04L47.5397 113.022L49.9842 113.493L50.1735 112.511ZM90.9211 91.8246L49.8536 112.556L50.3042 113.449L91.3718 92.7173L90.9211 91.8246ZM88.2022 19.7285L90.6467 92.2878L91.6462 92.2541L89.2017 19.6948L88.2022 19.7285ZM86.0776 19.2359L88.5221 20.1782L88.8818 19.2451L86.4373 18.3028L86.0776 19.2359ZM77.7397 15.4554L86.051 19.2247L86.464 18.314L78.1527 14.5446L77.7397 15.4554ZM66.788 89.4629L77.6825 61.7314L76.7518 61.3658L65.8572 89.0973L66.788 89.4629ZM77.0102 83.8729L66.1157 88.8249L66.5295 89.7353L77.424 84.7832L77.0102 83.8729ZM76.7171 61.5486V84.328H77.7171V61.5486H76.7171ZM85.7952 18.5789L47.1721 112.341L48.0967 112.721L86.7198 18.9598L85.7952 18.5789ZM82.8244 46.1147L84.2911 87.106L85.2904 87.0703L83.8237 46.079L82.8244 46.1147ZM84.5662 86.6415L62.0768 97.9494L62.526 98.8428L85.0154 87.5349L84.5662 86.6415ZM62.7653 98.5826L66.1744 90.1016L65.2465 89.7287L61.8375 98.2096L62.7653 98.5826ZM65.9349 90.362L77.1928 84.708L76.744 83.8144L65.4861 89.4683L65.9349 90.362ZM66.1744 90.1016L77.9168 60.8894L76.9889 60.5165L65.2465 89.7287L66.1744 90.1016ZM77.9168 60.8894L83.788 46.2833L82.8601 45.9104L76.9889 60.5165L77.9168 60.8894ZM77.4683 84.2715L77.9528 60.7132L76.953 60.6927L76.4685 84.2509L77.4683 84.2715ZM84.9607 86.6179L77.1383 83.7909L76.7984 84.7314L84.6208 87.5584L84.9607 86.6179Z" fill="#AC8D24"/>
<path d="M469.485 97.7359H511.687" stroke="#AC8D24"/>
<path d="M214.465 72.4871L221.714 98.8569L224.882 91.9426L221.788 79.4625L243.477 85.6332L249.956 82.9503L214.465 72.4871Z" fill="#CCCCCC"/>
<path fill-rule="evenodd" clip-rule="evenodd" d="M249.072 36L222.109 98.8269L227.64 101.683L229.368 102L258.406 88.0385L256.677 39.1731L254.949 38.5385L249.072 36ZM248.557 67.3483L240.854 86.0242L248.557 82.6892V67.3483Z" fill="#E4C456"/>
<path d="M222.109 98.8269L221.65 98.6298L221.466 99.0576L221.88 99.2712L222.109 98.8269ZM249.072 36L249.27 35.541L248.81 35.3422L248.613 35.8028L249.072 36ZM227.64 101.683L227.411 102.127L227.477 102.161L227.55 102.174L227.64 101.683ZM229.368 102L229.278 102.492L229.438 102.521L229.585 102.451L229.368 102ZM258.406 88.0385L258.622 88.4891L258.917 88.3475L258.905 88.0208L258.406 88.0385ZM256.677 39.1731L257.177 39.1554L257.165 38.8195L256.849 38.7037L256.677 39.1731ZM254.949 38.5385L254.75 38.9975L254.763 39.003L254.776 39.0078L254.949 38.5385ZM240.854 86.0242L240.391 85.8336L239.921 86.9726L241.052 86.4831L240.854 86.0242ZM248.557 67.3483H249.057L248.094 67.1577L248.557 67.3483ZM248.557 82.6892L248.755 83.1481L249.057 83.0176V82.6892H248.557ZM252.875 56.9423L253.374 56.9235L252.414 56.7479L252.875 56.9423ZM253.912 84.5481L254.128 84.999L254.424 84.8573L254.411 84.5293L253.912 84.5481ZM238.01 92.1635L237.55 91.9691L237.037 93.184L238.226 92.6144L238.01 92.1635ZM248.723 66.7789L248.263 66.5844L248.263 66.5844L248.723 66.7789ZM222.569 99.0241L249.532 36.1972L248.613 35.8028L221.65 98.6298L222.569 99.0241ZM227.869 101.238L222.339 98.3827L221.88 99.2712L227.411 102.127L227.869 101.238ZM229.459 101.508L227.73 101.191L227.55 102.174L229.278 102.492L229.459 101.508ZM258.189 87.5879L229.152 101.549L229.585 102.451L258.622 88.4891L258.189 87.5879ZM256.177 39.1908L257.906 88.0562L258.905 88.0208L257.177 39.1554L256.177 39.1908ZM254.776 39.0078L256.505 39.6424L256.849 38.7037L255.121 38.0691L254.776 39.0078ZM248.874 36.459L254.75 38.9975L255.147 38.0795L249.27 35.541L248.874 36.459ZM241.316 86.2149L249.019 67.539L248.094 67.1577L240.391 85.8336L241.316 86.2149ZM248.358 82.2304L240.655 85.5654L241.052 86.4831L248.755 83.1481L248.358 82.2304ZM248.057 67.3483V82.6892H249.057V67.3483H248.057ZM254.49 38.34L227.181 101.484L228.099 101.881L255.408 38.7369L254.49 38.34ZM252.375 56.9611L253.412 84.5669L254.411 84.5293L253.374 56.9235L252.375 56.9611ZM253.696 84.0971L237.795 91.7125L238.226 92.6144L254.128 84.999L253.696 84.0971ZM238.471 92.3579L240.882 86.6464L239.96 86.2575L237.55 91.9691L238.471 92.3579ZM240.637 86.903L248.597 83.0953L248.165 82.1932L240.205 86.0009L240.637 86.903ZM240.882 86.6464L249.184 66.9733L248.263 66.5844L239.96 86.2575L240.882 86.6464ZM249.184 66.9733L253.335 57.1367L252.414 56.7479L248.263 66.5844L249.184 66.9733ZM248.881 82.655L249.223 66.7896L248.224 66.7681L247.881 82.6335L248.881 82.655ZM254.074 84.0753L248.544 82.1715L248.218 83.117L253.749 85.0209L254.074 84.0753Z" fill="#AC8D24"/>
<path d="M428.4 36.3843L455.053 100.909" stroke="black"/>
<path d="M192.839 101.409H193.174L193.301 101.099L219.765 36.5741L220.048 35.8843H219.302H208.769H208.426L208.303 36.2042L191.639 79.3484L191.639 79.3484L191.636 79.3547C190.268 83.0439 188.956 86.9708 187.7 91.1353C186.073 85.7976 184.762 81.865 183.767 79.3462C183.767 79.3457 183.767 79.3453 183.767 79.3449L166.999 36.2032L166.875 35.8843H166.533H156H155.255L155.537 36.5741L182.001 101.099L182.128 101.409H182.463H192.839Z" fill="#E4C456" stroke="#AC8D24"/>
<path d="M446.633 101.093L446.759 101.409H447.098H457.274H458.018L457.737 100.721L431.458 36.1957L431.331 35.8843H430.995H419.613H419.279L419.151 36.1928L392.4 100.718L392.113 101.409H392.862H403.142H403.483L403.608 101.092L410.669 83.1376H439.52L446.633 101.093ZM436.565 75.0107H413.736L421.39 55.4601L421.392 55.4531L421.395 55.4459L425.014 45.3056L425.014 45.3056L425.017 45.2974L425.192 44.7801L427.746 51.7665L427.745 51.7665L427.748 51.7722L436.565 75.0107Z" fill="#E4C456" stroke="#AC8D24"/>
<path d="M468.654 100.909V101.409H469.154H514.687H515.187V100.909V93.4476V92.9476H514.687H479.731V36.3843V35.8843H479.231H469.154H468.654V36.3843V100.909Z" fill="#E4C456" stroke="#AC8D24"/>
<path d="M214.86 36.3843L187.096 100.909" stroke="#AC8D24"/>
<path d="M160.442 36.3843L187.096 100.909" stroke="#AC8D24"/>
<path d="M397.304 100.909L423.957 36.3843" stroke="#AC8D24"/>
<path d="M472.485 36.3843V101.967" stroke="#AC8D24"/>
<path d="M309.48 101.132L309.618 101.409H309.928H321.796H322.296V100.909V36.3843V35.8843H321.796H312.921H312.421V36.3843V77.7109C312.421 81.0059 312.615 84.4388 313.004 88.0094L287.054 36.1606L286.915 35.8843H286.606H275.152H274.652V36.3843V100.909V101.409H275.152H283.923H284.423V100.909V59.0087C284.423 56.8206 284.233 53.6514 283.855 49.5085L309.48 101.132Z" fill="#E4C456" stroke="#AC8D24"/>
<path d="M317.353 36.3843V101.967" stroke="#AC8D24"/>
<path d="M315.132 101.967L281.815 36.3843M277.373 36.3843V101.442" stroke="#AC8D24"/>
<path d="M412.852 79.7535H438.395" stroke="#AC8D24"/>
<path d="M428.4 36.3843L452.832 100.909" stroke="#AC8D24"/>
<path d="M337.281 100.909V101.409H337.781H356.982C366.975 101.409 374.717 98.5399 380.13 92.7363C385.571 86.9073 388.256 78.6372 388.256 68.0011C388.256 57.3309 385.43 49.2678 379.691 43.912C373.992 38.5291 365.369 35.8843 353.92 35.8843H337.781H337.281V36.3843V100.909ZM371.728 49.9848L371.729 49.9863C375.401 53.6782 377.292 59.643 377.292 68.0011C377.292 76.4254 375.521 82.6504 372.064 86.7643C368.624 90.8583 363.338 92.9476 356.1 92.9476H348.193V44.3461H353.972C362.176 44.3461 368.055 46.2617 371.728 49.9848Z" fill="#E4C456" stroke="#AC8D24"/>
<path d="M341.112 36.3843V100.909" stroke="#AC8D24"/>
<path d="M375.54 44.8466C386.156 55.3056 385.651 76.2236 375.54 91.3892" stroke="#AC8D24"/>
</svg>
