<svg width="83" height="125" viewBox="0 0 83 125" fill="none" xmlns="http://www.w3.org/2000/svg">
<path d="M0 77.1439L16.8689 118.145L22.4918 105.259L16.2441 90.6156L27.49 93.5442L31.2387 84.1726L0 77.1439Z" fill="#CCCCCC"/>
<path fill-rule="evenodd" clip-rule="evenodd" d="M65.4321 1L17.5701 118.089L27.3879 123.411L30.456 124.002L81.9998 97.9825L78.9317 6.91357L75.8636 5.73085L65.4321 1ZM64.5173 59.423L50.8436 94.2287L64.5173 88.0134V59.423Z" fill="#E4C456"/>
<path d="M17.5701 118.089L17.1072 117.899L16.9376 118.315L17.3318 118.528L17.5701 118.089ZM65.4321 1L65.6387 0.544641L65.1658 0.330184L64.9693 0.810812L65.4321 1ZM27.3879 123.411L27.1496 123.85L27.2175 123.887L27.2933 123.902L27.3879 123.411ZM30.456 124.002L30.3614 124.493L30.529 124.525L30.6813 124.449L30.456 124.002ZM81.9998 97.9825L82.2251 98.4289L82.5103 98.2849L82.4995 97.9657L81.9998 97.9825ZM78.9317 6.91357L79.4314 6.89673L79.4203 6.56604L79.1115 6.44703L78.9317 6.91357ZM75.8636 5.73085L75.6571 6.18621L75.6703 6.19219L75.6838 6.19739L75.8636 5.73085ZM50.8436 94.2287L50.3782 94.0459L49.9269 95.1946L51.0505 94.6839L50.8436 94.2287ZM64.5173 59.423H65.0173L64.0519 59.2402L64.5173 59.423ZM64.5173 88.0134L64.7242 88.4686L65.0173 88.3354V88.0134H64.5173ZM72.1819 40.0295L72.6816 40.0117L71.718 39.8431L72.1819 40.0295ZM74.0228 91.4776L74.2474 91.9243L74.5339 91.7802L74.5225 91.4597L74.0228 91.4776ZM45.7964 105.67L45.3325 105.484L44.8391 106.711L46.021 106.117L45.7964 105.67ZM50.0752 95.0257L49.6112 94.8392L50.0752 95.0257ZM64.813 58.3616L64.3491 58.1751L64.813 58.3616ZM18.0329 118.278L65.895 1.18919L64.9693 0.810812L17.1072 117.899L18.0329 118.278ZM27.6262 122.971L17.8084 117.649L17.3318 118.528L27.1496 123.85L27.6262 122.971ZM30.5506 123.511L27.4826 122.92L27.2933 123.902L30.3614 124.493L30.5506 123.511ZM81.7745 97.5362L30.2307 123.556L30.6813 124.449L82.2251 98.4289L81.7745 97.5362ZM78.432 6.9304L81.5001 97.9994L82.4995 97.9657L79.4314 6.89673L78.432 6.9304ZM75.6838 6.19739L78.7519 7.3801L79.1115 6.44703L76.0435 5.26432L75.6838 6.19739ZM65.2256 1.45536L75.6571 6.18621L76.0701 5.27549L65.6387 0.544641L65.2256 1.45536ZM51.309 94.4116L64.9826 59.6059L64.0519 59.2402L50.3782 94.0459L51.309 94.4116ZM64.3103 87.5582L50.6367 93.7735L51.0505 94.6839L64.7242 88.4686L64.3103 87.5582ZM64.0173 59.423V88.0134H65.0173V59.423H64.0173ZM75.4013 5.54041L26.9256 123.22L27.8502 123.601L76.3259 5.92129L75.4013 5.54041ZM71.6822 40.0474L73.5231 91.4955L74.5225 91.4597L72.6816 40.0117L71.6822 40.0474ZM73.7982 91.0309L45.5718 105.223L46.021 106.117L74.2474 91.9243L73.7982 91.0309ZM46.2603 105.857L50.5391 95.2122L49.6112 94.8392L45.3325 105.484L46.2603 105.857ZM50.2996 95.4725L64.4293 88.3763L63.9805 87.4826L49.8508 94.5789L50.2996 95.4725ZM50.5391 95.2122L65.2769 58.5481L64.3491 58.1751L49.6112 94.8392L50.5391 95.2122ZM65.2769 58.5481L72.6459 40.216L71.718 39.8431L64.3491 58.1751L65.2769 58.5481ZM64.7048 87.9397L65.3129 58.3719L64.3131 58.3513L63.705 87.9192L64.7048 87.9397ZM74.1927 91.0074L64.3749 87.4592L64.035 88.3997L73.8528 91.9478L74.1927 91.0074Z" fill="#AC8D24"/>
</svg>
