<svg width="45" height="45" viewBox="0 0 45 45" fill="none" xmlns="http://www.w3.org/2000/svg">
<g clip-path="url(#clip0)">
<path d="M34.4531 0.175781H10.5469C4.81908 0.175781 0.175781 4.81908 0.175781 10.5469V34.4531C0.175781 40.1809 4.81908 44.8242 10.5469 44.8242H34.4531C40.1809 44.8242 44.8242 40.1809 44.8242 34.4531V10.5469C44.8242 4.81908 40.1809 0.175781 34.4531 0.175781Z" fill="#4E4E4E" stroke="#333333"/>
<path d="M10.1953 24.3208L13.8 38.0865L15.375 34.4771L13.8367 27.9622L24.6209 31.1834L27.8421 29.7829L10.1953 24.3208Z" fill="#CCCCCC"/>
<path fill-rule="evenodd" clip-rule="evenodd" d="M27.4031 5.27344L13.9966 38.0711L16.7466 39.5617L17.606 39.7273L32.0439 32.439L31.1845 6.92986L30.3251 6.59858L27.4031 5.27344ZM27.1468 21.6382L23.3167 31.3875L27.1468 29.6466V21.6382Z" fill="#E4C456"/>
<path d="M13.9963 38.0711L13.8336 38.0043L13.7739 38.1502L13.9125 38.2254L13.9963 38.0711ZM27.4028 5.27344L27.4754 5.11333L27.3092 5.03796L27.2401 5.20692L27.4028 5.27344ZM16.7464 39.5617L16.6626 39.7164L16.6864 39.729L16.7131 39.7343L16.7464 39.5617ZM17.6057 39.7273L17.5725 39.8999L17.6314 39.9111L17.685 39.8844L17.6057 39.7273ZM32.0436 32.439L32.1228 32.5959L32.223 32.5453L32.2193 32.4331L32.0436 32.439ZM31.1842 6.92986L31.3599 6.92395L31.356 6.80769L31.2474 6.76585L31.1842 6.92986ZM30.3248 6.59858L30.2522 6.75868L30.2568 6.76076L30.2616 6.76262L30.3248 6.59858ZM23.3164 31.3875L23.1528 31.3233L22.9942 31.7271L23.3892 31.5476L23.3164 31.3875ZM27.1466 21.6382H27.3223L26.9829 21.5739L27.1466 21.6382ZM27.1466 29.6466L27.2193 29.8066L27.3223 29.7598V29.6466H27.1466ZM29.2935 16.2059L29.4692 16.1996L29.1304 16.1404L29.2935 16.2059ZM29.8092 30.6169L29.8881 30.774L29.9888 30.7233L29.9848 30.6107L29.8092 30.6169ZM21.9027 34.5924L21.7396 34.5268L21.5662 34.9584L21.9817 34.7494L21.9027 34.5924ZM27.2294 21.3409L27.0663 21.2753L27.2294 21.3409ZM14.159 38.1375L27.5655 5.33995L27.2401 5.20692L13.8336 38.0043L14.159 38.1375ZM16.8301 39.407L14.0801 37.9164L13.9125 38.2254L16.6626 39.7164L16.8301 39.407ZM17.639 39.5546L16.7796 39.3891L16.7131 39.7343L17.5725 39.8999L17.639 39.5546ZM31.9644 32.2821L17.5265 39.5705L17.685 39.8844L32.1228 32.5959L31.9644 32.2821ZM31.0085 6.9358L31.8679 32.4449L32.2193 32.4331L31.3599 6.92395L31.0085 6.9358ZM30.2616 6.76262L31.121 7.0939L31.2474 6.76585L30.388 6.43458L30.2616 6.76262ZM27.3302 5.43354L30.2522 6.75868L30.3974 6.43851L27.4754 5.11333L27.3302 5.43354ZM23.48 31.4518L27.3101 21.7024L26.9829 21.5739L23.1528 31.3233L23.48 31.4518ZM27.0738 29.4866L23.2437 31.2275L23.3892 31.5476L27.2193 29.8066L27.0738 29.4866ZM26.9708 21.6382V29.6466H27.3223V21.6382H26.9708ZM30.1623 6.53164L16.5838 39.4949L16.9089 39.6285L30.4873 6.66555L30.1623 6.53164ZM29.1178 16.2122L29.6335 30.6232L29.9848 30.6107L29.4692 16.1996L29.1178 16.2122ZM29.7302 30.4599L21.8238 34.4353L21.9817 34.7494L29.8881 30.774L29.7302 30.4599ZM22.0658 34.6579L23.2643 31.6763L22.9381 31.5452L21.7396 34.5268L22.0658 34.6579ZM23.1801 31.7679L27.138 29.7802L26.9802 29.466L23.0223 31.4537L23.1801 31.7679ZM23.2643 31.6763L27.3925 21.4064L27.0663 21.2753L22.9381 31.5452L23.2643 31.6763ZM27.3925 21.4064L29.4566 16.2715L29.1304 16.1404L27.0663 21.2753L27.3925 21.4064ZM27.2348 29.6267L27.4052 21.3445L27.0537 21.3373L26.8833 29.6195L27.2348 29.6267ZM29.8689 30.4516L27.1188 29.4577L26.9994 29.7884L29.7494 30.7823L29.8689 30.4516Z" fill="#AC8D24"/>
</g>
<defs>
<clipPath id="clip0">
<rect width="45" height="45" fill="white"/>
</clipPath>
</defs>
</svg>
