<svg width="104" height="126" viewBox="0 0 104 126" fill="none" xmlns="http://www.w3.org/2000/svg">
<path d="M8.11743 51.6719C8.11743 51.6719 11.8222 23.9457 12.8978 21.0775C13.9734 18.2093 21.1838 12.4729 21.1838 12.4729L30.1071 8.32989L41.2613 3.23084C41.2613 3.23084 46.0417 1 50.1847 1C54.3276 1 56.8772 1.95607 56.8772 1.95607L70.5809 6.73644L84.2846 14.7037C84.2846 14.7037 88.4276 17.8906 89.3837 21.0775C90.3397 24.2644 91.9634 38.1702 93.208 49.1223L97.3509 46.8915C97.3509 46.8915 101.175 45.9354 101.813 46.8915C102.45 47.8476 102.45 53.2653 102.45 53.2653L101.813 59.0017L98.6257 67.9251C98.6257 67.9251 95.4388 73.6615 93.208 75.8924C90.9771 78.1232 87.4715 79.0793 87.4715 79.0793L87.2367 80.354L85.2407 91.1895L76.9547 104.893V108.718L68.3501 124.652H30.1071L22.7772 109.036V104.575L16.0847 94.0577L13.8539 76.2111V78.878L8.11743 75.255C5.56791 72.0681 2.38099 62.826 2.38099 62.826L1.42492 59.0017C1.42492 59.0017 0.468848 52.6279 1.42492 50.0784C2.38099 47.5289 3.97445 49.1223 3.97445 49.1223L8.11743 51.6719Z" fill="#DCC18E"/>
<path d="M13.8539 79.0793V78.878M13.8539 78.878V76.2111L16.0847 94.0577L22.7772 104.575V109.036L30.1071 124.652H68.3501L76.9547 108.718V104.893L85.2407 91.1895L87.2367 80.354M13.8539 78.878L8.11743 75.255C5.56791 72.0681 2.38099 62.826 2.38099 62.826L1.42492 59.0017C1.42492 59.0017 0.468848 52.6279 1.42492 50.0784C2.38099 47.5289 3.97445 49.1223 3.97445 49.1223L8.11743 51.6719C8.11743 51.6719 11.8222 23.9457 12.8978 21.0775C13.9734 18.2093 21.1838 12.4729 21.1838 12.4729L30.1071 8.32989L41.2613 3.23084C41.2613 3.23084 46.0417 1 50.1847 1C54.3276 1 56.8772 1.95607 56.8772 1.95607L70.5809 6.73644L84.2846 14.7037C84.2846 14.7037 88.4276 17.8906 89.3837 21.0775C90.3397 24.2644 91.9634 38.1702 93.208 49.1223L97.3509 46.8915C97.3509 46.8915 101.175 45.9354 101.813 46.8915C102.45 47.8476 102.45 53.2653 102.45 53.2653L101.813 59.0017L98.6257 67.9251C98.6257 67.9251 95.4388 73.6615 93.208 75.8924C90.9771 78.1232 87.4715 79.0793 87.4715 79.0793M13.8539 78.878L14.1726 79.0793M87.4715 79.0793V76.5297L87.2367 80.354M87.4715 79.0793L87.2367 80.354" stroke="#73614C" stroke-width="2"/>
<path d="M18.9604 79.7171L21.1913 77.8049C28.4721 71.2343 33.6202 69.8376 43.181 69.8376C43.181 69.8376 27.3701 79.0384 27.2464 81.9479C27.1227 84.8574 29.8769 99.8211 39.3567 106.487C41.7064 101.75 42.8311 98.3237 44.4557 90.5526C49.1245 90.4148 51.7839 90.3687 56.8847 90.5526L62.3024 106.487C68.4332 98.3545 73.5737 86.7785 74.094 81.9479C74.6143 77.1173 58.2016 70.2268 56.8847 69.8376C55.5678 69.4484 72.6559 67.0886 81.1052 76.5301C81.955 77.8049 82.38 78.761 82.38 78.761C82.38 78.761 76.0061 88.9591 76.9622 104.894V108.399L68.2513 124.653H30.3271L22.9972 109.037L22.7847 104.894C23.1034 86.4096 18.9604 79.7171 18.9604 79.7171Z" fill="#333333"/>
<path d="M11.9492 61.5516L21.1913 77.8049M21.1913 77.8049L18.9604 79.7171C18.9604 79.7171 23.1034 86.4096 22.7847 104.894L22.9972 109.037L30.3271 124.653H68.2513L76.9622 108.399V104.894C76.0061 88.9591 82.38 78.761 82.38 78.761C82.38 78.761 81.9551 77.8049 81.1052 76.5301M21.1913 77.8049C28.4721 71.2343 33.6202 69.8376 43.181 69.8376C43.181 69.8376 27.3701 79.0384 27.2464 81.9479C27.1227 84.8574 29.8769 99.8211 39.3567 106.487C41.7064 101.75 42.8311 98.3237 44.4557 90.5526C49.1245 90.4148 51.7839 90.3687 56.8847 90.5526L62.3024 106.487C68.4332 98.3545 73.5737 86.7785 74.094 81.9479C74.6143 77.1173 58.2016 70.2268 56.8847 69.8376C55.5678 69.4484 72.6559 67.0886 81.1052 76.5301M89.7099 61.5516C89.7099 61.5516 80.2554 75.2554 81.1052 76.5301" stroke="#73614C"/>
<path d="M58.1543 60.9129L59.496 60.242C60.0968 59.9416 60.8045 60.3092 60.8406 60.98C60.9074 62.2185 60.8431 64.0181 60.0664 65.0559C59.4249 65.913 58.473 66.6493 58.473 66.6493M41.901 60.9129L41.1663 60.4931C40.4996 60.1121 39.6702 60.5935 39.6702 61.3613V65.0559H41.901L48.7216 69.0977C49.7952 69.7339 51.1506 69.639 52.1251 68.8594L56.8795 65.0559" stroke="#73614C"/>
<path d="M44.7758 41.473L45.4702 42.8618C46.2535 44.4283 46.4211 46.2314 45.9399 47.9154L44.724 52.171C44.3423 53.5071 44.3668 54.9266 44.7946 56.2488L47.644 65.0561M54.3366 46.572C57.8114 50.4843 56.317 55.1718 53.6992 65.0561" stroke="#73614C"/>
<path d="M23.0944 32.5516C20.8635 34.4637 17.3579 39.5628 17.3579 39.5628L24.6878 36.6945L41.5784 39.5628L45.084 37.9693H39.6663C39.6663 37.9693 25.3252 30.6394 23.0944 32.5516Z" fill="#333333"/>
<path d="M80.4588 32.5516C83.6457 32.5516 85.8765 39.5628 85.8765 39.5628C85.8765 39.5628 79.5027 36.6945 78.5466 36.6945L60.3812 39.5628L58.1504 37.9693H61.656C61.656 37.9693 77.2718 32.5516 80.4588 32.5516Z" fill="#333333"/>
<path d="M23.0944 32.5516C20.8635 34.4637 17.3579 39.5628 17.3579 39.5628L24.6878 36.6945L41.5784 39.5628L45.084 37.9693H39.6663C39.6663 37.9693 25.3252 30.6394 23.0944 32.5516Z" stroke="#73614C"/>
<path d="M80.4588 32.5516C83.6457 32.5516 85.8765 39.5628 85.8765 39.5628C85.8765 39.5628 79.5027 36.6945 78.5466 36.6945L60.3812 39.5628L58.1504 37.9693H61.656C61.656 37.9693 77.2718 32.5516 80.4588 32.5516Z" stroke="#73614C"/>
<path d="M33.6218 91.828C39.3021 90.5977 42.1343 88.9993 46.0508 83.2233M55.9303 84.1794C61.4876 89.0684 64.2464 90.8902 67.4032 89.5971M29.1602 79.7177C29.1602 79.7177 32.0284 80.3551 33.9405 80.3551C35.8527 80.3551 50.1938 77.8056 53.062 78.1242C55.9303 78.4429 63.8975 80.3551 66.4471 80.3551C68.9966 80.3551 70.9088 79.7177 70.9088 79.7177" stroke="#73614C"/>
<path d="M79.8295 80.9903C74.1272 74.2678 70.2841 71.7707 61.6641 70.7922C70.9062 69.8361 74.7904 71.0961 81.423 78.4408L79.8295 80.9903Z" fill="#555555"/>
<path d="M19.9155 79.7156L21.8277 81.9464C26.541 76.7492 38.3996 70.7922 36.8062 70.7922C35.2127 70.7922 27.6942 73.6005 19.9155 79.7156Z" fill="#555555"/>
<path d="M39.3558 115.41C33.2735 108.623 30.3967 103.958 25.6521 95.0135V105.53C29.4059 110.671 31.3907 113.662 33.6194 120.19C40.2654 116.853 43.9593 117.385 50.5101 121.146C57.3552 118.384 61.193 118.732 68.0381 121.146C72.3989 113.965 74.0142 101.131 73.1372 101.706C72.2602 102.281 68.3384 110.47 62.939 113.498L58.796 105.53C53.0446 114.893 49.9089 115.271 45.0923 105.53L39.3558 115.41Z" fill="#555555"/>
<path d="M10.9779 56.4522L7.79102 51.3531L12.7839 20.4401L21.3885 12.4729L35.1985 5.78036L47.5212 1H54.32L70.7857 6.73643L84.4894 14.7037L89.2698 20.4401L93.2003 49.441L91.2882 56.4522C90.5489 45.0747 88.7761 39.0101 83.3209 28.7261L87.1452 31.2756C87.1452 31.2756 80.134 12.4729 73.4415 12.4729C66.7489 12.4729 61.6499 14.0663 59.419 14.7037C57.1882 15.3411 55.276 17.2532 55.276 17.2532L54.32 14.0663L50.8144 17.8906L50.3962 17.0542C49.9925 16.247 48.8024 16.3776 48.5835 17.2532L42.8471 16.2971C42.8471 16.2971 39.9789 15.6598 35.1985 14.0663C30.4181 12.4729 25.9564 14.0663 25.9564 14.0663C15.4396 22.3523 15.4396 31.2756 15.4396 31.2756L18.9452 28.7261C10.9779 42.7485 10.9779 56.4522 10.9779 56.4522Z" fill="#333333" stroke="#73614C"/>
<path d="M4.93408 55.4952C4.93408 55.4952 7.37802 55.4952 9.55273 60.2756M11.6266 67.2868C11.0468 64.2223 10.3164 61.9542 9.55273 60.2756M9.55273 60.2756C9.55273 60.2756 4.2967 59.6382 9.55273 72.0672" stroke="#73614C"/>
<path d="M99.2568 52.9464C99.2568 52.9464 95.8438 52.9463 93.3202 59.0015M91.6082 65.0566C92.0684 62.5583 92.6642 60.5753 93.3202 59.0015M93.3202 59.0015C93.3202 59.0015 94.7951 58.0454 96.0698 59.0015C97.3446 59.9575 97.0259 63.1445 91.6082 71.4304" stroke="#73614C"/>
<path d="M66.0056 44.3417C68.8232 40.2571 74.5572 39.9309 79.3906 44.3417" stroke="#73614C"/>
<path d="M65.3838 46.2536C71.5189 43.4741 74.6592 43.945 80.0436 46.2536" stroke="#73614C"/>
<path d="M22.6685 44.3417C25.4861 40.2571 31.22 39.9309 36.0535 44.3417" stroke="#73614C"/>
<path d="M22.04 46.2536C28.1751 43.4741 31.3155 43.945 36.6998 46.2536" stroke="#73614C"/>
<path d="M32.8785 44.9788C31.6037 47.8471 27.7794 49.1218 26.5046 44.9788C26.5046 44.9788 27.142 44.3415 29.3729 44.3415C31.6037 44.3415 32.8785 44.9788 32.8785 44.9788Z" fill="#333333" stroke="#73614C"/>
<path d="M75.4763 44.6874C74.4594 47.6568 70.4449 49.2919 68.8099 45.2774C68.8099 45.2774 69.706 44.5583 71.9282 44.3616C74.1503 44.1649 75.4763 44.6874 75.4763 44.6874Z" fill="#333333" stroke="#73614C"/>
<path d="M68.7422 50.9973C74.3148 54.8512 79.0303 52.5609 79.3976 51.671" stroke="#73614C"/>
<path d="M34.7787 49.4415C30.6158 53.8205 26.8314 56.0503 22.6685 52.8656" stroke="#73614C"/>
<path d="M86.4366 34.2183C86.4366 34.2183 85.1306 31.5937 84.8119 30.9563C84.4932 30.3189 87.8589 32.935 89.9109 33.1871C89.901 34.6642 90.0218 35.4926 90.4481 36.9701L86.4366 34.2183Z" fill="#555555"/>
<path d="M15.3378 35.0991L16.9313 31.5935L11.5135 33.8243C11.7265 34.6955 11.4109 35.5027 11.1948 36.3739L15.3378 35.0991Z" fill="#555555"/>
<path d="M54.2899 7.48053C53.3893 5.85506 28.3375 11.0498 28.3375 11.0498C28.3375 11.0498 39.8783 11.5179 40.4735 10.5117C41.0687 9.50552 54.1691 10.9841 55.7836 10.402C57.3981 9.81989 73.9711 10.0726 73.9711 10.0726L68.304 7.96384C68.304 7.96384 55.1905 9.10599 54.2899 7.48053Z" fill="#555555"/>
</svg>
