<?xml version="1.0" standalone="no"?>
<!DOCTYPE svg PUBLIC "-//W3C//DTD SVG 1.1//EN" "http://www.w3.org/Graphics/SVG/1.1/DTD/svg11.dtd" >
<svg>
<metadata>
Created by FontForge 20090622 at Tue Jun  4 13:56:37 2019
 By deploy user
Digitized data copyright (c) 2010-2012 Google Corporation.
</metadata>
<defs>
<font id="Cousine-Bold" horiz-adv-x="1229" >
  <font-face 
    font-family="Cousine"
    font-weight="700"
    font-stretch="normal"
    units-per-em="2048"
    panose-1="2 7 7 9 2 2 5 2 4 4"
    ascent="1638"
    descent="-410"
    x-height="1082"
    cap-height="1349"
    bbox="-987 -771 1427 2024"
    underline-thickness="205"
    underline-position="-375"
    unicode-range="U+0020-U+FE23"
  />
<missing-glyph 
d="M127 0v752h770v-752h-770zM768 623h-512v-494h512v494z" />
    <glyph glyph-name=".notdef" 
d="M127 0v752h770v-752h-770zM768 623h-512v-494h512v494z" />
    <glyph glyph-name=".null" horiz-adv-x="0" 
 />
    <glyph glyph-name="nonmarkingreturn" 
 />
    <glyph glyph-name="space" unicode=" " 
 />
    <glyph glyph-name="space" unicode="&#xa0;" 
 />
    <glyph glyph-name="exclam" unicode="!" 
d="M730 426h-230l-32 923h294zM468 0v270h288v-270h-288z" />
    <glyph glyph-name="quotedbl" unicode="&#x22;" 
d="M942 844h-199l-37 641h275zM486 844h-199l-37 641h273z" />
    <glyph glyph-name="numbersign" unicode="#" 
d="M951 835l-69 -324h237v-149h-270l-78 -362h-155l79 362h-309l-78 -362h-153l78 362h-174v149h206l70 324h-227v148h259l79 366h153l-78 -366h308l79 366h153l-78 -366h185v-148h-217zM488 835l-70 -324h309l70 324h-309z" />
    <glyph glyph-name="dollar" unicode="$" 
d="M1152 393q0 -181 -121.5 -280.5t-359.5 -108.5v-175h-109v172q-215 8 -335 101.5t-158 286.5l256 47q19 -113 75.5 -165.5t161.5 -62.5v391q-3 2 -15 4.5t-16 2.5q-161 37 -243 87.5t-126.5 128t-44.5 189.5q0 166 113 256.5t332 99.5v134h109v-134q195 -7 300 -86.5
t151 -263.5l-264 -39q-30 172 -187 193v-352l11 -2q29 0 176.5 -48t220.5 -141.5t73 -234.5zM562 1175q-183 -14 -183 -160q0 -45 15 -73.5t45 -48.5t123 -50v332zM892 389q0 50 -18 81.5t-52.5 51.5t-150.5 53v-367q221 15 221 181z" />
    <glyph glyph-name="percent" unicode="%" 
d="M236 0h-175l932 1353h177zM291 1361q283 0 283 -336q0 -167 -73 -254t-214 -87t-214 86t-73 255q0 167 70 251.5t221 84.5zM398 1025q0 107 -26.5 154t-82.5 47t-84.5 -45.5t-28.5 -155.5q0 -108 29 -154.5t84 -46.5q109 0 109 201zM947 665q283 0 283 -336
q0 -167 -73 -254t-214 -87t-214 86t-73 255q0 167 70 251.5t221 84.5zM1054 329q0 107 -26.5 154t-82.5 47t-84.5 -45.5t-28.5 -155.5q0 -108 29 -154.5t84 -46.5q109 0 109 201z" />
    <glyph glyph-name="ampersand" unicode="&#x26;" 
d="M24 369q0 127 80.5 235t221.5 175q-71 142 -71 267q0 148 93.5 229.5t267.5 81.5q153 0 245 -77t92 -207q0 -102 -80 -189t-285 -182q95 -166 214 -302q75 149 108 324l204 -27q-42 -237 -155 -435q85 -73 169 -73q57 0 93 17v-196q-38 -21 -95 -21q-160 0 -300 115
q-164 -123 -359 -123q-212 0 -327.5 100.5t-115.5 287.5zM671 239q-159 176 -262 360q-68 -40 -105 -98t-37 -128q0 -98 55 -154t155 -56q104 0 194 76zM739 1071q0 55 -31 89.5t-94 34.5q-74 0 -112.5 -41.5t-38.5 -109.5q0 -88 52 -185q100 47 140 76t62 62t22 74z" />
    <glyph glyph-name="quotesingle" unicode="'" 
d="M714 844h-199l-37 641h273z" />
    <glyph glyph-name="parenleft" unicode="(" 
d="M641 -425q-157 226 -227 451t-70 505q0 279 70 503.5t227 449.5h281q-158 -228 -229.5 -454t-71.5 -500q0 -273 71 -497.5t230 -457.5h-281z" />
    <glyph glyph-name="parenright" unicode=")" 
d="M307 -425q160 234 230.5 457.5t70.5 497.5q0 275 -72 501.5t-229 452.5h281q158 -227 227.5 -452t69.5 -501q0 -278 -69.5 -503t-227.5 -453h-281z" />
    <glyph glyph-name="asterisk" unicode="*" 
d="M706 1209l235 104l68 -197l-250 -61l186 -213l-184 -121l-146 252l-149 -252l-186 123l190 211l-250 61l68 197l239 -104l-18 274h215z" />
    <glyph glyph-name="plus" unicode="+" 
d="M726 569v-408h-226v408h-399v224h399v408h226v-408h402v-224h-402z" />
    <glyph glyph-name="comma" unicode="," 
d="M258 -363l169 662h315l-311 -662h-173z" />
    <glyph glyph-name="hyphen" unicode="-" 
d="M324 409v244h580v-244h-580z" />
    <glyph glyph-name="hyphen" unicode="&#xad;" 
d="M324 409v244h580v-244h-580z" />
    <glyph glyph-name="period" unicode="." 
d="M470 0v305h289v-305h-289z" />
    <glyph glyph-name="slash" unicode="/" 
d="M89 -20l821 1504h228l-817 -1504h-232z" />
    <glyph glyph-name="zero" unicode="0" 
d="M1111 675q0 -339 -128 -517t-372 -178q-245 0 -369.5 177.5t-124.5 517.5q0 352 121.5 523.5t380.5 171.5q250 0 371 -174t121 -521zM829 675q0 176 -21 278.5t-65 149.5t-126 47q-86 0 -132 -47t-66.5 -149.5t-20.5 -278.5q0 -174 21.5 -277t66.5 -150t127 -47
q116 0 166 109t50 365zM506 555v249h215v-249h-215z" />
    <glyph glyph-name="one" unicode="1" 
d="M149 0v209h389v891q-39 -82 -155.5 -138t-244.5 -56v214q139 0 249 61t166 168h266v-1140h323v-209h-993z" />
    <glyph glyph-name="two" unicode="2" 
d="M123 0v195q50 110 142.5 220.5t269.5 254.5q138 113 179 156t64.5 83.5t23.5 82.5q0 72 -47 113t-138 41q-90 0 -137.5 -48.5t-61.5 -145.5l-283 16q24 196 146.5 299t333.5 103q218 0 345 -99.5t127 -266.5q0 -109 -68.5 -212.5t-205.5 -210.5q-194 -150 -261 -216
t-97 -134h654v-231h-986z" />
    <glyph glyph-name="three" unicode="3" 
d="M1125 376q0 -189 -135.5 -294t-374.5 -105q-230 0 -364.5 100.5t-157.5 290.5l286 25q25 -188 235 -188q105 0 164 50.5t59 137.5t-72.5 133t-207.5 46h-98v227h92q122 0 187.5 46.5t65.5 129.5q0 75 -54.5 123t-145.5 48q-86 0 -142 -40.5t-64 -128.5l-281 20
q22 179 151.5 276t340.5 97q148 0 256.5 -45t166 -126.5t57.5 -188.5q0 -123 -78 -205t-223 -110v-4q157 -18 247 -102.5t90 -212.5z" />
    <glyph glyph-name="four" unicode="4" 
d="M980 287v-287h-268v287h-641v211l595 851h314v-853h188v-209h-188zM712 907q0 54 3.5 117t5.5 81q-26 -56 -94 -162l-320 -447h405v411z" />
    <glyph glyph-name="five" unicode="5" 
d="M1123 454q0 -140 -62.5 -247.5t-181 -167t-278.5 -59.5q-212 0 -339.5 95.5t-157.5 276.5l281 23q22 -90 78 -131t141 -41q108 0 169 64t61 181q0 104 -59 166.5t-165 62.5q-117 0 -191 -91h-274l49 763h847v-209h-592l-23 -326q102 90 255 90q201 0 321.5 -123.5
t120.5 -326.5z" />
    <glyph glyph-name="six" unicode="6" 
d="M1115 446q0 -217 -127 -341.5t-347 -124.5q-245 0 -380.5 183.5t-135.5 508.5q0 354 135.5 526t387.5 172q179 0 282.5 -79t146.5 -245l-265 -37q-38 139 -170 139q-114 0 -178 -108.5t-64 -317.5q45 75 125 115t181 40q185 0 297 -116.5t112 -314.5zM833 438
q0 109 -55.5 170.5t-152.5 61.5q-90 0 -147.5 -55.5t-57.5 -146.5q0 -113 59 -191t153 -78q93 0 147 64t54 175z" />
    <glyph glyph-name="seven" unicode="7" 
d="M1092 1126q-255 -348 -359 -609t-104 -517h-293q0 260 119.5 533.5t375.5 584.5h-700v231h961v-223z" />
    <glyph glyph-name="eight" unicode="8" 
d="M1120 382q0 -188 -133 -295t-372 -107q-237 0 -371.5 106t-134.5 294q0 128 79.5 217t207.5 110v4q-113 25 -183.5 108t-70.5 193q0 164 124.5 261t344.5 97q227 0 350.5 -94t123.5 -266q0 -106 -71 -190t-185 -107v-4q135 -22 213 -109t78 -218zM796 995q0 178 -185 178
q-182 0 -182 -178q0 -91 47.5 -139t136.5 -48q183 0 183 187zM829 405q0 101 -55.5 153.5t-164.5 52.5q-101 0 -156 -55.5t-55 -154.5q0 -223 219 -223q106 0 159 54t53 173z" />
    <glyph glyph-name="nine" unicode="9" 
d="M1106 697q0 -347 -135.5 -532t-390.5 -185q-186 0 -291.5 79.5t-149.5 251.5l264 37q39 -147 180 -147q114 0 179.5 104.5t67.5 313.5q-38 -75 -124.5 -117.5t-186.5 -42.5q-183 0 -294 123t-111 331q0 213 130 335t362 122q244 0 372 -166t128 -507zM809 879
q0 122 -59 196.5t-151 74.5q-91 0 -145.5 -64.5t-54.5 -174.5q0 -108 54.5 -175.5t146.5 -67.5q91 0 150 58.5t59 152.5z" />
    <glyph glyph-name="colon" unicode=":" 
d="M470 0v305h289v-305h-289zM470 780v305h289v-305h-289z" />
    <glyph glyph-name="semicolon" unicode=";" 
d="M479 780v305h289v-305h-289zM326 -363l169 662h315l-311 -662h-173z" />
    <glyph glyph-name="semicolon" unicode="&#x37e;" 
d="M479 780v305h289v-305h-289zM326 -363l169 662h315l-311 -662h-173z" />
    <glyph glyph-name="less" unicode="&#x3c;" 
d="M101 516v322l1027 391v-228l-833 -325l833 -324v-227z" />
    <glyph glyph-name="equal" unicode="=" 
d="M101 842v223h1027v-223h-1027zM101 291v221h1027v-221h-1027z" />
    <glyph glyph-name="greater" unicode="&#x3e;" 
d="M101 125v227l832 324l-832 325v228l1027 -391v-322z" />
    <glyph glyph-name="question" unicode="?" 
d="M1113 986q0 -65 -22.5 -119t-65 -101.5t-194.5 -157.5q-133 -96 -138 -202h-267q6 103 59 184.5t150 148.5q113 77 154 126.5t41 108.5q0 77 -61 123.5t-160 46.5q-101 0 -169.5 -59t-80.5 -156l-285 12q27 203 167 316t364 113q232 0 370 -104t138 -280zM418 0v270h289
v-270h-289z" />
    <glyph glyph-name="at" unicode="@" 
d="M1189 755q0 -298 -82.5 -474.5t-222.5 -176.5q-143 0 -143 157v9l2 39h-6q-36 -94 -99 -149.5t-136 -55.5q-106 0 -165.5 100t-59.5 285q0 161 48.5 304t132 225.5t186.5 82.5q66 0 108 -43.5t56 -129.5h5l33 151h135l-99 -507q-40 -210 -40 -278q0 -34 10 -51t39 -17
q74 0 120.5 143.5t46.5 383.5q0 271 -106 438t-282 167q-149 0 -260 -108.5t-170.5 -302.5t-59.5 -433q0 -308 114.5 -488.5t309.5 -180.5q94 0 181 35t188 123l71 -97q-115 -99 -223 -144t-227 -45q-165 0 -290.5 97t-192.5 279.5t-67 420.5q0 286 77 507.5t220 342
t331 120.5q158 0 274.5 -90.5t179.5 -256t63 -382.5zM755 784q0 195 -109 195q-60 0 -109 -68.5t-77 -183.5t-28 -236q0 -261 94 -261q70 0 121.5 86t79.5 243t28 225z" />
    <glyph glyph-name="A" unicode="A" 
d="M1229 0h-294l-92 330h-456l-92 -330h-295l443 1349h344zM615 1167q-8 -42 -29.5 -125.5t-136.5 -489.5h332q-117 412 -137.5 493t-28.5 122z" />
    <glyph glyph-name="B" unicode="B" 
d="M1186 385q0 -181 -124 -283t-343 -102h-582v1349h525q218 0 330.5 -87.5t112.5 -251.5q0 -115 -66 -193.5t-203 -107.5q171 -18 260.5 -102t89.5 -222zM808 970q0 160 -167 160h-209v-319h211q165 0 165 159zM889 410q0 88 -53 135.5t-154 47.5h-250v-374h257
q200 0 200 191z" />
    <glyph glyph-name="C" unicode="C" 
d="M380 681q0 -225 70 -347t209 -122q162 0 240 244l273 -52q-133 -424 -516 -424q-281 0 -428.5 178.5t-147.5 522.5q0 689 568 689q186 0 311.5 -98t184.5 -291l-272 -66q-29 106 -87 164.5t-133 58.5q-272 0 -272 -457z" />
    <glyph glyph-name="D" unicode="D" 
d="M1149 685q0 -330 -154 -507.5t-439 -177.5h-421v1349h361q328 0 490.5 -164.5t162.5 -499.5zM852 685q0 227 -85.5 331.5t-275.5 104.5h-61v-893h102q320 0 320 457z" />
    <glyph glyph-name="E" unicode="E" 
d="M137 0v1349h968v-228h-673v-324h612v-228h-612v-341h714v-228h-1009z" />
    <glyph glyph-name="F" unicode="F" 
d="M462 1121v-384h621v-228h-621v-509h-295v1349h939v-228h-644z" />
    <glyph glyph-name="G" unicode="G" 
d="M1128 185q-243 -205 -493 -205q-261 0 -408 183.5t-147 517.5q0 689 558 689q180 0 294 -93t168 -282l-274 -54q-53 197 -185 197q-135 0 -198.5 -108t-63.5 -349q0 -223 67 -344t204 -121q53 0 109.5 20t98.5 54v235h-274v218h544v-558z" />
    <glyph glyph-name="H" unicode="H" 
d="M796 0v574h-363v-574h-295v1349h295v-531h363v531h295v-1349h-295z" />
    <glyph glyph-name="I" unicode="I" 
d="M157 1349h916v-228h-311v-893h311v-228h-916v228h311v893h-311v228z" />
    <glyph glyph-name="J" unicode="J" 
d="M564 -20q-196 0 -314 109t-148 313l291 43q20 -118 65 -176t108 -58q73 0 116 59t43 169v679h-301v231h595v-903q0 -218 -121 -342t-334 -124z" />
    <glyph glyph-name="K" unicode="K" 
d="M881 0l-323 557l-127 -142v-415h-295v1349h295v-599l436 599h343l-460 -579l479 -770h-348z" />
    <glyph glyph-name="L" unicode="L" 
d="M211 0v1349h295v-1121h616v-228h-911z" />
    <glyph glyph-name="M" unicode="M" 
d="M908 0v868q0 105 16 301q-59 -290 -75 -341l-124 -468h-218l-126 468q-29 108 -76 341l7 -100q7 -105 7 -201v-868h-220v1349h347l135 -499q15 -47 38 -231q20 155 40 230l136 500h335v-1349h-222z" />
    <glyph glyph-name="N" unicode="N" 
d="M748 0l-384 1010q28 -252 28 -354v-656h-257v1349h337l393 -1037q-28 235 -28 365v672h257v-1349h-346z" />
    <glyph glyph-name="O" unicode="O" 
d="M1157 679q0 -345 -140 -522t-402 -177t-402.5 177t-140.5 522t140.5 518t402.5 173t402 -173t140 -518zM858 679q0 459 -243 459q-244 0 -244 -459q0 -230 61.5 -348.5t182.5 -118.5t182 118.5t61 348.5z" />
    <glyph glyph-name="P" unicode="P" 
d="M1142 923q0 -134 -61 -235.5t-176.5 -156.5t-276.5 -55h-197v-476h-295v1349h480q257 0 391.5 -108.5t134.5 -317.5zM845 918q0 109 -65.5 155.5t-196.5 46.5h-152v-417h160q132 0 193 54.5t61 160.5z" />
    <glyph glyph-name="Q" unicode="Q" 
d="M1157 679q0 -288 -96.5 -458t-281.5 -221q35 -97 98 -141.5t168 -44.5q45 0 123 13v-202q-126 -28 -242 -28q-164 0 -271 92.5t-173 303.5q-200 42 -305 214t-105 472q0 345 140.5 518t402.5 173t402 -173t140 -518zM858 679q0 459 -243 459q-244 0 -244 -459
q0 -230 61.5 -348.5t182.5 -118.5t182 118.5t61 348.5z" />
    <glyph glyph-name="R" unicode="R" 
d="M895 0l-290 515h-173v-515h-295v1349h494q264 0 395 -103t131 -297q0 -137 -74 -233t-205 -135l349 -581h-332zM860 937q0 94 -62 138.5t-198 44.5h-168v-376h176q252 0 252 193z" />
    <glyph glyph-name="S" unicode="S" 
d="M1165 391q0 -192 -146.5 -301.5t-407.5 -109.5q-235 0 -383 99t-190 288l285 37q23 -94 96 -148.5t200 -54.5q132 0 195.5 42t63.5 131q0 66 -56 111.5t-163 71.5q-215 52 -303.5 90.5t-141.5 86.5t-81.5 112.5t-28.5 144.5q0 175 140.5 277t370.5 102q224 0 350 -88.5
t163 -274.5l-286 -29q-44 183 -233 183q-106 0 -162 -39.5t-56 -113.5q0 -49 27 -81.5t73.5 -55t189.5 -59.5q188 -46 289 -102.5t148 -136.5t47 -182z" />
    <glyph glyph-name="T" unicode="T" 
d="M762 1121v-1121h-295v1121h-406v228h1107v-228h-406z" />
    <glyph glyph-name="U" unicode="U" 
d="M599 -20q-246 0 -358 134t-112 414v821h295v-818q0 -175 40.5 -247.5t142.5 -72.5q104 0 151 77t47 253v808h295v-806q0 -286 -123.5 -424.5t-377.5 -138.5z" />
    <glyph glyph-name="V" unicode="V" 
d="M766 0h-299l-464 1349h308l233 -775q27 -88 74 -266l21 86l51 180l232 775h305z" />
    <glyph glyph-name="W" unicode="W" 
d="M1018 0h-248l-64 267q-50 189 -90 369l-35 -147l-44 -177l-78 -312h-248l-211 1349h259l89 -695q12 -96 16 -266l15 76l40 168l99 339h195l99 -339q13 -45 22.5 -88.5l32.5 -155.5l2 27q6 161 16 239l84 695h259z" />
    <glyph glyph-name="X" unicode="X" 
d="M919 0l-303 493l-304 -493h-312l459 711l-418 638h312l263 -430l262 430h310l-428 -638l469 -711h-310z" />
    <glyph glyph-name="Y" unicode="Y" 
d="M761 556v-556h-294v556l-464 793h309l300 -566l304 566h309z" />
    <glyph glyph-name="Z" unicode="Z" 
d="M1138 0h-1051v209l671 909h-595v231h934v-205l-671 -913h712v-231z" />
    <glyph glyph-name="bracketleft" unicode="[" 
d="M373 -425v1909h602v-190h-336v-1528h336v-191h-602z" />
    <glyph glyph-name="backslash" unicode="\" 
d="M908 -20l-817 1504h228l821 -1504h-232z" />
    <glyph glyph-name="bracketright" unicode="]" 
d="M254 -425v191h336v1528h-336v190h602v-1909h-602z" />
    <glyph glyph-name="asciicircum" unicode="^" 
d="M922 514l-326 752l-324 -752h-227l391 895h322l393 -895h-229z" />
    <glyph glyph-name="underscore" unicode="_" 
d="M-5 -220v96h1238v-96h-1238z" />
    <glyph glyph-name="grave" unicode="`" 
d="M687 1184l-340 231v43h258l252 -243v-31h-170z" />
    <glyph glyph-name="a" unicode="a" 
d="M439 -20q-157 0 -245 85.5t-88 240.5q0 168 104.5 255.5t312.5 90.5l223 4v55q0 103 -35 156t-113 53q-73 0 -107.5 -36.5t-42.5 -116.5l-293 14q54 321 455 321q202 0 309.5 -99t107.5 -291v-392q0 -91 20.5 -125.5t68.5 -34.5q32 0 62 6v-152l-45 -11t-40 -8t-42.5 -5
t-52.5 -2q-106 0 -156.5 52t-60.5 153h-6q-63 -113 -143.5 -163t-192.5 -50zM746 501l-134 -2q-90 -2 -130.5 -18.5t-61.5 -53t-21 -99.5q0 -152 120 -152q97 0 162 76.5t65 193.5v55z" />
    <glyph glyph-name="b" unicode="b" 
d="M140 0q8 136 8 236v1248h281v-394l-2 -178h2q41 91 123.5 141t193.5 50q186 0 286 -147t100 -416q0 -254 -106 -407t-289 -153q-104 0 -182.5 49.5t-123.5 146.5h-4q0 -33 -4.5 -91.5t-10.5 -84.5h-272zM425 547q0 -120 26.5 -203t75 -127.5t111.5 -44.5q96 0 148.5 92
t52.5 276q0 183 -51.5 277.5t-151.5 94.5q-98 0 -154.5 -96t-56.5 -269z" />
    <glyph glyph-name="c" unicode="c" 
d="M624 -20q-246 0 -380 146.5t-134 408.5q0 268 135 417.5t383 149.5q191 0 316 -96t157 -265l-283 -14q-12 83 -60 132.5t-136 49.5q-217 0 -217 -363q0 -374 221 -374q80 0 134 50.5t67 150.5l282 -13q-15 -111 -79.5 -198t-169.5 -134.5t-236 -47.5z" />
    <glyph glyph-name="d" unicode="d" 
d="M817 0q-4 15 -9.5 75.5t-5.5 100.5h-4q-53 -107 -131 -151.5t-185 -44.5q-179 0 -282 150t-103 409q0 265 103.5 413t292.5 148q107 0 186 -48.5t121 -142.5h2l-2 178v397h281v-1248q0 -100 8 -236h-272zM804 546q0 173 -56 268t-155 95q-100 0 -151.5 -93.5
t-51.5 -276.5q0 -184 52.5 -275.5t148.5 -91.5q62 0 111 44.5t75.5 127.5t26.5 202z" />
    <glyph glyph-name="e" unicode="e" 
d="M626 -20q-252 0 -389 148.5t-137 417.5q0 180 64.5 304t183.5 188t282 64q237 0 368 -158t131 -449v-8h-734q0 -147 65.5 -233t179.5 -86q74 0 131 31.5t77 97.5l265 -23q-55 -141 -183 -217.5t-304 -76.5zM626 925q-103 0 -164 -69.5t-65 -192.5h460q-7 120 -68.5 191
t-162.5 71z" />
    <glyph glyph-name="f" unicode="f" 
d="M653 892v-892h-280v892h-256v190h256v83q0 174 109.5 261.5t312.5 87.5q159 0 327 -28v-184q-150 19 -278 19q-98 0 -144.5 -40.5t-46.5 -141.5v-57h443v-190h-443z" />
    <glyph glyph-name="g" unicode="g" 
d="M616 -434q-186 0 -303 77t-144 214l281 33q15 -65 62 -103t112 -38q101 0 153 72.5t52 215.5v59l2 115h-2q-93 -199 -328 -199q-179 0 -278 139.5t-99 398.5q0 262 103 405.5t295 143.5q105 0 184 -48.5t123 -142.5h5q0 35 4.5 95t9.5 79h266q-6 -108 -6 -250v-799
q0 -227 -127.5 -347t-364.5 -120zM831 556q0 164 -56 257t-153 93q-100 0 -152.5 -90.5t-52.5 -265.5q0 -174 54 -258.5t149 -84.5q102 0 156.5 94t54.5 255z" />
    <glyph glyph-name="h" unicode="h" 
d="M420 866q57 124 143 180t205 56q168 0 252 -102t84 -314v-686h-280v621q0 151 -40.5 210.5t-132.5 59.5q-102 0 -164.5 -87.5t-62.5 -224.5v-579h-281v1484h281v-405q0 -109 -8 -213h4z" />
    <glyph glyph-name="i" unicode="i" 
d="M794 190h353v-190h-1029v190h395v702h-290v190h571v-892zM513 1277v207h281v-207h-281z" />
    <glyph glyph-name="j" unicode="j" 
d="M864 -13q0 -129 -56.5 -221.5t-161 -141.5t-241.5 -49q-79 0 -161 13t-127 30v210q136 -34 263 -34q110 0 156 53.5t46 162.5v882h-354v190h636v-1095zM583 1277v207h281v-207h-281z" />
    <glyph glyph-name="k" unicode="k" 
d="M864 0l-289 490l-121 -84v-406h-281v1484h281v-850l386 448h302l-380 -422l409 -660h-307z" />
    <glyph glyph-name="l" unicode="l" 
d="M794 190h353v-190h-1029v190h395v1104h-290v190h571v-1294z" />
    <glyph glyph-name="m" unicode="m" 
d="M501 0v658q0 149 -18.5 207t-68.5 58q-51 0 -80.5 -94t-29.5 -247v-582h-229v851q0 189 -6 231h209l6 -127v-48h2q34 102 86 148.5t130 46.5q88 0 131.5 -48t62.5 -148h2q40 106 95.5 151t140.5 45q118 0 169 -86t51 -295v-721h-228v658q0 149 -18.5 207t-68.5 58
q-51 0 -80.5 -80.5t-29.5 -241.5v-601h-228z" />
    <glyph glyph-name="n" unicode="n" 
d="M824 0v619q0 141 -38.5 207t-132.5 66q-104 0 -166.5 -88.5t-62.5 -223.5v-580h-281v840q0 87 -2.5 142.5t-5.5 99.5h268q3 -19 8 -101.5t5 -113.5h4q57 124 143 180t205 56q336 0 336 -416v-687h-280z" />
    <glyph glyph-name="o" unicode="o" 
d="M1137 542q0 -269 -136 -415.5t-391 -146.5q-246 0 -382 146.5t-136 415.5q0 268 135 414t389 146q521 0 521 -560zM843 542q0 192 -51 279.5t-172 87.5q-124 0 -178.5 -88t-54.5 -279q0 -193 55.5 -281.5t164.5 -88.5q124 0 180 87.5t56 282.5z" />
    <glyph glyph-name="p" unicode="p" 
d="M412 1082q6 -21 10.5 -84t4.5 -92h4q48 95 128.5 146t187.5 51q180 0 282.5 -151t102.5 -409q0 -265 -103.5 -414t-292.5 -149q-107 0 -186 48.5t-121 142.5h-2l2 -178v-418h-281v1271q0 100 -8 236h272zM425 536q0 -119 26 -199.5t73.5 -123t111.5 -42.5q101 0 152 95
t51 277q0 184 -52.5 276t-148.5 92q-62 0 -111 -44.5t-75.5 -127.5t-26.5 -203z" />
    <glyph glyph-name="q" unicode="q" 
d="M1089 1082q-8 -136 -8 -236v-1271h-281v418l2 178h-2q-41 -91 -123.5 -141t-193.5 -50q-186 0 -286 147t-100 416q0 255 107 407.5t288 152.5q208 0 306 -197h4q0 44 6 103.5t9 72.5h272zM804 536q0 120 -26.5 203t-75 127.5t-111.5 44.5q-96 0 -148.5 -92t-52.5 -276
q0 -183 51.5 -277.5t151.5 -94.5q98 0 154.5 96t56.5 269z" />
    <glyph glyph-name="r" unicode="r" 
d="M1081 848q-112 19 -212 19q-156 0 -247.5 -118t-91.5 -311v-438h-280v701q0 76 -13.5 179t-38.5 202h271q36 -130 46 -228h4q50 136 135 192t221 56q104 0 206 -17v-237z" />
    <glyph glyph-name="s" unicode="s" 
d="M1104 316q0 -157 -128.5 -246.5t-355.5 -89.5q-223 0 -341.5 70.5t-157.5 219.5l247 37q21 -77 72.5 -109t179.5 -32q118 0 172 30t54 94q0 52 -43.5 82.5t-147.5 51.5q-238 47 -321 87.5t-126.5 105t-43.5 158.5q0 155 119.5 241.5t338.5 86.5q193 0 310.5 -75
t146.5 -217l-249 -26q-12 66 -59 98.5t-149 32.5q-100 0 -150 -25.5t-50 -85.5q0 -47 38.5 -74.5t129.5 -45.5q127 -26 225.5 -53.5t158 -65.5t95 -97.5t35.5 -152.5z" />
    <glyph glyph-name="t" unicode="t" 
d="M328 892h-167v190h181l88 282h176v-282h385v-190h-385v-530q0 -88 16.5 -118.5t53.5 -48t104 -17.5q124 0 255 27v-186q-142 -23 -201 -27.5t-123 -4.5q-127 0 -212.5 34.5t-129 108t-43.5 206.5z" />
    <glyph glyph-name="u" unicode="u" 
d="M416 1082v-607q0 -138 44.5 -211.5t127.5 -73.5q90 0 148.5 88.5t58.5 223.5v580h281v-840q0 -138 8 -242h-268q-12 144 -12 215h-5q-107 -235 -328 -235q-164 0 -250 104.5t-86 310.5v687h281z" />
    <glyph glyph-name="v" unicode="v" 
d="M774 0h-336l-407 1082h297l209 -622q15 -50 71 -250q6 24 36.5 127.5t254.5 744.5h294z" />
    <glyph glyph-name="w" unicode="w" 
d="M1028 0h-244l-143 471q-25 80 -27 102q-1 -9 -11 -46.5t-166 -526.5h-243l-183 1082h228l83 -607q19 -152 19 -226l20 74l157 494h193l140 -455q15 -50 29 -113q0 62 10 143t102 690h226z" />
    <glyph glyph-name="x" unicode="x" 
d="M874 0l-262 392l-264 -392h-299l406 559l-387 523h303l241 -354l240 354h305l-387 -520l409 -562h-305z" />
    <glyph glyph-name="y" unicode="y" 
d="M325 -425q-106 0 -182 13v200l51 -5l51 -3q60 0 99.5 19t71 63t70.5 149l-448 1071h297l190 -527q40 -109 101 -334l9 37l81 293l180 531h294l-448 -1139q-80 -206 -175 -287t-242 -81z" />
    <glyph glyph-name="z" unicode="z" 
d="M138 0v199l570 680h-529v203h849v-201l-567 -676h616v-205h-939z" />
    <glyph glyph-name="braceleft" unicode="{" 
d="M718 -425q-134 0 -214.5 78.5t-80.5 220.5v328q0 114 -55 170.5t-174 58.5v195q121 5 175 61.5t54 169.5v328q0 146 78.5 222.5t216.5 76.5h327v-190h-188q-91 0 -131.5 -52t-40.5 -157v-301q0 -95 -57.5 -164t-149.5 -88v-4q95 -22 151 -90.5t56 -161.5v-301
q0 -106 40.5 -157.5t131.5 -51.5h188v-191h-327z" />
    <glyph glyph-name="bar" unicode="|" 
d="M483 -455v1939h262v-1939h-262z" />
    <glyph glyph-name="braceright" unicode="}" 
d="M184 -425v191h188q91 0 131.5 51.5t40.5 157.5v301q0 93 56 161.5t151 90.5v4q-93 20 -150 89t-57 163v301q0 105 -40.5 157t-131.5 52h-188v190h327q138 0 216.5 -76.5t78.5 -222.5v-328q0 -113 54 -169.5t175 -61.5v-195q-119 -2 -174 -58.5t-55 -170.5v-328
q0 -141 -80 -220t-215 -79h-327z" />
    <glyph glyph-name="asciitilde" unicode="~" 
d="M866 516q-75 0 -147.5 21t-147.5 47q-135 47 -221 47q-71 0 -130.5 -21.5t-124.5 -66.5v213q113 84 271 84q105 0 242 -47q132 -46 182 -58t95 -12q134 0 248 92v-219q-64 -44 -122.5 -62t-144.5 -18z" />
    <glyph glyph-name="Adieresis" unicode="&#xc4;" 
d="M1229 0h-294l-92 330h-456l-92 -330h-295l443 1349h344zM615 1167q-8 -42 -29.5 -125.5t-136.5 -489.5h332q-117 412 -137.5 493t-28.5 122zM713 1445v219h227v-219h-227zM289 1445v219h224v-219h-224z" />
    <glyph glyph-name="Aring" unicode="&#xc5;" 
d="M1229 0h-294l-92 330h-456l-92 -330h-295l443 1349h344zM615 1167q-8 -42 -29.5 -125.5t-136.5 -489.5h332q-117 412 -137.5 493t-28.5 122zM859 1479q0 -87 -65.5 -143.5t-176.5 -56.5q-112 0 -177 56.5t-65 143.5q0 89 66.5 144t175.5 55q111 0 176.5 -55.5
t65.5 -143.5zM720 1479q0 32 -28 51.5t-75 19.5q-46 0 -75 -19t-29 -52t29 -52t75 -19t74.5 19.5t28.5 51.5z" />
    <glyph glyph-name="Ccedilla" unicode="&#xc7;" 
d="M380 681q0 -225 70 -347t209 -122q162 0 240 244l273 -52q-133 -424 -516 -424q-281 0 -428.5 178.5t-147.5 522.5q0 689 568 689q186 0 311.5 -98t184.5 -291l-272 -66q-29 106 -87 164.5t-133 58.5q-272 0 -272 -457zM847 -255q0 -94 -78 -142t-225 -48q-45 0 -101 6
v118q35 -7 84 -7q137 0 137 69q0 35 -28 52t-94 17q-38 0 -52 -2l69 192h143l-40 -102q94 -5 139.5 -46t45.5 -107z" />
    <glyph glyph-name="Eacute" unicode="&#xc9;" 
d="M137 0v1349h968v-228h-673v-324h612v-228h-612v-341h714v-228h-1009zM458 1428v31l252 243h258v-43l-340 -231h-170z" />
    <glyph glyph-name="Ntilde" unicode="&#xd1;" 
d="M748 0l-384 1010q28 -252 28 -354v-656h-257v1349h337l393 -1037q-28 235 -28 365v672h257v-1349h-346zM781 1422q-44 0 -88.5 17.5t-86.5 39l-79.5 39t-67.5 17.5q-45 0 -67 -23.5t-31 -89.5h-137q12 156 67.5 219.5t157.5 63.5q45 0 90 -17.5t87 -39l78.5 -39
t65.5 -17.5q47 0 69 26.5t30 86.5h135q-8 -111 -34 -168t-73.5 -86t-115.5 -29z" />
    <glyph glyph-name="Odieresis" unicode="&#xd6;" 
d="M1157 679q0 -345 -140 -522t-402 -177t-402.5 177t-140.5 522t140.5 518t402.5 173t402 -173t140 -518zM858 679q0 459 -243 459q-244 0 -244 -459q0 -230 61.5 -348.5t182.5 -118.5t182 118.5t61 348.5zM716 1445v219h227v-219h-227zM292 1445v219h224v-219h-224z" />
    <glyph glyph-name="Udieresis" unicode="&#xdc;" 
d="M599 -20q-246 0 -358 134t-112 414v821h295v-818q0 -175 40.5 -247.5t142.5 -72.5q104 0 151 77t47 253v808h295v-806q0 -286 -123.5 -424.5t-377.5 -138.5zM713 1445v219h227v-219h-227zM289 1445v219h224v-219h-224z" />
    <glyph glyph-name="aacute" unicode="&#xe1;" 
d="M439 -20q-157 0 -245 85.5t-88 240.5q0 168 104.5 255.5t312.5 90.5l223 4v55q0 103 -35 156t-113 53q-73 0 -107.5 -36.5t-42.5 -116.5l-293 14q54 321 455 321q202 0 309.5 -99t107.5 -291v-392q0 -91 20.5 -125.5t68.5 -34.5q32 0 62 6v-152l-45 -11t-40 -8t-42.5 -5
t-52.5 -2q-106 0 -156.5 52t-60.5 153h-6q-63 -113 -143.5 -163t-192.5 -50zM746 501l-134 -2q-90 -2 -130.5 -18.5t-61.5 -53t-21 -99.5q0 -152 120 -152q97 0 162 76.5t65 193.5v55zM444 1184v31l252 243h258v-43l-340 -231h-170z" />
    <glyph glyph-name="agrave" unicode="&#xe0;" 
d="M439 -20q-157 0 -245 85.5t-88 240.5q0 168 104.5 255.5t312.5 90.5l223 4v55q0 103 -35 156t-113 53q-73 0 -107.5 -36.5t-42.5 -116.5l-293 14q54 321 455 321q202 0 309.5 -99t107.5 -291v-392q0 -91 20.5 -125.5t68.5 -34.5q32 0 62 6v-152l-45 -11t-40 -8t-42.5 -5
t-52.5 -2q-106 0 -156.5 52t-60.5 153h-6q-63 -113 -143.5 -163t-192.5 -50zM746 501l-134 -2q-90 -2 -130.5 -18.5t-61.5 -53t-21 -99.5q0 -152 120 -152q97 0 162 76.5t65 193.5v55zM573 1184l-340 231v43h258l252 -243v-31h-170z" />
    <glyph glyph-name="acircumflex" unicode="&#xe2;" 
d="M439 -20q-157 0 -245 85.5t-88 240.5q0 168 104.5 255.5t312.5 90.5l223 4v55q0 103 -35 156t-113 53q-73 0 -107.5 -36.5t-42.5 -116.5l-293 14q54 321 455 321q202 0 309.5 -99t107.5 -291v-392q0 -91 20.5 -125.5t68.5 -34.5q32 0 62 6v-152l-45 -11t-40 -8t-42.5 -5
t-52.5 -2q-106 0 -156.5 52t-60.5 153h-6q-63 -113 -143.5 -163t-192.5 -50zM746 501l-134 -2q-90 -2 -130.5 -18.5t-61.5 -53t-21 -99.5q0 -152 120 -152q97 0 162 76.5t65 193.5v55zM965 1211v-28h-159l-203 134h-4l-211 -134h-160v28l258 250h229z" />
    <glyph glyph-name="adieresis" unicode="&#xe4;" 
d="M439 -20q-157 0 -245 85.5t-88 240.5q0 168 104.5 255.5t312.5 90.5l223 4v55q0 103 -35 156t-113 53q-73 0 -107.5 -36.5t-42.5 -116.5l-293 14q54 321 455 321q202 0 309.5 -99t107.5 -291v-392q0 -91 20.5 -125.5t68.5 -34.5q32 0 62 6v-152l-45 -11t-40 -8t-42.5 -5
t-52.5 -2q-106 0 -156.5 52t-60.5 153h-6q-63 -113 -143.5 -163t-192.5 -50zM746 501l-134 -2q-90 -2 -130.5 -18.5t-61.5 -53t-21 -99.5q0 -152 120 -152q97 0 162 76.5t65 193.5v55zM697 1219v219h227v-219h-227zM273 1219v219h224v-219h-224z" />
    <glyph glyph-name="atilde" unicode="&#xe3;" 
d="M439 -20q-157 0 -245 85.5t-88 240.5q0 168 104.5 255.5t312.5 90.5l223 4v55q0 103 -35 156t-113 53q-73 0 -107.5 -36.5t-42.5 -116.5l-293 14q54 321 455 321q202 0 309.5 -99t107.5 -291v-392q0 -91 20.5 -125.5t68.5 -34.5q32 0 62 6v-152l-45 -11t-40 -8t-42.5 -5
t-52.5 -2q-106 0 -156.5 52t-60.5 153h-6q-63 -113 -143.5 -163t-192.5 -50zM746 501l-134 -2q-90 -2 -130.5 -18.5t-61.5 -53t-21 -99.5q0 -152 120 -152q97 0 162 76.5t65 193.5v55zM773 1183q-44 0 -88.5 17.5t-86.5 39l-79.5 39t-67.5 17.5q-45 0 -67 -23.5t-31 -89.5
h-137q12 156 67.5 219.5t157.5 63.5q45 0 90 -17.5t87 -39l78.5 -39t65.5 -17.5q47 0 69 26.5t30 86.5h135q-8 -111 -34 -168t-73.5 -86t-115.5 -29z" />
    <glyph glyph-name="aring" unicode="&#xe5;" 
d="M439 -20q-157 0 -245 85.5t-88 240.5q0 168 104.5 255.5t312.5 90.5l223 4v55q0 103 -35 156t-113 53q-73 0 -107.5 -36.5t-42.5 -116.5l-293 14q54 321 455 321q202 0 309.5 -99t107.5 -291v-392q0 -91 20.5 -125.5t68.5 -34.5q32 0 62 6v-152l-45 -11t-40 -8t-42.5 -5
t-52.5 -2q-106 0 -156.5 52t-60.5 153h-6q-63 -113 -143.5 -163t-192.5 -50zM746 501l-134 -2q-90 -2 -130.5 -18.5t-61.5 -53t-21 -99.5q0 -152 120 -152q97 0 162 76.5t65 193.5v55zM848 1348q0 -87 -65.5 -143.5t-176.5 -56.5q-112 0 -177 56.5t-65 143.5q0 89 66.5 144
t175.5 55q111 0 176.5 -55.5t65.5 -143.5zM709 1348q0 32 -28 51.5t-75 19.5q-46 0 -75 -19t-29 -52t29 -52t75 -19t74.5 19.5t28.5 51.5z" />
    <glyph glyph-name="ccedilla" unicode="&#xe7;" 
d="M624 -20q-246 0 -380 146.5t-134 408.5q0 268 135 417.5t383 149.5q191 0 316 -96t157 -265l-283 -14q-12 83 -60 132.5t-136 49.5q-217 0 -217 -363q0 -374 221 -374q80 0 134 50.5t67 150.5l282 -13q-15 -111 -79.5 -198t-169.5 -134.5t-236 -47.5zM830 -255
q0 -94 -78 -142t-225 -48q-45 0 -101 6v118q35 -7 84 -7q137 0 137 69q0 35 -28 52t-94 17q-38 0 -52 -2l69 192h143l-40 -102q94 -5 139.5 -46t45.5 -107z" />
    <glyph glyph-name="eacute" unicode="&#xe9;" 
d="M626 -20q-252 0 -389 148.5t-137 417.5q0 180 64.5 304t183.5 188t282 64q237 0 368 -158t131 -449v-8h-734q0 -147 65.5 -233t179.5 -86q74 0 131 31.5t77 97.5l265 -23q-55 -141 -183 -217.5t-304 -76.5zM626 925q-103 0 -164 -69.5t-65 -192.5h460q-7 120 -68.5 191
t-162.5 71zM478 1184v31l252 243h258v-43l-340 -231h-170z" />
    <glyph glyph-name="egrave" unicode="&#xe8;" 
d="M626 -20q-252 0 -389 148.5t-137 417.5q0 180 64.5 304t183.5 188t282 64q237 0 368 -158t131 -449v-8h-734q0 -147 65.5 -233t179.5 -86q74 0 131 31.5t77 97.5l265 -23q-55 -141 -183 -217.5t-304 -76.5zM626 925q-103 0 -164 -69.5t-65 -192.5h460q-7 120 -68.5 191
t-162.5 71zM608 1184l-340 231v43h258l252 -243v-31h-170z" />
    <glyph glyph-name="ecircumflex" unicode="&#xea;" 
d="M626 -20q-252 0 -389 148.5t-137 417.5q0 180 64.5 304t183.5 188t282 64q237 0 368 -158t131 -449v-8h-734q0 -147 65.5 -233t179.5 -86q74 0 131 31.5t77 97.5l265 -23q-55 -141 -183 -217.5t-304 -76.5zM626 925q-103 0 -164 -69.5t-65 -192.5h460q-7 120 -68.5 191
t-162.5 71zM990 1211v-28h-159l-203 134h-4l-211 -134h-160v28l258 250h229z" />
    <glyph glyph-name="edieresis" unicode="&#xeb;" 
d="M626 -20q-252 0 -389 148.5t-137 417.5q0 180 64.5 304t183.5 188t282 64q237 0 368 -158t131 -449v-8h-734q0 -147 65.5 -233t179.5 -86q74 0 131 31.5t77 97.5l265 -23q-55 -141 -183 -217.5t-304 -76.5zM626 925q-103 0 -164 -69.5t-65 -192.5h460q-7 120 -68.5 191
t-162.5 71zM721 1219v219h227v-219h-227zM297 1219v219h224v-219h-224z" />
    <glyph glyph-name="iacute" unicode="&#xed;" 
d="M794 190h353v-190h-1029v190h395v702h-290v190h571v-892zM471 1184v31l252 243h258v-43l-340 -231h-170z" />
    <glyph glyph-name="igrave" unicode="&#xec;" 
d="M794 190h353v-190h-1029v190h395v702h-290v190h571v-892zM620 1184l-340 231v43h258l252 -243v-31h-170z" />
    <glyph glyph-name="icircumflex" unicode="&#xee;" 
d="M794 190h353v-190h-1029v190h395v702h-290v190h571v-892zM993 1211v-28h-159l-203 134h-4l-211 -134h-160v28l258 250h229z" />
    <glyph glyph-name="idieresis" unicode="&#xef;" 
d="M794 190h353v-190h-1029v190h395v702h-290v190h571v-892zM754 1219v219h227v-219h-227zM330 1219v219h224v-219h-224z" />
    <glyph glyph-name="ntilde" unicode="&#xf1;" 
d="M824 0v619q0 141 -38.5 207t-132.5 66q-104 0 -166.5 -88.5t-62.5 -223.5v-580h-281v840q0 87 -2.5 142.5t-5.5 99.5h268q3 -19 8 -101.5t5 -113.5h4q57 124 143 180t205 56q336 0 336 -416v-687h-280zM791 1183q-44 0 -88.5 17.5t-86.5 39l-79.5 39t-67.5 17.5
q-45 0 -67 -23.5t-31 -89.5h-137q12 156 67.5 219.5t157.5 63.5q45 0 90 -17.5t87 -39l78.5 -39t65.5 -17.5q47 0 69 26.5t30 86.5h135q-8 -111 -34 -168t-73.5 -86t-115.5 -29z" />
    <glyph glyph-name="oacute" unicode="&#xf3;" 
d="M1137 542q0 -269 -136 -415.5t-391 -146.5q-246 0 -382 146.5t-136 415.5q0 268 135 414t389 146q521 0 521 -560zM843 542q0 192 -51 279.5t-172 87.5q-124 0 -178.5 -88t-54.5 -279q0 -193 55.5 -281.5t164.5 -88.5q124 0 180 87.5t56 282.5zM468 1184v31l252 243h258
v-43l-340 -231h-170z" />
    <glyph glyph-name="ograve" unicode="&#xf2;" 
d="M1137 542q0 -269 -136 -415.5t-391 -146.5q-246 0 -382 146.5t-136 415.5q0 268 135 414t389 146q521 0 521 -560zM843 542q0 192 -51 279.5t-172 87.5q-124 0 -178.5 -88t-54.5 -279q0 -193 55.5 -281.5t164.5 -88.5q124 0 180 87.5t56 282.5zM617 1184l-340 231v43h258
l252 -243v-31h-170z" />
    <glyph glyph-name="ocircumflex" unicode="&#xf4;" 
d="M1137 542q0 -269 -136 -415.5t-391 -146.5q-246 0 -382 146.5t-136 415.5q0 268 135 414t389 146q521 0 521 -560zM843 542q0 192 -51 279.5t-172 87.5q-124 0 -178.5 -88t-54.5 -279q0 -193 55.5 -281.5t164.5 -88.5q124 0 180 87.5t56 282.5zM983 1211v-28h-159
l-203 134h-4l-211 -134h-160v28l258 250h229z" />
    <glyph glyph-name="odieresis" unicode="&#xf6;" 
d="M1137 542q0 -269 -136 -415.5t-391 -146.5q-246 0 -382 146.5t-136 415.5q0 268 135 414t389 146q521 0 521 -560zM843 542q0 192 -51 279.5t-172 87.5q-124 0 -178.5 -88t-54.5 -279q0 -193 55.5 -281.5t164.5 -88.5q124 0 180 87.5t56 282.5zM713 1219v219h227v-219
h-227zM289 1219v219h224v-219h-224z" />
    <glyph glyph-name="otilde" unicode="&#xf5;" 
d="M1137 542q0 -269 -136 -415.5t-391 -146.5q-246 0 -382 146.5t-136 415.5q0 268 135 414t389 146q521 0 521 -560zM843 542q0 192 -51 279.5t-172 87.5q-124 0 -178.5 -88t-54.5 -279q0 -193 55.5 -281.5t164.5 -88.5q124 0 180 87.5t56 282.5zM781 1183
q-44 0 -88.5 17.5t-86.5 39l-79.5 39t-67.5 17.5q-45 0 -67 -23.5t-31 -89.5h-137q12 156 67.5 219.5t157.5 63.5q45 0 90 -17.5t87 -39l78.5 -39t65.5 -17.5q47 0 69 26.5t30 86.5h135q-8 -111 -34 -168t-73.5 -86t-115.5 -29z" />
    <glyph glyph-name="uacute" unicode="&#xfa;" 
d="M416 1082v-607q0 -138 44.5 -211.5t127.5 -73.5q90 0 148.5 88.5t58.5 223.5v580h281v-840q0 -138 8 -242h-268q-12 144 -12 215h-5q-107 -235 -328 -235q-164 0 -250 104.5t-86 310.5v687h281zM457 1184v31l252 243h258v-43l-340 -231h-170z" />
    <glyph glyph-name="ugrave" unicode="&#xf9;" 
d="M416 1082v-607q0 -138 44.5 -211.5t127.5 -73.5q90 0 148.5 88.5t58.5 223.5v580h281v-840q0 -138 8 -242h-268q-12 144 -12 215h-5q-107 -235 -328 -235q-164 0 -250 104.5t-86 310.5v687h281zM593 1184l-340 231v43h258l252 -243v-31h-170z" />
    <glyph glyph-name="ucircumflex" unicode="&#xfb;" 
d="M416 1082v-607q0 -138 44.5 -211.5t127.5 -73.5q90 0 148.5 88.5t58.5 223.5v580h281v-840q0 -138 8 -242h-268q-12 144 -12 215h-5q-107 -235 -328 -235q-164 0 -250 104.5t-86 310.5v687h281zM983 1211v-28h-159l-203 134h-4l-211 -134h-160v28l258 250h229z" />
    <glyph glyph-name="udieresis" unicode="&#xfc;" 
d="M416 1082v-607q0 -138 44.5 -211.5t127.5 -73.5q90 0 148.5 88.5t58.5 223.5v580h281v-840q0 -138 8 -242h-268q-12 144 -12 215h-5q-107 -235 -328 -235q-164 0 -250 104.5t-86 310.5v687h281zM713 1219v219h227v-219h-227zM289 1219v219h224v-219h-224z" />
    <glyph glyph-name="dagger" unicode="&#x2020;" 
d="M713 960l-22 -1173h-155l-22 1173l-342 -27v204l342 -29l-28 376h255l-28 -376l343 29v-204z" />
    <glyph glyph-name="degree" unicode="&#xb0;" 
d="M935 1110q0 -130 -93.5 -222.5t-227.5 -92.5q-132 0 -226 91t-94 224q0 86 42.5 159t116 114.5t161.5 41.5q135 0 228 -92.5t93 -222.5zM777 1110q0 70 -46.5 118t-116.5 48q-71 0 -118.5 -48.5t-47.5 -117.5t49 -118.5t117 -49.5q67 0 115 49t48 119z" />
    <glyph glyph-name="cent" unicode="&#xa2;" 
d="M635 311q88 0 147.5 54.5t73.5 154.5l283 -12q-22 -153 -134 -254.5t-290 -122.5v-191h-162v189q-215 21 -335 157t-120 371q0 232 117.5 373t337.5 166v184h162v-184q169 -19 278 -112.5t137 -244.5l-282 -14q-15 91 -71 140.5t-144 49.5q-124 0 -188 -92t-64 -256
q0 -174 66.5 -265t187.5 -91z" />
    <glyph glyph-name="sterling" unicode="&#xa3;" 
d="M1180 363q-31 -172 -136 -267.5t-256 -95.5h-704v205q102 58 139.5 130t37.5 177v82h-188v170h178v198q0 201 107 304.5t319 103.5q169 0 266 -69t141 -222l-233 -47q-21 77 -62 112t-107 35q-91 0 -131 -57.5t-40 -182.5v-175h286v-170h-286v-80q0 -103 -41 -176
t-141 -129h390q104 0 157.5 49.5t70.5 143.5z" />
    <glyph glyph-name="section" unicode="&#xa7;" 
d="M629 1485q194 0 311.5 -70.5t144.5 -203.5l-239 -25q-13 62 -70 95.5t-147 33.5q-112 0 -164.5 -29.5t-52.5 -94.5q0 -41 27 -69.5t76.5 -50t180.5 -50.5q168 -38 248.5 -79t123 -102t42.5 -148q0 -93 -55 -164.5t-142 -98.5q181 -79 181 -256q0 -167 -125.5 -255.5
t-358.5 -88.5q-223 0 -343.5 69.5t-159.5 218.5l237 37q20 -80 81.5 -117.5t184.5 -37.5q122 0 185 32.5t63 112.5q0 48 -24 78t-75.5 52.5t-236.5 66.5q-206 49 -291.5 127t-85.5 190q0 93 55 157t158 99q-90 38 -139 106t-49 152q0 149 117.5 231t341.5 82zM872 658
q0 71 -59.5 109t-232.5 71q-193 -23 -193 -153q0 -41 27 -68.5t77 -48.5t186 -52q195 10 195 142z" />
    <glyph glyph-name="bullet" unicode="&#x2022;" 
d="M907 681q0 -121 -87 -208t-208 -87q-119 0 -205 86.5t-86 208.5t85.5 207.5t205.5 85.5q122 0 208.5 -85.5t86.5 -207.5z" />
    <glyph glyph-name="paragraph" unicode="&#xb6;" 
d="M984 1206v-1530h-156v1530h-195v-1530h-155v958q-169 0 -266 92.5t-97 262.5q0 169 98.5 264.5t272.5 95.5h629v-143h-131z" />
    <glyph glyph-name="germandbls" unicode="&#xdf;" 
d="M1178 312q0 -162 -100.5 -247t-286.5 -85q-146 0 -262 43v206q50 -23 117.5 -41t114.5 -18q81 0 118 34.5t37 91.5q0 52 -38 96.5t-131 105.5q-169 109 -169 262q0 54 27.5 101t84.5 97q61 54 86 94.5t25 85.5q0 65 -46.5 104t-134.5 39q-103 0 -157 -63.5t-54 -204.5
v-1013h-281v1007q0 234 127.5 355.5t367.5 121.5q206 0 325 -90t119 -245q0 -54 -16.5 -96.5t-41.5 -76.5t-54.5 -61l-54.5 -49.5t-41.5 -43t-16.5 -40.5q0 -25 20.5 -47.5t147.5 -116.5q168 -125 168 -306z" />
    <glyph glyph-name="registered" unicode="&#xae;" 
d="M1197 761q0 -227 -71 -390.5t-203 -248t-309 -84.5t-308.5 85.5t-203 248.5t-71.5 389t71 389t203.5 248.5t308.5 85.5t308.5 -85t203.5 -247.5t71 -390.5zM789 343l-190 329h-116v-329h-151v831h307q142 0 217.5 -63t75.5 -174q0 -102 -50.5 -167t-135.5 -84l218 -343
h-175zM781 935q0 127 -176 127h-122v-280h134q80 0 122 39t42 114zM1071 761q0 288 -119.5 447.5t-337.5 159.5q-215 0 -334.5 -159.5t-119.5 -447.5q0 -291 120 -449.5t334 -158.5q217 0 337 158.5t120 449.5z" />
    <glyph glyph-name="copyright" unicode="&#xa9;" 
d="M628 333q-168 0 -260.5 113.5t-92.5 316.5q0 202 89 313t257 111q217 0 303 -209l-138 -43q-49 127 -163 127q-95 0 -145 -76.5t-50 -222.5q0 -142 53.5 -224t146.5 -82q113 0 171 154l129 -42q-37 -113 -114.5 -174.5t-185.5 -61.5zM1197 761q0 -227 -71 -390.5
t-203 -248t-309 -84.5t-308.5 85.5t-203 248.5t-71.5 389t71 389t203.5 248.5t308.5 85.5t308.5 -85t203.5 -247.5t71 -390.5zM1071 761q0 288 -119.5 447.5t-337.5 159.5q-215 0 -334.5 -159.5t-119.5 -447.5q0 -291 120 -449.5t334 -158.5q217 0 337 158.5t120 449.5z" />
    <glyph glyph-name="trademark" unicode="&#x2122;" 
d="M315 1351v-509h-157v509h-158v132h477v-132h-162zM864 1044q2 16 14 55t145 384h183v-641h-135v353l3 88l-26 -88l-136 -353h-97l-136 353l-26 87l3 -87v-353h-135v641h183l142 -372q14 -36 18 -67z" />
    <glyph glyph-name="acute" unicode="&#xb4;" 
d="M367 1184v31l252 243h258v-43l-340 -231h-170z" />
    <glyph glyph-name="dieresis" unicode="&#xa8;" 
d="M713 1219v219h227v-219h-227zM289 1219v219h224v-219h-224z" />
    <glyph glyph-name="notequal" unicode="&#x2260;" 
d="M513 291l-129 -254h-213l129 254h-209v221h317l166 330h-483v223h592l133 258h211l-131 -258h242v-223h-351l-166 -330h517v-221h-625z" />
    <glyph glyph-name="AE" unicode="&#xc6;" 
d="M616 387h-253l-102 -387h-261l372 1349h804v-202h-309v-355h297v-200h-297v-390h348v-202h-599v387zM616 1152h-58l-46 -200l-98 -366h202v566z" />
    <glyph glyph-name="Oslash" unicode="&#xd8;" 
d="M1157 679q0 -345 -140 -522t-402 -177q-215 0 -349 119l-106 -142l-114 75l131 176q-105 176 -105 471q0 345 140.5 518t402.5 173q212 0 345 -115l106 142l114 -75l-130 -173q107 -174 107 -470zM858 679q0 109 -14 193l-408 -546q62 -114 179 -114q121 0 182 118.5
t61 348.5zM371 679q0 -119 14 -193l407 545q-60 107 -177 107q-244 0 -244 -459z" />
    <glyph glyph-name="infinity" unicode="&#x221e;" 
d="M1210 583q0 -168 -80 -277.5t-210 -109.5q-97 0 -166 56t-140 193q-56 -98 -98.5 -144t-93 -70.5t-111.5 -24.5q-133 0 -212.5 104.5t-79.5 286.5q0 171 79.5 279t212.5 108q92 0 161.5 -58.5t141.5 -200.5q58 105 99.5 152.5t89 72.5t105.5 25q144 0 223 -105.5
t79 -286.5zM896 802q-102 0 -204 -217q47 -101 94 -158.5t109 -57.5q58 0 91.5 60t33.5 156q0 102 -33.5 159.5t-90.5 57.5zM535 595q-58 128 -100.5 173t-92.5 45q-60 0 -96.5 -62.5t-36.5 -155.5q0 -99 36 -157t98 -58q51 0 96.5 54t95.5 161z" />
    <glyph glyph-name="plusminus" unicode="&#xb1;" 
d="M726 707v-341h-224v341h-401v223h401v340h224v-340h402v-223h-402zM101 0v223h1027v-223h-1027z" />
    <glyph glyph-name="lessequal" unicode="&#x2264;" 
d="M91 631v321l1026 346v-227l-832 -280l832 -279v-227zM91 0v223h1024v-223h-1024z" />
    <glyph glyph-name="greaterequal" unicode="&#x2265;" 
d="M111 285v227l832 279l-832 280v227l1026 -346v-321zM113 0v223h1024v-223h-1024z" />
    <glyph glyph-name="yen" unicode="&#xa5;" 
d="M811 691h276v-146h-338v-162h338v-147h-338v-236h-272v236h-336v147h336v162h-336v146h276l-384 658h289l290 -536l294 536h289z" />
    <glyph glyph-name="mu1" unicode="&#xb5;" 
d="M834 0q-1 12 -3.5 34t-4.5 48.5t-3.5 53.5t-1.5 48h-3q-78 -204 -246 -204q-52 0 -95.5 24t-66.5 66h-4q4 -43 4 -115v-371h-281v1498h281v-605q0 -284 184 -284q97 0 158 83.5t61 227.5v578h281v-840q0 -130 8 -242h-268z" />
    <glyph glyph-name="partialdiff" unicode="&#x2202;" 
d="M1137 937q0 -128 -29 -284t-86.5 -285t-137.5 -216t-183 -133t-227 -46q-190 0 -293.5 101.5t-103.5 286.5q0 118 40.5 241.5t110 213.5t162.5 138.5t207 48.5q103 0 183 -45.5t117 -119.5h6q7 77 7 103q0 166 -74.5 254.5t-222.5 88.5q-67 0 -142 -25t-127 -63l45 208
q113 73 271 73q230 0 353.5 -139t123.5 -401zM859 663q-19 74 -79 122.5t-138 48.5q-89 0 -162.5 -60.5t-119.5 -176.5t-46 -232q0 -92 47.5 -144.5t133.5 -52.5q129 0 229.5 138.5t134.5 356.5z" />
    <glyph glyph-name="summation" unicode="&#x2211;" 
d="M22 -455v160l606 746l-586 746v152h1117v-227h-746l528 -667l-548 -682h823v-228h-1194z" />
    <glyph glyph-name="product" unicode="&#x220f;" 
d="M841 -455v1560h-442v-1560h-295v1804h1019v-1804h-282z" />
    <glyph glyph-name="integral" unicode="&#x222b;" 
d="M354 -455q-43 0 -89 7t-66 14v217q66 -25 119 -25q155 0 155 197v1171q0 180 106 280.5t296 100.5q88 0 155 -19v-219q-50 25 -119 25q-77 0 -117 -50.5t-40 -144.5v-1173q0 -182 -105.5 -281.5t-294.5 -99.5z" />
    <glyph glyph-name="ordfeminine" unicode="&#xaa;" 
d="M445 643q-112 0 -177.5 61t-65.5 171q0 116 82 178.5t244 64.5l169 2v48q0 137 -119 137q-61 0 -91.5 -26.5t-37.5 -81.5l-219 11q20 111 111 172t235 61q156 0 243 -68.5t87 -201.5v-273q0 -55 10.5 -83t48.5 -28l56 5v-125q-67 -21 -136 -21q-81 0 -128 42t-53 112h-3
q-83 -157 -256 -157zM527 794q70 0 120 54.5t50 130.5v31l-106 -3q-101 -3 -136.5 -30.5t-35.5 -85.5q0 -97 108 -97z" />
    <glyph glyph-name="ordmasculine" unicode="&#xba;" 
d="M1003 1043q0 -186 -104.5 -293t-288.5 -107q-179 0 -281 107.5t-102 292.5q0 187 102.5 292.5t285.5 105.5q186 0 287 -103t101 -295zM773 1043q0 120 -35 177t-121 57q-85 0 -123.5 -57.5t-38.5 -176.5q0 -239 154 -239q87 0 125.5 58t38.5 181z" />
    <glyph glyph-name="Ohm" unicode="&#x2126;" 
d="M614 1143q-120 0 -191 -103t-71 -286q0 -134 43.5 -237t149.5 -213v-304h-495v228h116q64 0 174 -11q-272 217 -272 581q0 169 71 299.5t196.5 201.5t278.5 71q152 0 278 -71t197 -202t71 -299q0 -364 -272 -581q114 11 178 11h112v-228h-495v304q106 110 149.5 212
t43.5 238q0 183 -71 286t-191 103z" />
    <glyph glyph-name="ae" unicode="&#xe6;" 
d="M699 484v-2q0 -149 44.5 -235.5t120.5 -86.5q60 0 92 38t48 103l178 -45q-37 -140 -117.5 -208t-196.5 -68q-115 0 -181.5 55t-100.5 177q-50 -118 -129 -175t-179 -57q-123 0 -190.5 86.5t-67.5 235.5q0 172 82 263.5t248 94.5l147 4v55q0 93 -30 147t-86 54
q-49 0 -74.5 -37t-33.5 -110l-208 17q39 312 315 312q176 0 247 -139q85 139 246 139q166 0 250.5 -141.5t84.5 -433.5v-43h-509zM229 299q0 -64 20.5 -100.5t58.5 -36.5q78 0 133.5 86t55.5 197v54l-102 -3q-93 -3 -129.5 -49.5t-36.5 -147.5zM859 924q-40 0 -76 -32.5
t-58 -91t-24 -140.5h301q-8 133 -42.5 198.5t-100.5 65.5z" />
    <glyph glyph-name="oslash" unicode="&#xf8;" 
d="M1137 542q0 -269 -136 -415.5t-391 -146.5q-200 0 -328 97l-85 -97l-96 78l95 107q-104 143 -104 377q0 268 135 414t389 146q205 0 329 -87l79 89l98 -78l-87 -98q102 -140 102 -386zM843 542q0 83 -11 156l-389 -439q55 -87 164 -87q124 0 180 87.5t56 282.5zM387 542
q0 -84 10 -148l387 438q-53 77 -164 77q-124 0 -178.5 -88t-54.5 -279z" />
    <glyph glyph-name="questiondown" unicode="&#xbf;" 
d="M124 96q0 65 22.5 119t65 101.5t195.5 157.5q132 96 137 202h267q-6 -102 -58 -183t-151 -150q-113 -77 -154 -126.5t-41 -108.5q0 -77 61 -123.5t160 -46.5q101 0 169.5 59t80.5 156l285 -12q-28 -204 -168 -316.5t-363 -112.5q-232 0 -370 104t-138 280zM819 1082v-270
h-289v270h289z" />
    <glyph glyph-name="exclamdown" unicode="&#xa1;" 
d="M500 653h230l32 -923h-294zM762 1079v-270h-288v270h288z" />
    <glyph glyph-name="logicalnot" unicode="&#xac;" 
d="M887 141v428h-803v224h1027v-652h-224z" />
    <glyph glyph-name="radical" unicode="&#x221a;" 
d="M682 -25h-168l-270 754h-184v166h311l219 -635l412 1360h186z" />
    <glyph glyph-name="florin" unicode="&#x192;" 
d="M1066 1158q-27 9 -75 15.5t-80 6.5q-80 0 -115 -27t-49 -100l-20 -107h302l-36 -190h-303l-232 -1181h-281l232 1181h-208l37 190h208l27 135q27 150 125 219.5t273 69.5q72 0 144.5 -12.5t97.5 -22.5z" />
    <glyph glyph-name="approxequal" unicode="&#x2248;" 
d="M866 756q-75 0 -147.5 20.5t-147.5 46.5q-132 47 -221 47q-67 0 -126 -19.5t-129 -68.5v213q110 84 271 84q53 0 115 -12.5t204 -60.5q121 -43 200 -43q134 0 248 92v-219q-63 -45 -123 -62.5t-144 -17.5zM866 274q-75 0 -147.5 22t-147.5 48q-129 45 -221 45
q-71 0 -130.5 -21.5t-124.5 -66.5v213q113 84 271 84q83 0 163 -23t156 -49q102 -32 137 -38.5t63 -6.5q134 0 248 92v-219q-64 -44 -122.5 -62t-144.5 -18z" />
    <glyph glyph-name="uni2206" unicode="&#x2206;" 
d="M18 226l428 1123h345l421 -1123v-226h-1194v226zM918 244l-223 618q-44 138 -70 258l-9 39q-1 -10 -28.5 -118t-50.5 -181l-220 -616h601z" />
    <glyph glyph-name="guillemotleft" unicode="&#xab;" 
d="M857 141l-256 361v71l256 367h238v-37l-254 -366l256 -361v-35h-240zM390 141l-258 361v71l258 367h236v-37l-254 -366l256 -361v-35h-238z" />
    <glyph glyph-name="guillemotright" unicode="&#xbb;" 
d="M132 141v35l256 361l-254 366v37h238l256 -367v-71l-256 -361h-240zM601 141v35l256 361l-254 366v37h236l258 -367v-71l-258 -361h-238z" />
    <glyph glyph-name="ellipsis" unicode="&#x2026;" 
d="M921 0v305h258v-305h-258zM491 0v305h256v-305h-256zM59 0v305h258v-305h-258z" />
    <glyph glyph-name="Agrave" unicode="&#xc0;" 
d="M1229 0h-294l-92 330h-456l-92 -330h-295l443 1349h344zM615 1167q-8 -42 -29.5 -125.5t-136.5 -489.5h332q-117 412 -137.5 493t-28.5 122zM594 1427l-340 231v43h258l252 -243v-31h-170z" />
    <glyph glyph-name="Atilde" unicode="&#xc3;" 
d="M1229 0h-294l-92 330h-456l-92 -330h-295l443 1349h344zM615 1167q-8 -42 -29.5 -125.5t-136.5 -489.5h332q-117 412 -137.5 493t-28.5 122zM781 1422q-44 0 -88.5 17.5t-86.5 39l-79.5 39t-67.5 17.5q-45 0 -67 -23.5t-31 -89.5h-137q12 156 67.5 219.5t157.5 63.5
q45 0 90 -17.5t87 -39l78.5 -39t65.5 -17.5q47 0 69 26.5t30 86.5h135q-8 -111 -34 -168t-73.5 -86t-115.5 -29z" />
    <glyph glyph-name="Otilde" unicode="&#xd5;" 
d="M1157 679q0 -345 -140 -522t-402 -177t-402.5 177t-140.5 522t140.5 518t402.5 173t402 -173t140 -518zM858 679q0 459 -243 459q-244 0 -244 -459q0 -230 61.5 -348.5t182.5 -118.5t182 118.5t61 348.5zM781 1422q-44 0 -88.5 17.5t-86.5 39l-79.5 39t-67.5 17.5
q-45 0 -67 -23.5t-31 -89.5h-137q12 156 67.5 219.5t157.5 63.5q45 0 90 -17.5t87 -39l78.5 -39t65.5 -17.5q47 0 69 26.5t30 86.5h135q-8 -111 -34 -168t-73.5 -86t-115.5 -29z" />
    <glyph glyph-name="OE" unicode="&#x152;" 
d="M599 0l-78 -5q-255 0 -373 169t-118 517q0 350 118.5 512t374.5 162q38 0 89 -6h558v-202h-313v-355h287v-200h-287v-390h354v-202h-612zM522 190q56 0 84 6v957q-38 6 -83 6q-124 0 -177.5 -115t-53.5 -363q0 -250 56.5 -370.5t173.5 -120.5z" />
    <glyph glyph-name="oe" unicode="&#x153;" 
d="M732 484q0 -147 39 -230.5t109 -83.5q51 0 77 33t40 98l178 -45q-34 -140 -110 -208t-183 -68q-182 0 -263 183q-83 -183 -266 -183q-157 0 -241 144.5t-84 417.5q0 279 85 419.5t247 140.5q187 0 266 -177q85 177 259 177q319 0 319 -575v-43h-472zM523 542
q0 189 -36 280.5t-114 91.5q-73 0 -104.5 -92.5t-31.5 -279.5q0 -188 31.5 -281t98.5 -93q82 0 119 96t37 278zM875 914q-135 0 -141 -254h264q-8 140 -35 197t-88 57z" />
    <glyph glyph-name="endash" unicode="&#x2013;" 
d="M162 418v203h904v-203h-904z" />
    <glyph glyph-name="emdash" unicode="&#x2014;" 
d="M-10 418v203h1248v-203h-1248z" />
    <glyph glyph-name="quotedblleft" unicode="&#x201c;" 
d="M631 1484l-169 -622h-325l311 622h183zM1090 1484l-169 -622h-325l311 622h183z" />
    <glyph glyph-name="quotedblright" unicode="&#x201d;" 
d="M597 862l169 622h325l-311 -622h-183zM138 862l169 622h325l-311 -622h-183z" />
    <glyph glyph-name="quoteleft" unicode="&#x2018;" 
d="M861 1484l-169 -622h-325l311 622h183z" />
    <glyph glyph-name="quoteright" unicode="&#x2019;" 
d="M369 862l169 622h325l-311 -622h-183z" />
    <glyph glyph-name="divide" unicode="&#xf7;" 
d="M494 961v233h238v-233h-238zM101 569v224h1027v-224h-1027zM494 170v233h238v-233h-238z" />
    <glyph glyph-name="lozenge" unicode="&#x25ca;" 
d="M665 0h-104l-451 721l451 725h104l454 -723zM614 1204l-289 -481l289 -494l289 494z" />
    <glyph glyph-name="ydieresis" unicode="&#xff;" 
d="M325 -425q-106 0 -182 13v200l51 -5l51 -3q60 0 99.5 19t71 63t70.5 149l-448 1071h297l190 -527q40 -109 101 -334l9 37l81 293l180 531h294l-448 -1139q-80 -206 -175 -287t-242 -81zM718 1219v219h227v-219h-227zM294 1219v219h224v-219h-224z" />
    <glyph glyph-name="Ydieresis" unicode="&#x178;" 
d="M761 556v-556h-294v556l-464 793h309l300 -566l304 566h309zM713 1445v219h227v-219h-227zM289 1445v219h224v-219h-224z" />
    <glyph glyph-name="fraction" unicode="&#x2044;" 
d="M329 0h-162l738 1349h161z" />
    <glyph glyph-name="fraction" unicode="&#x2215;" 
d="M329 0h-162l738 1349h161z" />
    <glyph glyph-name="Euro" unicode="&#x20ac;" 
d="M893 463h-373q27 -121 90 -186.5t159 -65.5q79 0 144.5 30.5t133.5 84.5l131 -184q-88 -81 -192 -121.5t-239 -40.5q-215 0 -353 124.5t-175 355.5h-148v144h131q-3 70 -3 75l3 79h-131v142h147q36 225 172.5 347.5t358.5 122.5q245 0 412 -142l-131 -202q-61 49 -127 81
t-143 32q-93 0 -153 -62t-84 -179h370v-141h-392q-3 -21 -3 -78q0 -42 4 -74h391v-142z" />
    <glyph glyph-name="guilsinglleft" unicode="&#x2039;" 
d="M614 141l-258 361v71l258 367h236v-37l-254 -366l256 -361v-35h-238z" />
    <glyph glyph-name="guilsinglright" unicode="&#x203a;" 
d="M376 141v35l256 361l-254 366v37h236l258 -367v-71l-258 -361h-238z" />
    <glyph glyph-name="fi" unicode="&#xfb01;" 
d="M453 892v-892h-280v892h-146v190h146v113q0 156 85 237.5t237 81.5q103 0 207 -28v-184q-83 19 -145 19q-55 0 -79.5 -34.5t-24.5 -117.5v-87h223v-190h-223zM1089 0h-281v1082h281v-1082zM808 1277v207h281v-207h-281z" />
    <glyph glyph-name="fl" unicode="&#xfb02;" 
d="M453 892v-892h-280v892h-146v190h146v113q0 156 85 237.5t237 81.5q103 0 207 -28v-184q-83 19 -145 19q-55 0 -79.5 -34.5t-24.5 -117.5v-87h223v-190h-223zM808 0v1484h281v-1484h-281z" />
    <glyph glyph-name="daggerdbl" unicode="&#x2021;" 
d="M513 980l-340 -27v204l340 -29l-16 356h215l-16 -356l361 29v-204l-361 27l-26 -345l26 -342l360 27v-204l-360 29l16 -356h-215l16 356l-341 -29v204l341 -27l26 342z" />
    <glyph glyph-name="periodcentered" unicode="&#x2219;" 
d="M470 417v305h288v-305h-288z" />
    <glyph glyph-name="quotesinglbase" unicode="&#x201a;" 
d="M319 -363l169 622h325l-311 -622h-183z" />
    <glyph glyph-name="quotedblbase" unicode="&#x201e;" 
d="M597 -364l169 622h325l-311 -622h-183zM138 -364l169 622h325l-311 -622h-183z" />
    <glyph glyph-name="perthousand" unicode="&#x2030;" 
d="M164 429h-160l601 599h162zM236 1411q117 0 172.5 -74.5t55.5 -221.5q0 -149 -59.5 -225t-172.5 -76q-116 0 -174 77t-58 224q0 148 57 222t179 74zM314 1115q0 95 -17 131.5t-62 36.5q-46 0 -65.5 -42.5t-19.5 -125.5q0 -81 19.5 -124.5t64.5 -43.5q40 0 60 44t20 124z
M495 597q117 0 172.5 -74.5t55.5 -221.5q0 -149 -59.5 -225t-172.5 -76q-116 0 -174 77t-58 224q0 148 57 222t179 74zM573 301q0 95 -17 131.5t-62 36.5q-46 0 -65.5 -42.5t-19.5 -125.5q0 -81 19.5 -124.5t64.5 -43.5q40 0 60 44t20 124zM1000 597q117 0 172.5 -74.5
t55.5 -221.5q0 -149 -59.5 -225t-172.5 -76q-116 0 -174 77t-58 224q0 148 57 222t179 74zM1078 301q0 95 -17 131.5t-62 36.5q-46 0 -65.5 -42.5t-19.5 -125.5q0 -81 19.5 -124.5t64.5 -43.5q40 0 60 44t20 124z" />
    <glyph glyph-name="Acircumflex" unicode="&#xc2;" 
d="M1229 0h-294l-92 330h-456l-92 -330h-295l443 1349h344zM615 1167q-8 -42 -29.5 -125.5t-136.5 -489.5h332q-117 412 -137.5 493t-28.5 122zM983 1455v-28h-159l-203 134h-4l-211 -134h-160v28l258 250h229z" />
    <glyph glyph-name="Ecircumflex" unicode="&#xca;" 
d="M137 0v1349h968v-228h-673v-324h612v-228h-612v-341h714v-228h-1009zM983 1455v-28h-159l-203 134h-4l-211 -134h-160v28l258 250h229z" />
    <glyph glyph-name="Aacute" unicode="&#xc1;" 
d="M1229 0h-294l-92 330h-456l-92 -330h-295l443 1349h344zM615 1167q-8 -42 -29.5 -125.5t-136.5 -489.5h332q-117 412 -137.5 493t-28.5 122zM460 1428v31l252 243h258v-43l-340 -231h-170z" />
    <glyph glyph-name="Edieresis" unicode="&#xcb;" 
d="M137 0v1349h968v-228h-673v-324h612v-228h-612v-341h714v-228h-1009zM733 1445v219h227v-219h-227zM309 1445v219h224v-219h-224z" />
    <glyph glyph-name="Egrave" unicode="&#xc8;" 
d="M137 0v1349h968v-228h-673v-324h612v-228h-612v-341h714v-228h-1009zM616 1428l-340 231v43h258l252 -243v-31h-170z" />
    <glyph glyph-name="Iacute" unicode="&#xcd;" 
d="M157 1349h916v-228h-311v-893h311v-228h-916v228h311v893h-311v228zM470 1428v31l252 243h258v-43l-340 -231h-170z" />
    <glyph glyph-name="Icircumflex" unicode="&#xce;" 
d="M157 1349h916v-228h-311v-893h311v-228h-916v228h311v893h-311v228zM983 1455v-28h-159l-203 134h-4l-211 -134h-160v28l258 250h229z" />
    <glyph glyph-name="Idieresis" unicode="&#xcf;" 
d="M157 1349h916v-228h-311v-893h311v-228h-916v228h311v893h-311v228zM713 1445v219h227v-219h-227zM289 1445v219h224v-219h-224z" />
    <glyph glyph-name="Igrave" unicode="&#xcc;" 
d="M157 1349h916v-228h-311v-893h311v-228h-916v228h311v893h-311v228zM606 1428l-340 231v43h258l252 -243v-31h-170z" />
    <glyph glyph-name="Oacute" unicode="&#xd3;" 
d="M1157 679q0 -345 -140 -522t-402 -177t-402.5 177t-140.5 522t140.5 518t402.5 173t402 -173t140 -518zM858 679q0 459 -243 459q-244 0 -244 -459q0 -230 61.5 -348.5t182.5 -118.5t182 118.5t61 348.5zM465 1428v31l252 243h258v-43l-340 -231h-170z" />
    <glyph glyph-name="Ocircumflex" unicode="&#xd4;" 
d="M1157 679q0 -345 -140 -522t-402 -177t-402.5 177t-140.5 522t140.5 518t402.5 173t402 -173t140 -518zM858 679q0 459 -243 459q-244 0 -244 -459q0 -230 61.5 -348.5t182.5 -118.5t182 118.5t61 348.5zM983 1455v-28h-159l-203 134h-4l-211 -134h-160v28l258 250h229z
" />
    <glyph glyph-name="Ograve" unicode="&#xd2;" 
d="M1157 679q0 -345 -140 -522t-402 -177t-402.5 177t-140.5 522t140.5 518t402.5 173t402 -173t140 -518zM858 679q0 459 -243 459q-244 0 -244 -459q0 -230 61.5 -348.5t182.5 -118.5t182 118.5t61 348.5zM601 1428l-340 231v43h258l252 -243v-31h-170z" />
    <glyph glyph-name="Uacute" unicode="&#xda;" 
d="M599 -20q-246 0 -358 134t-112 414v821h295v-818q0 -175 40.5 -247.5t142.5 -72.5q104 0 151 77t47 253v808h295v-806q0 -286 -123.5 -424.5t-377.5 -138.5zM453 1428v31l252 243h258v-43l-340 -231h-170z" />
    <glyph glyph-name="Ucircumflex" unicode="&#xdb;" 
d="M599 -20q-246 0 -358 134t-112 414v821h295v-818q0 -175 40.5 -247.5t142.5 -72.5q104 0 151 77t47 253v808h295v-806q0 -286 -123.5 -424.5t-377.5 -138.5zM983 1455v-28h-159l-203 134h-4l-211 -134h-160v28l258 250h229z" />
    <glyph glyph-name="Ugrave" unicode="&#xd9;" 
d="M599 -20q-246 0 -358 134t-112 414v821h295v-818q0 -175 40.5 -247.5t142.5 -72.5q104 0 151 77t47 253v808h295v-806q0 -286 -123.5 -424.5t-377.5 -138.5zM590 1428l-340 231v43h258l252 -243v-31h-170z" />
    <glyph glyph-name="dotlessi" unicode="&#x131;" 
d="M794 190h353v-190h-1029v190h395v702h-290v190h571v-892z" />
    <glyph glyph-name="circumflex" unicode="&#x2c6;" 
d="M983 1211v-28h-159l-203 134h-4l-211 -134h-160v28l258 250h229z" />
    <glyph glyph-name="tilde" unicode="&#x2dc;" 
d="M781 1183q-44 0 -88.5 17.5t-86.5 39l-79.5 39t-67.5 17.5q-45 0 -67 -23.5t-31 -89.5h-137q12 156 67.5 219.5t157.5 63.5q45 0 90 -17.5t87 -39l78.5 -39t65.5 -17.5q47 0 69 26.5t30 86.5h135q-8 -111 -34 -168t-73.5 -86t-115.5 -29z" />
    <glyph glyph-name="uni02C9" unicode="&#x2c9;" 
d="M308 1371h612v-168h-612v168z" />
    <glyph glyph-name="breve" unicode="&#x2d8;" 
d="M612 1183q-161 0 -251 72.5t-101 205.5h163q15 -121 191 -121q88 0 132 29t58 92h164q-34 -278 -356 -278z" />
    <glyph glyph-name="dotaccent" unicode="&#x2d9;" 
d="M474 1267v207h281v-207h-281z" />
    <glyph glyph-name="ring" unicode="&#x2da;" 
d="M856 1348q0 -87 -65.5 -143.5t-176.5 -56.5q-112 0 -177 56.5t-65 143.5q0 89 66.5 144t175.5 55q111 0 176.5 -55.5t65.5 -143.5zM717 1348q0 32 -28 51.5t-75 19.5q-46 0 -75 -19t-29 -52t29 -52t75 -19t74.5 19.5t28.5 51.5z" />
    <glyph glyph-name="cedilla" unicode="&#xb8;" 
d="M493 -255q0 -94 -78 -142t-225 -48q-45 0 -101 6v118q35 -7 84 -7q137 0 137 69q0 35 -28 52t-94 17q-38 0 -52 -2l69 192h143l-40 -102q94 -5 139.5 -46t45.5 -107z" />
    <glyph glyph-name="hungarumlaut" unicode="&#x2dd;" 
d="M142 1182h-142v34l225 245h235v-43zM548 1182h-142v34l225 245h235v-43z" />
    <glyph glyph-name="ogonek" unicode="&#x2db;" 
d="M657 -425q-111 0 -174 54t-63 146q0 75 43.5 142t114.5 104h153q-63 -42 -96 -99.5t-33 -110.5q0 -42 24.5 -67.5t69.5 -25.5q54 0 112 27v-137q-63 -33 -151 -33z" />
    <glyph glyph-name="caron" unicode="&#x2c7;" 
d="M733 1183h-229l-258 249v29h160l211 -134h4l203 134h159v-29z" />
    <glyph glyph-name="Lslash" unicode="&#x141;" 
d="M221 657v692h295v-539l246 128l92 -181l-338 -177v-352h616v-228h-911v426l-124 -64l-97 181z" />
    <glyph glyph-name="lslash" unicode="&#x142;" 
d="M794 950l211 121l83 -155l-294 -168v-558h353v-190h-1029v190h395v397l-196 -112l-85 154l281 160v505h-290v190h571v-534z" />
    <glyph glyph-name="Scaron" unicode="&#x160;" 
d="M1165 391q0 -192 -146.5 -301.5t-407.5 -109.5q-235 0 -383 99t-190 288l285 37q23 -94 96 -148.5t200 -54.5q132 0 195.5 42t63.5 131q0 66 -56 111.5t-163 71.5q-215 52 -303.5 90.5t-141.5 86.5t-81.5 112.5t-28.5 144.5q0 175 140.5 277t370.5 102q224 0 350 -88.5
t163 -274.5l-286 -29q-44 183 -233 183q-106 0 -162 -39.5t-56 -113.5q0 -49 27 -81.5t73.5 -55t189.5 -59.5q188 -46 289 -102.5t148 -136.5t47 -182zM733 1427h-229l-258 249v29h160l211 -134h4l203 134h159v-29z" />
    <glyph glyph-name="scaron" unicode="&#x161;" 
d="M1104 316q0 -157 -128.5 -246.5t-355.5 -89.5q-223 0 -341.5 70.5t-157.5 219.5l247 37q21 -77 72.5 -109t179.5 -32q118 0 172 30t54 94q0 52 -43.5 82.5t-147.5 51.5q-238 47 -321 87.5t-126.5 105t-43.5 158.5q0 155 119.5 241.5t338.5 86.5q193 0 310.5 -75
t146.5 -217l-249 -26q-12 66 -59 98.5t-149 32.5q-100 0 -150 -25.5t-50 -85.5q0 -47 38.5 -74.5t129.5 -45.5q127 -26 225.5 -53.5t158 -65.5t95 -97.5t35.5 -152.5zM738 1183h-229l-258 249v29h160l211 -134h4l203 134h159v-29z" />
    <glyph glyph-name="Zcaron" unicode="&#x17d;" 
d="M1138 0h-1051v209l671 909h-595v231h934v-205l-671 -913h712v-231zM743 1427h-229l-258 249v29h160l211 -134h4l203 134h159v-29z" />
    <glyph glyph-name="zcaron" unicode="&#x17e;" 
d="M138 0v199l570 680h-529v203h849v-201l-567 -676h616v-205h-939zM734 1183h-229l-258 249v29h160l211 -134h4l203 134h159v-29z" />
    <glyph glyph-name="brokenbar" unicode="&#xa6;" 
d="M483 676v778h262v-778h-262zM483 -455v779h262v-779h-262z" />
    <glyph glyph-name="Eth" unicode="&#xd0;" 
d="M1162 685q0 -330 -154 -507.5t-439 -177.5h-421v564h-134v219h134v566h361q328 0 490.5 -164.5t162.5 -499.5zM865 685q0 227 -85.5 331.5t-275.5 104.5h-61v-338h207v-219h-207v-336h102q320 0 320 457z" />
    <glyph glyph-name="eth" unicode="&#xf0;" 
d="M820 1266q315 -320 315 -725v-4q0 -267 -136 -412t-392 -145q-247 0 -385 132t-138 367q0 238 137.5 369t389.5 131q78 0 134 -20q-57 119 -141 217l-235 -102l-77 155l186 79q-88 71 -258 176h293q96 -48 160 -94l249 109l83 -154zM841 477q0 160 -53 234.5t-173 74.5
q-125 0 -180.5 -75.5t-55.5 -233.5q0 -307 223 -307q127 0 183 74t56 233z" />
    <glyph glyph-name="Yacute" unicode="&#xdd;" 
d="M761 556v-556h-294v556l-464 793h309l300 -566l304 566h309zM468 1428v31l252 243h258v-43l-340 -231h-170z" />
    <glyph glyph-name="yacute" unicode="&#xfd;" 
d="M325 -425q-106 0 -182 13v200l51 -5l51 -3q60 0 99.5 19t71 63t70.5 149l-448 1071h297l190 -527q40 -109 101 -334l9 37l81 293l180 531h294l-448 -1139q-80 -206 -175 -287t-242 -81zM474 1184v31l252 243h258v-43l-340 -231h-170z" />
    <glyph glyph-name="Thorn" unicode="&#xde;" 
d="M1161 693q0 -126 -62.5 -226t-179 -155.5t-272.5 -55.5h-215v-256h-295v1349h295v-235h203q250 0 388 -110.5t138 -310.5zM864 689q0 101 -69.5 158.5t-192.5 57.5h-170v-440h178q115 0 184.5 60t69.5 164z" />
    <glyph glyph-name="thorn" unicode="&#xfe;" 
d="M143 1484h281v-412l-4 -168h4q111 199 321 199q179 0 280.5 -147t101.5 -411q0 -266 -105.5 -415.5t-294.5 -149.5q-99 0 -178.5 50.5t-124.5 141.5h-6q6 -30 6 -182v-415h-281v1909zM844 545q0 363 -208 363q-101 0 -158.5 -97.5t-57.5 -273.5q0 -175 57.5 -270
t156.5 -95q109 0 159.5 94.5t50.5 278.5z" />
    <glyph glyph-name="minus" unicode="&#x2212;" 
d="M101 569v224h1027v-224h-1027z" />
    <glyph glyph-name="multiply" unicode="&#xd7;" 
d="M102 326l356 358l-352 352l158 156l352 -350l352 352l158 -158l-352 -354l352 -350l-158 -160l-352 354l-356 -358z" />
    <glyph glyph-name="onesuperior" unicode="&#xb9;" 
d="M275 563v142h236v530q-23 -47 -95 -81t-136 -34v154q72 0 141 38t100 98h204v-705h220v-142h-670z" />
    <glyph glyph-name="twosuperior" unicode="&#xb2;" 
d="M277 563v142q63 137 266 264q95 60 136 105t41 92q0 107 -96 107q-99 0 -111 -115l-228 6q15 118 105.5 188t233.5 70q156 0 242 -65t86 -182q0 -147 -180 -262q-133 -85 -173 -117.5t-57 -70.5h425v-162h-690z" />
    <glyph glyph-name="threesuperior" unicode="&#xb3;" 
d="M962 799q0 -116 -88 -182t-250 -66q-327 0 -360 244l222 15q12 -110 134 -110q120 0 120 113q0 108 -163 108h-66v148h60q75 0 112 28t37 77q0 46 -27 72t-78 26q-49 0 -79.5 -26.5t-35.5 -78.5l-218 14q15 113 105.5 176.5t233.5 63.5q148 0 233.5 -61t85.5 -160
q0 -75 -43 -128t-136 -72v-2q95 -11 148 -63t53 -136z" />
    <glyph glyph-name="onehalf" unicode="&#xbd;" 
d="M203 1159q-19 -38 -81.5 -64.5t-119.5 -26.5v165q58 0 122 33t89 83h181v-760h-191v570zM291 0h-162l738 1349h161zM658 1v143q31 72 87 130t137 107q79 48 110.5 86t31.5 85q0 91 -79 91q-32 0 -51.5 -12t-30.5 -33t-18 -73l-180 10q32 238 282 238q131 0 196.5 -57
t65.5 -158q0 -61 -23 -106t-58.5 -79.5t-78 -61.5l-82.5 -51.5t-72 -49.5t-45 -56h350v-153h-542z" />
    <glyph glyph-name="onequarter" unicode="&#xbc;" 
d="M202 1159q-19 -38 -81.5 -64.5t-119.5 -26.5v165q58 0 122 33t89 83h181v-760h-191v570zM306 0h-162l738 1349h161zM1107 162v-160h-191v160h-341v149l321 452h211v-450h82v-151h-82zM922 606l-65.5 -117t-117.5 -176h177v198q0 52 6 95z" />
    <glyph glyph-name="threequarters" unicode="&#xbe;" 
d="M591 793q0 -105 -76 -164.5t-210 -59.5q-127 0 -198.5 53.5t-95.5 178.5l205 26q8 -58 29 -89.5t64 -31.5q82 0 82 104q0 51 -32.5 75t-104.5 24h-41v131h37q68 0 95 24t27 80q0 45 -15 66t-50 21q-44 0 -61 -28t-22 -82l-194 12q16 114 84 171t198 57q124 0 191 -54.5
t67 -148.5q0 -66 -33.5 -107t-102.5 -67v-6q82 -18 119.5 -67.5t37.5 -117.5zM382 0h-162l738 1349h161zM1146 162v-160h-191v160h-341v149l321 452h211v-450h82v-151h-82zM961 606l-65.5 -117t-117.5 -176h177v198q0 52 6 95z" />
    <glyph glyph-name="franc" unicode="&#x20a3;" 
d="M462 1141v-336h637v-208h-637v-190h314v-149h-314v-258h-285v258h-140v149h140v942h955v-208h-670z" />
    <glyph glyph-name="Gbreve" unicode="&#x11e;" 
d="M1128 185q-243 -205 -493 -205q-261 0 -408 183.5t-147 517.5q0 689 558 689q180 0 294 -93t168 -282l-274 -54q-53 197 -185 197q-135 0 -198.5 -108t-63.5 -349q0 -223 67 -344t204 -121q53 0 109.5 20t98.5 54v235h-274v218h544v-558zM615 1427q-161 0 -251 72.5
t-101 205.5h163q15 -121 191 -121q88 0 132 29t58 92h164q-34 -278 -356 -278z" />
    <glyph glyph-name="gbreve" unicode="&#x11f;" 
d="M616 -434q-186 0 -303 77t-144 214l281 33q15 -65 62 -103t112 -38q101 0 153 72.5t52 215.5v59l2 115h-2q-93 -199 -328 -199q-179 0 -278 139.5t-99 398.5q0 262 103 405.5t295 143.5q105 0 184 -48.5t123 -142.5h5q0 35 4.5 95t9.5 79h266q-6 -108 -6 -250v-799
q0 -227 -127.5 -347t-364.5 -120zM831 556q0 164 -56 257t-153 93q-100 0 -152.5 -90.5t-52.5 -265.5q0 -174 54 -258.5t149 -84.5q102 0 156.5 94t54.5 255zM603 1183q-161 0 -251 72.5t-101 205.5h163q15 -121 191 -121q88 0 132 29t58 92h164q-34 -278 -356 -278z" />
    <glyph glyph-name="Idotaccent" unicode="&#x130;" 
d="M157 1349h916v-228h-311v-893h311v-228h-916v228h311v893h-311v228zM474 1421v207h281v-207h-281z" />
    <glyph glyph-name="Scedilla" unicode="&#x15e;" 
d="M1165 391q0 -192 -146.5 -301.5t-407.5 -109.5q-235 0 -383 99t-190 288l285 37q23 -94 96 -148.5t200 -54.5q132 0 195.5 42t63.5 131q0 66 -56 111.5t-163 71.5q-215 52 -303.5 90.5t-141.5 86.5t-81.5 112.5t-28.5 144.5q0 175 140.5 277t370.5 102q224 0 350 -88.5
t163 -274.5l-286 -29q-44 183 -233 183q-106 0 -162 -39.5t-56 -113.5q0 -49 27 -81.5t73.5 -55t189.5 -59.5q188 -46 289 -102.5t148 -136.5t47 -182zM825 -255q0 -94 -78 -142t-225 -48q-45 0 -101 6v118q35 -7 84 -7q137 0 137 69q0 35 -28 52t-94 17q-38 0 -52 -2
l69 192h143l-40 -102q94 -5 139.5 -46t45.5 -107z" />
    <glyph glyph-name="scedilla" unicode="&#x15f;" 
d="M1104 316q0 -157 -128.5 -246.5t-355.5 -89.5q-223 0 -341.5 70.5t-157.5 219.5l247 37q21 -77 72.5 -109t179.5 -32q118 0 172 30t54 94q0 52 -43.5 82.5t-147.5 51.5q-238 47 -321 87.5t-126.5 105t-43.5 158.5q0 155 119.5 241.5t338.5 86.5q193 0 310.5 -75
t146.5 -217l-249 -26q-12 66 -59 98.5t-149 32.5q-100 0 -150 -25.5t-50 -85.5q0 -47 38.5 -74.5t129.5 -45.5q127 -26 225.5 -53.5t158 -65.5t95 -97.5t35.5 -152.5zM835 -255q0 -94 -78 -142t-225 -48q-45 0 -101 6v118q35 -7 84 -7q137 0 137 69q0 35 -28 52t-94 17
q-38 0 -52 -2l69 192h143l-40 -102q94 -5 139.5 -46t45.5 -107z" />
    <glyph glyph-name="Cacute" unicode="&#x106;" 
d="M380 681q0 -225 70 -347t209 -122q162 0 240 244l273 -52q-133 -424 -516 -424q-281 0 -428.5 178.5t-147.5 522.5q0 689 568 689q186 0 311.5 -98t184.5 -291l-272 -66q-29 106 -87 164.5t-133 58.5q-272 0 -272 -457zM499 1428v31l252 243h258v-43l-340 -231h-170z" />
    <glyph glyph-name="cacute" unicode="&#x107;" 
d="M624 -20q-246 0 -380 146.5t-134 408.5q0 268 135 417.5t383 149.5q191 0 316 -96t157 -265l-283 -14q-12 83 -60 132.5t-136 49.5q-217 0 -217 -363q0 -374 221 -374q80 0 134 50.5t67 150.5l282 -13q-15 -111 -79.5 -198t-169.5 -134.5t-236 -47.5zM469 1184v31
l252 243h258v-43l-340 -231h-170z" />
    <glyph glyph-name="Ccaron" unicode="&#x10c;" 
d="M380 681q0 -225 70 -347t209 -122q162 0 240 244l273 -52q-133 -424 -516 -424q-281 0 -428.5 178.5t-147.5 522.5q0 689 568 689q186 0 311.5 -98t184.5 -291l-272 -66q-29 106 -87 164.5t-133 58.5q-272 0 -272 -457zM750 1427h-229l-258 249v29h160l211 -134h4
l203 134h159v-29z" />
    <glyph glyph-name="ccaron" unicode="&#x10d;" 
d="M624 -20q-246 0 -380 146.5t-134 408.5q0 268 135 417.5t383 149.5q191 0 316 -96t157 -265l-283 -14q-12 83 -60 132.5t-136 49.5q-217 0 -217 -363q0 -374 221 -374q80 0 134 50.5t67 150.5l282 -13q-15 -111 -79.5 -198t-169.5 -134.5t-236 -47.5zM729 1183h-229
l-258 249v29h160l211 -134h4l203 134h159v-29z" />
    <glyph glyph-name="dcroat" unicode="&#x111;" 
d="M1209 1180h-133v-944q0 -100 8 -236h-272q-4 15 -9.5 75.5t-5.5 100.5h-4q-53 -107 -131 -151.5t-185 -44.5q-181 0 -283 144.5t-102 398.5q0 262 102.5 403.5t293.5 141.5q107 0 186 -48.5t121 -142.5h2l-2 210v93h-282v169h282v135h281v-135h133v-169zM799 530
q0 168 -53.5 257.5t-157.5 89.5q-103 0 -153 -87.5t-50 -266.5q0 -351 201 -351q101 0 157 93t56 265z" />
    <glyph glyph-name="overscore" unicode="&#xaf;" 
d="M-5 1452v96h1238v-96h-1238z" />
    <glyph glyph-name="middot.001" unicode="&#xb7;" 
d="M470 417v305h288v-305h-288z" />
    <glyph glyph-name="Abreve" unicode="&#x102;" 
d="M1229 0h-294l-92 330h-456l-92 -330h-295l443 1349h344zM615 1167q-8 -42 -29.5 -125.5t-136.5 -489.5h332q-117 412 -137.5 493t-28.5 122zM612 1427q-161 0 -251 72.5t-101 205.5h163q15 -121 191 -121q88 0 132 29t58 92h164q-34 -278 -356 -278z" />
    <glyph glyph-name="abreve" unicode="&#x103;" 
d="M439 -20q-157 0 -245 85.5t-88 240.5q0 168 104.5 255.5t312.5 90.5l223 4v55q0 103 -35 156t-113 53q-73 0 -107.5 -36.5t-42.5 -116.5l-293 14q54 321 455 321q202 0 309.5 -99t107.5 -291v-392q0 -91 20.5 -125.5t68.5 -34.5q32 0 62 6v-152l-45 -11t-40 -8t-42.5 -5
t-52.5 -2q-106 0 -156.5 52t-60.5 153h-6q-63 -113 -143.5 -163t-192.5 -50zM746 501l-134 -2q-90 -2 -130.5 -18.5t-61.5 -53t-21 -99.5q0 -152 120 -152q97 0 162 76.5t65 193.5v55zM593 1183q-161 0 -251 72.5t-101 205.5h163q15 -121 191 -121q88 0 132 29t58 92h164
q-34 -278 -356 -278z" />
    <glyph glyph-name="Aogonek" unicode="&#x104;" 
d="M1229 0h-294l-92 330h-456l-92 -330h-295l443 1349h344zM615 1167q-8 -42 -29.5 -125.5t-136.5 -489.5h332q-117 412 -137.5 493t-28.5 122zM1077 -414q-111 0 -174 54t-63 146q0 75 43.5 142t114.5 104h153q-63 -42 -96 -99.5t-33 -110.5q0 -42 24.5 -67.5t69.5 -25.5
q54 0 112 27v-137q-63 -33 -151 -33z" />
    <glyph glyph-name="aogonek" unicode="&#x105;" 
d="M439 -20q-157 0 -245 85.5t-88 240.5q0 168 104.5 255.5t312.5 90.5l223 4v55q0 103 -35 156t-113 53q-73 0 -107.5 -36.5t-42.5 -116.5l-293 14q54 321 455 321q202 0 309.5 -99t107.5 -291v-392q0 -91 20.5 -125.5t68.5 -34.5q32 0 62 6v-152l-45 -11t-40 -8t-42.5 -5
t-52.5 -2q-106 0 -156.5 52t-60.5 153h-6q-63 -113 -143.5 -163t-192.5 -50zM746 501l-134 -2q-90 -2 -130.5 -18.5t-61.5 -53t-21 -99.5q0 -152 120 -152q97 0 162 76.5t65 193.5v55zM1020 -425q-111 0 -174 54t-63 146q0 75 43.5 142t114.5 104h153q-63 -42 -96 -99.5
t-33 -110.5q0 -42 24.5 -67.5t69.5 -25.5q54 0 112 27v-137q-63 -33 -151 -33z" />
    <glyph glyph-name="Dcaron" unicode="&#x10e;" 
d="M1149 685q0 -330 -154 -507.5t-439 -177.5h-421v1349h361q328 0 490.5 -164.5t162.5 -499.5zM852 685q0 227 -85.5 331.5t-275.5 104.5h-61v-893h102q320 0 320 457zM704 1427h-229l-258 249v29h160l211 -134h4l203 134h159v-29z" />
    <glyph glyph-name="dcaron" unicode="&#x10f;" 
d="M640 0q-4 15 -9.5 75.5t-5.5 100.5h-4q-53 -107 -117.5 -151.5t-148.5 -44.5q-148 0 -237.5 154t-89.5 405q0 259 90.5 410t247.5 151q171 0 257 -191h2l-2 178v397h271v-1248q0 -100 8 -236h-262zM627 546q0 118 -21 198.5t-57.5 122.5t-82.5 42q-72 0 -112.5 -97
t-40.5 -273q0 -169 40 -268t111 -99q45 0 82.5 46t59 128.5t21.5 199.5zM971 1129v33l29 322h231v-37l-121 -318h-139z" />
    <glyph glyph-name="Dcroat" unicode="&#x110;" 
d="M1162 685q0 -330 -154 -507.5t-439 -177.5h-421v564h-134v219h134v566h361q328 0 490.5 -164.5t162.5 -499.5zM865 685q0 227 -85.5 331.5t-275.5 104.5h-61v-338h207v-219h-207v-336h102q320 0 320 457z" />
    <glyph glyph-name="Eogonek" unicode="&#x118;" 
d="M137 0v1349h968v-228h-673v-324h612v-228h-612v-341h714v-228h-1009zM988 -425q-111 0 -174 54t-63 146q0 75 43.5 142t114.5 104h153q-63 -42 -96 -99.5t-33 -110.5q0 -42 24.5 -67.5t69.5 -25.5q54 0 112 27v-137q-63 -33 -151 -33z" />
    <glyph glyph-name="eogonek" unicode="&#x119;" 
d="M626 -20q-252 0 -389 148.5t-137 417.5q0 180 64.5 304t183.5 188t282 64q237 0 368 -158t131 -449v-8h-734q0 -147 65.5 -233t179.5 -86q74 0 131 31.5t77 97.5l265 -23q-55 -141 -183 -217.5t-304 -76.5zM626 925q-103 0 -164 -69.5t-65 -192.5h460q-7 120 -68.5 191
t-162.5 71zM719 -425q-111 0 -174 54t-63 146q0 75 43.5 142t114.5 104h153q-63 -42 -96 -99.5t-33 -110.5q0 -42 24.5 -67.5t69.5 -25.5q54 0 112 27v-137q-63 -33 -151 -33z" />
    <glyph glyph-name="Ecaron" unicode="&#x11a;" 
d="M137 0v1349h968v-228h-673v-324h612v-228h-612v-341h714v-228h-1009zM744 1427h-229l-258 249v29h160l211 -134h4l203 134h159v-29z" />
    <glyph glyph-name="ecaron" unicode="&#x11b;" 
d="M626 -20q-252 0 -389 148.5t-137 417.5q0 180 64.5 304t183.5 188t282 64q237 0 368 -158t131 -449v-8h-734q0 -147 65.5 -233t179.5 -86q74 0 131 31.5t77 97.5l265 -23q-55 -141 -183 -217.5t-304 -76.5zM626 925q-103 0 -164 -69.5t-65 -192.5h460q-7 120 -68.5 191
t-162.5 71zM726 1183h-229l-258 249v29h160l211 -134h4l203 134h159v-29z" />
    <glyph glyph-name="Lacute" unicode="&#x139;" 
d="M211 0v1349h295v-1121h616v-228h-911zM269 1429v31l252 243h258v-43l-340 -231h-170z" />
    <glyph glyph-name="lacute" unicode="&#x13a;" 
d="M794 190h353v-190h-1029v190h395v969h-290v190h571v-1159zM496 1431v31l252 243h258v-43l-340 -231h-170z" />
    <glyph glyph-name="Lcaron" unicode="&#x13d;" 
d="M211 0v1349h295v-1121h616v-228h-911zM755 994v33l89 322h257v-37l-181 -318h-165z" />
    <glyph glyph-name="lcaron" unicode="&#x13e;" 
d="M745 190h353v-190h-1029v190h395v1104h-290v190h571v-1294zM855 1129v33l89 322h257v-37l-181 -318h-165z" />
    <glyph glyph-name="Ldot" unicode="&#x13f;" 
d="M211 0v1349h295v-1121h616v-228h-911zM660 583v207h281v-207h-281z" />
    <glyph glyph-name="ldot" unicode="&#x140;" 
d="M794 190h353v-190h-1029v190h395v1104h-290v190h571v-1294zM890 583v207h281v-207h-281z" />
    <glyph glyph-name="Nacute" unicode="&#x143;" 
d="M748 0l-384 1010q28 -252 28 -354v-656h-257v1349h337l393 -1037q-28 235 -28 365v672h257v-1349h-346zM489 1429v31l252 243h258v-43l-340 -231h-170z" />
    <glyph glyph-name="nacute" unicode="&#x144;" 
d="M824 0v619q0 141 -38.5 207t-132.5 66q-104 0 -166.5 -88.5t-62.5 -223.5v-580h-281v840q0 87 -2.5 142.5t-5.5 99.5h268q3 -19 8 -101.5t5 -113.5h4q57 124 143 180t205 56q336 0 336 -416v-687h-280zM504 1184v31l252 243h258v-43l-340 -231h-170z" />
    <glyph glyph-name="Ncaron" unicode="&#x147;" 
d="M748 0l-384 1010q28 -252 28 -354v-656h-257v1349h337l393 -1037q-28 235 -28 365v672h257v-1349h-346zM729 1427h-229l-258 249v29h160l211 -134h4l203 134h159v-29z" />
    <glyph glyph-name="ncaron" unicode="&#x148;" 
d="M824 0v619q0 141 -38.5 207t-132.5 66q-104 0 -166.5 -88.5t-62.5 -223.5v-580h-281v840q0 87 -2.5 142.5t-5.5 99.5h268q3 -19 8 -101.5t5 -113.5h4q57 124 143 180t205 56q336 0 336 -416v-687h-280zM733 1183h-229l-258 249v29h160l211 -134h4l203 134h159v-29z" />
    <glyph glyph-name="Ohungarumlaut" unicode="&#x150;" 
d="M1157 679q0 -345 -140 -522t-402 -177t-402.5 177t-140.5 522t140.5 518t402.5 173t402 -173t140 -518zM858 679q0 459 -243 459q-244 0 -244 -459q0 -230 61.5 -348.5t182.5 -118.5t182 118.5t61 348.5zM443 1426h-142v34l225 245h235v-43zM849 1426h-142v34l225 245
h235v-43z" />
    <glyph glyph-name="ohungarumlaut" unicode="&#x151;" 
d="M1137 542q0 -269 -136 -415.5t-391 -146.5q-246 0 -382 146.5t-136 415.5q0 268 135 414t389 146q521 0 521 -560zM843 542q0 192 -51 279.5t-172 87.5q-124 0 -178.5 -88t-54.5 -279q0 -193 55.5 -281.5t164.5 -88.5q124 0 180 87.5t56 282.5zM462 1182h-142v34l225 245
h235v-43zM868 1182h-142v34l225 245h235v-43z" />
    <glyph glyph-name="Racute" unicode="&#x154;" 
d="M895 0l-290 515h-173v-515h-295v1349h494q264 0 395 -103t131 -297q0 -137 -74 -233t-205 -135l349 -581h-332zM860 937q0 94 -62 138.5t-198 44.5h-168v-376h176q252 0 252 193zM439 1429v31l252 243h258v-43l-340 -231h-170z" />
    <glyph glyph-name="racute" unicode="&#x155;" 
d="M1081 848q-112 19 -212 19q-156 0 -247.5 -118t-91.5 -311v-438h-280v701q0 76 -13.5 179t-38.5 202h271q36 -130 46 -228h4q50 136 135 192t221 56q104 0 206 -17v-237zM456 1184v31l252 243h258v-43l-340 -231h-170z" />
    <glyph glyph-name="Rcaron" unicode="&#x158;" 
d="M895 0l-290 515h-173v-515h-295v1349h494q264 0 395 -103t131 -297q0 -137 -74 -233t-205 -135l349 -581h-332zM860 937q0 94 -62 138.5t-198 44.5h-168v-376h176q252 0 252 193zM714 1427h-229l-258 249v29h160l211 -134h4l203 134h159v-29z" />
    <glyph glyph-name="rcaron" unicode="&#x159;" 
d="M1081 848q-112 19 -212 19q-156 0 -247.5 -118t-91.5 -311v-438h-280v701q0 76 -13.5 179t-38.5 202h271q36 -130 46 -228h4q50 136 135 192t221 56q104 0 206 -17v-237zM753 1183h-229l-258 249v29h160l211 -134h4l203 134h159v-29z" />
    <glyph glyph-name="Sacute" unicode="&#x15a;" 
d="M1165 391q0 -192 -146.5 -301.5t-407.5 -109.5q-235 0 -383 99t-190 288l285 37q23 -94 96 -148.5t200 -54.5q132 0 195.5 42t63.5 131q0 66 -56 111.5t-163 71.5q-215 52 -303.5 90.5t-141.5 86.5t-81.5 112.5t-28.5 144.5q0 175 140.5 277t370.5 102q224 0 350 -88.5
t163 -274.5l-286 -29q-44 183 -233 183q-106 0 -162 -39.5t-56 -113.5q0 -49 27 -81.5t73.5 -55t189.5 -59.5q188 -46 289 -102.5t148 -136.5t47 -182zM487 1429v31l252 243h258v-43l-340 -231h-170z" />
    <glyph glyph-name="sacute" unicode="&#x15b;" 
d="M1104 316q0 -157 -128.5 -246.5t-355.5 -89.5q-223 0 -341.5 70.5t-157.5 219.5l247 37q21 -77 72.5 -109t179.5 -32q118 0 172 30t54 94q0 52 -43.5 82.5t-147.5 51.5q-238 47 -321 87.5t-126.5 105t-43.5 158.5q0 155 119.5 241.5t338.5 86.5q193 0 310.5 -75
t146.5 -217l-249 -26q-12 66 -59 98.5t-149 32.5q-100 0 -150 -25.5t-50 -85.5q0 -47 38.5 -74.5t129.5 -45.5q127 -26 225.5 -53.5t158 -65.5t95 -97.5t35.5 -152.5zM453 1184v31l252 243h258v-43l-340 -231h-170z" />
    <glyph glyph-name="Tcommaaccent" unicode="&#x162;" 
d="M762 1121v-1121h-295v1121h-406v228h1107v-228h-406zM395 -453v33l89 322h257v-37l-181 -318h-165z" />
    <glyph glyph-name="tcommaaccent" unicode="&#x163;" 
d="M328 892h-167v190h181l88 282h176v-282h385v-190h-385v-530q0 -88 16.5 -118.5t53.5 -48t104 -17.5q124 0 255 27v-186q-142 -23 -201 -27.5t-123 -4.5q-127 0 -212.5 34.5t-129 108t-43.5 206.5zM440 -453v33l89 322h257v-37l-181 -318h-165z" />
    <glyph glyph-name="Tcaron" unicode="&#x164;" 
d="M762 1121v-1121h-295v1121h-406v228h1107v-228h-406zM733 1427h-229l-258 249v29h160l211 -134h4l203 134h159v-29z" />
    <glyph glyph-name="tcaron" unicode="&#x165;" 
d="M219 892h-167v190h181l88 282h176v-282h385v-190h-385v-530q0 -88 16.5 -118.5t53.5 -48t104 -17.5q124 0 255 27v-186q-142 -23 -201 -27.5t-123 -4.5q-127 0 -212.5 34.5t-129 108t-43.5 206.5zM885 1129v33l89 322h257v-37l-181 -318h-165z" />
    <glyph glyph-name="Uring" unicode="&#x16e;" 
d="M599 -20q-246 0 -358 134t-112 414v821h295v-818q0 -175 40.5 -247.5t142.5 -72.5q104 0 151 77t47 253v808h295v-806q0 -286 -123.5 -424.5t-377.5 -138.5zM856 1506q0 -87 -65.5 -143.5t-176.5 -56.5q-112 0 -177 56.5t-65 143.5q0 89 66.5 144t175.5 55
q111 0 176.5 -55.5t65.5 -143.5zM717 1506q0 32 -28 51.5t-75 19.5q-46 0 -75 -19t-29 -52t29 -52t75 -19t74.5 19.5t28.5 51.5z" />
    <glyph glyph-name="uring" unicode="&#x16f;" 
d="M416 1082v-607q0 -138 44.5 -211.5t127.5 -73.5q90 0 148.5 88.5t58.5 223.5v580h281v-840q0 -138 8 -242h-268q-12 144 -12 215h-5q-107 -235 -328 -235q-164 0 -250 104.5t-86 310.5v687h281zM856 1348q0 -87 -65.5 -143.5t-176.5 -56.5q-112 0 -177 56.5t-65 143.5
q0 89 66.5 144t175.5 55q111 0 176.5 -55.5t65.5 -143.5zM717 1348q0 32 -28 51.5t-75 19.5q-46 0 -75 -19t-29 -52t29 -52t75 -19t74.5 19.5t28.5 51.5z" />
    <glyph glyph-name="Uhungarumlaut" unicode="&#x170;" 
d="M599 -20q-246 0 -358 134t-112 414v821h295v-818q0 -175 40.5 -247.5t142.5 -72.5q104 0 151 77t47 253v808h295v-806q0 -286 -123.5 -424.5t-377.5 -138.5zM406 1426h-142v34l225 245h235v-43zM812 1426h-142v34l225 245h235v-43z" />
    <glyph glyph-name="uhungarumlaut" unicode="&#x171;" 
d="M416 1082v-607q0 -138 44.5 -211.5t127.5 -73.5q90 0 148.5 88.5t58.5 223.5v580h281v-840q0 -138 8 -242h-268q-12 144 -12 215h-5q-107 -235 -328 -235q-164 0 -250 104.5t-86 310.5v687h281zM403 1182h-142v34l225 245h235v-43zM809 1182h-142v34l225 245h235v-43z
" />
    <glyph glyph-name="Zacute" unicode="&#x179;" 
d="M1138 0h-1051v209l671 909h-595v231h934v-205l-671 -913h712v-231zM469 1429v31l252 243h258v-43l-340 -231h-170z" />
    <glyph glyph-name="zacute" unicode="&#x17a;" 
d="M138 0v199l570 680h-529v203h849v-201l-567 -676h616v-205h-939zM452 1184v31l252 243h258v-43l-340 -231h-170z" />
    <glyph glyph-name="Zdotaccent" unicode="&#x17b;" 
d="M1138 0h-1051v209l671 909h-595v231h934v-205l-671 -913h712v-231zM487 1421v207h281v-207h-281z" />
    <glyph glyph-name="zdotaccent" unicode="&#x17c;" 
d="M138 0v199l570 680h-529v203h849v-201l-567 -676h616v-205h-939zM471 1267v207h281v-207h-281z" />
    <glyph glyph-name="Gamma" unicode="&#x393;" 
d="M1144 1349v-228h-672v-1120h-295v1348h967z" />
    <glyph glyph-name="Theta" unicode="&#x398;" 
d="M792 787v-214h-355v214h355zM1167 679q0 -340 -143 -519.5t-409 -179.5q-267 0 -410 180.5t-143 518.5q0 337 143 514t410 177q266 0 409 -175.5t143 -515.5zM878 679q0 222 -69 340.5t-194 118.5t-194.5 -120t-69.5 -339t69.5 -343t194.5 -124q123 0 193 121.5t70 345.5
z" />
    <glyph glyph-name="Phi" unicode="&#x3a6;" 
d="M964 700q0 133 -57 212.5t-154 79.5h-19v-595h26q91 0 147.5 84.5t56.5 218.5zM496 -11v209h-24q-133 0 -239.5 64.5t-165 181t-58.5 260.5q0 226 126.5 356.5t348.5 130.5h12v168h238v-168h12q222 0 348.5 -130.5t126.5 -356.5q0 -222 -129.5 -364t-333.5 -142h-24v-209
h-238zM266 700q0 -135 56.5 -219t147.5 -84h26v595h-19q-96 0 -153.5 -79t-57.5 -213z" />
    <glyph glyph-name="alpha" unicode="&#x3b1;" 
d="M850 237q-62 -135 -148 -196t-211 -61q-212 0 -316.5 137.5t-104.5 418.5q0 284 113.5 425t333.5 141q131 0 225.5 -66.5t142.5 -188.5h3q25 124 75 235h265q-50 -91 -103.5 -251t-65.5 -275q32 -309 136 -556h-270q-49 120 -71 237h-4zM365 539q0 -196 42.5 -281
t138.5 -85q89 0 153 101t82 268q-22 178 -80.5 272t-146.5 94q-102 0 -145.5 -89t-43.5 -280z" />
    <glyph glyph-name="delta" unicode="&#x3b4;" 
d="M856 487q0 110 -45.5 209t-153.5 207q-141 -50 -216 -157.5t-75 -264.5q0 -145 62 -225t174 -80q124 0 189 78t65 233zM724 1294l-147 7l323 -293q131 -119 188.5 -245.5t57.5 -279.5q0 -148 -64.5 -262.5t-187.5 -177.5t-287 -63q-252 0 -391.5 132.5t-139.5 368.5
q0 382 465 542l-312 314v147h853v-190h-358z" />
    <glyph glyph-name="epsilon" unicode="&#x3b5;" 
d="M630 168q188 0 340 157l163 -140q-100 -103 -231.5 -154t-280.5 -51q-230 0 -360 84t-130 233q0 106 93.5 178t234.5 83v2q-128 13 -211.5 84.5t-83.5 167.5q0 130 134 210t359 80q308 0 460 -189l-182 -123q-47 62 -122.5 97.5t-159.5 35.5q-106 0 -164 -33.5t-58 -88.5
q0 -74 98 -111.5t310 -37.5v-177q-200 0 -309.5 -41t-109.5 -120q0 -69 56.5 -107.5t153.5 -38.5z" />
    <glyph glyph-name="sigma" unicode="&#x3c3;" 
d="M1130 458q0 -223 -140 -350.5t-382 -127.5q-252 0 -390 141.5t-138 402.5q0 268 158.5 413t460.5 145h522v-190h-135l-124 6v-4q88 -113 128 -220t40 -216zM836 492q0 216 -102 400h-54q-88 0 -158 -44.5t-108.5 -128t-38.5 -195.5q0 -175 60 -263.5t166 -88.5
q114 0 174.5 85.5t60.5 234.5z" />
    <glyph glyph-name="tau" unicode="&#x3c4;" 
d="M380 892q-82 0 -156 -12t-96 -25v198q24 12 77.5 20.5t105.5 8.5h759v-190h-345v-580q0 -72 28 -103.5t97 -31.5q39 0 103 8v-183q-32 -9 -95.5 -16t-101.5 -7q-163 0 -236 66.5t-73 205.5v641h-67z" />
    <glyph glyph-name="phi" unicode="&#x3c6;" 
d="M1187 565q0 -270 -122.5 -419.5t-348.5 -163.5v-407h-218v405q-221 11 -339 156t-118 408q0 232 99 371t310 191l21 -179q-93 -24 -144 -124.5t-51 -258.5q0 -186 56 -277.5t166 -99.5v535q0 198 85.5 300t249.5 102q160 0 257 -145.5t97 -393.5zM952 567q0 173 -32 268
t-91 95q-57 0 -85 -54t-28 -177v-533q121 6 178.5 106t57.5 295z" />
    <glyph glyph-name="underscoredbl" unicode="&#x2017;" 
d="M-5 -220v96h1238v-96h-1238zM-5 -425v96h1238v-96h-1238z" />
    <glyph glyph-name="exclamdbl" unicode="&#x203c;" 
d="M444 426h-230l-32 923h294zM182 0v270h288v-270h-288zM1014 426h-230l-32 923h294zM752 0v270h288v-270h-288z" />
    <glyph glyph-name="nsuperior" unicode="&#x207f;" 
d="M750 519v384q0 87 -23 120.5t-83 33.5q-62 0 -98.5 -48t-36.5 -139v-351h-178v511l-4 139h166q1 -3 2 -16.5t2.5 -30.5t3.5 -64h3q35 65 84.5 94t123.5 29q110 0 163.5 -54t53.5 -175v-433h-179z" />
    <glyph glyph-name="peseta" unicode="&#x20a7;" 
d="M582 1015q0 -165 -85 -263t-230 -98h-41v-654h-181v1349h210q327 0 327 -334zM1210 181q0 -84 -52 -137.5t-140 -53.5q-76 0 -127 47.5t-62 125.5l118 17q17 -88 73 -88q26 0 38 19.5t12 39.5q0 36 -22.5 67t-70.5 64q-74 51 -106 100.5t-32 106.5q0 81 52.5 128
t134.5 47q67 0 115.5 -47.5t56.5 -120.5l-119 -12q-5 36 -20.5 57.5t-34.5 21.5q-21 0 -33 -15.5t-12 -41.5q0 -37 26.5 -65.5t77.5 -63.5q127 -87 127 -196zM400 1012q0 95 -35.5 139.5t-122.5 44.5h-16v-391h24q150 0 150 207zM446 543v107h80l59 142h91v-142h131v-107
h-131v-364q0 -78 58 -78q45 0 72 7v-107q-51 -11 -103 -11q-84 0 -131 41t-47 120v392h-79z" />
    <glyph glyph-name="arrowleft" unicode="&#x2190;" 
d="M231 297q57 -67 119 -197h-72q-127 149 -270 222v36q143 73 270 222h72q-62 -130 -119 -197h989v-86h-989z" />
    <glyph glyph-name="arrowup" unicode="&#x2191;" 
d="M571 928q-67 -57 -197 -119v72q149 127 222 270h36q73 -143 222 -270v-72q-130 62 -197 119v-989h-86v989z" />
    <glyph glyph-name="arrowright" unicode="&#x2192;" 
d="M997 383q-57 67 -119 197h72q127 -149 270 -222v-36q-143 -73 -270 -222h-72q62 130 119 197h-989v86h989z" />
    <glyph glyph-name="arrowdown" unicode="&#x2193;" 
d="M657 162q67 57 197 119v-72q-149 -127 -222 -270h-36q-73 143 -222 270v72q130 -62 197 -119v989h86v-989z" />
    <glyph glyph-name="arrowboth" unicode="&#x2194;" 
d="M231 297q57 -67 119 -197h-72q-127 149 -270 222v36q143 73 270 222h72q-62 -130 -119 -197h766q-57 67 -119 197h72q127 -149 270 -222v-36q-143 -73 -270 -222h-72q62 130 119 197h-766z" />
    <glyph glyph-name="arrowupdn" unicode="&#x2195;" 
d="M571 928q-67 -57 -197 -119v72q149 127 222 270h36q73 -143 222 -270v-72q-130 62 -197 119v-766q67 57 197 119v-72q-149 -127 -222 -270h-36q-73 143 -222 270v72q130 -62 197 -119v766z" />
    <glyph glyph-name="arrowupdnbse" unicode="&#x21a8;" 
d="M374 -104h480v-80h-480v80zM571 928q-67 -57 -197 -119v72q149 127 222 270h36q73 -143 222 -270v-72q-130 62 -197 119v-766q67 57 197 119v-72q-149 -127 -222 -270h-36q-73 143 -222 270v72q130 -62 197 -119v766z" />
    <glyph glyph-name="orthogonal" unicode="&#x221f;" 
d="M52 1223h94v-1129h1030v-94h-1124v1223z" />
    <glyph glyph-name="intersection" unicode="&#x2229;" 
d="M156 -2v512q0 150 58 269.5t162.5 186t234.5 66.5q131 0 236.5 -66t165 -187t59.5 -269v-512h-103v514q0 190 -98 304t-258 114q-162 0 -258 -113t-96 -307v-512h-103z" />
    <glyph glyph-name="equivalence" unicode="&#x2261;" 
d="M116 956v148h995v-148h-995zM116 244v148h995v-148h-995zM116 600v148h995v-148h-995z" />
    <glyph glyph-name="house" unicode="&#x2302;" 
d="M138 0v635l476 448l476 -448v-635h-952zM221 85h786v512l-393 370l-393 -370v-512z" />
    <glyph glyph-name="revlogicalnot" unicode="&#x2310;" 
d="M262 608v-428h-147l1 574h995v-146h-849z" />
    <glyph glyph-name="integraltp" unicode="&#x2320;" 
d="M687 -615h-145v1822q0 233 82 365.5t231 132.5q70 0 120.5 -36.5t50.5 -92.5q0 -39 -25 -63.5t-60 -24.5q-39 0 -60.5 18t-36 39.5t-28 39.5t-35.5 18q-51 0 -72.5 -75.5t-21.5 -242.5v-1900z" />
    <glyph glyph-name="integralbt" unicode="&#x2321;" 
d="M542 1705h145v-1822q0 -237 -83 -367.5t-230 -130.5q-70 0 -120.5 36.5t-50.5 92.5q0 39 25 63.5t60 24.5q39 0 60.5 -18t36 -39.5t28 -39.5t35.5 -18q51 0 72.5 75.5t21.5 242.5v1900z" />
    <glyph glyph-name="uni2500" unicode="&#x2500;" 
d="M-10 555v145h1249v-145h-1249z" />
    <glyph glyph-name="uni2502" unicode="&#x2502;" 
d="M542 1705h145v-2320h-145v2320z" />
    <glyph glyph-name="uni250C" unicode="&#x250c;" 
d="M542 700h697v-145h-552v-1170h-145v1315z" />
    <glyph glyph-name="uni2510" unicode="&#x2510;" 
d="M-10 555v145h697v-1315h-145v1170h-552z" />
    <glyph glyph-name="uni2514" unicode="&#x2514;" 
d="M542 1705h145v-1005h552v-145h-697v1150z" />
    <glyph glyph-name="uni2518" unicode="&#x2518;" 
d="M-10 555v145h552v1005h145v-1150h-697z" />
    <glyph glyph-name="uni251C" unicode="&#x251c;" 
d="M542 1705h145v-1005h552v-145h-552v-1170h-145v2320z" />
    <glyph glyph-name="uni2524" unicode="&#x2524;" 
d="M-10 555v145h552v1005h145v-2320h-145v1170h-552z" />
    <glyph glyph-name="uni252C" unicode="&#x252c;" 
d="M-10 555v145h1249v-145h-552v-1170h-145v1170h-552z" />
    <glyph glyph-name="uni2534" unicode="&#x2534;" 
d="M-10 555v145h552v1005h145v-1005h552v-145h-1249z" />
    <glyph glyph-name="uni253C" unicode="&#x253c;" 
d="M-10 555v145h552v1005h145v-1005h552v-145h-552v-1170h-145v1170h-552z" />
    <glyph glyph-name="uni2550" unicode="&#x2550;" 
d="M-10 735v145h1249v-145h-1249zM-10 375v145h1249v-145h-1249z" />
    <glyph glyph-name="uni2551" unicode="&#x2551;" 
d="M362 1705h145v-2320h-145v2320zM722 1705h145v-2320h-145v2320z" />
    <glyph glyph-name="uni2552" unicode="&#x2552;" 
d="M542 880h697v-145h-552v-215h552v-145h-552v-990h-145v1495z" />
    <glyph glyph-name="uni2553" unicode="&#x2553;" 
d="M1239 700v-145h-372v-1170h-145v1170h-215v-1170h-145v1315h877z" />
    <glyph glyph-name="uni2554" unicode="&#x2554;" 
d="M362 880h877v-145h-732v-1350h-145v1495zM722 520h517v-145h-372v-990h-145v1135z" />
    <glyph glyph-name="uni2555" unicode="&#x2555;" 
d="M-10 375v145h552v215h-552v145h697v-1495h-145v990h-552z" />
    <glyph glyph-name="uni2556" unicode="&#x2556;" 
d="M-10 555v145h877v-1315h-145v1170h-215v-1170h-145v1170h-372z" />
    <glyph glyph-name="uni2557" unicode="&#x2557;" 
d="M867 880v-1495h-145v1350h-732v145h877zM507 -615h-145v990h-372v145h517v-1135z" />
    <glyph glyph-name="uni2558" unicode="&#x2558;" 
d="M542 1705h145v-825h552v-145h-552v-215h552v-145h-697v1330z" />
    <glyph glyph-name="uni2559" unicode="&#x2559;" 
d="M722 1705h145v-1005h372v-145h-877v1150h145v-1005h215v1005z" />
    <glyph glyph-name="uni255A" unicode="&#x255a;" 
d="M362 1705h145v-1185h732v-145h-877v1330zM722 1705h145v-825h372v-145h-517v970z" />
    <glyph glyph-name="uni255B" unicode="&#x255b;" 
d="M-10 375v145h552v215h-552v145h552v825h145v-1330h-697z" />
    <glyph glyph-name="uni255C" unicode="&#x255c;" 
d="M867 555h-877v145h372v1005h145v-1005h215v1005h145v-1150z" />
    <glyph glyph-name="uni255D" unicode="&#x255d;" 
d="M867 375h-877v145h732v1185h145v-1330zM362 1705h145v-970h-517v145h372v825z" />
    <glyph glyph-name="uni255E" unicode="&#x255e;" 
d="M542 1705h145v-825h552v-145h-552v-215h552v-145h-552v-990h-145v2320z" />
    <glyph glyph-name="uni255F" unicode="&#x255f;" 
d="M722 1705h145v-1005h372v-145h-372v-1170h-145v2320zM362 1705h145v-2320h-145v2320z" />
    <glyph glyph-name="uni2560" unicode="&#x2560;" 
d="M507 -615h-145v2320h145v-2320zM722 520h517v-145h-372v-990h-145v1135zM722 1705h145v-825h372v-145h-517v970z" />
    <glyph glyph-name="uni2561" unicode="&#x2561;" 
d="M-10 375v145h552v215h-552v145h552v825h145v-2320h-145v990h-552z" />
    <glyph glyph-name="uni2562" unicode="&#x2562;" 
d="M-10 555v145h372v1005h145v-2320h-145v1170h-372zM722 1705h145v-2320h-145v2320z" />
    <glyph glyph-name="uni2563" unicode="&#x2563;" 
d="M722 1705h145v-2320h-145v2320zM362 1705h145v-970h-517v145h372v825zM507 -615h-145v990h-372v145h517v-1135z" />
    <glyph glyph-name="uni2564" unicode="&#x2564;" 
d="M-10 375v145h1249v-145h-552v-990h-145v990h-552zM-10 735v145h1249v-145h-1249z" />
    <glyph glyph-name="uni2565" unicode="&#x2565;" 
d="M-10 555v145h1249v-145h-372v-1170h-145v1170h-215v-1170h-145v1170h-372z" />
    <glyph glyph-name="uni2566" unicode="&#x2566;" 
d="M507 -615h-145v990h-372v145h517v-1135zM722 520h517v-145h-372v-990h-145v1135zM1239 880v-145h-1249v145h1249z" />
    <glyph glyph-name="uni2567" unicode="&#x2567;" 
d="M-10 735v145h552v825h145v-825h552v-145h-1249zM-10 375v145h1249v-145h-1249z" />
    <glyph glyph-name="uni2568" unicode="&#x2568;" 
d="M-10 555v145h372v1005h145v-1005h215v1005h145v-1005h372v-145h-1249z" />
    <glyph glyph-name="uni2569" unicode="&#x2569;" 
d="M722 1705h145v-825h372v-145h-517v970zM362 1705h145v-970h-517v145h372v825zM-10 375v145h1249v-145h-1249z" />
    <glyph glyph-name="uni256A" unicode="&#x256a;" 
d="M-10 375v145h552v215h-552v145h552v825h145v-825h552v-145h-552v-215h552v-145h-552v-990h-145v990h-552z" />
    <glyph glyph-name="uni256B" unicode="&#x256b;" 
d="M722 1705h145v-1005h372v-145h-372v-1170h-145v1170h-215v-1170h-145v1170h-372v145h372v1005h145v-1005h215v1005z" />
    <glyph glyph-name="uni256C" unicode="&#x256c;" 
d="M722 1705h145v-825h372v-145h-517v970zM507 -615h-145v990h-372v145h517v-1135zM722 520h517v-145h-372v-990h-145v1135zM362 1705h145v-970h-517v145h372v825z" />
    <glyph glyph-name="upblock" unicode="&#x2580;" 
d="M1229 627h-1229v1078h1229v-1078z" />
    <glyph glyph-name="dnblock" unicode="&#x2584;" 
d="M1229 -615h-1229v1242h1229v-1242z" />
    <glyph glyph-name="block" unicode="&#x2588;" 
d="M1229 -615h-1229v2320h1229v-2320z" />
    <glyph glyph-name="lfblock" unicode="&#x258c;" 
d="M615 -615h-615v2320h615v-2320z" />
    <glyph glyph-name="rtblock" unicode="&#x2590;" 
d="M1229 -615h-615v2320h615v-2320z" />
    <glyph glyph-name="ltshade" unicode="&#x2591;" 
d="M0 1320h103v-98h-103v98zM410 1320h103v-98h-103v98zM820 1320h103v-98h-103v98zM205 1125h102v-96h-102v96zM615 1125h102v-96h-102v96zM1025 1125h102v-96h-102v96zM0 933h103v-96h-103v96zM410 933h103v-96h-103v96zM820 933h103v-96h-103v96zM205 738h102v-96h-102
v96zM615 738h102v-96h-102v96zM1025 738h102v-96h-102v96zM0 546h103v-96h-103v96zM410 546h103v-96h-103v96zM820 546h103v-96h-103v96zM615 351h102v-96h-102v96zM1025 351h102v-96h-102v96zM205 351h102v-96h-102v96zM820 159h103v-97h-103v97zM410 159h103v-97h-103v97z
M0 159h103v-97h-103v97zM205 -36h102v-94h-102v94zM615 -36h102v-94h-102v94zM1025 -36h102v-94h-102v94zM820 -228h103v-97h-103v97zM410 -228h103v-97h-103v97zM0 -228h103v-97h-103v97zM205 -421h102v-96h-102v96zM615 -421h102v-96h-102v96zM1025 -421h102v-96h-102v96z
M205 1512h102v-98h-102v98zM615 1512h102v-98h-102v98zM1025 1512h102v-98h-102v98zM0 1705h103v-96h-103v96zM410 1705h103v-96h-103v96zM820 1705h103v-96h-103v96z" />
    <glyph glyph-name="shade" unicode="&#x2592;" 
d="M102 1320h103v-98h-103v98zM307 1320h103v-98h-103v98zM512 1320h103v-98h-103v98zM717 1320h103v-98h-103v98zM922 1320h103v-98h-103v98zM1127 1320h103v-98h-103v98zM0 1125h102v-96h-102v96zM205 1125h102v-96h-102v96zM410 1125h102v-96h-102v96zM615 1125h102v-96
h-102v96zM820 1125h102v-96h-102v96zM1025 1125h102v-96h-102v96zM102 933h103v-96h-103v96zM307 933h103v-96h-103v96zM512 933h103v-96h-103v96zM717 933h103v-96h-103v96zM922 933h103v-96h-103v96zM1127 933h103v-96h-103v96zM0 738h102v-96h-102v96zM205 738h102v-96
h-102v96zM410 738h102v-96h-102v96zM615 738h102v-96h-102v96zM820 738h102v-96h-102v96zM1025 738h102v-96h-102v96zM102 546h103v-96h-103v96zM307 546h103v-96h-103v96zM512 546h103v-96h-103v96zM717 546h103v-96h-103v96zM922 546h103v-96h-103v96zM1127 546h103v-96
h-103v96zM0 351h102v-96h-102v96zM410 351h102v-96h-102v96zM615 351h102v-96h-102v96zM820 351h102v-96h-102v96zM1025 351h102v-96h-102v96zM205 351h102v-96h-102v96zM1127 159h103v-97h-103v97zM922 159h103v-97h-103v97zM717 159h103v-97h-103v97zM512 159h103v-97
h-103v97zM307 159h103v-97h-103v97zM102 159h103v-97h-103v97zM0 -36h102v-94h-102v94zM205 -36h102v-94h-102v94zM410 -36h102v-94h-102v94zM615 -36h102v-94h-102v94zM820 -36h102v-94h-102v94zM1025 -36h102v-94h-102v94zM1127 -228h103v-97h-103v97zM922 -228h103v-97
h-103v97zM717 -228h103v-97h-103v97zM512 -228h103v-97h-103v97zM307 -228h103v-97h-103v97zM102 -228h103v-97h-103v97zM0 -421h102v-96h-102v96zM205 -421h102v-96h-102v96zM410 -421h102v-96h-102v96zM615 -421h102v-96h-102v96zM820 -421h102v-96h-102v96zM1025 -421
h102v-96h-102v96zM0 1512h102v-98h-102v98zM205 1512h102v-98h-102v98zM410 1512h102v-98h-102v98zM615 1512h102v-98h-102v98zM820 1512h102v-98h-102v98zM1025 1512h102v-98h-102v98zM102 1705h103v-96h-103v96zM307 1705h103v-96h-103v96zM512 1705h103v-96h-103v96z
M717 1705h103v-96h-103v96zM922 1705h103v-96h-103v96zM1127 1705h103v-96h-103v96z" />
    <glyph glyph-name="dkshade" unicode="&#x2593;" 
d="M1230 -615h-1230v290h102v97h-102v290h102v97h-102v291h102v96h-102v289h102v98h-102v289h102v98h-102v289h102v96h103v-96h102v96h103v-96h102v96h103v-96h102v96h103v-96h102v96h103v-96h102v96h103v-193h-103v-98h103v-289h-103v-96h103v-291h-103v-96h103v-291h-103
v-96h103v-291h-103v-94h103v-291h-103v-96h103v-98zM102 1125v-96h103v96h-103zM307 1125v-96h103v96h-103zM512 1125v-96h103v96h-103zM717 1125v-96h103v96h-103zM922 933h-102v-98h102v98zM717 933h-102v-98h102v98zM512 933h-102v-98h102v98zM307 933h-102v-98h102v98z
M102 738v-96h103v96h-103zM307 738v-96h103v96h-103zM512 738v-96h103v96h-103zM717 738v-96h103v96h-103zM307 546h-102v-96h102v96zM410 546v-96h102v96h-102zM615 546v-96h102v96h-102zM820 546v-96h102v96h-102zM102 351v-96h103v96h-103zM512 351v-96h103v96h-103z
M410 255v96h-103v-96h103zM717 351v-96h103v96h-103zM922 62v97h-102v-97h102zM717 62v97h-102v-97h102zM512 62v97h-102v-97h102zM307 62v97h-102v-97h102zM102 -36v-94h103v94h-103zM307 -36v-94h103v94h-103zM512 -36v-94h103v94h-103zM717 -36v-94h103v94h-103z
M922 -325v97h-102v-97h102zM717 -325v97h-102v-97h102zM512 -325v97h-102v-97h102zM307 -325v97h-102v-97h102zM102 -421v-96h103v96h-103zM307 -421v-96h103v96h-103zM512 -421v-96h103v96h-103zM717 -421v-96h103v96h-103zM922 1320h-102v-98h102v98zM717 1320h-102v-98
h102v98zM512 1320h-102v-98h102v98zM307 1320h-102v-98h102v98zM820 1512h-103v-98h103v98zM615 1512h-103v-98h103v98zM410 1512h-103v-98h103v98zM205 1512h-103v-98h103v98zM922 1125v-96h103v96h-103zM1127 933h-102v-98h102v98zM922 738v-96h103v96h-103zM1025 546v-96
h102v96h-102zM922 351v-96h103v96h-103zM1127 62v97h-102v-97h102zM922 -36v-94h103v94h-103zM1127 -325v97h-102v-97h102zM922 -421v-96h103v96h-103zM1127 1320h-102v-98h102v98zM1025 1512h-103v-98h103v98z" />
    <glyph glyph-name="filledbox" unicode="&#x25a0;" 
d="M119 1108h991v-991h-991v991z" />
    <glyph glyph-name="filledrect" unicode="&#x25ac;" 
d="M8 546h1213v-476h-1213v476z" />
    <glyph glyph-name="triagup" unicode="&#x25b2;" 
d="M15 50l600 1148l598 -1148h-1198z" />
    <glyph glyph-name="triagrt" unicode="&#x25ba;" 
d="M52 1196l1175 -610l-1175 -613v1223z" />
    <glyph glyph-name="triagdn" unicode="&#x25bc;" 
d="M1213 1121l-598 -1148l-600 1148h1198z" />
    <glyph glyph-name="triaglf" unicode="&#x25c4;" 
d="M1177 1196v-1223l-1175 613z" />
    <glyph glyph-name="circle" unicode="&#x25cb;" 
d="M163 612q0 122 60 227t164.5 165.5t225.5 60.5q122 0 227 -60.5t165.5 -166t60.5 -226.5t-60.5 -225.5t-165 -164.5t-227.5 -60q-122 0 -226 60t-164 164t-60 226zM249 612q0 -98 49 -182.5t132.5 -133t182.5 -48.5q98 0 182.5 48t134.5 133t50 183t-49 183.5
t-134.5 134.5t-183.5 49q-97 0 -181.5 -49t-133.5 -133.5t-49 -184.5z" />
    <glyph glyph-name="invbullet" unicode="&#x25d8;" 
d="M37 0v1155h1155v-1155h-1155zM172 577q0 -118 59 -220t160.5 -161t220.5 -59q118 0 220.5 59t161.5 161.5t59 219.5q0 118 -59 220.5t-161 161.5t-221 59q-118 0 -220.5 -59.5t-161 -161.5t-58.5 -220z" />
    <glyph glyph-name="invcircle" unicode="&#x25d9;" 
d="M37 0v1155h1155v-1155h-1155zM249 577q0 97 49 182t134 134t182 49t182 -49t134 -134t49 -182t-49 -182t-134 -134t-182 -49t-182 49t-134 134t-49 182zM172 577q0 -118 59 -220t160.5 -161t220.5 -59q118 0 220.5 59t161.5 161.5t59 219.5q0 118 -59 220.5t-161 161.5
t-221 59q-118 0 -220.5 -59.5t-161 -161.5t-58.5 -220z" />
    <glyph glyph-name="smileface" unicode="&#x263a;" 
d="M27 589q0 158 78.5 294t214.5 214.5t294 78.5t293.5 -78.5t214.5 -214.5t79 -294t-78.5 -294t-214.5 -214.5t-294 -78.5t-294 78.5t-214.5 214.5t-78.5 294zM90 589q0 -140 70 -261.5t191.5 -192t262.5 -70.5q140 0 261.5 70.5t191.5 192.5t70 261q0 140 -70 261
t-191 191.5t-262 70.5q-140 0 -261.5 -70t-192 -192t-70.5 -261zM326 741q0 29 20.5 50t49.5 21t50 -21t21 -50t-21 -49.5t-50 -20.5t-49.5 20.5t-20.5 49.5zM761 741q0 29 20.5 50t49.5 21t50 -21t21 -50t-21 -49.5t-50 -20.5t-49.5 20.5t-20.5 49.5zM353 442
q58 -78 120.5 -107t140.5 -29q80 0 142 29.5t119 106.5l58 -49q-112 -177 -319 -177q-71 0 -128.5 20t-101 54t-89.5 103z" />
    <glyph glyph-name="invsmileface" unicode="&#x263b;" 
d="M27 589q0 158 78.5 294t214.5 214.5t294 78.5t293.5 -78.5t214.5 -214.5t79 -294t-78.5 -294t-214.5 -214.5t-294 -78.5t-294 78.5t-214.5 214.5t-78.5 294zM326 741q0 -29 20.5 -49.5t49.5 -20.5t50 20.5t21 49.5t-21 50t-50 21t-49.5 -21t-20.5 -50zM761 741
q0 -29 20.5 -49.5t49.5 -20.5t50 20.5t21 49.5t-21 50t-50 21t-49.5 -21t-20.5 -50zM295 393q45 -68 88.5 -102t100.5 -54.5t130 -20.5q207 0 319 177l-58 49q-58 -78 -120.5 -107t-140.5 -29q-79 0 -141.5 29.5t-119.5 106.5z" />
    <glyph glyph-name="sun" unicode="&#x263c;" 
d="M224 907l164 -165q87 69 190 79v233h72v-233q102 -9 189 -79l165 165l51 -51l-165 -165q70 -87 79 -189h233v-72h-233q-10 -103 -79 -190l165 -164l-51 -51l-165 164q-87 -70 -189 -79v-232h-72v232q-103 10 -190 79l-164 -164l-51 51l164 164q-69 87 -79 190h-232v72
h232q9 102 79 189l-164 165zM329 466q0 -118 82.5 -201.5t202.5 -83.5t202.5 83.5t82.5 201.5t-83.5 201.5t-201.5 83.5t-201.5 -83.5t-83.5 -201.5z" />
    <glyph glyph-name="female" unicode="&#x2640;" 
d="M344 376h234v202q-114 14 -188 99t-74 197q0 123 87.5 210.5t210.5 87.5t210.5 -87.5t87.5 -210.5q0 -111 -74 -196t-188 -100v-202h234v-72h-234v-234h-72v234h-234v72zM388 874q0 -94 66 -160t160 -66q95 0 160.5 67t65.5 159q0 93 -66 159.5t-160 66.5
q-91 0 -158.5 -65t-67.5 -161z" />
    <glyph glyph-name="male" unicode="&#x2642;" 
d="M164 412q0 123 87.5 210.5t210.5 87.5q102 0 183 -64l257 257l-226 20l-2 55h331l23 -23v-331l-55 2l-20 226l-257 -257q64 -81 64 -183q0 -123 -87.5 -210.5t-210.5 -87.5t-210.5 87.5t-87.5 210.5zM236 412q0 -94 66 -160t160 -66q95 0 160.5 67t65.5 159
q0 93 -66 159.5t-160 66.5q-91 0 -158.5 -65t-67.5 -161z" />
    <glyph glyph-name="spade" unicode="&#x2660;" 
d="M640 1195q0 -86 71 -192.5t180 -192.5q130 -102 182.5 -177.5t52.5 -154.5q0 -108 -68 -173t-167 -65q-60 0 -126 28.5t-103 71.5q0 -133 87.5 -208.5t232.5 -75.5v-56h-736v56q145 0 232.5 75.5t87.5 208.5q-38 -43 -104 -71.5t-125 -28.5q-100 0 -167.5 65t-67.5 173
q0 77 49.5 150t185.5 182q109 85 180 192.5t71 192.5h52z" />
    <glyph glyph-name="club" unicode="&#x2663;" 
d="M614 1195q85 0 147 -30.5t96 -85t34 -118.5q0 -67 -33.5 -133.5t-84.5 -102.5l55 3q135 0 219 -68.5t84 -181.5q0 -108 -68 -173t-167 -65q-61 0 -129 29.5t-105 70.5q0 -133 87.5 -208.5t232.5 -75.5v-56h-736v56q145 0 232.5 75.5t87.5 208.5q-36 -41 -103.5 -70.5
t-130.5 -29.5q-100 0 -167.5 65t-67.5 173q0 114 84 182t219 68l55 -3q-51 36 -84.5 102.5t-33.5 133.5q0 64 34 118.5t96 85t147 30.5z" />
    <glyph glyph-name="heart" unicode="&#x2665;" 
d="M588 -1q0 68 -59.5 172.5t-191.5 262.5q-235 285 -235 446q0 70 33.5 127t90.5 89t121 32q89 0 161.5 -65.5t102.5 -164.5h6q30 100 103 165t161 65q64 0 121 -32t90.5 -89.5t33.5 -126.5q0 -161 -235 -446q-108 -133 -152.5 -200t-71.5 -126.5t-27 -108.5h-52z" />
    <glyph glyph-name="diamond" unicode="&#x2666;" 
d="M132 597v3q249 284 476 598h12q227 -314 476 -598v-3q-249 -284 -476 -598h-12q-227 314 -476 598z" />
    <glyph glyph-name="musicalnote" unicode="&#x266a;" 
d="M788 272q35 38 55.5 95.5t20.5 122.5q0 104 -55 186.5t-145 112.5v-598q0 -68 -68 -117.5t-154 -49.5q-69 0 -114.5 34t-45.5 90q0 65 68.5 115t151.5 50q58 0 100 -23v836h38q12 -116 133 -239q87 -89 125.5 -171.5t38.5 -184.5q0 -72 -27.5 -140t-75.5 -119h-46z" />
    <glyph glyph-name="musicalnotedbl" unicode="&#x266b;" 
d="M862 44q-69 0 -114.5 34t-45.5 90q0 65 68.5 115t151.5 50q58 0 100 -23v435l-528 -81v-543q0 -68 -68 -117.5t-154 -49.5q-69 0 -114.5 34t-45.5 90q0 65 68.5 115t151.5 50q58 0 100 -23v835l652 100v-944q0 -68 -68 -117.5t-154 -49.5zM494 804l528 81v120l-528 -81
v-120z" />
    <glyph glyph-name="IJ" unicode="&#x132;" 
d="M73 1349h284v-1349h-284v1349zM784 -20q-173 0 -261.5 89t-105.5 291l264 38q11 -102 34.5 -144.5t75.5 -42.5q46 0 64 47t18 156v704h-254v231h540v-903q0 -466 -375 -466z" />
    <glyph glyph-name="ij" unicode="&#x133;" 
d="M451 0h-281v1082h281v-1082zM170 1277v207h281v-207h-281zM1053 -13q0 -129 -56.5 -221.5t-161 -141.5t-241.5 -49q-79 0 -161 13t-127 30v210q136 -34 263 -34q110 0 156 53.5t46 162.5v1072h282v-1095zM772 1277v207h281v-207h-281z" />
    <glyph glyph-name="napostrophe" unicode="&#x149;" 
d="M905 0v619q0 142 -36 207.5t-115 65.5q-90 0 -149.5 -89.5t-59.5 -222.5v-580h-281v840q0 87 -2.5 142.5t-5.5 99.5h268q3 -19 8 -101.5t5 -113.5h4q109 236 328 236q155 0 235.5 -106t80.5 -310v-687h-280zM0 995v33l89 322h257v-37l-181 -318h-165z" />
    <glyph glyph-name="minute" unicode="&#x2032;" 
d="M714 844h-199l-37 641h273z" />
    <glyph glyph-name="second" unicode="&#x2033;" 
d="M942 844h-199l-37 641h275zM486 844h-199l-37 641h273z" />
    <glyph glyph-name="uni2105" unicode="&#x2105;" 
d="M1229 404q0 -201 -71 -308.5t-199 -107.5t-196.5 107.5t-68.5 308.5q0 211 66.5 316t202.5 105q266 0 266 -421zM1061 404q0 290 -98 290q-102 0 -102 -290q0 -140 26.5 -213t73.5 -73t73.5 75.5t26.5 210.5zM166 945q0 -143 28.5 -216t77.5 -73q38 0 56 41.5t28 127.5
l161 -9q-14 -131 -79 -212.5t-162 -81.5q-135 0 -205.5 111.5t-70.5 308.5q0 202 70 310t205 108q95 0 156 -73t81 -206l-163 -11q-11 80 -20 106t-23 38.5t-35 12.5q-105 0 -105 -282zM332 0h-138l703 1349h135z" />
    <glyph glyph-name="uni2113" unicode="&#x2113;" 
d="M697 195q80 0 122.5 53t65.5 160h146q-84 -428 -415 -428q-169 0 -248.5 83.5t-79.5 246.5v166l-132 -48v195l132 48v390q0 180 105 274t296 94q167 0 260.5 -77.5t93.5 -219.5q0 -192 -124.5 -334t-350.5 -220v-201q0 -182 129 -182zM804 1107q0 69 -27 111t-84 42
q-117 0 -117 -148v-336q106 43 167 132.5t61 198.5z" />
    <glyph glyph-name="uni25A1" unicode="&#x25a1;" 
d="M2 1225h1225v-1225h-1225v1225zM78 1149v-1073h1073v1073h-1073z" />
    <glyph glyph-name="uni25AA" unicode="&#x25aa;" 
d="M868 383h-508v508h508v-508z" />
    <glyph glyph-name="uni25AB" unicode="&#x25ab;" 
d="M868 383h-508v508h508v-508zM792 459v354h-356v-354h356z" />
    <glyph glyph-name="uni25CF" unicode="&#x25cf;" 
d="M614 1018q110 0 218.5 -58t165.5 -167t57 -215q0 -183 -129 -312t-312 -129q-182 0 -311 129.5t-129 311.5q0 108 55.5 214.5t163 166t221.5 59.5z" />
    <glyph glyph-name="openbullet" unicode="&#x25e6;" 
d="M862 637q0 -107 -75.5 -177.5t-172.5 -70.5q-68 0 -124 32.5t-90 89.5t-34 126q0 103 73.5 175.5t174.5 72.5q103 0 174 -74q74 -71 74 -174zM786 637q0 70 -51 121t-121 51t-121 -51t-51 -121q0 -71 49 -121.5t123 -50.5q77 0 124.5 52.5t47.5 119.5z" />
    <glyph glyph-name="Amacron" unicode="&#x100;" 
d="M1229 0h-294l-92 330h-456l-92 -330h-295l443 1349h344zM615 1167q-8 -42 -29.5 -125.5t-136.5 -489.5h332q-117 412 -137.5 493t-28.5 122zM310 1638h612v-168h-612v168z" />
    <glyph glyph-name="amacron" unicode="&#x101;" 
d="M439 -20q-157 0 -245 85.5t-88 240.5q0 168 104.5 255.5t312.5 90.5l223 4v55q0 103 -35 156t-113 53q-73 0 -107.5 -36.5t-42.5 -116.5l-293 14q54 321 455 321q202 0 309.5 -99t107.5 -291v-392q0 -91 20.5 -125.5t68.5 -34.5q32 0 62 6v-152l-45 -11t-40 -8t-42.5 -5
t-52.5 -2q-106 0 -156.5 52t-60.5 153h-6q-63 -113 -143.5 -163t-192.5 -50zM746 501l-134 -2q-90 -2 -130.5 -18.5t-61.5 -53t-21 -99.5q0 -152 120 -152q97 0 162 76.5t65 193.5v55zM301 1371h612v-168h-612v168z" />
    <glyph glyph-name="Ccircumflex" unicode="&#x108;" 
d="M380 681q0 -225 70 -347t209 -122q162 0 240 244l273 -52q-133 -424 -516 -424q-281 0 -428.5 178.5t-147.5 522.5q0 689 568 689q186 0 311.5 -98t184.5 -291l-272 -66q-29 106 -87 164.5t-133 58.5q-272 0 -272 -457zM1003 1455v-28h-159l-203 134h-4l-211 -134h-160
v28l258 250h229z" />
    <glyph glyph-name="ccircumflex" unicode="&#x109;" 
d="M624 -20q-246 0 -380 146.5t-134 408.5q0 268 135 417.5t383 149.5q191 0 316 -96t157 -265l-283 -14q-12 83 -60 132.5t-136 49.5q-217 0 -217 -363q0 -374 221 -374q80 0 134 50.5t67 150.5l282 -13q-15 -111 -79.5 -198t-169.5 -134.5t-236 -47.5zM983 1211v-28h-159
l-203 134h-4l-211 -134h-160v28l258 250h229z" />
    <glyph glyph-name="Cdotaccent" unicode="&#x10a;" 
d="M380 681q0 -225 70 -347t209 -122q162 0 240 244l273 -52q-133 -424 -516 -424q-281 0 -428.5 178.5t-147.5 522.5q0 689 568 689q186 0 311.5 -98t184.5 -291l-272 -66q-29 106 -87 164.5t-133 58.5q-272 0 -272 -457zM504 1421v207h281v-207h-281z" />
    <glyph glyph-name="cdotaccent" unicode="&#x10b;" 
d="M624 -20q-246 0 -380 146.5t-134 408.5q0 268 135 417.5t383 149.5q191 0 316 -96t157 -265l-283 -14q-12 83 -60 132.5t-136 49.5q-217 0 -217 -363q0 -374 221 -374q80 0 134 50.5t67 150.5l282 -13q-15 -111 -79.5 -198t-169.5 -134.5t-236 -47.5zM494 1267v207h281
v-207h-281z" />
    <glyph glyph-name="Emacron" unicode="&#x112;" 
d="M137 0v1349h968v-228h-673v-324h612v-228h-612v-341h714v-228h-1009zM326 1638h612v-168h-612v168z" />
    <glyph glyph-name="emacron" unicode="&#x113;" 
d="M626 -20q-252 0 -389 148.5t-137 417.5q0 180 64.5 304t183.5 188t282 64q237 0 368 -158t131 -449v-8h-734q0 -147 65.5 -233t179.5 -86q74 0 131 31.5t77 97.5l265 -23q-55 -141 -183 -217.5t-304 -76.5zM626 925q-103 0 -164 -69.5t-65 -192.5h460q-7 120 -68.5 191
t-162.5 71zM310 1371h612v-168h-612v168z" />
    <glyph glyph-name="Ebreve" unicode="&#x114;" 
d="M137 0v1349h968v-228h-673v-324h612v-228h-612v-341h714v-228h-1009zM612 1427q-161 0 -251 72.5t-101 205.5h163q15 -121 191 -121q88 0 132 29t58 92h164q-34 -278 -356 -278z" />
    <glyph glyph-name="ebreve" unicode="&#x115;" 
d="M626 -20q-252 0 -389 148.5t-137 417.5q0 180 64.5 304t183.5 188t282 64q237 0 368 -158t131 -449v-8h-734q0 -147 65.5 -233t179.5 -86q74 0 131 31.5t77 97.5l265 -23q-55 -141 -183 -217.5t-304 -76.5zM626 925q-103 0 -164 -69.5t-65 -192.5h460q-7 120 -68.5 191
t-162.5 71zM616 1183q-161 0 -251 72.5t-101 205.5h163q15 -121 191 -121q88 0 132 29t58 92h164q-34 -278 -356 -278z" />
    <glyph glyph-name="Edotaccent" unicode="&#x116;" 
d="M137 0v1349h968v-228h-673v-324h612v-228h-612v-341h714v-228h-1009zM474 1421v207h281v-207h-281z" />
    <glyph glyph-name="edotaccent" unicode="&#x117;" 
d="M626 -20q-252 0 -389 148.5t-137 417.5q0 180 64.5 304t183.5 188t282 64q237 0 368 -158t131 -449v-8h-734q0 -147 65.5 -233t179.5 -86q74 0 131 31.5t77 97.5l265 -23q-55 -141 -183 -217.5t-304 -76.5zM626 925q-103 0 -164 -69.5t-65 -192.5h460q-7 120 -68.5 191
t-162.5 71zM476 1273v207h281v-207h-281z" />
    <glyph glyph-name="Gcircumflex" unicode="&#x11c;" 
d="M1128 185q-243 -205 -493 -205q-261 0 -408 183.5t-147 517.5q0 689 558 689q180 0 294 -93t168 -282l-274 -54q-53 197 -185 197q-135 0 -198.5 -108t-63.5 -349q0 -223 67 -344t204 -121q53 0 109.5 20t98.5 54v235h-274v218h544v-558zM983 1455v-28h-159l-203 134h-4
l-211 -134h-160v28l258 250h229z" />
    <glyph glyph-name="gcircumflex" unicode="&#x11d;" 
d="M616 -434q-186 0 -303 77t-144 214l281 33q15 -65 62 -103t112 -38q101 0 153 72.5t52 215.5v59l2 115h-2q-93 -199 -328 -199q-179 0 -278 139.5t-99 398.5q0 262 103 405.5t295 143.5q105 0 184 -48.5t123 -142.5h5q0 35 4.5 95t9.5 79h266q-6 -108 -6 -250v-799
q0 -227 -127.5 -347t-364.5 -120zM831 556q0 164 -56 257t-153 93q-100 0 -152.5 -90.5t-52.5 -265.5q0 -174 54 -258.5t149 -84.5q102 0 156.5 94t54.5 255zM974 1211v-28h-159l-203 134h-4l-211 -134h-160v28l258 250h229z" />
    <glyph glyph-name="Gdotaccent" unicode="&#x120;" 
d="M1128 185q-243 -205 -493 -205q-261 0 -408 183.5t-147 517.5q0 689 558 689q180 0 294 -93t168 -282l-274 -54q-53 197 -185 197q-135 0 -198.5 -108t-63.5 -349q0 -223 67 -344t204 -121q53 0 109.5 20t98.5 54v235h-274v218h544v-558zM484 1421v207h281v-207h-281z
" />
    <glyph glyph-name="gdotaccent" unicode="&#x121;" 
d="M616 -434q-186 0 -303 77t-144 214l281 33q15 -65 62 -103t112 -38q101 0 153 72.5t52 215.5v59l2 115h-2q-93 -199 -328 -199q-179 0 -278 139.5t-99 398.5q0 262 103 405.5t295 143.5q105 0 184 -48.5t123 -142.5h5q0 35 4.5 95t9.5 79h266q-6 -108 -6 -250v-799
q0 -227 -127.5 -347t-364.5 -120zM831 556q0 164 -56 257t-153 93q-100 0 -152.5 -90.5t-52.5 -265.5q0 -174 54 -258.5t149 -84.5q102 0 156.5 94t54.5 255zM465 1267v207h281v-207h-281z" />
    <glyph glyph-name="Gcommaaccent" unicode="&#x122;" 
d="M1128 185q-243 -205 -493 -205q-261 0 -408 183.5t-147 517.5q0 689 558 689q180 0 294 -93t168 -282l-274 -54q-53 197 -185 197q-135 0 -198.5 -108t-63.5 -349q0 -223 67 -344t204 -121q53 0 109.5 20t98.5 54v235h-274v218h544v-558zM435 -453v33l89 322h257v-37
l-181 -318h-165z" />
    <glyph glyph-name="gcommaaccent" unicode="&#x123;" 
d="M616 -434q-186 0 -303 77t-144 214l281 33q15 -65 62 -103t112 -38q101 0 153 72.5t52 215.5v59l2 115h-2q-93 -199 -328 -199q-179 0 -278 139.5t-99 398.5q0 262 103 405.5t295 143.5q105 0 184 -48.5t123 -142.5h5q0 35 4.5 95t9.5 79h266q-6 -108 -6 -250v-799
q0 -227 -127.5 -347t-364.5 -120zM831 556q0 164 -56 257t-153 93q-100 0 -152.5 -90.5t-52.5 -265.5q0 -174 54 -258.5t149 -84.5q102 0 156.5 94t54.5 255zM790 1566v-33l-89 -322h-257v37l181 318h165z" />
    <glyph glyph-name="Hcircumflex" unicode="&#x124;" 
d="M796 0v574h-363v-574h-295v1349h295v-531h363v531h295v-1349h-295zM983 1455v-28h-159l-203 134h-4l-211 -134h-160v28l258 250h229z" />
    <glyph glyph-name="hcircumflex" unicode="&#x125;" 
d="M420 866q57 124 143 180t205 56q168 0 252 -102t84 -314v-686h-280v621q0 151 -40.5 210.5t-132.5 59.5q-102 0 -164.5 -87.5t-62.5 -224.5v-579h-281v1349h281v-270q0 -109 -8 -213h4zM983 1455v-28h-159l-203 134h-4l-211 -134h-160v28l258 250h229z" />
    <glyph glyph-name="Hbar" unicode="&#x126;" 
d="M796 0v574h-363v-574h-295v1004h-136v168h136v177h295v-177h363v177h295v-177h135v-168h-135v-1004h-295zM796 818v186h-363v-186h363z" />
    <glyph glyph-name="hbar" unicode="&#x127;" 
d="M420 826q57 124 143 180t205 56q168 0 252 -102t84 -314v-646h-280v581q0 151 -40.5 210.5t-132.5 59.5q-102 0 -164.5 -87.5t-62.5 -224.5v-539h-281v1180h-134v169h134v135h281v-135h300v-169h-300v-141q0 -109 -8 -213h4z" />
    <glyph glyph-name="Itilde" unicode="&#x128;" 
d="M157 1349h916v-228h-311v-893h311v-228h-916v228h311v893h-311v228zM781 1422q-44 0 -88.5 17.5t-86.5 39l-79.5 39t-67.5 17.5q-45 0 -67 -23.5t-31 -89.5h-137q12 156 67.5 219.5t157.5 63.5q45 0 90 -17.5t87 -39l78.5 -39t65.5 -17.5q47 0 69 26.5t30 86.5h135
q-8 -111 -34 -168t-73.5 -86t-115.5 -29z" />
    <glyph glyph-name="itilde" unicode="&#x129;" 
d="M794 190h353v-190h-1029v190h395v702h-290v190h571v-892zM782 1183q-44 0 -88.5 17.5t-86.5 39l-79.5 39t-67.5 17.5q-45 0 -67 -23.5t-31 -89.5h-137q12 156 67.5 219.5t157.5 63.5q45 0 90 -17.5t87 -39l78.5 -39t65.5 -17.5q47 0 69 26.5t30 86.5h135
q-8 -111 -34 -168t-73.5 -86t-115.5 -29z" />
    <glyph glyph-name="Imacron" unicode="&#x12a;" 
d="M157 1349h916v-228h-311v-893h311v-228h-916v228h311v893h-311v228zM310 1638h612v-168h-612v168z" />
    <glyph glyph-name="imacron" unicode="&#x12b;" 
d="M794 190h353v-190h-1029v190h395v702h-290v190h571v-892zM316 1371h612v-168h-612v168z" />
    <glyph glyph-name="Ibreve" unicode="&#x12c;" 
d="M157 1349h916v-228h-311v-893h311v-228h-916v228h311v893h-311v228zM612 1427q-161 0 -251 72.5t-101 205.5h163q15 -121 191 -121q88 0 132 29t58 92h164q-34 -278 -356 -278z" />
    <glyph glyph-name="ibreve" unicode="&#x12d;" 
d="M794 190h353v-190h-1029v190h395v702h-290v190h571v-892zM632 1183q-161 0 -251 72.5t-101 205.5h163q15 -121 191 -121q88 0 132 29t58 92h164q-34 -278 -356 -278z" />
    <glyph glyph-name="Iogonek" unicode="&#x12e;" 
d="M157 1349h916v-228h-311v-893h311v-228h-916v228h311v893h-311v228zM670 -425q-111 0 -174 54t-63 146q0 75 43.5 142t114.5 104h153q-63 -42 -96 -99.5t-33 -110.5q0 -42 24.5 -67.5t69.5 -25.5q54 0 112 27v-137q-63 -33 -151 -33z" />
    <glyph glyph-name="iogonek" unicode="&#x12f;" 
d="M794 190h353v-190h-1029v190h395v702h-290v190h571v-892zM513 1277v207h281v-207h-281zM713 -425q-111 0 -174 54t-63 146q0 75 43.5 142t114.5 104h153q-63 -42 -96 -99.5t-33 -110.5q0 -42 24.5 -67.5t69.5 -25.5q54 0 112 27v-137q-63 -33 -151 -33z" />
    <glyph glyph-name="Jcircumflex" unicode="&#x134;" 
d="M564 -20q-196 0 -314 109t-148 313l291 43q20 -118 65 -176t108 -58q73 0 116 59t43 169v679h-301v231h595v-903q0 -218 -121 -342t-334 -124zM1103 1455v-28h-159l-203 134h-4l-211 -134h-160v28l258 250h229z" />
    <glyph glyph-name="jcircumflex" unicode="&#x135;" 
d="M926 -13q0 -129 -56.5 -221.5t-161 -141.5t-241.5 -49q-79 0 -161 13t-127 30v210q136 -34 263 -34q110 0 156 53.5t46 162.5v882h-354v190h636v-1095zM1086 1211v-28h-159l-203 134h-4l-211 -134h-160v28l258 250h229z" />
    <glyph glyph-name="Kcommaaccent" unicode="&#x136;" 
d="M881 0l-323 557l-127 -142v-415h-295v1349h295v-599l436 599h343l-460 -579l479 -770h-348zM435 -453v33l89 322h257v-37l-181 -318h-165z" />
    <glyph glyph-name="kcommaaccent" unicode="&#x137;" 
d="M864 0l-289 490l-121 -84v-406h-281v1484h281v-850l386 448h302l-380 -422l409 -660h-307zM435 -453v33l89 322h257v-37l-181 -318h-165z" />
    <glyph glyph-name="kgreenlandic" unicode="&#x138;" 
d="M864 0l-289 470l-121 -84v-386h-281v1082h281v-468l386 468h302l-380 -442l409 -640h-307z" />
    <glyph glyph-name="Lcommaaccent" unicode="&#x13b;" 
d="M211 0v1349h295v-1121h616v-228h-911zM445 -453v33l89 322h257v-37l-181 -318h-165z" />
    <glyph glyph-name="lcommaaccent" unicode="&#x13c;" 
d="M794 190h353v-190h-1029v190h395v1104h-290v190h571v-1294zM435 -453v33l89 322h257v-37l-181 -318h-165z" />
    <glyph glyph-name="Ncommaaccent" unicode="&#x145;" 
d="M748 0l-384 1010q28 -252 28 -354v-656h-257v1349h337l393 -1037q-28 235 -28 365v672h257v-1349h-346zM404 -453v33l89 322h257v-37l-181 -318h-165z" />
    <glyph glyph-name="ncommaaccent" unicode="&#x146;" 
d="M824 0v619q0 141 -38.5 207t-132.5 66q-104 0 -166.5 -88.5t-62.5 -223.5v-580h-281v840q0 87 -2.5 142.5t-5.5 99.5h268q3 -19 8 -101.5t5 -113.5h4q57 124 143 180t205 56q336 0 336 -416v-687h-280zM408 -453v33l89 322h257v-37l-181 -318h-165z" />
    <glyph glyph-name="Eng" unicode="&#x14a;" 
d="M774 -20q-122 0 -198 59.5t-115 194.5l209 68q16 -58 35.5 -79t53.5 -21q47 0 66.5 60.5t19.5 212.5v373q0 168 -35 230t-127 62q-63 0 -128 -62t-104 -161t-39 -208v-709h-295v1032l-4 317h288q11 -121 11 -251h4q52 121 154.5 196t213.5 75q179 0 265 -121.5t86 -378.5
v-367q0 -265 -88.5 -393.5t-272.5 -128.5z" />
    <glyph glyph-name="eng" unicode="&#x14b;" 
d="M824 619q0 141 -38.5 207t-132.5 66q-104 0 -166.5 -88.5t-62.5 -223.5v-580h-281v840q0 87 -2.5 142.5t-5.5 99.5h268q3 -19 8 -101.5t5 -113.5h4q57 124 143 180t205 56q336 0 336 -416v-815q0 -143 -72.5 -220t-214.5 -77q-100 0 -170 9v198l51 -4q74 0 100 32.5
t26 129.5v679z" />
    <glyph glyph-name="Omacron" unicode="&#x14c;" 
d="M1157 679q0 -345 -140 -522t-402 -177t-402.5 177t-140.5 522t140.5 518t402.5 173t402 -173t140 -518zM858 679q0 459 -243 459q-244 0 -244 -459q0 -230 61.5 -348.5t182.5 -118.5t182 118.5t61 348.5zM310 1638h612v-168h-612v168z" />
    <glyph glyph-name="omacron" unicode="&#x14d;" 
d="M1137 542q0 -269 -136 -415.5t-391 -146.5q-246 0 -382 146.5t-136 415.5q0 268 135 414t389 146q521 0 521 -560zM843 542q0 192 -51 279.5t-172 87.5q-124 0 -178.5 -88t-54.5 -279q0 -193 55.5 -281.5t164.5 -88.5q124 0 180 87.5t56 282.5zM310 1371h612v-168h-612
v168z" />
    <glyph glyph-name="Obreve" unicode="&#x14e;" 
d="M1157 679q0 -345 -140 -522t-402 -177t-402.5 177t-140.5 522t140.5 518t402.5 173t402 -173t140 -518zM858 679q0 459 -243 459q-244 0 -244 -459q0 -230 61.5 -348.5t182.5 -118.5t182 118.5t61 348.5zM612 1427q-161 0 -251 72.5t-101 205.5h163q15 -121 191 -121
q88 0 132 29t58 92h164q-34 -278 -356 -278z" />
    <glyph glyph-name="obreve" unicode="&#x14f;" 
d="M1137 542q0 -269 -136 -415.5t-391 -146.5q-246 0 -382 146.5t-136 415.5q0 268 135 414t389 146q521 0 521 -560zM843 542q0 192 -51 279.5t-172 87.5q-124 0 -178.5 -88t-54.5 -279q0 -193 55.5 -281.5t164.5 -88.5q124 0 180 87.5t56 282.5zM612 1183
q-161 0 -251 72.5t-101 205.5h163q15 -121 191 -121q88 0 132 29t58 92h164q-34 -278 -356 -278z" />
    <glyph glyph-name="Rcommaaccent" unicode="&#x156;" 
d="M895 0l-290 515h-173v-515h-295v1349h494q264 0 395 -103t131 -297q0 -137 -74 -233t-205 -135l349 -581h-332zM860 937q0 94 -62 138.5t-198 44.5h-168v-376h176q252 0 252 193zM432 -453v33l89 322h257v-37l-181 -318h-165z" />
    <glyph glyph-name="rcommaaccent" unicode="&#x157;" 
d="M1081 848q-112 19 -212 19q-156 0 -247.5 -118t-91.5 -311v-438h-280v701q0 76 -13.5 179t-38.5 202h271q36 -130 46 -228h4q50 136 135 192t221 56q104 0 206 -17v-237zM163 -453v33l89 322h257v-37l-181 -318h-165z" />
    <glyph glyph-name="Scircumflex" unicode="&#x15c;" 
d="M1165 391q0 -192 -146.5 -301.5t-407.5 -109.5q-235 0 -383 99t-190 288l285 37q23 -94 96 -148.5t200 -54.5q132 0 195.5 42t63.5 131q0 66 -56 111.5t-163 71.5q-215 52 -303.5 90.5t-141.5 86.5t-81.5 112.5t-28.5 144.5q0 175 140.5 277t370.5 102q224 0 350 -88.5
t163 -274.5l-286 -29q-44 183 -233 183q-106 0 -162 -39.5t-56 -113.5q0 -49 27 -81.5t73.5 -55t189.5 -59.5q188 -46 289 -102.5t148 -136.5t47 -182zM987 1455v-28h-159l-203 134h-4l-211 -134h-160v28l258 250h229z" />
    <glyph glyph-name="scircumflex" unicode="&#x15d;" 
d="M1104 316q0 -157 -128.5 -246.5t-355.5 -89.5q-223 0 -341.5 70.5t-157.5 219.5l247 37q21 -77 72.5 -109t179.5 -32q118 0 172 30t54 94q0 52 -43.5 82.5t-147.5 51.5q-238 47 -321 87.5t-126.5 105t-43.5 158.5q0 155 119.5 241.5t338.5 86.5q193 0 310.5 -75
t146.5 -217l-249 -26q-12 66 -59 98.5t-149 32.5q-100 0 -150 -25.5t-50 -85.5q0 -47 38.5 -74.5t129.5 -45.5q127 -26 225.5 -53.5t158 -65.5t95 -97.5t35.5 -152.5zM998 1211v-28h-159l-203 134h-4l-211 -134h-160v28l258 250h229z" />
    <glyph glyph-name="Tbar" unicode="&#x166;" 
d="M762 1121v-345h228v-190h-228v-586h-295v586h-227v190h227v345h-405v228h1106v-228h-406z" />
    <glyph glyph-name="tbar" unicode="&#x167;" 
d="M340 492h-165v190h165v210h-165v190h181l88 282h176v-282h385v-190h-385v-210h385v-190h-385v-130q0 -88 16.5 -118.5t53.5 -48t104 -17.5q124 0 255 27v-186q-142 -23 -201 -27.5t-123 -4.5q-127 0 -212.5 34.5t-129 108t-43.5 206.5v156z" />
    <glyph glyph-name="Utilde" unicode="&#x168;" 
d="M599 -20q-246 0 -358 134t-112 414v821h295v-818q0 -175 40.5 -247.5t142.5 -72.5q104 0 151 77t47 253v808h295v-806q0 -286 -123.5 -424.5t-377.5 -138.5zM781 1422q-44 0 -88.5 17.5t-86.5 39l-79.5 39t-67.5 17.5q-45 0 -67 -23.5t-31 -89.5h-137q12 156 67.5 219.5
t157.5 63.5q45 0 90 -17.5t87 -39l78.5 -39t65.5 -17.5q47 0 69 26.5t30 86.5h135q-8 -111 -34 -168t-73.5 -86t-115.5 -29z" />
    <glyph glyph-name="utilde" unicode="&#x169;" 
d="M416 1082v-607q0 -138 44.5 -211.5t127.5 -73.5q90 0 148.5 88.5t58.5 223.5v580h281v-840q0 -138 8 -242h-268q-12 144 -12 215h-5q-107 -235 -328 -235q-164 0 -250 104.5t-86 310.5v687h281zM782 1183q-44 0 -88.5 17.5t-86.5 39l-79.5 39t-67.5 17.5q-45 0 -67 -23.5
t-31 -89.5h-137q12 156 67.5 219.5t157.5 63.5q45 0 90 -17.5t87 -39l78.5 -39t65.5 -17.5q47 0 69 26.5t30 86.5h135q-8 -111 -34 -168t-73.5 -86t-115.5 -29z" />
    <glyph glyph-name="Umacron" unicode="&#x16a;" 
d="M599 -20q-246 0 -358 134t-112 414v821h295v-818q0 -175 40.5 -247.5t142.5 -72.5q104 0 151 77t47 253v808h295v-806q0 -286 -123.5 -424.5t-377.5 -138.5zM310 1638h612v-168h-612v168z" />
    <glyph glyph-name="umacron" unicode="&#x16b;" 
d="M416 1082v-607q0 -138 44.5 -211.5t127.5 -73.5q90 0 148.5 88.5t58.5 223.5v580h281v-840q0 -138 8 -242h-268q-12 144 -12 215h-5q-107 -235 -328 -235q-164 0 -250 104.5t-86 310.5v687h281zM310 1371h612v-168h-612v168z" />
    <glyph glyph-name="Ubreve" unicode="&#x16c;" 
d="M599 -20q-246 0 -358 134t-112 414v821h295v-818q0 -175 40.5 -247.5t142.5 -72.5q104 0 151 77t47 253v808h295v-806q0 -286 -123.5 -424.5t-377.5 -138.5zM612 1427q-161 0 -251 72.5t-101 205.5h163q15 -121 191 -121q88 0 132 29t58 92h164q-34 -278 -356 -278z" />
    <glyph glyph-name="ubreve" unicode="&#x16d;" 
d="M416 1082v-607q0 -138 44.5 -211.5t127.5 -73.5q90 0 148.5 88.5t58.5 223.5v580h281v-840q0 -138 8 -242h-268q-12 144 -12 215h-5q-107 -235 -328 -235q-164 0 -250 104.5t-86 310.5v687h281zM612 1183q-161 0 -251 72.5t-101 205.5h163q15 -121 191 -121q88 0 132 29
t58 92h164q-34 -278 -356 -278z" />
    <glyph glyph-name="Uogonek" unicode="&#x172;" 
d="M599 -20q-246 0 -358 134t-112 414v821h295v-818q0 -175 40.5 -247.5t142.5 -72.5q104 0 151 77t47 253v808h295v-806q0 -286 -123.5 -424.5t-377.5 -138.5zM716 -425q-111 0 -174 54t-63 146q0 75 43.5 142t114.5 104h153q-63 -42 -96 -99.5t-33 -110.5
q0 -42 24.5 -67.5t69.5 -25.5q54 0 112 27v-137q-63 -33 -151 -33z" />
    <glyph glyph-name="uogonek" unicode="&#x173;" 
d="M416 1082v-607q0 -138 44.5 -211.5t127.5 -73.5q90 0 148.5 88.5t58.5 223.5v580h281v-840q0 -138 8 -242h-268q-12 144 -12 215h-5q-107 -235 -328 -235q-164 0 -250 104.5t-86 310.5v687h281zM946 -425q-111 0 -174 54t-63 146q0 75 43.5 142t114.5 104h153
q-63 -42 -96 -99.5t-33 -110.5q0 -42 24.5 -67.5t69.5 -25.5q54 0 112 27v-137q-63 -33 -151 -33z" />
    <glyph glyph-name="Wcircumflex" unicode="&#x174;" 
d="M1018 0h-248l-64 267q-50 189 -90 369l-35 -147l-44 -177l-78 -312h-248l-211 1349h259l89 -695q12 -96 16 -266l15 76l40 168l99 339h195l99 -339q13 -45 22.5 -88.5l32.5 -155.5l2 27q6 161 16 239l84 695h259zM983 1455v-28h-159l-203 134h-4l-211 -134h-160v28
l258 250h229z" />
    <glyph glyph-name="wcircumflex" unicode="&#x175;" 
d="M1028 0h-244l-143 471q-25 80 -27 102q-1 -9 -11 -46.5t-166 -526.5h-243l-183 1082h228l83 -607q19 -152 19 -226l20 74l157 494h193l140 -455q15 -50 29 -113q0 62 10 143t102 690h226zM983 1211v-28h-159l-203 134h-4l-211 -134h-160v28l258 250h229z" />
    <glyph glyph-name="Ycircumflex" unicode="&#x176;" 
d="M761 556v-556h-294v556l-464 793h309l300 -566l304 566h309zM983 1455v-28h-159l-203 134h-4l-211 -134h-160v28l258 250h229z" />
    <glyph glyph-name="ycircumflex" unicode="&#x177;" 
d="M325 -425q-106 0 -182 13v200l51 -5l51 -3q60 0 99.5 19t71 63t70.5 149l-448 1071h297l190 -527q40 -109 101 -334l9 37l81 293l180 531h294l-448 -1139q-80 -206 -175 -287t-242 -81zM983 1211v-28h-159l-203 134h-4l-211 -134h-160v28l258 250h229z" />
    <glyph glyph-name="longs" unicode="&#x17f;" 
d="M373 1165q0 174 109.5 261.5t312.5 87.5q159 0 327 -28v-184q-150 19 -278 19q-98 0 -144.5 -40.5t-46.5 -141.5v-1139h-280v1165z" />
    <glyph glyph-name="Aringacute" unicode="&#x1fa;" 
d="M856 1218q0 -73 -48 -127l421 -1091h-294l-88 263h-466l-86 -263h-295l421 1090q-49 51 -49 128q0 89 66.5 144t175.5 55q111 0 176.5 -55.5t65.5 -143.5zM615 992l-7 -30l-51 -170l-103 -307h321l-102 307q-44 135 -58 200zM510 1459v31l232 215h258v-43l-340 -203h-150
zM717 1218q0 32 -28 51.5t-75 19.5q-46 0 -75 -19t-29 -52t29 -52t75 -19q47 0 75 19.5t28 51.5z" />
    <glyph glyph-name="aringacute" unicode="&#x1fb;" 
d="M439 -20q-157 0 -245 85.5t-88 240.5q0 168 104.5 255.5t312.5 90.5l223 4v55q0 103 -35 156t-113 53q-73 0 -107.5 -36.5t-42.5 -116.5l-293 14q54 321 455 321q202 0 309.5 -99t107.5 -291v-392q0 -91 20.5 -125.5t68.5 -34.5q32 0 62 6v-152l-45 -11t-40 -8t-42.5 -5
t-52.5 -2q-106 0 -156.5 52t-60.5 153h-6q-63 -113 -143.5 -163t-192.5 -50zM746 501l-134 -2q-90 -2 -130.5 -18.5t-61.5 -53t-21 -99.5q0 -152 120 -152q97 0 162 76.5t65 193.5v55zM847 1201q0 -87 -65.5 -143.5t-176.5 -56.5q-112 0 -177 56.5t-65 143.5q0 89 66.5 144
t175.5 55q111 0 176.5 -55.5t65.5 -143.5zM708 1201q0 32 -28 51.5t-75 19.5q-46 0 -75 -19t-29 -52t29 -52t75 -19t74.5 19.5t28.5 51.5zM483 1431v31l252 243h258v-43l-340 -231h-170z" />
    <glyph glyph-name="AEacute" unicode="&#x1fc;" 
d="M616 387h-253l-102 -387h-261l372 1349h804v-202h-309v-355h297v-200h-297v-390h348v-202h-599v387zM616 1152h-58l-46 -200l-98 -366h202v566zM612 1429v31l252 243h258v-43l-340 -231h-170z" />
    <glyph glyph-name="aeacute" unicode="&#x1fd;" 
d="M699 484v-2q0 -149 44.5 -235.5t120.5 -86.5q60 0 92 38t48 103l178 -45q-37 -140 -117.5 -208t-196.5 -68q-115 0 -181.5 55t-100.5 177q-50 -118 -129 -175t-179 -57q-123 0 -190.5 86.5t-67.5 235.5q0 172 82 263.5t248 94.5l147 4v55q0 93 -30 147t-86 54
q-49 0 -74.5 -37t-33.5 -110l-208 17q39 312 315 312q176 0 247 -139q85 139 246 139q166 0 250.5 -141.5t84.5 -433.5v-43h-509zM229 299q0 -64 20.5 -100.5t58.5 -36.5q78 0 133.5 86t55.5 197v54l-102 -3q-93 -3 -129.5 -49.5t-36.5 -147.5zM859 924q-40 0 -76 -32.5
t-58 -91t-24 -140.5h301q-8 133 -42.5 198.5t-100.5 65.5zM477 1184v31l252 243h258v-43l-340 -231h-170z" />
    <glyph glyph-name="Oslashacute" unicode="&#x1fe;" 
d="M1157 679q0 -345 -140 -522t-402 -177q-215 0 -349 119l-106 -142l-114 75l131 176q-105 176 -105 471q0 345 140.5 518t402.5 173q212 0 345 -115l106 142l114 -75l-130 -173q107 -174 107 -470zM858 679q0 109 -14 193l-408 -546q62 -114 179 -114q121 0 182 118.5
t61 348.5zM371 679q0 -119 14 -193l407 545q-60 107 -177 107q-244 0 -244 -459zM467 1429v31l252 243h258v-43l-340 -231h-170z" />
    <glyph glyph-name="oslashacute" unicode="&#x1ff;" 
d="M1137 542q0 -269 -136 -415.5t-391 -146.5q-200 0 -328 97l-85 -97l-96 78l95 107q-104 143 -104 377q0 268 135 414t389 146q205 0 329 -87l79 89l98 -78l-87 -98q102 -140 102 -386zM843 542q0 83 -11 156l-389 -439q55 -87 164 -87q124 0 180 87.5t56 282.5zM387 542
q0 -84 10 -148l387 438q-53 77 -164 77q-124 0 -178.5 -88t-54.5 -279zM467 1184v31l252 243h258v-43l-340 -231h-170z" />
    <glyph glyph-name="anoteleia" unicode="&#x387;" 
d="M470 417v305h288v-305h-288z" />
    <glyph glyph-name="Wgrave" unicode="&#x1e80;" 
d="M1018 0h-248l-64 267q-50 189 -90 369l-35 -147l-44 -177l-78 -312h-248l-211 1349h259l89 -695q12 -96 16 -266l15 76l40 168l99 339h195l99 -339q13 -45 22.5 -88.5l32.5 -155.5l2 27q6 161 16 239l84 695h259zM608 1429l-340 231v43h258l252 -243v-31h-170z" />
    <glyph glyph-name="wgrave" unicode="&#x1e81;" 
d="M1028 0h-244l-143 471q-25 80 -27 102q-1 -9 -11 -46.5t-166 -526.5h-243l-183 1082h228l83 -607q19 -152 19 -226l20 74l157 494h193l140 -455q15 -50 29 -113q0 62 10 143t102 690h226zM567 1184l-340 231v43h258l252 -243v-31h-170z" />
    <glyph glyph-name="Wacute" unicode="&#x1e82;" 
d="M1018 0h-248l-64 267q-50 189 -90 369l-35 -147l-44 -177l-78 -312h-248l-211 1349h259l89 -695q12 -96 16 -266l15 76l40 168l99 339h195l99 -339q13 -45 22.5 -88.5l32.5 -155.5l2 27q6 161 16 239l84 695h259zM470 1431v31l252 243h258v-43l-340 -231h-170z" />
    <glyph glyph-name="wacute" unicode="&#x1e83;" 
d="M1028 0h-244l-143 471q-25 80 -27 102q-1 -9 -11 -46.5t-166 -526.5h-243l-183 1082h228l83 -607q19 -152 19 -226l20 74l157 494h193l140 -455q15 -50 29 -113q0 62 10 143t102 690h226zM461 1184v31l252 243h258v-43l-340 -231h-170z" />
    <glyph glyph-name="Wdieresis" unicode="&#x1e84;" 
d="M1018 0h-248l-64 267q-50 189 -90 369l-35 -147l-44 -177l-78 -312h-248l-211 1349h259l89 -695q12 -96 16 -266l15 76l40 168l99 339h195l99 -339q13 -45 22.5 -88.5l32.5 -155.5l2 27q6 161 16 239l84 695h259zM714 1446v219h227v-219h-227zM290 1446v219h224v-219
h-224z" />
    <glyph glyph-name="wdieresis" unicode="&#x1e85;" 
d="M1028 0h-244l-143 471q-25 80 -27 102q-1 -9 -11 -46.5t-166 -526.5h-243l-183 1082h228l83 -607q19 -152 19 -226l20 74l157 494h193l140 -455q15 -50 29 -113q0 62 10 143t102 690h226zM714 1219v219h227v-219h-227zM290 1219v219h224v-219h-224z" />
    <glyph glyph-name="Ygrave" unicode="&#x1ef2;" 
d="M761 556v-556h-294v556l-464 793h309l300 -566l304 566h309zM607 1431l-340 231v43h258l252 -243v-31h-170z" />
    <glyph glyph-name="ygrave" unicode="&#x1ef3;" 
d="M325 -425q-106 0 -182 13v200l51 -5l51 -3q60 0 99.5 19t71 63t70.5 149l-448 1071h297l190 -527q40 -109 101 -334l9 37l81 293l180 531h294l-448 -1139q-80 -206 -175 -287t-242 -81zM628 1184l-340 231v43h258l252 -243v-31h-170z" />
    <glyph glyph-name="quotereversed" unicode="&#x201b;" 
d="M679 862l-311 622h325l169 -622h-183z" />
    <glyph glyph-name="uni203E" unicode="&#x203e;" 
d="M-5 1452v96h1238v-96h-1238z" />
    <glyph glyph-name="lira" unicode="&#x20a4;" 
d="M1188 363q-31 -172 -136 -267.5t-256 -95.5h-694v205q89 50 117.5 82.5t44 78.5t15.5 116v6h-188v149h178v112h-178v149h178v64q0 201 107 304.5t319 103.5q169 0 266 -69t141 -222l-233 -47q-21 77 -62 112t-107 35q-91 0 -131 -57.5t-40 -182.5v-41h286v-149h-286v-112
h286v-149h-286v-4q0 -66 -16.5 -113.5t-50 -82t-115.5 -79.5h380q104 0 157.5 49.5t70.5 143.5z" />
    <glyph glyph-name="estimated" unicode="&#x212e;" 
d="M626 -33q-158 0 -279 73.5t-187 203t-66 287.5q0 165 66 292t190.5 200t275.5 73q152 0 273 -73t188.5 -206.5t67.5 -304.5h-767v-343q44 -34 106.5 -57.5t131.5 -23.5q122 0 209.5 54t164.5 178l103 -61q-72 -113 -138 -171.5t-149.5 -89.5t-189.5 -31zM624 975
q-137 0 -236 -76v-266h477v264q-104 78 -241 78z" />
    <glyph glyph-name="oneeighth" unicode="&#x215b;" 
d="M202 1159q-19 -38 -81.5 -64.5t-119.5 -26.5v165q58 0 122 33t89 83h181v-760h-191v570zM256 0h-162l738 1349h161zM994 554q0 40 -13.5 66t-53.5 26q-66 0 -66 -92q0 -44 18 -67.5t49 -23.5q34 0 50 21.5t16 69.5zM1015 241q0 57 -22 81.5t-66 24.5q-42 0 -63.5 -24.5
t-21.5 -83.5q0 -68 21 -93t67 -25q45 0 65 23t20 97zM1219 224q0 -115 -74 -174t-216 -59q-143 0 -217.5 59.5t-74.5 172.5q0 144 143 179v3q-63 31 -93 73t-30 102q0 90 71.5 143t197.5 53q130 0 201 -52.5t71 -144.5q0 -60 -29.5 -102t-94.5 -71v-3q80 -18 112.5 -61
t32.5 -118z" />
    <glyph glyph-name="threeeighths" unicode="&#x215c;" 
d="M540 793q0 -105 -76 -164.5t-210 -59.5q-127 0 -198.5 53.5t-95.5 178.5l205 26q8 -58 29 -89.5t64 -31.5q82 0 82 104q0 51 -32.5 75t-104.5 24h-41v131h37q68 0 95 24t27 80q0 45 -15 66t-50 21q-44 0 -61 -28t-22 -82l-194 12q16 114 84 171t198 57q124 0 191 -54.5
t67 -148.5q0 -66 -33.5 -107t-102.5 -67v-6q82 -18 119.5 -67.5t37.5 -117.5zM325 0h-162l738 1349h161zM1034 554q0 40 -13.5 66t-53.5 26q-66 0 -66 -92q0 -44 18 -67.5t49 -23.5q34 0 50 21.5t16 69.5zM1055 241q0 57 -22 81.5t-66 24.5q-42 0 -63.5 -24.5t-21.5 -83.5
q0 -68 21 -93t67 -25q45 0 65 23t20 97zM1259 224q0 -115 -74 -174t-216 -59q-143 0 -217.5 59.5t-74.5 172.5q0 144 143 179v3q-63 31 -93 73t-30 102q0 90 71.5 143t197.5 53q130 0 201 -52.5t71 -144.5q0 -60 -29.5 -102t-94.5 -71v-3q80 -18 112.5 -61t32.5 -118z" />
    <glyph glyph-name="fiveeighths" unicode="&#x215d;" 
d="M539 835q0 -122 -72.5 -190.5t-203.5 -68.5q-121 0 -192 54t-90 157l199 15q8 -53 26.5 -73.5t51.5 -20.5q41 0 59.5 31.5t18.5 95.5q0 61 -18.5 88.5t-65.5 27.5q-54 0 -80 -40h-184l45 438h462v-153h-300l-16 -162q44 46 138 46q103 0 162.5 -63t59.5 -182zM325 0h-162
l738 1349h161zM1034 554q0 40 -13.5 66t-53.5 26q-66 0 -66 -92q0 -44 18 -67.5t49 -23.5q34 0 50 21.5t16 69.5zM1055 241q0 57 -22 81.5t-66 24.5q-42 0 -63.5 -24.5t-21.5 -83.5q0 -68 21 -93t67 -25q45 0 65 23t20 97zM1259 224q0 -115 -74 -174t-216 -59
q-143 0 -217.5 59.5t-74.5 172.5q0 144 143 179v3q-63 31 -93 73t-30 102q0 90 71.5 143t197.5 53q130 0 201 -52.5t71 -144.5q0 -60 -29.5 -102t-94.5 -71v-3q80 -18 112.5 -61t32.5 -118z" />
    <glyph glyph-name="seveneighths" unicode="&#x215e;" 
d="M596 1208q-130 -170 -175 -253t-65 -167.5t-20 -198.5h-203q0 109 23 197.5t73 176t168 233.5h-390v153h589v-141zM231 0h-162l738 1349h161zM994 554q0 40 -13.5 66t-53.5 26q-66 0 -66 -92q0 -44 18 -67.5t49 -23.5q34 0 50 21.5t16 69.5zM1015 241q0 57 -22 81.5
t-66 24.5q-42 0 -63.5 -24.5t-21.5 -83.5q0 -68 21 -93t67 -25q45 0 65 23t20 97zM1219 224q0 -115 -74 -174t-216 -59q-143 0 -217.5 59.5t-74.5 172.5q0 144 143 179v3q-63 31 -93 73t-30 102q0 90 71.5 143t197.5 53q130 0 201 -52.5t71 -144.5q0 -60 -29.5 -102
t-94.5 -71v-3q80 -18 112.5 -61t32.5 -118z" />
    <glyph glyph-name="undercommaaccent" 
d="M435 -453v33l89 322h257v-37l-181 -318h-165z" />
    <glyph glyph-name="tonos" unicode="&#x384;" 
d="M475 1201v33l54 322h257v-37l-206 -318h-105z" />
    <glyph glyph-name="dieresistonos" unicode="&#x385;" 
d="M516 1201v33l59 398h237v-37l-181 -394h-115zM249 1231v222h200v-222h-200zM781 1231v222h200v-222h-200z" />
    <glyph glyph-name="Alphatonos" unicode="&#x386;" 
d="M1229 0h-294l-92 330h-456l-92 -330h-295l443 1349h344zM615 1167q-8 -42 -29.5 -125.5t-136.5 -489.5h332q-117 412 -137.5 493t-28.5 122zM3 995v33l54 322h257v-37l-206 -318h-105z" />
    <glyph glyph-name="Epsilontonos" unicode="&#x388;" 
d="M327 0v1349h808v-228h-513v-324h452v-228h-452v-341h554v-228h-849zM-55 994v33l54 322h257v-37l-206 -318h-105z" />
    <glyph glyph-name="Etatonos" unicode="&#x389;" 
d="M890 0v574h-283v-574h-280v1349h280v-531h283v531h280v-1349h-280zM-55 994v33l54 322h257v-37l-206 -318h-105z" />
    <glyph glyph-name="Iotatonos" unicode="&#x38a;" 
d="M282 1349h916v-228h-311v-893h311v-228h-916v228h311v893h-311v228zM-54 995v33l54 322h257v-37l-206 -318h-105z" />
    <glyph glyph-name="Omicrontonos" unicode="&#x38c;" 
d="M1201 679q0 -340 -129.5 -519.5t-372.5 -179.5q-244 0 -373.5 179.5t-129.5 519.5t129.5 515.5t373.5 175.5q242 0 372 -175t130 -516zM902 679q0 459 -203 459q-98 0 -151 -114.5t-53 -344.5t53 -348.5t151 -118.5t150.5 118.5t52.5 348.5zM-55 994v33l54 322h257v-37
l-206 -318h-105z" />
    <glyph glyph-name="Upsilontonos" unicode="&#x38e;" 
d="M896 446v-446h-286v446l-333 903h287l187 -602l191 602h287zM-55 994v33l54 322h257v-37l-206 -318h-105z" />
    <glyph glyph-name="Omegatonos" unicode="&#x38f;" 
d="M704 1143q-108 0 -172.5 -102.5t-64.5 -286.5q0 -145 41 -252.5t137 -207.5v-294h-465v228h106q63 0 166 -11q-124 110 -191.5 251.5t-67.5 329.5q0 170 65.5 300t183 201t262.5 71q143 0 261 -70.5t184 -200.5t66 -301q0 -188 -67 -329.5t-192 -251.5q106 11 170 11h102
v-228h-465v294q96 100 137 207t41 253q0 182 -64 285.5t-173 103.5zM-55 994v33l54 322h257v-37l-206 -318h-105z" />
    <glyph glyph-name="iotadieresistonos" unicode="&#x390;" 
d="M802 -20q-196 0 -297.5 94.5t-101.5 294.5v523h-284v190h564v-724q0 -171 131 -171q109 0 182 108l159 -127q-122 -188 -353 -188zM503 1201v33l59 398h237v-37l-181 -394h-115zM236 1231v222h200v-222h-200zM768 1231v222h200v-222h-200z" />
    <glyph glyph-name="Alpha" unicode="&#x391;" 
d="M1229 0h-294l-92 330h-456l-92 -330h-295l443 1349h344zM615 1167q-8 -42 -29.5 -125.5t-136.5 -489.5h332q-117 412 -137.5 493t-28.5 122z" />
    <glyph glyph-name="Beta" unicode="&#x392;" 
d="M1186 385q0 -181 -124 -283t-343 -102h-582v1349h525q218 0 330.5 -87.5t112.5 -251.5q0 -115 -66 -193.5t-203 -107.5q171 -18 260.5 -102t89.5 -222zM808 970q0 160 -167 160h-209v-319h211q165 0 165 159zM889 410q0 88 -53 135.5t-154 47.5h-250v-374h257
q200 0 200 191z" />
    <glyph glyph-name="Delta" unicode="&#x394;" 
d="M18 226l428 1123h345l421 -1123v-226h-1194v226zM918 244l-223 618q-44 138 -70 258l-9 39q-1 -10 -28.5 -118t-50.5 -181l-220 -616h601z" />
    <glyph glyph-name="Epsilon" unicode="&#x395;" 
d="M137 0v1349h968v-228h-673v-324h612v-228h-612v-341h714v-228h-1009z" />
    <glyph glyph-name="Zeta" unicode="&#x396;" 
d="M1138 0h-1051v209l671 909h-595v231h934v-205l-671 -913h712v-231z" />
    <glyph glyph-name="Eta" unicode="&#x397;" 
d="M796 0v574h-363v-574h-295v1349h295v-531h363v531h295v-1349h-295z" />
    <glyph glyph-name="Iota" unicode="&#x399;" 
d="M157 1349h916v-228h-311v-893h311v-228h-916v228h311v893h-311v228z" />
    <glyph glyph-name="Kappa" unicode="&#x39a;" 
d="M881 0l-323 557l-127 -142v-415h-295v1349h295v-599l436 599h343l-460 -579l479 -770h-348z" />
    <glyph glyph-name="Lambda" unicode="&#x39b;" 
d="M20 0l443 1349h304l442 -1349h-304l-248 865q-35 125 -42 190q-16 -97 -42 -190l-248 -865h-305z" />
    <glyph glyph-name="Mu" unicode="&#x39c;" 
d="M908 0v868q0 105 16 301q-59 -290 -75 -341l-124 -468h-218l-126 468q-29 108 -76 341l7 -100q7 -105 7 -201v-868h-220v1349h347l135 -499q15 -47 38 -231q20 155 40 230l136 500h335v-1349h-222z" />
    <glyph glyph-name="Nu" unicode="&#x39d;" 
d="M748 0l-384 1010q28 -252 28 -354v-656h-257v1349h337l393 -1037q-28 235 -28 365v672h257v-1349h-346z" />
    <glyph glyph-name="Xi" unicode="&#x39e;" 
d="M135 1105v244h959v-244h-959zM115 0v244h999v-244h-999zM969 808v-228h-709v228h709z" />
    <glyph glyph-name="Omicron" unicode="&#x39f;" 
d="M1157 679q0 -345 -140 -522t-402 -177t-402.5 177t-140.5 522t140.5 518t402.5 173t402 -173t140 -518zM858 679q0 459 -243 459q-244 0 -244 -459q0 -230 61.5 -348.5t182.5 -118.5t182 118.5t61 348.5z" />
    <glyph glyph-name="Pi" unicode="&#x3a0;" 
d="M796 0v1105h-363v-1105h-295v1349h953v-1349h-295z" />
    <glyph glyph-name="Rho" unicode="&#x3a1;" 
d="M1142 923q0 -134 -61 -235.5t-176.5 -156.5t-276.5 -55h-197v-476h-295v1349h480q257 0 391.5 -108.5t134.5 -317.5zM845 918q0 109 -65.5 155.5t-196.5 46.5h-152v-417h160q132 0 193 54.5t61 160.5z" />
    <glyph glyph-name="Sigma" unicode="&#x3a3;" 
d="M100 0v234l458 477l-441 405v233h979v-244h-642l361 -327v-134l-394 -400h736v-244h-1057z" />
    <glyph glyph-name="Tau" unicode="&#x3a4;" 
d="M762 1121v-1121h-295v1121h-406v228h1107v-228h-406z" />
    <glyph glyph-name="Upsilon" unicode="&#x3a5;" 
d="M761 556v-556h-294v556l-464 793h309l300 -566l304 566h309z" />
    <glyph glyph-name="Chi" unicode="&#x3a7;" 
d="M919 0l-303 493l-304 -493h-312l459 711l-418 638h312l263 -430l262 430h310l-428 -638l469 -711h-310z" />
    <glyph glyph-name="Psi" unicode="&#x3a8;" 
d="M734 397v-397h-239v397h-10q-221 0 -330 133t-109 386v433h239v-437q0 -156 46 -225t155 -69h9v731h239v-731h9q109 0 155 69t46 225v437h239v-433q0 -253 -109 -386t-330 -133h-10z" />
    <glyph glyph-name="Omega" unicode="&#x3a9;" 
d="M614 1143q-120 0 -191 -103t-71 -286q0 -134 43.5 -237t149.5 -213v-304h-495v228h116q64 0 174 -11q-272 217 -272 581q0 169 71 299.5t196.5 201.5t278.5 71q152 0 278 -71t197 -202t71 -299q0 -364 -272 -581q114 11 178 11h112v-228h-495v304q106 110 149.5 212
t43.5 238q0 183 -71 286t-191 103z" />
    <glyph glyph-name="Iotadieresis" unicode="&#x3aa;" 
d="M157 1349h916v-228h-311v-893h311v-228h-916v228h311v893h-311v228zM713 1486v219h227v-219h-227zM289 1486v219h224v-219h-224z" />
    <glyph glyph-name="Upsilondieresis" unicode="&#x3ab;" 
d="M761 556v-556h-294v556l-464 793h309l300 -566l304 566h309zM713 1486v219h227v-219h-227zM289 1486v219h224v-219h-224z" />
    <glyph glyph-name="alphatonos" unicode="&#x3ac;" 
d="M850 237q-62 -135 -148 -196t-211 -61q-212 0 -316.5 137.5t-104.5 418.5q0 284 113.5 425t333.5 141q131 0 225.5 -66.5t142.5 -188.5h3q25 124 75 235h265q-50 -91 -103.5 -251t-65.5 -275q32 -309 136 -556h-270q-49 120 -71 237h-4zM365 539q0 -196 42.5 -281
t138.5 -85q89 0 153 101t82 268q-22 178 -80.5 272t-146.5 94q-102 0 -145.5 -89t-43.5 -280zM535 1201v33l54 322h257v-37l-206 -318h-105z" />
    <glyph glyph-name="epsilontonos" unicode="&#x3ad;" 
d="M630 168q188 0 340 157l163 -140q-100 -103 -231.5 -154t-280.5 -51q-230 0 -360 84t-130 233q0 106 93.5 178t234.5 83v2q-128 13 -211.5 84.5t-83.5 167.5q0 130 134 210t359 80q308 0 460 -189l-182 -123q-47 62 -122.5 97.5t-159.5 35.5q-106 0 -164 -33.5t-58 -88.5
q0 -74 98 -111.5t310 -37.5v-177q-200 0 -309.5 -41t-109.5 -120q0 -69 56.5 -107.5t153.5 -38.5zM555 1201v33l54 322h257v-37l-206 -318h-105z" />
    <glyph glyph-name="etatonos" unicode="&#x3ae;" 
d="M829 -424v1053q0 147 -37 205t-129 58q-111 0 -172.5 -83.5t-61.5 -227.5v-581h-282v851q0 123 -36 231h269q17 -39 27.5 -91.5t10.5 -93.5h3q64 112 148 158.5t207 46.5q171 0 251.5 -90.5t80.5 -290.5v-1145h-279zM555 1201v33l54 322h257v-37l-206 -318h-105z" />
    <glyph glyph-name="iotatonos" unicode="&#x3af;" 
d="M802 -20q-196 0 -297.5 94.5t-101.5 294.5v523h-284v190h564v-724q0 -171 131 -171q109 0 182 108l159 -127q-122 -188 -353 -188zM505 1201v33l54 322h257v-37l-206 -318h-105z" />
    <glyph glyph-name="upsilondieresistonos" unicode="&#x3b0;" 
d="M1123 571q0 -292 -129.5 -441.5t-384.5 -149.5q-240 0 -353.5 110.5t-113.5 342.5v649h281v-622q0 -136 47.5 -204.5t155.5 -68.5q116 0 166 95t50 321q0 112 -37.5 252t-86.5 227h286q52 -104 85.5 -244t33.5 -267zM501 1201v33l59 398h237v-37l-181 -394h-115z
M234 1231v222h200v-222h-200zM766 1231v222h200v-222h-200z" />
    <glyph glyph-name="beta" unicode="&#x3b2;" 
d="M1171 405q0 -203 -115 -314t-328 -111q-170 0 -303 94h-9q8 -91 8 -202v-297h-282v1452q0 237 124.5 347t371.5 110q211 0 322.5 -89.5t111.5 -259.5q0 -249 -213 -340q92 -19 163 -71.5t110 -132.5t39 -186zM897 419q0 125 -83.5 191t-237.5 66v198q120 22 175 78.5
t55 156.5q0 83 -43 127.5t-126 44.5q-113 0 -163 -69t-50 -221v-736q47 -36 115 -59.5t133 -23.5q111 0 168 64.5t57 182.5z" />
    <glyph glyph-name="gamma" unicode="&#x3b3;" 
d="M615 188q6 46 25.5 125.5t37.5 133.5l216 635h295l-410 -1028q-91 -227 -123 -478h-290q33 221 101 435l-431 1071h298l227 -640q14 -42 33 -127.5t21 -126.5z" />
    <glyph glyph-name="zeta" unicode="&#x3b6;" 
d="M464 422q0 -62 21.5 -98t71 -60.5t210.5 -59.5q199 -43 281.5 -114.5t82.5 -191.5q0 -67 -29.5 -155t-64.5 -144l-183 74q55 92 55 155q0 39 -23 61.5t-76.5 41.5t-191.5 50q-185 42 -273 90.5t-132.5 121t-44.5 178.5q0 96 36.5 195.5t108 204.5t186 225.5t328.5 297.5
v7l-217 -7h-345v190h831v-190q-315 -268 -473.5 -489t-158.5 -383z" />
    <glyph glyph-name="eta" unicode="&#x3b7;" 
d="M829 -424v1053q0 147 -37 205t-129 58q-111 0 -172.5 -83.5t-61.5 -227.5v-581h-282v851q0 123 -36 231h269q17 -39 27.5 -91.5t10.5 -93.5h3q64 112 148 158.5t207 46.5q171 0 251.5 -90.5t80.5 -290.5v-1145h-279z" />
    <glyph glyph-name="theta" unicode="&#x3b8;" 
d="M1097 733q0 -365 -124.5 -559t-363.5 -194q-228 0 -353.5 193.5t-125.5 559.5q0 365 124 557.5t361 192.5q482 0 482 -750zM610 162q100 0 155 125.5t58 356.5h-417q2 -155 29 -263t71.5 -163.5t103.5 -55.5zM617 1300q-99 0 -154 -122.5t-58 -343.5h418q-3 220 -56 343
t-150 123z" />
    <glyph glyph-name="iota" unicode="&#x3b9;" 
d="M802 -20q-196 0 -297.5 94.5t-101.5 294.5v523h-284v190h564v-724q0 -171 131 -171q109 0 182 108l159 -127q-122 -188 -353 -188z" />
    <glyph glyph-name="kappa" unicode="&#x3ba;" 
d="M864 0l-289 470l-121 -84v-386h-281v1082h281v-468l386 468h302l-380 -442l409 -640h-307z" />
    <glyph glyph-name="lambda" unicode="&#x3bb;" 
d="M1166 0h-294l-140 461q-26 86 -46.5 170.5t-27.5 127.5q-15 -58 -51.5 -166t-60.5 -164l-182 -429h-297l474 1006l-12 23q-62 158 -98.5 204t-93.5 46q-48 0 -93 -19l-48 194q85 30 187 30t169.5 -35t117.5 -111t102 -226z" />
    <glyph glyph-name="mu" unicode="&#x3bc;" 
d="M839 0q-1 12 -3.5 34t-4.5 48.5t-3.5 53.5t-1.5 48h-3q-78 -204 -246 -204q-52 0 -95.5 24t-66.5 66h-4q4 -43 4 -115v-380h-281v1507h281v-605q0 -284 184 -284q97 0 158 83.5t61 227.5v578h281v-840q0 -130 8 -242h-268z" />
    <glyph glyph-name="nu" unicode="&#x3bd;" 
d="M1100 846q0 -179 -107 -407t-283 -439h-267l-403 1082h297l274 -843q111 158 159.5 299t48.5 299q0 135 -49 245h280q50 -98 50 -236z" />
    <glyph glyph-name="xi" unicode="&#x3be;" 
d="M450 423q0 -62 26 -101.5t80.5 -64.5t183.5 -47q202 -32 296.5 -108t94.5 -204q0 -67 -29.5 -155t-64.5 -144l-183 74q55 92 55 155q0 37 -23 62t-74.5 44t-229.5 55q-171 33 -254.5 78t-127.5 115.5t-44 176.5q0 171 133 288.5t371 151.5v7q-173 12 -278.5 79.5
t-105.5 166.5q0 83 86.5 147t242.5 94v8l-284 -7h-96v190h797v-185q-243 -17 -353.5 -68.5t-110.5 -143.5q0 -82 91 -124.5t330 -55.5v-191q-218 -30 -321.5 -66.5t-155.5 -91.5t-52 -135z" />
    <glyph glyph-name="omicron" unicode="&#x3bf;" 
d="M1137 542q0 -269 -136 -415.5t-391 -146.5q-246 0 -382 146.5t-136 415.5q0 268 135 414t389 146q521 0 521 -560zM843 542q0 192 -51 279.5t-172 87.5q-124 0 -178.5 -88t-54.5 -279q0 -193 55.5 -281.5t164.5 -88.5q124 0 180 87.5t56 282.5z" />
    <glyph glyph-name="rho" unicode="&#x3c1;" 
d="M1129 516q0 -238 -119 -387t-306 -149q-168 0 -281 137h-11l11 -176v-366h-295v1006q0 243 135 382.5t368 139.5q146 0 259.5 -71t176 -205t62.5 -311zM835 526q0 383 -202 383q-210 0 -210 -337v-272q49 -59 110 -92.5t121 -33.5q81 0 131 95.5t50 256.5z" />
    <glyph glyph-name="sigma1" unicode="&#x3c2;" 
d="M420 475q0 -103 61 -161t227 -97q187 -44 258.5 -82t108 -96t36.5 -149q0 -58 -32 -139.5t-81 -151.5l-178 74q60 96 60 154q0 39 -26.5 66t-80.5 47t-221 52q-146 27 -229.5 84.5t-123.5 146.5t-40 215q0 178 72 340t192.5 243t277.5 81q234 0 391 -171l-146 -156
q-124 130 -257 130q-76 0 -136.5 -53t-96.5 -156t-36 -221z" />
    <glyph glyph-name="upsilon" unicode="&#x3c5;" 
d="M1123 571q0 -292 -129.5 -441.5t-384.5 -149.5q-240 0 -353.5 110.5t-113.5 342.5v649h281v-622q0 -136 47.5 -204.5t155.5 -68.5q116 0 166 95t50 321q0 112 -37.5 252t-86.5 227h286q52 -104 85.5 -244t33.5 -267z" />
    <glyph glyph-name="chi" unicode="&#x3c7;" 
d="M261 1104q103 0 162 -54.5t136 -221t89 -210.5q26 74 59 139l155 325h297l-375 -690l413 -816h-300l-195 432q-13 27 -40 98t-32 92q-9 -29 -35 -92.5t-40 -92.5l-214 -437h-300l452 829l-119 243q-53 108 -85 159t-59 71.5t-64 20.5q-41 0 -81 -16l-40 191q85 30 216 30
z" />
    <glyph glyph-name="psi" unicode="&#x3c8;" 
d="M726 176q75 1 114.5 31.5t57 95t17.5 171.5v608h241v-624q0 -249 -104 -362.5t-324 -115.5v-405h-224v405q-219 3 -325 118.5t-106 359.5v624h241v-607q0 -151 42 -222t148 -76v1163h222v-1164z" />
    <glyph glyph-name="omega" unicode="&#x3c9;" 
d="M874 -20q-101 0 -166 68t-90 189h-5q-25 -121 -90 -189t-166 -68q-142 0 -226 143.5t-84 393.5q0 241 95.5 397.5t260.5 188.5l31 -174q-148 -43 -148 -417q0 -167 30.5 -253t83.5 -86q47 0 75.5 91t28.5 245v222h223v-222q0 -153 28.5 -244.5t75.5 -91.5q53 0 83.5 86
t30.5 253q0 374 -148 417l31 174q165 -33 260.5 -188.5t95.5 -397.5q0 -250 -84 -393.5t-226 -143.5z" />
    <glyph glyph-name="iotadieresis" unicode="&#x3ca;" 
d="M802 -20q-196 0 -297.5 94.5t-101.5 294.5v523h-284v190h564v-724q0 -171 131 -171q109 0 182 108l159 -127q-122 -188 -353 -188zM685 1219v219h227v-219h-227zM261 1219v219h224v-219h-224z" />
    <glyph glyph-name="upsilondieresis" unicode="&#x3cb;" 
d="M1123 571q0 -292 -129.5 -441.5t-384.5 -149.5q-240 0 -353.5 110.5t-113.5 342.5v649h281v-622q0 -136 47.5 -204.5t155.5 -68.5q116 0 166 95t50 321q0 112 -37.5 252t-86.5 227h286q52 -104 85.5 -244t33.5 -267zM685 1219v219h227v-219h-227zM261 1219v219h224v-219
h-224z" />
    <glyph glyph-name="omicrontonos" unicode="&#x3cc;" 
d="M1137 542q0 -269 -136 -415.5t-391 -146.5q-246 0 -382 146.5t-136 415.5q0 268 135 414t389 146q521 0 521 -560zM843 542q0 192 -51 279.5t-172 87.5q-124 0 -178.5 -88t-54.5 -279q0 -193 55.5 -281.5t164.5 -88.5q124 0 180 87.5t56 282.5zM535 1201v33l54 322h257
v-37l-206 -318h-105z" />
    <glyph glyph-name="upsilontonos" unicode="&#x3cd;" 
d="M1123 571q0 -292 -129.5 -441.5t-384.5 -149.5q-240 0 -353.5 110.5t-113.5 342.5v649h281v-622q0 -136 47.5 -204.5t155.5 -68.5q116 0 166 95t50 321q0 112 -37.5 252t-86.5 227h286q52 -104 85.5 -244t33.5 -267zM505 1201v33l54 322h257v-37l-206 -318h-105z" />
    <glyph glyph-name="omegatonos" unicode="&#x3ce;" 
d="M874 -20q-101 0 -166 68t-90 189h-5q-25 -121 -90 -189t-166 -68q-142 0 -226 143.5t-84 393.5q0 241 95.5 397.5t260.5 188.5l31 -174q-148 -43 -148 -417q0 -167 30.5 -253t83.5 -86q47 0 75.5 91t28.5 245v222h223v-222q0 -153 28.5 -244.5t75.5 -91.5q53 0 83.5 86
t30.5 253q0 374 -148 417l31 174q165 -33 260.5 -188.5t95.5 -397.5q0 -250 -84 -393.5t-226 -143.5zM530 1201v33l54 322h257v-37l-206 -318h-105z" />
    <glyph glyph-name="uni0401" unicode="&#x401;" 
d="M137 0v1349h968v-228h-673v-324h612v-228h-612v-341h714v-228h-1009zM713 1445v219h227v-219h-227zM289 1445v219h224v-219h-224z" />
    <glyph glyph-name="uni0402" unicode="&#x402;" 
d="M891 -20q-122 0 -198 59.5t-115 194.5l209 68q16 -58 35 -79t50 -21q37 0 48 54t11 175v37q0 143 -28.5 190t-104.5 47q-114 0 -258 -64v-641h-265v1121h-275v228h846v-228h-306v-296q74 43 165 72t168 29q165 0 238.5 -102t73.5 -324v-74q0 -446 -294 -446z" />
    <glyph glyph-name="uni0403" unicode="&#x403;" 
d="M1144 1349v-228h-672v-1120h-295v1348h967zM507 1429v31l252 243h258v-43l-340 -231h-170z" />
    <glyph glyph-name="uni0404" unicode="&#x404;" 
d="M380 568q17 -173 87.5 -264.5t191.5 -91.5q162 0 240 244l273 -52q-133 -424 -516 -424q-281 0 -428.5 178.5t-147.5 522.5q0 689 568 689q186 0 311.5 -98t184.5 -291l-272 -66q-29 106 -87 164.5t-133 58.5q-238 0 -272 -342h393v-228h-393z" />
    <glyph glyph-name="uni0405" unicode="&#x405;" 
d="M1165 391q0 -192 -146.5 -301.5t-407.5 -109.5q-235 0 -383 99t-190 288l285 37q23 -94 96 -148.5t200 -54.5q132 0 195.5 42t63.5 131q0 66 -56 111.5t-163 71.5q-215 52 -303.5 90.5t-141.5 86.5t-81.5 112.5t-28.5 144.5q0 175 140.5 277t370.5 102q224 0 350 -88.5
t163 -274.5l-286 -29q-44 183 -233 183q-106 0 -162 -39.5t-56 -113.5q0 -49 27 -81.5t73.5 -55t189.5 -59.5q188 -46 289 -102.5t148 -136.5t47 -182z" />
    <glyph glyph-name="uni0406" unicode="&#x406;" 
d="M157 1349h916v-228h-311v-893h311v-228h-916v228h311v893h-311v228z" />
    <glyph glyph-name="uni0407" unicode="&#x407;" 
d="M157 1349h916v-228h-311v-893h311v-228h-916v228h311v893h-311v228zM713 1445v219h227v-219h-227zM289 1445v219h224v-219h-224z" />
    <glyph glyph-name="uni0408" unicode="&#x408;" 
d="M564 -20q-196 0 -314 109t-148 313l291 43q20 -118 65 -176t108 -58q73 0 116 59t43 169v679h-301v231h595v-903q0 -218 -121 -342t-334 -124z" />
    <glyph glyph-name="uni0409" unicode="&#x409;" 
d="M1215 416q0 -185 -116 -300.5t-312 -115.5h-218v1135h-136l-39 -708q-14 -241 -87 -342t-213 -101q-59 0 -89 17v227q14 -7 53 -7q53 0 81 61.5t35 193.5l51 873h566v-531h13q184 0 297.5 -109t113.5 -293zM990 412q0 100 -49.5 157t-132.5 57h-17v-431h23q80 0 128 53.5
t48 163.5z" />
    <glyph glyph-name="uni040A" unicode="&#x40a;" 
d="M1207 416q0 -193 -122 -304.5t-339 -111.5h-212v620h-227v-620h-230v1349h230v-531h227v531h230v-531h14q203 0 316 -108t113 -294zM984 412q0 97 -56 153t-151 56h-13v-411h19q201 0 201 202z" />
    <glyph glyph-name="uni040B" unicode="&#x40b;" 
d="M540 1121v-294q74 43 165 72t168 29q165 0 238.5 -102t73.5 -326v-500h-254v470q0 143 -28.5 190t-104.5 47q-125 0 -258 -74v-633h-265v1121h-275v228h846v-228h-306z" />
    <glyph glyph-name="uni040C" unicode="&#x40c;" 
d="M138 1349h294v-549q125 0 277 255l176 294h305l-235 -375q-42 -66 -99.5 -134.5t-86.5 -89.5l455 -750h-331l-343 603q-18 -12 -55.5 -22.5t-62.5 -10.5v-570h-294v1349zM494 1429v31l252 243h258v-43l-340 -231h-170z" />
    <glyph glyph-name="uni040E" unicode="&#x40e;" 
d="M315 -20q-71 0 -141 17.5t-112 42.5l82 246q89 -42 160 -42q70 0 114.5 44t103.5 169l-516 892h307l345 -647l261 647h299l-476 -1031q-66 -143 -123 -209.5t-130 -97.5t-174 -31zM625 1414q-142 0 -230.5 30.5t-130.5 89.5t-47 171h224q3 -57 20.5 -89.5t51.5 -46.5
t112 -14q77 0 111 14t51 47t20 89h224q-5 -111 -46.5 -170.5t-128.5 -90t-231 -30.5z" />
    <glyph glyph-name="uni040F" unicode="&#x40f;" 
d="M490 -425v425h-352v1349h295v-1105h363v1105h295v-1349h-351v-425h-250z" />
    <glyph glyph-name="uni0410" unicode="&#x410;" 
d="M1229 0h-294l-92 330h-456l-92 -330h-295l443 1349h344zM615 1167q-8 -42 -29.5 -125.5t-136.5 -489.5h332q-117 412 -137.5 493t-28.5 122z" />
    <glyph glyph-name="uni0411" unicode="&#x411;" 
d="M1179 416q0 -194 -138.5 -305t-382.5 -111h-520v1349h946v-227h-651v-304h257q240 0 364.5 -104t124.5 -298zM881 412q0 93 -69.5 136t-207.5 43h-171v-361h177q140 0 205.5 43t65.5 139z" />
    <glyph glyph-name="uni0412" unicode="&#x412;" 
d="M1186 385q0 -181 -124 -283t-343 -102h-582v1349h525q218 0 330.5 -87.5t112.5 -251.5q0 -115 -66 -193.5t-203 -107.5q171 -18 260.5 -102t89.5 -222zM808 970q0 160 -167 160h-209v-319h211q165 0 165 159zM889 410q0 88 -53 135.5t-154 47.5h-250v-374h257
q200 0 200 191z" />
    <glyph glyph-name="uni0413" unicode="&#x413;" 
d="M1144 1349v-228h-672v-1120h-295v1348h967z" />
    <glyph glyph-name="uni0414" unicode="&#x414;" 
d="M1025 224h175v-632h-240v408h-704v-408h-240v632h127q79 116 120.5 259t62.5 341l56 525h643v-1125zM780 224v901h-191l-31 -334q-16 -172 -48.5 -312.5t-97.5 -254.5h368z" />
    <glyph glyph-name="uni0415" unicode="&#x415;" 
d="M137 0v1349h968v-228h-673v-324h612v-228h-612v-341h714v-228h-1009z" />
    <glyph glyph-name="uni0416" unicode="&#x416;" 
d="M503 0v578q-5 0 -31 9t-32 15l-179 -602h-256l253 714q-38 41 -74.5 109.5t-59.5 148.5l-111 377h240l88 -314q36 -127 71.5 -184t90.5 -73v571h223v-571q54 16 90 72t72 185l88 314h240l-111 -377q-23 -81 -59.5 -149t-74.5 -109l253 -714h-256l-179 602
q-48 -24 -63 -24v-578h-223z" />
    <glyph glyph-name="uni0417" unicode="&#x417;" 
d="M606 -20q-224 0 -369 92.5t-210 265.5l264 93q41 -113 118 -168t197 -55q121 0 185.5 52t64.5 137q0 90 -79.5 132.5t-248.5 42.5h-69v227h69q295 0 295 181q0 77 -59.5 124.5t-161.5 47.5q-204 0 -278 -222l-268 61q62 184 202.5 281t348.5 97q221 0 361 -99t140 -253
q0 -119 -71.5 -202.5t-208.5 -118.5q148 -22 232 -105t84 -206q0 -116 -67.5 -209.5t-190.5 -144.5t-280 -51z" />
    <glyph glyph-name="uni0418" unicode="&#x418;" 
d="M136 0v1349h257v-672q0 -130 -28 -365l393 1037h337v-1349h-257v656q0 102 28 354l-384 -1010h-346z" />
    <glyph glyph-name="uni0419" unicode="&#x419;" 
d="M136 0v1349h257v-672q0 -130 -28 -365l393 1037h337v-1349h-257v656q0 102 28 354l-384 -1010h-346zM615 1414q-142 0 -230.5 30.5t-130.5 89.5t-47 171h224q3 -57 20.5 -89.5t51.5 -46.5t112 -14q77 0 111 14t51 47t20 89h224q-5 -111 -46.5 -170.5t-128.5 -90
t-231 -30.5z" />
    <glyph glyph-name="uni041A" unicode="&#x41a;" 
d="M138 1349h294v-549q125 0 277 255l176 294h305l-235 -375q-42 -66 -99.5 -134.5t-86.5 -89.5l455 -750h-331l-343 603q-18 -12 -55.5 -22.5t-62.5 -10.5v-570h-294v1349z" />
    <glyph glyph-name="uni041B" unicode="&#x41b;" 
d="M812 1105h-209l-49 -378q-39 -302 -89.5 -455.5t-129.5 -220.5t-218 -67q-35 0 -64.5 5.5t-38.5 11.5v247q14 -7 47 -7q58 0 92.5 57t65 194.5t58.5 353.5l67 503h752v-1349h-284v1105z" />
    <glyph glyph-name="uni041C" unicode="&#x41c;" 
d="M908 0v868q0 105 16 301q-59 -290 -75 -341l-124 -468h-218l-126 468q-29 108 -76 341l7 -100q7 -105 7 -201v-868h-220v1349h347l135 -499q15 -47 38 -231q20 155 40 230l136 500h335v-1349h-222z" />
    <glyph glyph-name="uni041D" unicode="&#x41d;" 
d="M796 0v574h-363v-574h-295v1349h295v-531h363v531h295v-1349h-295z" />
    <glyph glyph-name="uni041E" unicode="&#x41e;" 
d="M1157 679q0 -345 -140 -522t-402 -177t-402.5 177t-140.5 522t140.5 518t402.5 173t402 -173t140 -518zM858 679q0 459 -243 459q-244 0 -244 -459q0 -230 61.5 -348.5t182.5 -118.5t182 118.5t61 348.5z" />
    <glyph glyph-name="uni041F" unicode="&#x41f;" 
d="M796 0v1105h-363v-1105h-295v1349h953v-1349h-295z" />
    <glyph glyph-name="uni0420" unicode="&#x420;" 
d="M1142 923q0 -134 -61 -235.5t-176.5 -156.5t-276.5 -55h-197v-476h-295v1349h480q257 0 391.5 -108.5t134.5 -317.5zM845 918q0 109 -65.5 155.5t-196.5 46.5h-152v-417h160q132 0 193 54.5t61 160.5z" />
    <glyph glyph-name="uni0421" unicode="&#x421;" 
d="M380 681q0 -225 70 -347t209 -122q162 0 240 244l273 -52q-133 -424 -516 -424q-281 0 -428.5 178.5t-147.5 522.5q0 689 568 689q186 0 311.5 -98t184.5 -291l-272 -66q-29 106 -87 164.5t-133 58.5q-272 0 -272 -457z" />
    <glyph glyph-name="uni0422" unicode="&#x422;" 
d="M762 1121v-1121h-295v1121h-406v228h1107v-228h-406z" />
    <glyph glyph-name="uni0423" unicode="&#x423;" 
d="M315 -20q-71 0 -141 17.5t-112 42.5l82 246q89 -42 160 -42q70 0 114.5 44t103.5 169l-516 892h307l345 -647l261 647h299l-476 -1031q-66 -143 -123 -209.5t-130 -97.5t-174 -31z" />
    <glyph glyph-name="uni0424" unicode="&#x424;" 
d="M964 700q0 133 -57 212.5t-154 79.5h-19v-595h26q91 0 147.5 84.5t56.5 218.5zM496 -11v209h-24q-133 0 -239.5 64.5t-165 181t-58.5 260.5q0 226 126.5 356.5t348.5 130.5h12v168h238v-168h12q222 0 348.5 -130.5t126.5 -356.5q0 -222 -129.5 -364t-333.5 -142h-24v-209
h-238zM266 700q0 -135 56.5 -219t147.5 -84h26v595h-19q-96 0 -153.5 -79t-57.5 -213z" />
    <glyph glyph-name="uni0425" unicode="&#x425;" 
d="M919 0l-303 493l-304 -493h-312l459 711l-418 638h312l263 -430l262 430h310l-428 -638l469 -711h-310z" />
    <glyph glyph-name="uni0426" unicode="&#x426;" 
d="M979 -425v425h-841v1349h295v-1105h318v1105h295v-1105h183v-669h-250z" />
    <glyph glyph-name="uni0427" unicode="&#x427;" 
d="M796 0v487q-66 -27 -160.5 -45t-189.5 -18q-193 0 -287 117.5t-94 357.5v450h284v-429q0 -144 45.5 -210.5t148.5 -66.5q151 0 253 33v673h295v-1349h-295z" />
    <glyph glyph-name="uni0428" unicode="&#x428;" 
d="M89 0v1349h241v-1125h167v1125h235v-1125h167v1125h241v-1349h-1051z" />
    <glyph glyph-name="uni0429" unicode="&#x429;" 
d="M89 0v1349h241v-1125h167v1125h235v-1125h167v1125h241v-1145h88v-629h-222v425h-917z" />
    <glyph glyph-name="uni042A" unicode="&#x42a;" 
d="M640 838q256 0 402 -110t146 -302q0 -126 -68 -223.5t-195.5 -150t-297.5 -52.5h-369v1121h-256v228h551v-511h87zM890 422q0 92 -63.5 145.5t-193.5 53.5h-80v-401h79q125 0 191.5 53t66.5 149z" />
    <glyph glyph-name="uni042B" unicode="&#x42b;" 
d="M79 1349h250v-531h54q203 0 316 -108t113 -294q0 -193 -122 -304.5t-339 -111.5h-272v1349zM569 412q0 103 -48.5 156t-138.5 53h-53v-411h59q93 0 137 47.5t44 154.5zM1150 0h-250v1349h250v-1349z" />
    <glyph glyph-name="uni042C" unicode="&#x42c;" 
d="M1179 421q0 -127 -65 -222t-190 -147t-296 -52h-491v1349h295v-521h218q251 0 390 -106t139 -301zM881 417q0 184 -277 184h-172v-371h178q271 0 271 187z" />
    <glyph glyph-name="uni042D" unicode="&#x42d;" 
d="M456 568v228h393q-34 342 -272 342q-76 0 -133.5 -58.5t-86.5 -164.5l-272 66q59 194 185 291.5t311 97.5q568 0 568 -689q0 -344 -147.5 -522.5t-428.5 -178.5q-383 0 -516 424l273 52q78 -244 240 -244q121 0 191.5 91.5t87.5 264.5h-393z" />
    <glyph glyph-name="uni042E" unicode="&#x42e;" 
d="M414 774q16 300 113 448t265 148q180 0 279 -172t99 -517q0 -335 -97 -518t-281 -183q-173 0 -268.5 160t-107.5 449h-99v-589h-231v1349h231v-575h97zM932 681q0 265 -34 379t-106 114q-74 0 -107 -116.5t-33 -376.5q0 -261 34.5 -383.5t104.5 -122.5q71 0 106 122.5
t35 383.5z" />
    <glyph glyph-name="uni042F" unicode="&#x42f;" 
d="M1 0l349 581q-131 39 -205 135t-74 233q0 194 131 297t395 103h494v-1349h-295v515h-173l-290 -515h-332zM368 937q0 -193 252 -193h176v376h-168q-136 0 -198 -44.5t-62 -138.5z" />
    <glyph glyph-name="uni0430" unicode="&#x430;" 
d="M439 -20q-157 0 -245 85.5t-88 240.5q0 168 104.5 255.5t312.5 90.5l223 4v55q0 103 -35 156t-113 53q-73 0 -107.5 -36.5t-42.5 -116.5l-293 14q54 321 455 321q202 0 309.5 -99t107.5 -291v-392q0 -91 20.5 -125.5t68.5 -34.5q32 0 62 6v-152l-45 -11t-40 -8t-42.5 -5
t-52.5 -2q-106 0 -156.5 52t-60.5 153h-6q-63 -113 -143.5 -163t-192.5 -50zM746 501l-134 -2q-90 -2 -130.5 -18.5t-61.5 -53t-21 -99.5q0 -152 120 -152q97 0 162 76.5t65 193.5v55z" />
    <glyph glyph-name="uni0431" unicode="&#x431;" 
d="M858 501q0 165 -52 249t-167 84q-241 0 -241 -333q0 -159 55.5 -244t168.5 -85q124 0 180 81t56 248zM685 1027q237 0 352 -130t115 -393q0 -255 -133 -389.5t-397 -134.5t-392 163t-128 493q0 259 59 420t186 254.5t343 131.5q205 40 405 60v-235q-239 -24 -399 -56.5
t-231.5 -67t-112.5 -88t-61 -134.5t-24 -208q48 156 154.5 235t263.5 79z" />
    <glyph glyph-name="uni0432" unicode="&#x432;" 
d="M634 1082q470 0 470 -271q0 -94 -64 -155.5t-179 -82.5v-7q134 -16 203.5 -81t69.5 -173q0 -157 -119.5 -234.5t-338.5 -77.5h-538v1082h496zM420 175h187q132 0 186 33.5t54 113.5q0 85 -57 119t-194 34h-176v-300zM420 907v-260h168q122 0 172.5 29t50.5 102
q0 67 -48 98t-162 31h-181z" />
    <glyph glyph-name="uni0433" unicode="&#x433;" 
d="M1068 1082v-190h-543v-892h-282v1082h825z" />
    <glyph glyph-name="uni0434" unicode="&#x434;" 
d="M762 892h-172q-67 -513 -168 -702h340v702zM259 0v-408h-245v598h125q72 112 124 324.5t99 567.5h674v-892h146v-598h-245v408h-678z" />
    <glyph glyph-name="uni0435" unicode="&#x435;" 
d="M626 -20q-252 0 -389 148.5t-137 417.5q0 180 64.5 304t183.5 188t282 64q237 0 368 -158t131 -449v-8h-734q0 -147 65.5 -233t179.5 -86q74 0 131 31.5t77 97.5l265 -23q-55 -141 -183 -217.5t-304 -76.5zM626 925q-103 0 -164 -69.5t-65 -192.5h460q-7 120 -68.5 191
t-162.5 71z" />
    <glyph glyph-name="uni0436" unicode="&#x436;" 
d="M509 474q-26 0 -39.5 8t-27.5 13l-193 -495h-247l258 581q-24 18 -57.5 68.5t-54.5 101.5l-136 331h244l86 -237q73 -203 167 -207v444h212v-444q94 4 167 207l86 237h244l-136 -331q-21 -54 -56 -104t-56 -66l258 -581h-247l-193 495q-14 -5 -27.5 -13t-39.5 -8v-474
h-212v474z" />
    <glyph glyph-name="uni0437" unicode="&#x437;" 
d="M588 -20q-404 0 -490 308l241 44q17 -74 84 -119t163 -45q102 0 160.5 39.5t58.5 103.5q0 84 -78 122t-267 38v177q178 0 255.5 35.5t77.5 112.5q0 60 -53 93.5t-147 33.5q-108 0 -167 -37.5t-67 -106.5l-237 22q26 148 152.5 224.5t335.5 76.5q207 0 329 -77t122 -204
q0 -98 -62.5 -163t-185.5 -91v-2q128 -14 204.5 -85.5t76.5 -175.5q0 -153 -133.5 -238.5t-372.5 -85.5z" />
    <glyph glyph-name="uni0438" unicode="&#x438;" 
d="M400 1082v-476q0 -46 -7 -147t-13 -140l426 763h285v-1082h-260v540q0 50 7 123t13 100l-413 -763h-300v1082h262z" />
    <glyph glyph-name="uni0439" unicode="&#x439;" 
d="M400 1082v-476q0 -46 -7 -147t-13 -140l426 763h285v-1082h-260v540q0 50 7 123t13 100l-413 -763h-300v1082h262zM615 1184q-142 0 -230.5 30.5t-130.5 89.5t-47 171h224q3 -57 20.5 -89.5t51.5 -46.5t112 -14q77 0 111 14t51 47t20 89h224q-5 -111 -46.5 -170.5
t-128.5 -90t-231 -30.5z" />
    <glyph glyph-name="uni043A" unicode="&#x43a;" 
d="M138 1082h282v-444q98 0 152.5 34.5t124.5 148.5l160 261h286l-236 -381q-53 -85 -124 -136l379 -565h-302l-291 470q-78 -25 -149 -25v-445h-282v1082z" />
    <glyph glyph-name="uni043B" unicode="&#x43b;" 
d="M809 0v892h-246q-53 -392 -84.5 -542t-67.5 -226.5t-91 -110t-148 -33.5q-36 0 -83.5 4t-70.5 9v191q25 -9 68 -9q56 0 85.5 52t59 204t97.5 651h763v-1082h-282z" />
    <glyph glyph-name="uni043C" unicode="&#x43c;" 
d="M717 0h-193l-235 915q16 -155 16 -257v-658h-206v1082h327l141 -541q25 -91 53 -316l11 74q19 148 42 242l136 541h321v-1082h-206v658q0 103 18 259z" />
    <glyph glyph-name="uni043D" unicode="&#x43d;" 
d="M1091 1082v-1082h-282v463h-389v-463h-282v1082h282v-428h389v428h282z" />
    <glyph glyph-name="uni043E" unicode="&#x43e;" 
d="M1137 542q0 -269 -136 -415.5t-391 -146.5q-246 0 -382 146.5t-136 415.5q0 268 135 414t389 146q521 0 521 -560zM843 542q0 192 -51 279.5t-172 87.5q-124 0 -178.5 -88t-54.5 -279q0 -193 55.5 -281.5t164.5 -88.5q124 0 180 87.5t56 282.5z" />
    <glyph glyph-name="uni043F" unicode="&#x43f;" 
d="M1091 1082v-1082h-282v892h-389v-892h-282v1082h953z" />
    <glyph glyph-name="uni0440" unicode="&#x440;" 
d="M412 1082q6 -21 10.5 -84t4.5 -92h4q48 95 128.5 146t187.5 51q180 0 282.5 -151t102.5 -409q0 -265 -103.5 -414t-292.5 -149q-107 0 -186 48.5t-121 142.5h-2l2 -178v-418h-281v1271q0 100 -8 236h272zM425 536q0 -119 26 -199.5t73.5 -123t111.5 -42.5q101 0 152 95
t51 277q0 184 -52.5 276t-148.5 92q-62 0 -111 -44.5t-75.5 -127.5t-26.5 -203z" />
    <glyph glyph-name="uni0441" unicode="&#x441;" 
d="M624 -20q-246 0 -380 146.5t-134 408.5q0 268 135 417.5t383 149.5q191 0 316 -96t157 -265l-283 -14q-12 83 -60 132.5t-136 49.5q-217 0 -217 -363q0 -374 221 -374q80 0 134 50.5t67 150.5l282 -13q-15 -111 -79.5 -198t-169.5 -134.5t-236 -47.5z" />
    <glyph glyph-name="uni0442" unicode="&#x442;" 
d="M110 1082h1008v-190h-363v-892h-282v892h-363v190z" />
    <glyph glyph-name="uni0443" unicode="&#x443;" 
d="M325 -425q-106 0 -182 13v200l51 -5l51 -3q60 0 99.5 19t71 63t70.5 149l-448 1071h297l190 -527q40 -109 101 -334l9 37l81 293l180 531h294l-448 -1139q-80 -206 -175 -287t-242 -81z" />
    <glyph glyph-name="uni0444" unicode="&#x444;" 
d="M288 542q0 -156 56 -254t167 -126v755q-116 -30 -169.5 -124t-53.5 -251zM511 -425v409q-216 20 -339 167t-123 391q0 242 122 387.5t340 168.5v386h207v-386q217 -23 339.5 -168t122.5 -388q0 -244 -123 -391t-339 -167v-409h-207zM941 542q0 157 -54 251.5t-169 123.5
v-755q111 28 167 125.5t56 254.5z" />
    <glyph glyph-name="uni0445" unicode="&#x445;" 
d="M874 0l-262 392l-264 -392h-299l406 559l-387 523h303l241 -354l240 354h305l-387 -520l409 -562h-305z" />
    <glyph glyph-name="uni0446" unicode="&#x446;" 
d="M139 0v1082h282v-892h357v892h282v-892h146v-598h-245v408h-822z" />
    <glyph glyph-name="uni0447" unicode="&#x447;" 
d="M391 1082v-386q0 -156 158 -156q58 0 109.5 8t151.5 37v497h281v-1082h-281v415l-85 -30q-153 -56 -308 -56q-146 0 -226 82.5t-80 232.5v438h280z" />
    <glyph glyph-name="uni0448" unicode="&#x448;" 
d="M79 0v1082h220v-901h205v901h220v-901h206v901h220v-1082h-1071z" />
    <glyph glyph-name="uni0449" unicode="&#x449;" 
d="M79 0v1082h220v-901h205v901h220v-901h206v901h220v-901h69v-589h-213v408h-927z" />
    <glyph glyph-name="uni044A" unicode="&#x44a;" 
d="M711 646q235 0 351 -74t116 -238q0 -161 -120.5 -247.5t-345.5 -86.5h-431v892h-273v190h555v-436h148zM563 173h88q124 0 182 37t58 122q0 75 -52.5 107.5t-186.5 32.5h-89v-299z" />
    <glyph glyph-name="uni044B" unicode="&#x44b;" 
d="M393 647q210 0 308.5 -77t98.5 -241q0 -163 -102.5 -246t-303.5 -83h-295v1082h242v-435h52zM341 173h32q98 0 139 31.5t41 122.5q0 83 -38.5 114.5t-140.5 31.5h-33v-300zM869 0v1082h261v-1082h-261z" />
    <glyph glyph-name="uni044C" unicode="&#x44c;" 
d="M666 646q243 0 360 -76.5t117 -235.5q0 -160 -125 -247t-351 -87h-530v1082h282v-436h247zM419 173h187q128 0 189 39t61 122q0 74 -57.5 106t-191.5 32h-188v-299z" />
    <glyph glyph-name="uni044D" unicode="&#x44d;" 
d="M102 360l282 13q13 -100 67 -150.5t134 -50.5q105 0 157.5 65t59.5 216h-309v190h309q-7 141 -59 203.5t-154 62.5q-88 0 -136 -49.5t-60 -132.5l-283 14q31 169 157 265t316 96q248 0 383 -149.5t135 -417.5q0 -262 -134 -408.5t-380 -146.5q-132 0 -237 48t-169 134.5
t-79 197.5z" />
    <glyph glyph-name="uni044E" unicode="&#x44e;" 
d="M310 654h133q23 219 120 333.5t255 114.5q172 0 271.5 -149t99.5 -413q0 -267 -96 -413.5t-276 -146.5q-167 0 -265.5 125t-110.5 358h-131v-463h-240v1082h240v-428zM674 540q0 -191 31.5 -279t108.5 -88t108 89.5t31 277.5q0 193 -29.5 281t-103.5 88q-79 0 -112.5 -92
t-33.5 -277z" />
    <glyph glyph-name="uni044F" unicode="&#x44f;" 
d="M611 435l-272 -435h-307l322 471q-114 27 -173.5 105t-59.5 196q0 154 121.5 232t355.5 78h493v-1082h-282v435h-198zM811 907h-198q-205 0 -205 -151q0 -149 189 -149h214v300z" />
    <glyph glyph-name="uni0451" unicode="&#x451;" 
d="M626 -20q-252 0 -389 148.5t-137 417.5q0 180 64.5 304t183.5 188t282 64q237 0 368 -158t131 -449v-8h-734q0 -147 65.5 -233t179.5 -86q74 0 131 31.5t77 97.5l265 -23q-55 -141 -183 -217.5t-304 -76.5zM626 925q-103 0 -164 -69.5t-65 -192.5h460q-7 120 -68.5 191
t-162.5 71zM713 1219v219h227v-219h-227zM289 1219v219h224v-219h-224z" />
    <glyph glyph-name="uni0452" unicode="&#x452;" 
d="M817 -425q-100 0 -170 9v198l51 -4q74 0 100 32.5t26 129.5v626q0 157 -42 221t-131 64q-102 0 -164.5 -87.5t-62.5 -224.5v-539h-281v1179h-133v170h133v135h281v-135h300v-170h-300v-140q0 -109 -8 -213h4q57 124 143 180t205 56q168 0 252 -102t84 -314v-774
q0 -143 -72.5 -220t-214.5 -77z" />
    <glyph glyph-name="uni0453" unicode="&#x453;" 
d="M1068 1082v-190h-543v-892h-282v1082h825zM514 1184v31l252 243h258v-43l-340 -231h-170z" />
    <glyph glyph-name="uni0454" unicode="&#x454;" 
d="M644 172q80 0 134 50.5t67 150.5l282 -13q-15 -111 -79.5 -198t-169.5 -134.5t-236 -47.5q-246 0 -380 146.5t-134 408.5q0 268 135 417.5t383 149.5q191 0 316 -96t157 -265l-283 -14q-12 83 -60 132.5t-136 49.5q-102 0 -154 -62t-59 -204h309v-190h-309
q7 -150 59 -215.5t158 -65.5z" />
    <glyph glyph-name="uni0455" unicode="&#x455;" 
d="M1104 316q0 -157 -128.5 -246.5t-355.5 -89.5q-223 0 -341.5 70.5t-157.5 219.5l247 37q21 -77 72.5 -109t179.5 -32q118 0 172 30t54 94q0 52 -43.5 82.5t-147.5 51.5q-238 47 -321 87.5t-126.5 105t-43.5 158.5q0 155 119.5 241.5t338.5 86.5q193 0 310.5 -75
t146.5 -217l-249 -26q-12 66 -59 98.5t-149 32.5q-100 0 -150 -25.5t-50 -85.5q0 -47 38.5 -74.5t129.5 -45.5q127 -26 225.5 -53.5t158 -65.5t95 -97.5t35.5 -152.5z" />
    <glyph glyph-name="uni0456" unicode="&#x456;" 
d="M794 190h353v-190h-1029v190h395v702h-290v190h571v-892zM513 1277v207h281v-207h-281z" />
    <glyph glyph-name="uni0457" unicode="&#x457;" 
d="M794 190h353v-190h-1029v190h395v702h-290v190h571v-892zM754 1219v219h227v-219h-227zM330 1219v219h224v-219h-224z" />
    <glyph glyph-name="uni0458" unicode="&#x458;" 
d="M864 -13q0 -129 -56.5 -221.5t-161 -141.5t-241.5 -49q-79 0 -161 13t-127 30v210q136 -34 263 -34q110 0 156 53.5t46 162.5v882h-354v190h636v-1095zM583 1277v207h281v-207h-281z" />
    <glyph glyph-name="uni0459" unicode="&#x459;" 
d="M425 892l-40 -450q-19 -208 -48 -297.5t-83.5 -127t-174.5 -37.5q-37 0 -74 11v170q19 -8 48 -8q43 0 63 28t33.5 97t26.5 213l53 591h540v-436h52q210 0 308.5 -77t98.5 -241t-103 -246t-303 -82h-295v892h-102zM769 173h32q98 0 139 31.5t41 121.5q0 83 -38.5 114.5
t-140.5 31.5h-33v-299z" />
    <glyph glyph-name="uni045A" unicode="&#x45a;" 
d="M821 646q210 0 308.5 -77t98.5 -241t-103 -246t-303 -82h-295v474h-193v-474h-242v1082h242v-436h193v435h242v-435h52zM769 173h32q98 0 139 31.5t41 121.5q0 83 -38.5 114.5t-140.5 31.5h-33v-299z" />
    <glyph glyph-name="uni045B" unicode="&#x45b;" 
d="M420 826q57 124 143 180t205 56q168 0 252 -102t84 -314v-646h-280v581q0 151 -40.5 210.5t-132.5 59.5q-102 0 -164.5 -87.5t-62.5 -224.5v-539h-281v1180h-134v169h134v135h281v-135h300v-169h-300v-141q0 -109 -8 -213h4z" />
    <glyph glyph-name="uni045C" unicode="&#x45c;" 
d="M138 1082h282v-444q98 0 152.5 34.5t124.5 148.5l160 261h286l-236 -381q-53 -85 -124 -136l379 -565h-302l-291 470q-78 -25 -149 -25v-445h-282v1082zM467 1184v31l252 243h258v-43l-340 -231h-170z" />
    <glyph glyph-name="uni045E" unicode="&#x45e;" 
d="M325 -425q-106 0 -182 13v200l51 -5l51 -3q60 0 99.5 19t71 63t70.5 149l-448 1071h297l190 -527q40 -109 101 -334l9 37l81 293l180 531h294l-448 -1139q-80 -206 -175 -287t-242 -81zM627 1184q-142 0 -230.5 30.5t-130.5 89.5t-47 171h224q3 -57 20.5 -89.5
t51.5 -46.5t112 -14q77 0 111 14t51 47t20 89h224q-5 -111 -46.5 -170.5t-128.5 -90t-231 -30.5z" />
    <glyph glyph-name="uni045F" unicode="&#x45f;" 
d="M492 0h-354v1082h282v-891h389v891h282v-1082h-354v-408h-245v408z" />
    <glyph glyph-name="uni0490" unicode="&#x490;" 
d="M893 1349v356h250v-584h-651v-1120h-295v1348h696z" />
    <glyph glyph-name="uni0491" unicode="&#x491;" 
d="M800 1082v408h245v-598h-540v-892h-282v1082h577z" />
    <glyph glyph-name="uni2015" unicode="&#x2015;" 
d="M-10 418v203h1248v-203h-1248z" />
    <glyph glyph-name="uni2116" unicode="&#x2116;" 
d="M426 0l-250 900l3 -88q3 -57 3 -166v-646h-160v1349h192l258 -908q-8 160 -8 274v634h161v-1349h-199zM1209 690q0 -208 -60 -299.5t-191 -91.5q-245 0 -245 391q0 390 249 390q128 0 187.5 -93.5t59.5 -296.5zM1040 690q0 137 -18.5 197.5t-56.5 60.5q-41 0 -60.5 -59.5
t-19.5 -198.5q0 -135 17.5 -197t54.5 -62q45 0 64 62t19 197zM744 0v156h435v-156h-435z" />
    <glyph glyph-name="pi" unicode="&#x3c0;" 
d="M1015 892v-589q0 -72 18 -99.5t66 -27.5q32 0 68 11l29 -174q-97 -33 -202 -33q-133 0 -195.5 70t-62.5 215v627h-243v-124q0 -247 -18.5 -428.5t-59.5 -339.5h-287q48 193 69.5 369.5t21.5 390.5v132q-57 0 -110 -10.5t-82 -26.5v198q29 14 82 21.5t100 7.5h979v-190
h-173z" />
    <glyph glyph-name="currency" unicode="&#xa4;" 
d="M179 684q0 120 60 221l-133 133l157 156l131 -133q101 59 220 59q121 0 219 -59l135 135l158 -158l-136 -135q60 -99 60 -219q0 -118 -58 -217l134 -133l-158 -160l-133 135q-100 -59 -221 -59q-122 0 -220 57l-135 -137l-157 158l135 137q-58 99 -58 219zM405 686
q0 -86 61 -147.5t148 -61.5q85 0 146.5 62t61.5 147q0 86 -61 147.5t-147 61.5t-147.5 -61t-61.5 -148z" />
    <glyph glyph-name="cyrillicbreve" 
d="M615 1184q-142 0 -230.5 30.5t-130.5 89.5t-47 171h224q3 -57 20.5 -89.5t51.5 -46.5t112 -14q77 0 111 14t51 47t20 89h224q-5 -111 -46.5 -170.5t-128.5 -90t-231 -30.5z" />
    <glyph glyph-name="caroncommaaccent" 
d="M435 1129v33l89 322h257v-37l-181 -318h-165z" />
    <glyph glyph-name="commaaccentrotate" 
d="M791 1566v-33l-89 -322h-257v37l181 318h165z" />
    <glyph glyph-name="dotlessj" 
d="M926 -13q0 -129 -56.5 -221.5t-161 -141.5t-241.5 -49q-79 0 -161 13t-127 30v210q136 -34 263 -34q110 0 156 53.5t46 162.5v882h-354v190h636v-1095z" />
    <glyph glyph-name="onefraction" 
d="M526 1159q-19 -38 -81.5 -64.5t-119.5 -26.5v165q58 0 122 33t89 83h181v-760h-191v570z" />
    <glyph glyph-name="twofraction" 
d="M338 589v143q31 72 87 130t137 107q79 48 110.5 86t31.5 85q0 91 -79 91q-32 0 -51.5 -12t-30.5 -33t-18 -73l-180 10q32 238 282 238q131 0 196.5 -57t65.5 -158q0 -61 -23 -106t-58.5 -79.5t-78 -61.5l-82.5 -51.5t-72 -49.5t-45 -56h350v-153h-542z" />
    <glyph glyph-name="threefraction" 
d="M905 793q0 -105 -76 -164.5t-210 -59.5q-127 0 -198.5 53.5t-95.5 178.5l205 26q8 -58 29 -89.5t64 -31.5q82 0 82 104q0 51 -32.5 75t-104.5 24h-41v131h37q68 0 95 24t27 80q0 45 -15 66t-50 21q-44 0 -61 -28t-22 -82l-194 12q16 114 84 171t198 57q124 0 191 -54.5
t67 -148.5q0 -66 -33.5 -107t-102.5 -67v-6q82 -18 119.5 -67.5t37.5 -117.5z" />
    <glyph glyph-name="fourfraction" 
d="M829 748v-160h-191v160h-341v149l321 452h211v-450h82v-151h-82zM644 1192l-65.5 -117t-117.5 -176h177v198q0 52 6 95z" />
    <glyph glyph-name="fivefraction" 
d="M894 835q0 -122 -72.5 -190.5t-203.5 -68.5q-121 0 -192 54t-90 157l199 15q8 -53 26.5 -73.5t51.5 -20.5q41 0 59.5 31.5t18.5 95.5q0 61 -18.5 88.5t-65.5 27.5q-54 0 -80 -40h-184l45 438h462v-153h-300l-16 -162q44 46 138 46q103 0 162.5 -63t59.5 -182z" />
    <glyph glyph-name="sevenfraction" 
d="M909 1208q-130 -170 -175 -253t-65 -167.5t-20 -198.5h-203q0 109 23 197.5t73 176t168 233.5h-390v153h589v-141z" />
    <glyph glyph-name="eightfraction" 
d="M680 1139q0 40 -13.5 66t-53.5 26q-66 0 -66 -92q0 -44 18 -67.5t49 -23.5q34 0 50 21.5t16 69.5zM701 826q0 57 -22 81.5t-66 24.5q-42 0 -63.5 -24.5t-21.5 -83.5q0 -68 21 -93t67 -25q45 0 65 23t20 97zM905 809q0 -115 -74 -174t-216 -59q-143 0 -217.5 59.5
t-74.5 172.5q0 144 143 179v3q-63 31 -93 73t-30 102q0 90 71.5 143t197.5 53q130 0 201 -52.5t71 -144.5q0 -60 -29.5 -102t-94.5 -71v-3q80 -18 112.5 -61t32.5 -118z" />
    <glyph glyph-name="uni200C" unicode="&#x200c;" horiz-adv-x="0" 
d="M42 1287v-1560h-84v1560h84z" />
    <glyph glyph-name="uni200D" unicode="&#x200d;" horiz-adv-x="0" 
d="M42 -273h-84v1369l-127 -128l-55 55l169 168l-169 167l55 56l169 -170l169 170l55 -56l-169 -167l169 -168l-55 -55l-127 128v-1369z" />
    <glyph glyph-name="uni200E" unicode="&#x200e;" horiz-adv-x="0" 
d="M435 1193l-223 -219l-55 55l132 125h-248v-1427h-82v1506h330l-132 125l55 56z" />
    <glyph glyph-name="uni200F" unicode="&#x200f;" horiz-adv-x="0" 
d="M40 -273h-82v1427h-248l132 -125l-55 -55l-223 219l223 221l55 -56l-132 -125h330v-1506z" />
    <glyph glyph-name="uni202A" unicode="&#x202a;" horiz-adv-x="0" 
d="M42 1154v-1427h-83v1506h476v-79h-393z" />
    <glyph glyph-name="uni202B" unicode="&#x202b;" horiz-adv-x="0" 
d="M-435 1154v79h476v-1506h-83v1427h-393z" />
    <glyph glyph-name="uni202D" unicode="&#x202d;" horiz-adv-x="0" 
d="M238 977h-196v-1250h-84v1250h-196v434h476v-79h-395v-277h395v-78z" />
    <glyph glyph-name="uni202E" unicode="&#x202e;" horiz-adv-x="0" 
d="M-238 1055h395v277h-395v79h476v-434h-196v-1250h-84v1250h-196v78z" />
    <glyph glyph-name="uni202C" unicode="&#x202c;" horiz-adv-x="0" 
d="M238 977h-196v-1250h-84v1250h-196v434h476v-434z" />
    <glyph glyph-name="uni206E" unicode="&#x206e;" horiz-adv-x="0" 
d="M42 -273h-84v1285l-197 181l239 221l239 -221l-197 -181v-1285zM126 1193l-126 113l-126 -113l126 -112z" />
    <glyph glyph-name="uni206F" unicode="&#x206f;" horiz-adv-x="0" 
d="M-238 1055h196v277h-196v79h280v-356h196v-78h-196v-1250h-84v1250h-196v78z" />
    <glyph glyph-name="uni206A" unicode="&#x206a;" horiz-adv-x="0" 
d="M-238 1055h196v277h-196v79h476v-79h-196v-277h196v-78h-196v-1250h-84v1250h-196v78z" />
    <glyph glyph-name="uni206B" unicode="&#x206b;" horiz-adv-x="0" 
d="M-157 1055h314v277h-314v-277zM-238 977v434h476v-434h-196v-1250h-84v1250h-196z" />
    <glyph glyph-name="uni206C" unicode="&#x206c;" horiz-adv-x="0" 
d="M42 -273h-84v1318l-198 366h480l-198 -366v-1318z" />
    <glyph glyph-name="uni206D" unicode="&#x206d;" horiz-adv-x="0" 
d="M42 977v-1250h-84v1250h-198l240 441l240 -441h-198z" />
    <glyph glyph-name="Ohorn" unicode="&#x1a0;" 
d="M1117 679q0 -699 -522 -699q-262 0 -392.5 177t-130.5 522q0 691 523 691q199 0 319 -101t171 -303q75 70 75 183h-92v260h213v-210q0 -126 -43.5 -221.5t-127.5 -155.5q7 -79 7 -143zM818 679q0 232 -51.5 345.5t-171.5 113.5t-172 -115t-52 -344t52 -348t172 -119
t171.5 119t51.5 348z" />
    <glyph glyph-name="ohorn" unicode="&#x1a1;" 
d="M586 1102q462 0 489 -495q84 64 84 215h-100v260h212v-210q0 -159 -47.5 -258.5t-149.5 -145.5q-17 -234 -144 -361t-350 -127q-233 0 -360.5 146t-127.5 416q0 269 127 414.5t367 145.5zM783 542q0 191 -44.5 279t-149.5 88q-108 0 -155 -88t-47 -279
q0 -189 46.5 -279.5t144.5 -90.5q111 0 158 89.5t47 280.5z" />
    <glyph glyph-name="Uhorn" unicode="&#x1af;" 
d="M569 -20q-234 0 -337 127t-103 421v821h295v-818q0 -179 34 -249.5t119 -70.5q89 0 128.5 78.5t39.5 251.5v808h295v-449q83 19 124 84t41 165h-102v260h214v-210q0 -186 -67 -295.5t-210 -139.5v-221q0 -291 -111.5 -427t-359.5 -136z" />
    <glyph glyph-name="uhorn" unicode="&#x1b0;" 
d="M416 1082v-607q0 -164 35 -224.5t107 -60.5q83 0 130 83.5t47 228.5v580h281v-520q85 16 133 85t48 175h-101v260h212v-210q0 -189 -71 -299t-221 -139v-192q0 -87 2.5 -142.5t5.5 -99.5h-268q-4 25 -7.5 97t-4.5 118h-5q-56 -123 -125 -179t-173 -56q-154 0 -230 95
t-76 320v687h281z" />
    <glyph glyph-name="hookabovecomb" unicode="&#x309;" horiz-adv-x="0" 
d="M-231 1618q0 62 -147 62q-52 0 -108 -8l-11 102q55 11 167 11q141 0 215 -39.5t74 -112.5q0 -53 -44 -89t-138 -43v-60h-150v120q142 0 142 57z" />
    <glyph glyph-name="tildecomb" unicode="&#x303;" horiz-adv-x="0" 
d="M-427 1571q-40 0 -80 17.5t-78 38l-72 38t-61 17.5q-37 0 -57.5 -23.5t-30.5 -87.5h-124q8 102 29.5 153.5t63.5 81t110 29.5q41 0 82 -17t78.5 -38t71 -38t59.5 -17q44 0 62 29t27 81h122q-5 -98 -27 -150.5t-64 -83t-111 -30.5z" />
    <glyph glyph-name="dotbelow.alt1" horiz-adv-x="0" 
d="M-352 -366v207h281v-207h-281z" />
    <glyph glyph-name="dong" unicode="&#x20ab;" 
d="M1209 1180h-133v-944q0 -100 8 -236h-272q-4 15 -9.5 75.5t-5.5 100.5h-4q-53 -107 -131 -151.5t-185 -44.5q-181 0 -283 144.5t-102 398.5q0 262 102.5 403.5t293.5 141.5q107 0 186 -48.5t121 -142.5h2l-2 210v93h-282v169h282v135h281v-135h133v-169zM799 530
q0 168 -53.5 257.5t-157.5 89.5q-103 0 -153 -87.5t-50 -266.5q0 -351 201 -351q101 0 157 93t56 265zM162 -361v203h904v-203h-904z" />
    <glyph glyph-name="onethird" unicode="&#x2153;" 
d="M250 1159q-19 -38 -81.5 -64.5t-119.5 -26.5v165q58 0 122 33t89 83h181v-760h-191v570zM313 0h-162l738 1349h161zM1333 205q0 -105 -76 -164.5t-210 -59.5q-127 0 -198.5 53.5t-95.5 178.5l205 26q8 -58 29 -89.5t64 -31.5q82 0 82 104q0 51 -32.5 75t-104.5 24h-41
v131h37q68 0 95 24t27 80q0 45 -15 66t-50 21q-44 0 -61 -28t-22 -82l-194 12q16 114 84 171t198 57q124 0 191 -54.5t67 -148.5q0 -66 -33.5 -107t-102.5 -67v-6q82 -18 119.5 -67.5t37.5 -117.5z" />
    <glyph glyph-name="twothirds" unicode="&#x2154;" 
d="M62 589v143q31 72 87 130t137 107q79 48 110.5 86t31.5 85q0 91 -79 91q-32 0 -51.5 -12t-30.5 -33t-18 -73l-180 10q32 238 282 238q131 0 196.5 -57t65.5 -158q0 -61 -23 -106t-58.5 -79.5t-78 -61.5l-82.5 -51.5t-72 -49.5t-45 -56h350v-153h-542zM313 0h-162
l738 1349h161zM1333 205q0 -105 -76 -164.5t-210 -59.5q-127 0 -198.5 53.5t-95.5 178.5l205 26q8 -58 29 -89.5t64 -31.5q82 0 82 104q0 51 -32.5 75t-104.5 24h-41v131h37q68 0 95 24t27 80q0 45 -15 66t-50 21q-44 0 -61 -28t-22 -82l-194 12q16 114 84 171t198 57
q124 0 191 -54.5t67 -148.5q0 -66 -33.5 -107t-102.5 -67v-6q82 -18 119.5 -67.5t37.5 -117.5z" />
    <glyph glyph-name="hookabove.alt4" horiz-adv-x="0" 
d="M-209 1365q0 56 -137 56q-67 0 -120 -10l-11 108q60 12 124 12q154 0 232.5 -40.5t78.5 -115.5q0 -112 -182 -133v-50h-124v110q60 0 99.5 18t39.5 45z" />
    <glyph glyph-name="gravecomb" unicode="&#x300;" horiz-adv-x="0" 
d="M-274 1572l-281 244v38h258l172 -255v-27h-149z" />
    <glyph glyph-name="acutecomb" unicode="&#x301;" horiz-adv-x="0" 
d="M-415 1572v27l172 255h258v-38l-281 -244h-149z" />
    <glyph glyph-name="dotbelowcomb" unicode="&#x323;" horiz-adv-x="0" 
d="M-141 -366v207h281v-207h-281z" />
    <glyph glyph-name="dotlessi.alt1" 
d="M794 190h353v-190h-1029v190h395v702h-290v190h571v-892z" />
    <glyph glyph-name="Adotbelow" unicode="&#x1ea0;" 
d="M1229 0h-294l-92 330h-456l-92 -330h-295l443 1349h344zM615 1167q-8 -42 -29.5 -125.5t-136.5 -489.5h332q-117 412 -137.5 493t-28.5 122zM473 -366v207h281v-207h-281z" />
    <glyph glyph-name="adotbelow" unicode="&#x1ea1;" 
d="M439 -20q-157 0 -245 85.5t-88 240.5q0 168 104.5 255.5t312.5 90.5l223 4v55q0 103 -35 156t-113 53q-73 0 -107.5 -36.5t-42.5 -116.5l-293 14q54 321 455 321q202 0 309.5 -99t107.5 -291v-392q0 -91 20.5 -125.5t68.5 -34.5q32 0 62 6v-152l-45 -11t-40 -8t-42.5 -5
t-52.5 -2q-106 0 -156.5 52t-60.5 153h-6q-63 -113 -143.5 -163t-192.5 -50zM746 501l-134 -2q-90 -2 -130.5 -18.5t-61.5 -53t-21 -99.5q0 -152 120 -152q97 0 162 76.5t65 193.5v55zM473 -366v207h281v-207h-281z" />
    <glyph glyph-name="Ahookabove" unicode="&#x1ea2;" 
d="M1229 0h-294l-92 330h-456l-92 -330h-295l443 1349h344zM615 1167q-8 -42 -29.5 -125.5t-136.5 -489.5h332q-117 412 -137.5 493t-28.5 122zM672 1618q0 62 -147 62q-52 0 -108 -8l-11 102q55 11 167 11q141 0 215 -39.5t74 -112.5q0 -53 -44 -89t-138 -43v-60h-150v120
q142 0 142 57z" />
    <glyph glyph-name="ahookabove" unicode="&#x1ea3;" 
d="M439 -20q-157 0 -245 85.5t-88 240.5q0 168 104.5 255.5t312.5 90.5l223 4v55q0 103 -35 156t-113 53q-73 0 -107.5 -36.5t-42.5 -116.5l-293 14q54 321 455 321q202 0 309.5 -99t107.5 -291v-392q0 -91 20.5 -125.5t68.5 -34.5q32 0 62 6v-152l-45 -11t-40 -8t-42.5 -5
t-52.5 -2q-106 0 -156.5 52t-60.5 153h-6q-63 -113 -143.5 -163t-192.5 -50zM746 501l-134 -2q-90 -2 -130.5 -18.5t-61.5 -53t-21 -99.5q0 -152 120 -152q97 0 162 76.5t65 193.5v55zM664 1365q0 56 -137 56q-67 0 -120 -10l-11 108q60 12 124 12q154 0 232.5 -40.5
t78.5 -115.5q0 -112 -182 -133v-50h-124v110q60 0 99.5 18t39.5 45z" />
    <glyph glyph-name="Acircumflexacute" unicode="&#x1ea4;" 
d="M1229 0h-294l-92 330h-456l-92 -330h-295l443 1349h344zM615 1167q-8 -42 -29.5 -125.5t-136.5 -489.5h332q-117 412 -137.5 493t-28.5 122zM926 1800h217v-12l-226 -176h-96v10zM937 1447v-20h-105l-219 169h-2l-222 -169h-104v20l224 270h204z" />
    <glyph glyph-name="acircumflexacute" unicode="&#x1ea5;" 
d="M439 -20q-157 0 -245 85.5t-88 240.5q0 168 104.5 255.5t312.5 90.5l223 4v55q0 103 -35 156t-113 53q-73 0 -107.5 -36.5t-42.5 -116.5l-293 14q54 321 455 321q202 0 309.5 -99t107.5 -291v-392q0 -91 20.5 -125.5t68.5 -34.5q32 0 62 6v-152l-45 -11t-40 -8t-42.5 -5
t-52.5 -2q-106 0 -156.5 52t-60.5 153h-6q-63 -113 -143.5 -163t-192.5 -50zM746 501l-134 -2q-90 -2 -130.5 -18.5t-61.5 -53t-21 -99.5q0 -152 120 -152q97 0 162 76.5t65 193.5v55zM966 1574h217v-12l-206 -176h-116v10zM983 1211v-28h-159l-203 192h-4l-211 -192h-160
v28l258 318h229z" />
    <glyph glyph-name="Acircumflexgrave" unicode="&#x1ea6;" 
d="M1229 0h-294l-92 330h-456l-92 -330h-295l443 1349h344zM615 1167q-8 -42 -29.5 -125.5t-136.5 -489.5h332q-117 412 -137.5 493t-28.5 122zM406 1622v-10h-96l-226 176v12h217zM514 1717h204l224 -270v-20h-104l-222 169h-2l-219 -169h-105v20z" />
    <glyph glyph-name="acircumflexgrave" unicode="&#x1ea7;" 
d="M439 -20q-157 0 -245 85.5t-88 240.5q0 168 104.5 255.5t312.5 90.5l223 4v55q0 103 -35 156t-113 53q-73 0 -107.5 -36.5t-42.5 -116.5l-293 14q54 321 455 321q202 0 309.5 -99t107.5 -291v-392q0 -91 20.5 -125.5t68.5 -34.5q32 0 62 6v-152l-45 -11t-40 -8t-42.5 -5
t-52.5 -2q-106 0 -156.5 52t-60.5 153h-6q-63 -113 -143.5 -163t-192.5 -50zM746 501l-134 -2q-90 -2 -130.5 -18.5t-61.5 -53t-21 -99.5q0 -152 120 -152q97 0 162 76.5t65 193.5v55zM373 1396v-10h-116l-206 176v12h217zM501 1529h229l258 -318v-28h-160l-211 192h-4
l-203 -192h-159v28z" />
    <glyph glyph-name="Acircumflexhookabove" unicode="&#x1ea8;" 
d="M1229 0h-294l-92 330h-456l-92 -330h-295l443 1349h344zM615 1167q-8 -42 -29.5 -125.5t-136.5 -489.5h332q-117 412 -137.5 493t-28.5 122zM954 1696q0 35 -59 35q-51 0 -91 -16l-20 64q58 20 125 20q152 0 152 -96q0 -44 -33.5 -72t-87.5 -28v-23h-61v78q75 0 75 38z
M937 1446v-20h-105l-219 169h-2l-222 -169h-104v20l224 270h204z" />
    <glyph glyph-name="acircumflexhookabove" unicode="&#x1ea9;" 
d="M439 -20q-157 0 -245 85.5t-88 240.5q0 168 104.5 255.5t312.5 90.5l223 4v55q0 103 -35 156t-113 53q-73 0 -107.5 -36.5t-42.5 -116.5l-293 14q54 321 455 321q202 0 309.5 -99t107.5 -291v-392q0 -91 20.5 -125.5t68.5 -34.5q32 0 62 6v-152l-45 -11t-40 -8t-42.5 -5
t-52.5 -2q-106 0 -156.5 52t-60.5 153h-6q-63 -113 -143.5 -163t-192.5 -50zM746 501l-134 -2q-90 -2 -130.5 -18.5t-61.5 -53t-21 -99.5q0 -152 120 -152q97 0 162 76.5t65 193.5v55zM983 1211v-28h-159l-203 134h-4l-211 -134h-160v28l258 250h229zM989 1524q0 44 -76 44
q-61 0 -114 -19l-26 80q70 24 159 24q192 0 192 -112q0 -48 -33 -82.5t-106 -43.5v-38h-91v94q42 2 68.5 11t26.5 42z" />
    <glyph glyph-name="Acircumflextilde" unicode="&#x1eaa;" 
d="M1229 0h-294l-92 330h-456l-92 -330h-295l443 1349h344zM615 1167q-8 -42 -29.5 -125.5t-136.5 -489.5h332q-117 412 -137.5 493t-28.5 122zM741 1606q-51 0 -135 38q-85 37 -121 37q-45 0 -67.5 -17.5t-30.5 -57.5h-91q11 82 32.5 118t59.5 56t101 20q55 0 138 -37
q83 -38 117 -38q48 0 69.5 19t27.5 56h92q-12 -81 -33 -118t-58.5 -56.5t-100.5 -19.5zM615 1494l-151 -67h-155v12l209 141h195l208 -143v-10h-155z" />
    <glyph glyph-name="acircumflextilde" unicode="&#x1eab;" 
d="M439 -20q-157 0 -245 85.5t-88 240.5q0 168 104.5 255.5t312.5 90.5l223 4v55q0 103 -35 156t-113 53q-73 0 -107.5 -36.5t-42.5 -116.5l-293 14q54 321 455 321q202 0 309.5 -99t107.5 -291v-392q0 -91 20.5 -125.5t68.5 -34.5q32 0 62 6v-152l-45 -11t-40 -8t-42.5 -5
t-52.5 -2q-106 0 -156.5 52t-60.5 153h-6q-63 -113 -143.5 -163t-192.5 -50zM746 501l-134 -2q-90 -2 -130.5 -18.5t-61.5 -53t-21 -99.5q0 -152 120 -152q97 0 162 76.5t65 193.5v55zM765 1523q-40 0 -80 17.5t-78 38l-72 38t-61 17.5q-37 0 -57.5 -23.5t-30.5 -87.5h-124
q8 102 29.5 153.5t63.5 81t110 29.5q41 0 82 -17t78.5 -38t71 -38t59.5 -17q44 0 62 29t27 81h122q-5 -98 -27 -150.5t-64 -83t-111 -30.5zM983 1211v-28h-159l-203 134h-4l-211 -134h-160v28l258 250h229z" />
    <glyph glyph-name="Acircumflexdotbelow" unicode="&#x1eac;" 
d="M1229 0h-294l-92 330h-456l-92 -330h-295l443 1349h344zM615 1167q-8 -42 -29.5 -125.5t-136.5 -489.5h332q-117 412 -137.5 493t-28.5 122zM473 -366v207h281v-207h-281zM983 1457v-28h-159l-203 134h-4l-211 -134h-160v28l258 250h229z" />
    <glyph glyph-name="acircumflexdotbelow" unicode="&#x1ead;" 
d="M439 -20q-157 0 -245 85.5t-88 240.5q0 168 104.5 255.5t312.5 90.5l223 4v55q0 103 -35 156t-113 53q-73 0 -107.5 -36.5t-42.5 -116.5l-293 14q54 321 455 321q202 0 309.5 -99t107.5 -291v-392q0 -91 20.5 -125.5t68.5 -34.5q32 0 62 6v-152l-45 -11t-40 -8t-42.5 -5
t-52.5 -2q-106 0 -156.5 52t-60.5 153h-6q-63 -113 -143.5 -163t-192.5 -50zM746 501l-134 -2q-90 -2 -130.5 -18.5t-61.5 -53t-21 -99.5q0 -152 120 -152q97 0 162 76.5t65 193.5v55zM983 1211v-28h-159l-203 134h-4l-211 -134h-160v28l258 250h229zM473 -366v207h281v-207
h-281z" />
    <glyph glyph-name="Abreveacute" unicode="&#x1eae;" 
d="M1229 0h-294l-92 330h-456l-92 -330h-295l443 1349h344zM615 1167q-8 -42 -29.5 -125.5t-136.5 -489.5h332q-117 412 -137.5 493t-28.5 122zM649 1802h226v-12l-221 -146h-130v10zM613 1429q-129 0 -211.5 66.5t-100.5 182.5h107q17 -68 70 -95.5t137 -27.5t136 28t69 95
h107q-22 -120 -103.5 -184.5t-210.5 -64.5z" />
    <glyph glyph-name="abreveacute" unicode="&#x1eaf;" 
d="M439 -20q-157 0 -245 85.5t-88 240.5q0 168 104.5 255.5t312.5 90.5l223 4v55q0 103 -35 156t-113 53q-73 0 -107.5 -36.5t-42.5 -116.5l-293 14q54 321 455 321q202 0 309.5 -99t107.5 -291v-392q0 -91 20.5 -125.5t68.5 -34.5q32 0 62 6v-152l-45 -11t-40 -8t-42.5 -5
t-52.5 -2q-106 0 -156.5 52t-60.5 153h-6q-63 -113 -143.5 -163t-192.5 -50zM746 501l-134 -2q-90 -2 -130.5 -18.5t-61.5 -53t-21 -99.5q0 -152 120 -152q97 0 162 76.5t65 193.5v55zM611 1183q-161 0 -251 72.5t-101 205.5h163q15 -121 191 -121q88 0 132 29t58 92h164
q-34 -278 -356 -278zM484 1512v31l252 243h258v-43l-340 -231h-170z" />
    <glyph glyph-name="Abrevegrave" unicode="&#x1eb0;" 
d="M1229 0h-294l-92 330h-456l-92 -330h-295l443 1349h344zM615 1167q-8 -42 -29.5 -125.5t-136.5 -489.5h332q-117 412 -137.5 493t-28.5 122zM706 1654v-10h-130l-221 146v12h226zM613 1429q-129 0 -211.5 66.5t-100.5 182.5h107q17 -68 70 -95.5t137 -27.5t136 28t69 95
h107q-22 -120 -103.5 -184.5t-210.5 -64.5z" />
    <glyph glyph-name="abrevegrave" unicode="&#x1eb1;" 
d="M439 -20q-157 0 -245 85.5t-88 240.5q0 168 104.5 255.5t312.5 90.5l223 4v55q0 103 -35 156t-113 53q-73 0 -107.5 -36.5t-42.5 -116.5l-293 14q54 321 455 321q202 0 309.5 -99t107.5 -291v-392q0 -91 20.5 -125.5t68.5 -34.5q32 0 62 6v-152l-45 -11t-40 -8t-42.5 -5
t-52.5 -2q-106 0 -156.5 52t-60.5 153h-6q-63 -113 -143.5 -163t-192.5 -50zM746 501l-134 -2q-90 -2 -130.5 -18.5t-61.5 -53t-21 -99.5q0 -152 120 -152q97 0 162 76.5t65 193.5v55zM612 1183q-322 0 -356 278h164q14 -63 58 -92t132 -29q176 0 191 121h163
q-11 -133 -101 -205.5t-251 -72.5zM569 1512l-340 231v43h258l252 -243v-31h-170z" />
    <glyph glyph-name="Abrevehookabove" unicode="&#x1eb2;" 
d="M1229 0h-294l-92 330h-456l-92 -330h-295l443 1349h344zM615 1167q-8 -42 -29.5 -125.5t-136.5 -489.5h332q-117 412 -137.5 493t-28.5 122zM613 1429q-129 0 -211.5 66.5t-100.5 182.5h107q17 -68 70 -95.5t137 -27.5t136 28t69 95h107q-22 -120 -103.5 -184.5
t-210.5 -64.5zM643 1699q0 35 -59 35q-51 0 -91 -16l-20 64q58 20 125 20q152 0 152 -96q0 -48 -37 -74t-110 -26h-35v55q75 0 75 38z" />
    <glyph glyph-name="abrevehookabove" unicode="&#x1eb3;" 
d="M439 -20q-157 0 -245 85.5t-88 240.5q0 168 104.5 255.5t312.5 90.5l223 4v55q0 103 -35 156t-113 53q-73 0 -107.5 -36.5t-42.5 -116.5l-293 14q54 321 455 321q202 0 309.5 -99t107.5 -291v-392q0 -91 20.5 -125.5t68.5 -34.5q32 0 62 6v-152l-45 -11t-40 -8t-42.5 -5
t-52.5 -2q-106 0 -156.5 52t-60.5 153h-6q-63 -113 -143.5 -163t-192.5 -50zM746 501l-134 -2q-90 -2 -130.5 -18.5t-61.5 -53t-21 -99.5q0 -152 120 -152q97 0 162 76.5t65 193.5v55zM685 1627q0 62 -147 62q-52 0 -108 -8l-11 102q55 11 167 11q141 0 215 -39.5t74 -112.5
q0 -53 -44 -89t-138 -43v-30h-150v90q142 0 142 57zM612 1183q-161 0 -251 72.5t-101 205.5h163q15 -121 191 -121q88 0 132 29t58 92h164q-34 -278 -356 -278z" />
    <glyph glyph-name="Abrevetilde" unicode="&#x1eb4;" 
d="M1229 0h-294l-92 330h-456l-92 -330h-295l443 1349h344zM615 1167q-8 -42 -29.5 -125.5t-136.5 -489.5h332q-117 412 -137.5 493t-28.5 122zM615 1429q-102 0 -168.5 53t-80.5 146h85q29 -83 166 -83q135 0 164 83h85q-21 -100 -85.5 -149.5t-165.5 -49.5zM741 1648
q-35 0 -69 9.5t-66.5 20.5l-63 20.5t-57.5 9.5q-81 0 -98 -60h-91q12 65 33 93.5t58.5 44.5t101.5 16q36 0 71 -9.5t67 -20.5l61.5 -20.5t55.5 -9.5q48 0 69.5 15.5t27.5 44.5h92q-11 -64 -32 -93.5t-59 -45t-101 -15.5z" />
    <glyph glyph-name="abrevetilde" unicode="&#x1eb5;" 
d="M439 -20q-157 0 -245 85.5t-88 240.5q0 168 104.5 255.5t312.5 90.5l223 4v55q0 103 -35 156t-113 53q-73 0 -107.5 -36.5t-42.5 -116.5l-293 14q54 321 455 321q202 0 309.5 -99t107.5 -291v-392q0 -91 20.5 -125.5t68.5 -34.5q32 0 62 6v-152l-45 -11t-40 -8t-42.5 -5
t-52.5 -2q-106 0 -156.5 52t-60.5 153h-6q-63 -113 -143.5 -163t-192.5 -50zM746 501l-134 -2q-90 -2 -130.5 -18.5t-61.5 -53t-21 -99.5q0 -152 120 -152q97 0 162 76.5t65 193.5v55zM768 1521q-40 0 -80 17.5t-78 38l-72 38t-61 17.5q-37 0 -57.5 -23.5t-30.5 -87.5h-124
q8 102 29.5 153.5t63.5 81t110 29.5q41 0 82 -17t78.5 -38t71 -38t59.5 -17q44 0 62 29t27 81h122q-5 -98 -27 -150.5t-64 -83t-111 -30.5zM609 1183q-161 0 -251 72.5t-101 205.5h163q15 -121 191 -121q88 0 132 29t58 92h164q-34 -278 -356 -278z" />
    <glyph glyph-name="Abrevedotbelow" unicode="&#x1eb6;" 
d="M1229 0h-294l-92 330h-456l-92 -330h-295l443 1349h344zM615 1167q-8 -42 -29.5 -125.5t-136.5 -489.5h332q-117 412 -137.5 493t-28.5 122zM473 -366v207h281v-207h-281zM604 1429q-161 0 -251 72.5t-101 205.5h163q15 -121 191 -121q88 0 132 29t58 92h164
q-34 -278 -356 -278z" />
    <glyph glyph-name="abrevedotbelow" unicode="&#x1eb7;" 
d="M439 -20q-157 0 -245 85.5t-88 240.5q0 168 104.5 255.5t312.5 90.5l223 4v55q0 103 -35 156t-113 53q-73 0 -107.5 -36.5t-42.5 -116.5l-293 14q54 321 455 321q202 0 309.5 -99t107.5 -291v-392q0 -91 20.5 -125.5t68.5 -34.5q32 0 62 6v-152l-45 -11t-40 -8t-42.5 -5
t-52.5 -2q-106 0 -156.5 52t-60.5 153h-6q-63 -113 -143.5 -163t-192.5 -50zM746 501l-134 -2q-90 -2 -130.5 -18.5t-61.5 -53t-21 -99.5q0 -152 120 -152q97 0 162 76.5t65 193.5v55zM612 1183q-161 0 -251 72.5t-101 205.5h163q15 -121 191 -121q88 0 132 29t58 92h164
q-34 -278 -356 -278zM473 -366v207h281v-207h-281z" />
    <glyph glyph-name="Edotbelow" unicode="&#x1eb8;" 
d="M137 0v1349h968v-228h-673v-324h612v-228h-612v-341h714v-228h-1009zM473 -366v207h281v-207h-281z" />
    <glyph glyph-name="edotbelow" unicode="&#x1eb9;" 
d="M626 -20q-252 0 -389 148.5t-137 417.5q0 180 64.5 304t183.5 188t282 64q237 0 368 -158t131 -449v-8h-734q0 -147 65.5 -233t179.5 -86q74 0 131 31.5t77 97.5l265 -23q-55 -141 -183 -217.5t-304 -76.5zM626 925q-103 0 -164 -69.5t-65 -192.5h460q-7 120 -68.5 191
t-162.5 71zM493 -366v207h281v-207h-281z" />
    <glyph glyph-name="Ehookabove" unicode="&#x1eba;" 
d="M137 0v1349h968v-228h-673v-324h612v-228h-612v-341h714v-228h-1009zM672 1618q0 62 -147 62q-52 0 -108 -8l-11 102q55 11 167 11q141 0 215 -39.5t74 -112.5q0 -53 -44 -89t-138 -43v-60h-150v120q142 0 142 57z" />
    <glyph glyph-name="ehookabove" unicode="&#x1ebb;" 
d="M626 -20q-252 0 -389 148.5t-137 417.5q0 180 64.5 304t183.5 188t282 64q237 0 368 -158t131 -449v-8h-734q0 -147 65.5 -233t179.5 -86q74 0 131 31.5t77 97.5l265 -23q-55 -141 -183 -217.5t-304 -76.5zM626 925q-103 0 -164 -69.5t-65 -192.5h460q-7 120 -68.5 191
t-162.5 71zM684 1365q0 56 -137 56q-67 0 -120 -10l-11 108q60 12 124 12q154 0 232.5 -40.5t78.5 -115.5q0 -112 -182 -133v-50h-124v110q60 0 99.5 18t39.5 45z" />
    <glyph glyph-name="Etilde" unicode="&#x1ebc;" 
d="M137 0v1349h968v-228h-673v-324h612v-228h-612v-341h714v-228h-1009zM801 1422q-44 0 -88.5 17.5t-86.5 39l-79.5 39t-67.5 17.5q-45 0 -67 -23.5t-31 -89.5h-137q12 156 67.5 219.5t157.5 63.5q45 0 90 -17.5t87 -39l78.5 -39t65.5 -17.5q47 0 69 26.5t30 86.5h135
q-8 -111 -34 -168t-73.5 -86t-115.5 -29z" />
    <glyph glyph-name="etilde" unicode="&#x1ebd;" 
d="M626 -20q-252 0 -389 148.5t-137 417.5q0 180 64.5 304t183.5 188t282 64q237 0 368 -158t131 -449v-8h-734q0 -147 65.5 -233t179.5 -86q74 0 131 31.5t77 97.5l265 -23q-55 -141 -183 -217.5t-304 -76.5zM626 925q-103 0 -164 -69.5t-65 -192.5h460q-7 120 -68.5 191
t-162.5 71zM801 1183q-44 0 -88.5 17.5t-86.5 39l-79.5 39t-67.5 17.5q-45 0 -67 -23.5t-31 -89.5h-137q12 156 67.5 219.5t157.5 63.5q45 0 90 -17.5t87 -39l78.5 -39t65.5 -17.5q47 0 69 26.5t30 86.5h135q-8 -111 -34 -168t-73.5 -86t-115.5 -29z" />
    <glyph glyph-name="Ecircumflexacute" unicode="&#x1ebe;" 
d="M137 0v1349h968v-228h-673v-324h612v-228h-612v-341h714v-228h-1009zM946 1800h217v-12l-226 -176h-96v10zM957 1447v-20h-105l-219 169h-2l-222 -169h-104v20l224 270h204z" />
    <glyph glyph-name="ecircumflexacute" unicode="&#x1ebf;" 
d="M626 -20q-252 0 -389 148.5t-137 417.5q0 180 64.5 304t183.5 188t282 64q237 0 368 -158t131 -449v-8h-734q0 -147 65.5 -233t179.5 -86q74 0 131 31.5t77 97.5l265 -23q-55 -141 -183 -217.5t-304 -76.5zM626 925q-103 0 -164 -69.5t-65 -192.5h460q-7 120 -68.5 191
t-162.5 71zM986 1574h217v-12l-206 -176h-116v10zM1003 1211v-28h-159l-203 192h-4l-211 -192h-160v28l258 318h229z" />
    <glyph glyph-name="Ecircumflexgrave" unicode="&#x1ec0;" 
d="M137 0v1349h968v-228h-673v-324h612v-228h-612v-341h714v-228h-1009zM425 1622v-10h-96l-226 176v12h217zM533 1717h204l224 -270v-20h-104l-222 169h-2l-219 -169h-105v20z" />
    <glyph glyph-name="ecircumflexgrave" unicode="&#x1ec1;" 
d="M626 -20q-252 0 -389 148.5t-137 417.5q0 180 64.5 304t183.5 188t282 64q237 0 368 -158t131 -449v-8h-734q0 -147 65.5 -233t179.5 -86q74 0 131 31.5t77 97.5l265 -23q-55 -141 -183 -217.5t-304 -76.5zM626 925q-103 0 -164 -69.5t-65 -192.5h460q-7 120 -68.5 191
t-162.5 71zM385 1396v-10h-116l-206 176v12h217zM513 1529h229l258 -318v-28h-160l-211 192h-4l-203 -192h-159v28z" />
    <glyph glyph-name="Ecircumflexhookabove" unicode="&#x1ec2;" 
d="M137 0v1349h968v-228h-673v-324h612v-228h-612v-341h714v-228h-1009zM974 1696q0 35 -59 35q-51 0 -91 -16l-20 64q58 20 125 20q152 0 152 -96q0 -44 -33.5 -72t-87.5 -28v-23h-61v78q75 0 75 38zM957 1446v-20h-105l-219 169h-2l-222 -169h-104v20l224 270h204z" />
    <glyph glyph-name="ecircumflexhookabove" unicode="&#x1ec3;" 
d="M626 -20q-252 0 -389 148.5t-137 417.5q0 180 64.5 304t183.5 188t282 64q237 0 368 -158t131 -449v-8h-734q0 -147 65.5 -233t179.5 -86q74 0 131 31.5t77 97.5l265 -23q-55 -141 -183 -217.5t-304 -76.5zM626 925q-103 0 -164 -69.5t-65 -192.5h460q-7 120 -68.5 191
t-162.5 71zM995 1211v-28h-159l-203 134h-4l-211 -134h-160v28l258 250h229zM1001 1524q0 44 -76 44q-61 0 -114 -19l-26 80q70 24 159 24q192 0 192 -112q0 -48 -33 -82.5t-106 -43.5v-38h-91v94q42 2 68.5 11t26.5 42z" />
    <glyph glyph-name="Ecircumflextilde" unicode="&#x1ec4;" 
d="M137 0v1349h968v-228h-673v-324h612v-228h-612v-341h714v-228h-1009zM760 1606q-51 0 -135 38q-85 37 -121 37q-45 0 -67.5 -17.5t-30.5 -57.5h-91q11 82 32.5 118t59.5 56t101 20q55 0 138 -37q83 -38 117 -38q48 0 69.5 19t27.5 56h92q-12 -81 -33 -118t-58.5 -56.5
t-100.5 -19.5zM634 1494l-151 -67h-155v12l209 141h195l208 -143v-10h-155z" />
    <glyph glyph-name="ecircumflextilde" unicode="&#x1ec5;" 
d="M626 -20q-252 0 -389 148.5t-137 417.5q0 180 64.5 304t183.5 188t282 64q237 0 368 -158t131 -449v-8h-734q0 -147 65.5 -233t179.5 -86q74 0 131 31.5t77 97.5l265 -23q-55 -141 -183 -217.5t-304 -76.5zM626 925q-103 0 -164 -69.5t-65 -192.5h460q-7 120 -68.5 191
t-162.5 71zM753 1523q-40 0 -80 17.5t-78 38l-72 38t-61 17.5q-37 0 -57.5 -23.5t-30.5 -87.5h-124q8 102 29.5 153.5t63.5 81t110 29.5q41 0 82 -17t78.5 -38t71 -38t59.5 -17q44 0 62 29t27 81h122q-5 -98 -27 -150.5t-64 -83t-111 -30.5zM971 1211v-28h-159l-203 134h-4
l-211 -134h-160v28l258 250h229z" />
    <glyph glyph-name="Ecircumflexdotbelow" unicode="&#x1ec6;" 
d="M137 0v1349h968v-228h-673v-324h612v-228h-612v-341h714v-228h-1009zM1030 1457v-28h-159l-203 134h-4l-211 -134h-160v28l258 250h229zM533 -366v207h281v-207h-281z" />
    <glyph glyph-name="ecircumflexdotbelow" unicode="&#x1ec7;" 
d="M626 -20q-252 0 -389 148.5t-137 417.5q0 180 64.5 304t183.5 188t282 64q237 0 368 -158t131 -449v-8h-734q0 -147 65.5 -233t179.5 -86q74 0 131 31.5t77 97.5l265 -23q-55 -141 -183 -217.5t-304 -76.5zM626 925q-103 0 -164 -69.5t-65 -192.5h460q-7 120 -68.5 191
t-162.5 71zM1003 1211v-28h-159l-203 134h-4l-211 -134h-160v28l258 250h229zM478 -366v207h281v-207h-281z" />
    <glyph glyph-name="Ihookabove" unicode="&#x1ec8;" 
d="M157 1349h916v-228h-311v-893h311v-228h-916v228h311v893h-311v228zM652 1618q0 62 -147 62q-52 0 -108 -8l-11 102q55 11 167 11q141 0 215 -39.5t74 -112.5q0 -53 -44 -89t-138 -43v-60h-150v120q142 0 142 57z" />
    <glyph glyph-name="ihookabove" unicode="&#x1ec9;" 
d="M794 190h353v-190h-1029v190h395v702h-290v190h571v-892zM664 1365q0 56 -137 56q-67 0 -120 -10l-11 108q60 12 124 12q154 0 232.5 -40.5t78.5 -115.5q0 -112 -182 -133v-50h-124v110q60 0 99.5 18t39.5 45z" />
    <glyph glyph-name="Idotbelow" unicode="&#x1eca;" 
d="M157 1349h916v-228h-311v-893h311v-228h-916v228h311v893h-311v228zM473 -366v207h281v-207h-281z" />
    <glyph glyph-name="idotbelow" unicode="&#x1ecb;" 
d="M794 190h353v-190h-1029v190h395v702h-290v190h571v-892zM513 1277v207h281v-207h-281zM503 -366v207h281v-207h-281z" />
    <glyph glyph-name="Odotbelow" unicode="&#x1ecc;" 
d="M1157 679q0 -345 -140 -522t-402 -177t-402.5 177t-140.5 522t140.5 518t402.5 173t402 -173t140 -518zM858 679q0 459 -243 459q-244 0 -244 -459q0 -230 61.5 -348.5t182.5 -118.5t182 118.5t61 348.5zM473 -366v207h281v-207h-281z" />
    <glyph glyph-name="odotbelow" unicode="&#x1ecd;" 
d="M1137 542q0 -269 -136 -415.5t-391 -146.5q-246 0 -382 146.5t-136 415.5q0 268 135 414t389 146q521 0 521 -560zM843 542q0 192 -51 279.5t-172 87.5q-124 0 -178.5 -88t-54.5 -279q0 -193 55.5 -281.5t164.5 -88.5q124 0 180 87.5t56 282.5zM473 -366v207h281v-207
h-281z" />
    <glyph glyph-name="Ohookabove" unicode="&#x1ece;" 
d="M1157 679q0 -345 -140 -522t-402 -177t-402.5 177t-140.5 522t140.5 518t402.5 173t402 -173t140 -518zM858 679q0 459 -243 459q-244 0 -244 -459q0 -230 61.5 -348.5t182.5 -118.5t182 118.5t61 348.5zM672 1618q0 62 -147 62q-52 0 -108 -8l-11 102q55 11 167 11
q141 0 215 -39.5t74 -112.5q0 -53 -44 -89t-138 -43v-60h-150v120q142 0 142 57z" />
    <glyph glyph-name="ohookabove" unicode="&#x1ecf;" 
d="M1137 542q0 -269 -136 -415.5t-391 -146.5q-246 0 -382 146.5t-136 415.5q0 268 135 414t389 146q521 0 521 -560zM843 542q0 192 -51 279.5t-172 87.5q-124 0 -178.5 -88t-54.5 -279q0 -193 55.5 -281.5t164.5 -88.5q124 0 180 87.5t56 282.5zM664 1365q0 56 -137 56
q-67 0 -120 -10l-11 108q60 12 124 12q154 0 232.5 -40.5t78.5 -115.5q0 -112 -182 -133v-50h-124v110q60 0 99.5 18t39.5 45z" />
    <glyph glyph-name="Ocircumflexacute" unicode="&#x1ed0;" 
d="M1157 679q0 -345 -140 -522t-402 -177t-402.5 177t-140.5 522t140.5 518t402.5 173t402 -173t140 -518zM858 679q0 459 -243 459q-244 0 -244 -459q0 -230 61.5 -348.5t182.5 -118.5t182 118.5t61 348.5zM926 1800h217v-12l-226 -176h-96v10zM937 1447v-20h-105l-219 169
h-2l-222 -169h-104v20l224 270h204z" />
    <glyph glyph-name="ocircumflexacute" unicode="&#x1ed1;" 
d="M1137 542q0 -269 -136 -415.5t-391 -146.5q-246 0 -382 146.5t-136 415.5q0 268 135 414t389 146q521 0 521 -560zM843 542q0 192 -51 279.5t-172 87.5q-124 0 -178.5 -88t-54.5 -279q0 -193 55.5 -281.5t164.5 -88.5q124 0 180 87.5t56 282.5zM966 1574h217v-12
l-206 -176h-116v10zM983 1211v-28h-159l-203 192h-4l-211 -192h-160v28l258 318h229z" />
    <glyph glyph-name="Ocircumflexgrave" unicode="&#x1ed2;" 
d="M1157 679q0 -345 -140 -522t-402 -177t-402.5 177t-140.5 522t140.5 518t402.5 173t402 -173t140 -518zM858 679q0 459 -243 459q-244 0 -244 -459q0 -230 61.5 -348.5t182.5 -118.5t182 118.5t61 348.5zM406 1622v-10h-96l-226 176v12h217zM514 1717h204l224 -270v-20
h-104l-222 169h-2l-219 -169h-105v20z" />
    <glyph glyph-name="ocircumflexgrave" unicode="&#x1ed3;" 
d="M1137 542q0 -269 -136 -415.5t-391 -146.5q-246 0 -382 146.5t-136 415.5q0 268 135 414t389 146q521 0 521 -560zM843 542q0 192 -51 279.5t-172 87.5q-124 0 -178.5 -88t-54.5 -279q0 -193 55.5 -281.5t164.5 -88.5q124 0 180 87.5t56 282.5zM373 1396v-10h-116
l-206 176v12h217zM501 1529h229l258 -318v-28h-160l-211 192h-4l-203 -192h-159v28z" />
    </font>
</defs>
</svg>
