<svg xmlns:dc="http://purl.org/dc/elements/1.1/" xmlns:cc="http://creativecommons.org/ns#" xmlns:rdf="http://www.w3.org/1999/02/22-rdf-syntax-ns#" xmlns:svg="http://www.w3.org/2000/svg" xmlns="http://www.w3.org/2000/svg" xmlns:sodipodi="http://sodipodi.sourceforge.net/DTD/sodipodi-0.dtd" xmlns:inkscape="http://www.inkscape.org/namespaces/inkscape" version="1.1" x="0px" y="0px" viewBox="10 6 52 55.5"><g transform="translate(0,-982.36218)"><path style="text-indent:0;text-transform:none;direction:ltr;block-progression:tb;baseline-shift:baseline;color:#000000;enable-background:accumulate;" d="m 34.9999,996.36218 c -0.675,0 -1.3452,0.3217 -1.6874,0.9375 l -20.9994,38.00002 c -0.7934,1.3003 -0.024,3.0145 1.6874,3.0625 l 41.9989,0 c 1.3622,0 2.5993,-1.5543 1.6874,-3.0625 L 36.6874,997.29968 c -0.3422,-0.6158 -1.0124,-0.9375 -1.6875,-0.9375 z m 0,6.06252 17.5933,31.875 -35.1866,0 z m 0,5.9062 c -1.1045,0 -1.9999,0.8954 -1.9999,2 l 0,15 c 0,1.1047 0.8954,2 1.9999,2 1.1046,0 2,-0.8953 2,-2 l 0,-15 c 0,-1.1046 -0.8954,-2 -2,-2 z m 0,20 c -1.1045,0 -1.9999,0.8955 -1.9999,2 0,1.1046 0.8954,2 1.9999,2 1.1046,0 2,-0.8954 2,-2 0,-1.1045 -0.8954,-2 -2,-2 z" fill="#000000" fill-opacity="1" stroke="none" marker="none" visibility="visible" display="inline" overflow="visible"/></g>
<!-- <text x="0" y="85" fill="#000000" font-size="5px" font-weight="bold" font-family="'Helvetica Neue', Helvetica, Arial-Unicode, Arial, Sans-serif">Created by unlimicon</text><text x="0" y="90" fill="#000000" font-size="5px" font-weight="bold" font-family="'Helvetica Neue', Helvetica, Arial-Unicode, Arial, Sans-serif">from the Noun Project</text> -->
</svg>